<svg width="19" height="18" viewBox="0 0 19 18" fill="none" xmlns="http://www.w3.org/2000/svg">
<path d="M9.04175 17.0002C9.04175 17.0002 15.0417 12.2002 15.0417 7.00024C15.0417 3.68664 12.3553 1.00024 9.04175 1.00024C5.72815 1.00024 3.04175 3.68664 3.04175 7.00024C3.04175 12.2002 9.04175 17.0002 9.04175 17.0002Z" stroke="#121212" stroke-width="2" stroke-linejoin="round"/>
<path d="M9.04331 9.40034C9.35848 9.40034 9.67057 9.33826 9.96175 9.21765C10.2529 9.09704 10.5175 8.92026 10.7404 8.6974C10.9632 8.47454 11.14 8.20996 11.2606 7.91878C11.3812 7.6276 11.4433 7.31551 11.4433 7.00034C11.4433 6.68517 11.3812 6.37308 11.2606 6.0819C11.14 5.79072 10.9632 5.52615 10.7404 5.30329C10.5175 5.08042 10.2529 4.90364 9.96175 4.78303C9.67057 4.66242 9.35848 4.60034 9.04331 4.60034C8.40679 4.60034 7.79634 4.8532 7.34625 5.30329C6.89617 5.75337 6.64331 6.36382 6.64331 7.00034C6.64331 7.63686 6.89617 8.24731 7.34625 8.6974C7.79634 9.14749 8.40679 9.40034 9.04331 9.40034Z" stroke="#121212" stroke-width="2" stroke-linejoin="round"/>
</svg>
