<svg width="20" height="20" viewBox="0 0 20 20" fill="none" xmlns="http://www.w3.org/2000/svg">
<g clip-path="url(#clip0_749_16605)">
<path d="M1.96746 5.31669C1.96255 5.22589 1.93981 5.13695 1.90052 5.05494C1.86123 4.97294 1.80618 4.89947 1.7385 4.83874C1.67081 4.77801 1.59183 4.7312 1.50606 4.70099C1.42029 4.67078 1.3294 4.65776 1.2386 4.66267C1.14779 4.66757 1.05884 4.69032 0.976824 4.7296C0.894809 4.76889 0.821335 4.82394 0.760597 4.89161C0.699859 4.95929 0.653047 5.03826 0.622834 5.12402C0.59262 5.20979 0.579596 5.30066 0.584506 5.39146L1.96746 5.31669ZM2.85928 1.77841C2.73803 1.91239 2.67397 2.08846 2.68078 2.26902C2.68758 2.44958 2.76472 2.62033 2.89571 2.7448C3.0267 2.86927 3.20117 2.93761 3.38186 2.93521C3.56256 2.93282 3.73515 2.85988 3.8628 2.73198L2.85928 1.77841ZM8.34864 17.2128C8.42563 17.2624 8.5117 17.2963 8.60187 17.3124C8.69203 17.3285 8.7845 17.3266 8.87392 17.3067C8.96333 17.2868 9.04792 17.2494 9.12277 17.1966C9.19762 17.1439 9.26126 17.0767 9.30999 16.9992C9.35872 16.9216 9.39158 16.8352 9.40667 16.7449C9.42175 16.6545 9.41876 16.5621 9.39787 16.4729C9.37698 16.3838 9.33859 16.2996 9.28495 16.2254C9.23131 16.1511 9.16346 16.0883 9.08535 16.0404L8.34864 17.2128ZM12.456 17.4399C12.2761 17.4023 12.0887 17.4377 11.935 17.5383C11.7812 17.6389 11.6737 17.7964 11.6362 17.9762C11.5986 18.156 11.634 18.3434 11.7346 18.4971C11.8352 18.6509 11.9927 18.7584 12.1725 18.7959L12.456 17.4399ZM12.9471 13.273L13.3672 12.8299L12.3627 11.8763L11.9427 12.3194L12.9471 13.273ZM14.751 12.6434L16.5144 13.6588L17.2058 12.4588L15.4416 11.4434L14.751 12.6434ZM16.855 15.7635L15.5432 17.1436L16.5476 18.0981L17.8585 16.7171L16.855 15.7635ZM6.22066 13.6561C2.64232 9.88885 2.04224 6.71058 1.96746 5.31669L0.584506 5.39146C0.676826 7.09921 1.40062 10.5923 5.21714 14.6096L6.22066 13.6561ZM7.49098 7.52938L7.75502 7.2506L6.7515 6.29703L6.48654 6.57581L7.49098 7.52938ZM7.96366 3.77971L6.7995 2.13381L5.66858 2.93322L6.83182 4.57912L7.96366 3.77971ZM6.98784 7.05213C6.82169 6.89202 6.65397 6.73354 6.48469 6.57673L6.48285 6.57858L6.48008 6.58135L6.43392 6.63489C6.34352 6.75473 6.27192 6.88764 6.22158 7.02906C6.13111 7.28291 6.0831 7.61892 6.14403 8.03802C6.26405 8.86143 6.80412 9.96824 8.21385 11.4535L9.21829 10.499C7.89996 9.11159 7.57499 8.25771 7.51406 7.83678C7.48452 7.63369 7.51406 7.52754 7.52606 7.49338L7.53345 7.47584L7.5076 7.51L7.49098 7.52938L6.98784 7.05213ZM8.21385 11.4526C9.61989 12.9333 10.6816 13.5148 11.4912 13.6468C11.9076 13.7142 12.2446 13.6598 12.4994 13.5591C12.641 13.5041 12.7726 13.4261 12.8889 13.3284L12.9213 13.297L12.9342 13.284L12.9406 13.2785L12.9434 13.2757L12.9443 13.2739C12.9443 13.2739 12.9462 13.273 12.444 12.7957C11.9417 12.3194 11.9427 12.3185 11.9427 12.3175L11.9445 12.3166L11.9464 12.3139L11.9519 12.3092L11.9953 12.2705C12.0039 12.2655 12.0024 12.2659 11.9907 12.2714C11.9722 12.2788 11.8891 12.3083 11.7137 12.2797C11.3426 12.2188 10.5412 11.892 9.21829 10.499L8.21385 11.4526ZM6.7995 2.13381C5.86338 0.810069 3.99112 0.585753 2.85928 1.77841L3.8628 2.73198C4.34563 2.22427 5.1959 2.26397 5.66858 2.93322L6.7995 2.13381ZM15.5432 17.1436C15.2856 17.415 15.0169 17.5608 14.7547 17.5867L14.8904 18.9639C15.5801 18.8965 16.1386 18.5292 16.5476 18.0981L15.5432 17.1436ZM7.75502 7.2506C8.64868 6.30995 8.71146 4.83852 7.96366 3.77971L6.83274 4.57912C7.22233 5.13022 7.16232 5.86502 6.7515 6.29703L7.75502 7.2506ZM16.5144 13.6588C17.2723 14.0955 17.4209 15.1681 16.855 15.7635L17.8585 16.7171C19.0633 15.4487 18.7125 13.3265 17.2058 12.4588L16.5144 13.6588ZM13.3672 12.8299C13.7226 12.4551 14.2774 12.3711 14.751 12.6434L15.4416 11.4434C14.427 10.86 13.1705 11.027 12.3627 11.8763L13.3672 12.8299ZM9.08535 16.0404C8.17785 15.47 7.21125 14.6982 6.22066 13.6561L5.21714 14.6096C6.28251 15.7312 7.33773 16.5777 8.34864 17.2128L9.08535 16.0404ZM14.7538 17.5867C13.9848 17.6537 13.2101 17.6043 12.456 17.4399L12.1725 18.7959C13.0648 18.9887 13.9812 19.0454 14.8904 18.9639L14.7538 17.5867Z" fill="#121212"/>
<path d="M12.444 12.7957L12.9471 13.273M12.444 12.7957C12.9462 13.273 12.9443 13.2739 12.9443 13.2739L12.9434 13.2757L12.9406 13.2785L12.9342 13.284L12.9213 13.297L12.8889 13.3284C12.7726 13.4261 12.641 13.5041 12.4994 13.5591C12.2446 13.6598 11.9076 13.7142 11.4912 13.6468C10.6816 13.5148 9.61989 12.9333 8.21385 11.4526L9.21829 10.499M12.444 12.7957C11.9417 12.3194 11.9427 12.3185 11.9427 12.3176L11.9445 12.3166L11.9464 12.3139L11.9519 12.3092L11.9953 12.2705C12.0039 12.2655 12.0024 12.2659 11.9907 12.2714C11.9722 12.2788 11.8891 12.3083 11.7137 12.2797C11.3426 12.2188 10.5412 11.892 9.21829 10.499M12.9471 13.273L13.3672 12.8299M12.9471 13.273L11.9427 12.3194L12.3627 11.8763M12.8649 12.3526L12.3627 11.8763M12.3627 11.8763L13.3672 12.8299M12.3627 11.8763C13.1705 11.027 14.427 10.86 15.4416 11.4434M15.0963 12.0434L14.751 12.6434M14.751 12.6434L16.5144 13.6588M14.751 12.6434L15.4416 11.4434M14.751 12.6434C14.2774 12.3711 13.7226 12.4551 13.3672 12.8299M16.8596 13.0588L16.5144 13.6588M16.5144 13.6588L17.2058 12.4588M16.5144 13.6588C17.2723 14.0955 17.4209 15.1681 16.855 15.7635M17.3572 16.2398L17.8585 16.7171M17.8585 16.7171L16.5476 18.0981M17.8585 16.7171L16.855 15.7635M17.8585 16.7171C19.0633 15.4487 18.7125 13.3265 17.2058 12.4588M16.0463 17.6208L15.5432 17.1436M15.5432 17.1436L16.855 15.7635M15.5432 17.1436L16.5476 18.0981M15.5432 17.1436C15.2856 17.415 15.0169 17.5608 14.7547 17.5867L14.8904 18.9639M14.8221 18.2762L14.8904 18.9639M14.8904 18.9639C15.5801 18.8965 16.1386 18.5292 16.5476 18.0981M14.8904 18.9639C13.9812 19.0454 13.0648 18.9887 12.1725 18.7959M14.8904 18.9639L14.7538 17.5867C13.9848 17.6537 13.2102 17.6043 12.456 17.4399M5.71936 14.1324L6.22066 13.6561M6.22066 13.6561C2.64232 9.88885 2.04224 6.71058 1.96746 5.31669M6.22066 13.6561L5.21714 14.6096M6.22066 13.6561C7.21125 14.6982 8.17784 15.47 9.08535 16.0404M1.96746 5.31669C1.96255 5.22589 1.93981 5.13695 1.90052 5.05494C1.86123 4.97294 1.80618 4.89947 1.7385 4.83874C1.67081 4.77801 1.59183 4.7312 1.50606 4.70099C1.42029 4.67078 1.3294 4.65776 1.2386 4.66267C1.14779 4.66757 1.05884 4.69032 0.976824 4.7296C0.894809 4.76889 0.821335 4.82394 0.760597 4.89161C0.699859 4.95929 0.653047 5.03826 0.622834 5.12402C0.59262 5.20979 0.579596 5.30066 0.584506 5.39146M1.96746 5.31669L0.584506 5.39146M0.584506 5.39146C0.676826 7.09921 1.40062 10.5923 5.21714 14.6096M6.98876 7.05213L7.49098 7.52938M7.49098 7.52938L7.75502 7.2506M7.49098 7.52938L6.48654 6.57581L6.7515 6.29703M7.49098 7.52938L7.5076 7.51L7.53345 7.47584L7.52606 7.49338C7.51406 7.52754 7.48452 7.63369 7.51406 7.83678C7.57499 8.25771 7.89996 9.11159 9.21829 10.499M7.49098 7.52938L6.98784 7.05213C6.82169 6.89202 6.65397 6.73354 6.48469 6.57673L6.48285 6.57858L6.48008 6.58135L6.43392 6.63489C6.34352 6.75473 6.27192 6.88764 6.22158 7.02906C6.13111 7.28291 6.0831 7.61892 6.14403 8.03802C6.26405 8.86143 6.80412 9.96824 8.21385 11.4535L9.21829 10.499M7.25372 6.77336L7.75502 7.2506M7.75502 7.2506L6.7515 6.29703M7.75502 7.2506C8.64868 6.30995 8.71146 4.83852 7.96366 3.77971M7.39774 4.17942L7.96366 3.77971M7.96366 3.77971L6.7995 2.13381M7.96366 3.77971L6.83182 4.57912L5.66858 2.93322M7.96366 3.77971L6.83274 4.57912C7.22233 5.13022 7.16232 5.86502 6.7515 6.29703M6.2345 2.53351L5.66858 2.93322M5.66858 2.93322L6.7995 2.13381M5.66858 2.93322C5.1959 2.26397 4.34563 2.22427 3.8628 2.73198M2.85928 1.77841C2.73803 1.91239 2.67397 2.08846 2.68078 2.26902C2.68758 2.44958 2.76472 2.62033 2.89571 2.7448C3.0267 2.86927 3.20117 2.93761 3.38186 2.93521C3.56256 2.93282 3.73515 2.85988 3.8628 2.73198M2.85928 1.77841L3.8628 2.73198M2.85928 1.77841C3.99112 0.585753 5.86338 0.810069 6.7995 2.13381M8.717 10.9763L9.21922 10.499M8.34864 17.2128C8.42563 17.2624 8.5117 17.2963 8.60187 17.3124C8.69203 17.3285 8.7845 17.3266 8.87392 17.3067C8.96333 17.2868 9.04792 17.2494 9.12277 17.1966C9.19762 17.1439 9.26126 17.0767 9.30999 16.9992C9.35872 16.9216 9.39158 16.8352 9.40667 16.7449C9.42175 16.6545 9.41876 16.5621 9.39787 16.4729C9.37697 16.3838 9.33859 16.2996 9.28495 16.2254C9.2313 16.1511 9.16346 16.0883 9.08535 16.0404M8.34864 17.2128L9.08535 16.0404M8.34864 17.2128C7.33773 16.5777 6.28251 15.7312 5.21714 14.6096M12.456 17.4399C12.2761 17.4023 12.0887 17.4377 11.935 17.5383C11.7812 17.6389 11.6737 17.7964 11.6362 17.9762C11.5986 18.156 11.634 18.3434 11.7346 18.4971C11.8352 18.6509 11.9927 18.7584 12.1725 18.7959M12.456 17.4399L12.1725 18.7959M17.2058 12.4588L15.4416 11.4434" stroke="#121212" stroke-width="0.5"/>
</g>
<defs>
<clipPath id="clip0_749_16605">
<rect width="19" height="20" fill="white" transform="translate(0.041748)"/>
</clipPath>
</defs>
</svg>
