<svg width="12" height="14" viewBox="0 0 12 14" fill="none" xmlns="http://www.w3.org/2000/svg">
<g clip-path="url(#clip0_2002_5243)">
<path d="M11.4001 6.99991C11.4001 9.78546 11.4001 11.1782 10.6093 12.0433C9.8185 12.9084 8.5453 12.909 6.0001 12.909C3.4549 12.909 2.1817 12.909 1.3909 12.0433C0.600098 11.1788 0.600098 9.78546 0.600098 6.99991C0.600098 4.21437 0.600098 2.82159 1.3909 1.95591C2.1817 1.09023 3.4549 1.09082 6.0001 1.09082C8.5453 1.09082 9.8185 1.09082 10.6093 1.95591C11.1349 2.53146 11.3113 3.34041 11.3701 4.63628" stroke="white" stroke-width="1.3" stroke-linecap="round"/>
<path d="M3 4.63641C3 4.36164 3 4.22454 3.0306 4.11168C3.07152 3.96151 3.15182 3.82458 3.26345 3.71464C3.37509 3.6047 3.51412 3.52561 3.6666 3.48532C3.7824 3.45459 3.9216 3.45459 4.2 3.45459H7.8C8.079 3.45459 8.2182 3.45459 8.3328 3.48473C8.48528 3.52502 8.62431 3.60411 8.73595 3.71405C8.84758 3.82399 8.92788 3.96092 8.9688 4.11109C9 4.22514 9 4.36223 9 4.63641C9 4.91059 9 5.04827 8.9694 5.16113C8.92848 5.3113 8.84818 5.44823 8.73655 5.55817C8.62491 5.66812 8.48588 5.7472 8.3334 5.7875C8.2182 5.81823 8.0784 5.81823 7.8 5.81823H4.2C3.921 5.81823 3.7818 5.81823 3.6672 5.78809C3.51472 5.74779 3.37569 5.66871 3.26405 5.55876C3.15242 5.44882 3.07212 5.3119 3.0312 5.16173C3 5.04768 3 4.91059 3 4.63641Z" stroke="white" stroke-width="1.3"/>
<path d="M3.6 8.18182C3.93137 8.18182 4.2 7.91726 4.2 7.59091C4.2 7.26456 3.93137 7 3.6 7C3.26863 7 3 7.26456 3 7.59091C3 7.91726 3.26863 8.18182 3.6 8.18182Z" fill="white"/>
<path d="M3.6 10.5456C3.93137 10.5456 4.2 10.281 4.2 9.95468C4.2 9.62833 3.93137 9.36377 3.6 9.36377C3.26863 9.36377 3 9.62833 3 9.95468C3 10.281 3.26863 10.5456 3.6 10.5456Z" fill="white"/>
<path d="M5.9999 8.18182C6.33127 8.18182 6.5999 7.91726 6.5999 7.59091C6.5999 7.26456 6.33127 7 5.9999 7C5.66853 7 5.3999 7.26456 5.3999 7.59091C5.3999 7.91726 5.66853 8.18182 5.9999 8.18182Z" fill="white"/>
<path d="M5.9999 10.5456C6.33127 10.5456 6.5999 10.281 6.5999 9.95468C6.5999 9.62833 6.33127 9.36377 5.9999 9.36377C5.66853 9.36377 5.3999 9.62833 5.3999 9.95468C5.3999 10.281 5.66853 10.5456 5.9999 10.5456Z" fill="white"/>
<path d="M8.40029 8.18182C8.73166 8.18182 9.00029 7.91726 9.00029 7.59091C9.00029 7.26456 8.73166 7 8.40029 7C8.06892 7 7.80029 7.26456 7.80029 7.59091C7.80029 7.91726 8.06892 8.18182 8.40029 8.18182Z" fill="white"/>
<path d="M8.40029 10.5456C8.73166 10.5456 9.00029 10.281 9.00029 9.95468C9.00029 9.62833 8.73166 9.36377 8.40029 9.36377C8.06892 9.36377 7.80029 9.62833 7.80029 9.95468C7.80029 10.281 8.06892 10.5456 8.40029 10.5456Z" fill="white"/>
</g>
<defs>
<clipPath id="clip0_2002_5243">
<rect width="12" height="13" fill="white" transform="translate(0 0.5)"/>
</clipPath>
</defs>
</svg>
