<svg width="16" height="18" viewBox="0 0 16 18" fill="none" xmlns="http://www.w3.org/2000/svg">
<path d="M15 9.25C15 13.0212 15 14.9068 13.9749 16.078C12.9498 17.2492 11.2993 17.25 8 17.25C4.70067 17.25 3.05022 17.25 2.02511 16.078C1 14.9076 1 13.0212 1 9.25C1 5.4788 1 3.5932 2.02511 2.4212C3.05022 1.2492 4.70067 1.25 8 1.25C11.2993 1.25 12.9498 1.25 13.9749 2.4212C14.6562 3.2004 14.8849 4.2956 14.9611 6.05" stroke="#121212" stroke-linecap="round"/>
<path d="M4.5 6.45005C4.5 6.11939 4.5 5.95441 4.53625 5.81859C4.58472 5.63787 4.67985 5.47309 4.81209 5.34078C4.94433 5.20848 5.10904 5.1133 5.28966 5.06481C5.42684 5.02783 5.59174 5.02783 5.92154 5.02783H10.1862C10.5167 5.02783 10.6816 5.02783 10.8173 5.0641C10.9979 5.11259 11.1626 5.20777 11.2949 5.34007C11.4271 5.47238 11.5223 5.63716 11.5707 5.81788C11.6077 5.95512 11.6077 6.1201 11.6077 6.45005C11.6077 6.78001 11.6077 6.9457 11.5714 7.08152C11.523 7.26224 11.4278 7.42702 11.2956 7.55932C11.1634 7.69163 10.9987 7.78681 10.818 7.8353C10.6816 7.87228 10.516 7.87228 10.1862 7.87228H5.92154C5.59103 7.87228 5.42613 7.87228 5.29038 7.83601C5.10975 7.78752 4.94504 7.69234 4.8128 7.56004C4.68056 7.42773 4.58543 7.26295 4.53696 7.08223C4.5 6.94499 4.5 6.78001 4.5 6.45005Z" stroke="#121212"/>
<path d="M5.21077 10.7167C5.60332 10.7167 5.92154 10.3983 5.92154 10.0055C5.92154 9.61281 5.60332 9.29443 5.21077 9.29443C4.81822 9.29443 4.5 9.61281 4.5 10.0055C4.5 10.3983 4.81822 10.7167 5.21077 10.7167Z" fill="#121212"/>
<path d="M5.21077 13.5606C5.60332 13.5606 5.92154 13.2423 5.92154 12.8495C5.92154 12.4568 5.60332 12.1384 5.21077 12.1384C4.81822 12.1384 4.5 12.4568 4.5 12.8495C4.5 13.2423 4.81822 13.5606 5.21077 13.5606Z" fill="#121212"/>
<path d="M8.05403 10.7167C8.44658 10.7167 8.7648 10.3983 8.7648 10.0055C8.7648 9.61281 8.44658 9.29443 8.05403 9.29443C7.66148 9.29443 7.34326 9.61281 7.34326 10.0055C7.34326 10.3983 7.66148 10.7167 8.05403 10.7167Z" fill="#121212"/>
<path d="M8.05403 13.5606C8.44658 13.5606 8.7648 13.2423 8.7648 12.8495C8.7648 12.4568 8.44658 12.1384 8.05403 12.1384C7.66148 12.1384 7.34326 12.4568 7.34326 12.8495C7.34326 13.2423 7.66148 13.5606 8.05403 13.5606Z" fill="#121212"/>
<path d="M10.897 10.7167C11.2896 10.7167 11.6078 10.3983 11.6078 10.0055C11.6078 9.61281 11.2896 9.29443 10.897 9.29443C10.5045 9.29443 10.1863 9.61281 10.1863 10.0055C10.1863 10.3983 10.5045 10.7167 10.897 10.7167Z" fill="#121212"/>
<path d="M10.897 13.5606C11.2896 13.5606 11.6078 13.2423 11.6078 12.8495C11.6078 12.4568 11.2896 12.1384 10.897 12.1384C10.5045 12.1384 10.1863 12.4568 10.1863 12.8495C10.1863 13.2423 10.5045 13.5606 10.897 13.5606Z" fill="#121212"/>
</svg>
