<svg width="20" height="20" viewBox="0 0 20 20" fill="none" xmlns="http://www.w3.org/2000/svg">
<path d="M4.94717 5.59986H16.2265C17.1537 5.59986 17.6168 5.59986 17.8585 5.91586C18.1002 6.23187 18 6.70628 17.7987 7.65591C17.1015 10.944 16.5271 13.2 12.7477 13.2H6.63141L4.42446 3.21203C4.33338 2.86588 4.12313 2.55858 3.82712 2.33897C3.53111 2.11937 3.16633 2.00005 2.79075 2H2M7.37272 13.2003H7.02661C5.87796 13.2003 4.94742 14.1211 4.94742 15.2571C4.94641 15.3012 4.95456 15.3451 4.97142 15.3863C4.98827 15.4274 5.01348 15.465 5.04563 15.4968C5.07777 15.5287 5.1162 15.5543 5.15874 15.572C5.20127 15.5898 5.24708 15.5994 5.29353 15.6003H14.6318M14.6318 15.6003C13.9341 15.6003 13.3684 16.1372 13.3684 16.8C13.3684 17.4627 13.934 18 14.6316 18C15.3292 18 15.8948 17.4627 15.8948 16.8C15.8948 16.1372 15.3294 15.6003 14.6318 15.6003ZM10.0002 16.8C10.0002 17.4627 9.43466 18 8.73703 18C8.03939 18 7.47385 17.4627 7.47385 16.8C7.47385 16.1372 8.03939 15.5999 8.73703 15.5999C9.43466 15.5999 10.0002 16.1372 10.0002 16.8Z" stroke="#121212" stroke-linecap="round" stroke-linejoin="round"/>
</svg>
