<svg width="24" height="24" viewBox="0 0 24 24" fill="none" xmlns="http://www.w3.org/2000/svg">
<g clip-path="url(#clip0_3001_5827)">
<path d="M12.0009 22.909C13.4338 22.9108 14.8528 22.6294 16.1766 22.0811C17.5004 21.5327 18.7028 20.7282 19.7147 19.7137C20.7292 18.7018 21.5337 17.4994 22.082 16.1757C22.6304 14.8519 22.9118 13.4328 22.91 11.9999C22.9118 10.5671 22.6304 9.14797 22.082 7.82419C21.5337 6.5004 20.7292 5.29801 19.7147 4.2861C18.7028 3.27164 17.5004 2.46713 16.1766 1.91878C14.8528 1.37043 13.4338 1.08906 12.0009 1.09083C10.568 1.08906 9.14895 1.37043 7.82516 1.91878C6.50138 2.46713 5.29899 3.27164 4.28708 4.2861C3.27262 5.29801 2.46811 6.5004 1.91976 7.82419C1.37141 9.14797 1.09004 10.5671 1.09181 11.9999C1.09004 13.4328 1.37141 14.8519 1.91976 16.1757C2.46811 17.4994 3.27262 18.7018 4.28708 19.7137C5.29899 20.7282 6.50138 21.5327 7.82516 22.0811C9.14895 22.6294 10.568 22.9108 12.0009 22.909Z" stroke="#75CC2F" stroke-width="2" stroke-linejoin="round"/>
<path d="M7.63672 11.9998L10.9094 15.2725L17.4549 8.72705" stroke="#75CC2F" stroke-width="2" stroke-linecap="round" stroke-linejoin="round"/>
</g>
<defs>
<clipPath id="clip0_3001_5827">
<rect width="24" height="24" fill="white"/>
</clipPath>
</defs>
</svg>
