<svg width="12" height="6" viewBox="0 0 12 6" fill="none" xmlns="http://www.w3.org/2000/svg">
<path d="M6 4.97458L11.2332 0.124569C11.2754 0.0846382 11.3254 0.0530697 11.3805 0.03169C11.4356 0.0103103 11.4945 -0.000455723 11.554 1.47817e-05C11.6135 0.000485286 11.6722 0.0121827 11.7269 0.0344308C11.7816 0.0566788 11.8311 0.0890358 11.8726 0.129629C11.9141 0.170221 11.9467 0.218244 11.9685 0.270918C11.9904 0.323592 12.0011 0.379871 11.9999 0.436499C11.9988 0.493126 11.9859 0.548977 11.9619 0.600821C11.938 0.652664 11.9035 0.69947 11.8604 0.73853L6.31362 5.87867C6.22966 5.95647 6.11714 6 6 6C5.88286 6 5.77034 5.95647 5.68638 5.87867L0.139579 0.73853C0.0965157 0.69947 0.0620146 0.652664 0.0380697 0.600821C0.0141249 0.548977 0.00121307 0.493126 8.10623e-05 0.436499C-0.00105095 0.379871 0.00961876 0.323592 0.0314751 0.270918C0.0533304 0.218244 0.0859356 0.170221 0.127407 0.129629C0.168878 0.0890358 0.218389 0.0566788 0.273076 0.0344308C0.327763 0.0121827 0.386539 0.000485286 0.446004 1.47817e-05C0.505468 -0.000455723 0.564441 0.0103103 0.619509 0.03169C0.674576 0.0530697 0.724645 0.0846382 0.766818 0.124569L6 4.97458Z" fill="#121212"/>
</svg>
