<svg width="24" height="24" viewBox="0 0 24 24" fill="none" xmlns="http://www.w3.org/2000/svg">
<g clip-path="url(#clip0_521_16299)">
<path d="M12 5.27827V12.0005L16.2778 14.4449M23 12.0005C23 13.445 22.7155 14.8754 22.1627 16.21C21.6099 17.5446 20.7996 18.7572 19.7782 19.7787C18.7567 20.8001 17.5441 21.6104 16.2095 22.1632C14.8749 22.716 13.4445 23.0005 12 23.0005C10.5555 23.0005 9.12506 22.716 7.79048 22.1632C6.4559 21.6104 5.24327 20.8001 4.22183 19.7787C3.20038 18.7572 2.39013 17.5446 1.83733 16.21C1.28452 14.8754 1 13.445 1 12.0005C1 9.08311 2.15893 6.28521 4.22183 4.22231C6.28473 2.15941 9.08262 1.00049 12 1.00049C14.9174 1.00049 17.7153 2.15941 19.7782 4.22231C21.8411 6.28521 23 9.08311 23 12.0005Z" stroke="#121212" stroke-width="2" stroke-linecap="round" stroke-linejoin="round"/>
</g>
<defs>
<clipPath id="clip0_521_16299">
<rect width="24" height="24" fill="white"/>
</clipPath>
</defs>
</svg>
