<svg width="12" height="20" viewBox="0 0 12 20" fill="none" xmlns="http://www.w3.org/2000/svg">
<path d="M3.329 19.0269V11.7529H0.545C0.400457 11.7529 0.261834 11.6955 0.159627 11.5933C0.0574196 11.4911 0 11.3525 0 11.2079V8.33093C0 8.18638 0.0574196 8.04776 0.159627 7.94555C0.261834 7.84335 0.400457 7.78593 0.545 7.78593H3.318V5.00093C3.25166 4.34048 3.33073 3.67351 3.54965 3.04688C3.76856 2.42025 4.12202 1.84915 4.58519 1.37368C5.04836 0.898218 5.61001 0.529926 6.23069 0.294673C6.85138 0.0594198 7.51604 -0.0370887 8.178 0.011926H10.498C10.6439 0.01164 10.7841 0.0687275 10.8883 0.170873C10.9925 0.273018 11.0524 0.412032 11.055 0.557926V2.99393C11.0519 3.13956 10.9918 3.27817 10.8877 3.38005C10.7836 3.48193 10.6437 3.53896 10.498 3.53893H9.048C7.482 3.53893 7.181 4.28093 7.181 5.37193V7.78493H10.904C10.9814 7.78236 11.0584 7.79668 11.1297 7.8269C11.2009 7.85711 11.2648 7.90249 11.3168 7.95988C11.3687 8.01727 11.4076 8.08529 11.4306 8.15921C11.4536 8.23314 11.4602 8.31118 11.45 8.38793L11.113 11.2759C11.0961 11.4082 11.0313 11.5297 10.9309 11.6174C10.8305 11.7051 10.7013 11.753 10.568 11.7519H7.204V19.0259C7.20589 19.1544 7.18196 19.282 7.13361 19.4011C7.08527 19.5202 7.01351 19.6284 6.92258 19.7192C6.83165 19.8101 6.7234 19.8817 6.60426 19.9299C6.48512 19.9781 6.35751 20.0019 6.229 19.9999H4.292C4.16449 20.0003 4.03818 19.9753 3.92044 19.9264C3.80269 19.8775 3.69588 19.8056 3.60623 19.7149C3.51658 19.6242 3.4459 19.5166 3.3983 19.3983C3.3507 19.28 3.32714 19.1544 3.329 19.0269Z" fill="#121212"/>
</svg>
