<svg width="18" height="12" viewBox="0 0 18 12" fill="none" xmlns="http://www.w3.org/2000/svg">
<g clip-path="url(#clip0_2036_12325)">
<path d="M17.3248 2.76914H6.2053M2.2804 2.76914H0.674805M2.2804 2.76914C2.2804 2.23545 2.48711 1.72361 2.85506 1.34623C3.22301 0.968847 3.72205 0.756836 4.2424 0.756836C4.76276 0.756836 5.2618 0.968847 5.62975 1.34623C5.99769 1.72361 6.2044 2.23545 6.2044 2.76914C6.2044 3.30284 5.99769 3.81468 5.62975 4.19206C5.2618 4.56944 4.76276 4.78145 4.2424 4.78145C3.72205 4.78145 3.22301 4.56944 2.85506 4.19206C2.48711 3.81468 2.2804 3.30284 2.2804 2.76914ZM17.3248 8.86791H12.1516M12.1516 8.86791C12.1516 9.40173 11.9444 9.91415 11.5764 10.2916C11.2083 10.6691 10.7092 10.8811 10.1887 10.8811C9.66835 10.8811 9.16931 10.6682 8.80136 10.2908C8.43341 9.91345 8.2267 9.40161 8.2267 8.86791M12.1516 8.86791C12.1516 8.33409 11.9444 7.8226 11.5764 7.44513C11.2083 7.06766 10.7092 6.85561 10.1887 6.85561C9.66835 6.85561 9.16931 7.06762 8.80136 7.445C8.43341 7.82238 8.2267 8.33422 8.2267 8.86791M8.2267 8.86791H0.674805" stroke="white" stroke-width="1.5" stroke-miterlimit="10" stroke-linecap="round"/>
</g>
<defs>
<clipPath id="clip0_2036_12325">
<rect width="18" height="12" fill="white"/>
</clipPath>
</defs>
</svg>
