<svg width="36" height="36" viewBox="0 0 36 36" fill="none" xmlns="http://www.w3.org/2000/svg">
<path d="M18 34.0005C18 34.0005 30 24.4005 30 14.0005C30 7.37329 24.6272 2.00049 18 2.00049C11.3728 2.00049 6 7.37329 6 14.0005C6 24.4005 18 34.0005 18 34.0005Z" stroke="#121212" stroke-width="3" stroke-linejoin="round"/>
<path d="M18.0031 18.8007C18.6335 18.8007 19.2576 18.6765 19.84 18.4353C20.4224 18.1941 20.9515 17.8405 21.3972 17.3948C21.843 16.9491 22.1965 16.4199 22.4377 15.8376C22.679 15.2552 22.8031 14.631 22.8031 14.0007C22.8031 13.3703 22.679 12.7462 22.4377 12.1638C22.1965 11.5814 21.843 11.0523 21.3972 10.6066C20.9515 10.1608 20.4224 9.80728 19.84 9.56606C19.2576 9.32484 18.6335 9.20068 18.0031 9.20068C16.7301 9.20068 15.5092 9.7064 14.609 10.6066C13.7088 11.5067 13.2031 12.7276 13.2031 14.0007C13.2031 15.2737 13.7088 16.4946 14.609 17.3948C15.5092 18.295 16.7301 18.8007 18.0031 18.8007Z" stroke="#121212" stroke-width="3" stroke-linejoin="round"/>
</svg>
