<svg width="118" height="96" viewBox="0 0 118 96" fill="none" xmlns="http://www.w3.org/2000/svg">
<path d="M47.1865 59.1506C47.1865 52.9289 52.236 47.8852 58.4648 47.8852C64.6937 47.8852 69.7432 52.9289 69.7432 59.1506C69.7432 65.3723 64.6937 70.416 58.4648 70.416C52.236 70.416 47.1865 65.3723 47.1865 59.1506Z" fill="#E42B29"/>
<path d="M58.5208 72.5148C51.1315 72.5148 45.1414 66.5315 45.1414 59.1507C45.1414 51.7699 51.1315 45.7866 58.5208 45.7866C65.91 45.7866 71.9001 51.7699 71.9001 59.1507C71.9001 66.5315 65.91 72.5148 58.5208 72.5148ZM58.5208 43.3263C49.7712 43.3263 42.6782 50.4111 42.6782 59.1507C42.6782 67.8902 49.7712 74.9751 58.5208 74.9751C67.2703 74.9751 74.3633 67.8902 74.3633 59.1507C74.3633 50.4111 67.2703 43.3263 58.5208 43.3263Z" fill="#121212"/>
<path d="M50.3476 31.0803H45.4773L58.5208 22.3014L71.4523 31.0803H66.8619V47.0166L64.3428 45.3391V29.291L58.5208 25.4328L52.7548 29.4028V45.0595L50.3476 46.737V31.0803Z" fill="#121212"/>
<path d="M30.3065 67.5381V72.4028L21.5176 59.3742L30.3065 46.4575V51.0427H46.261L44.5816 53.5589H28.5152L24.6525 59.3742L28.6271 65.1337H44.3017L45.9811 67.5381H30.3065Z" fill="#121212"/>
<path d="M86.9589 67.5381V72.4028L95.7479 59.3742L86.9589 46.4575V51.0427H71.0044L72.6838 53.5589H88.7503L92.6129 59.3742L88.6383 65.1337H72.9637L71.2843 67.5381H86.9589Z" fill="#121212"/>
<path d="M50.4035 87.2211H45.5332L58.5767 96L71.5082 87.2211H66.9178V71.2848L64.3987 72.9623V89.0104L58.5767 92.8687L52.8107 88.8986V73.2419L50.4035 71.5644V87.2211Z" fill="#121212"/>
<path d="M111.685 43.2828C111.85 43.1272 112.009 42.9209 112.161 42.6641C112.311 42.4068 112.439 42.1113 112.541 41.7768C112.643 41.4419 112.798 41.1798 113.007 40.9902C113.215 40.8002 113.466 40.6842 113.762 40.6417C114.149 40.586 114.459 40.6493 114.693 40.8321C114.927 41.0146 115.073 41.3089 115.131 41.7145L115.655 46.1261L116.467 50.7782C116.485 51.0388 116.485 51.2646 116.466 51.4556C116.446 51.6463 116.4 51.813 116.326 51.9555C116.249 52.0794 116.133 52.1852 115.976 52.2739C115.82 52.3621 115.612 52.4251 115.354 52.4623C115.003 52.5128 114.707 52.48 114.464 52.3646C114.221 52.2486 114.034 52.0596 113.902 51.7965C113.788 51.5307 113.68 51.3345 113.577 51.2082C113.474 51.082 113.376 51.0255 113.284 51.0387C113.155 51.0574 112.922 51.1707 112.584 51.3793C112.247 51.5875 111.816 51.899 111.292 52.313C110.765 52.7086 110.372 53.0475 110.111 53.3296C109.85 53.6114 109.729 53.8171 109.748 53.9463C109.761 54.0383 109.787 54.1193 109.825 54.189C109.864 54.2586 109.924 54.3161 110.006 54.3607C110.069 54.408 110.152 54.4618 110.255 54.5223C110.358 54.5826 110.479 54.6405 110.619 54.6957L113.654 56.1496C113.699 56.1997 113.765 56.2368 113.854 56.262C113.942 56.2868 114.032 56.2927 114.124 56.2794C114.217 56.2662 114.288 56.2371 114.338 56.1923C114.388 56.1471 114.427 56.0948 114.456 56.0342C114.483 55.955 114.515 55.8517 114.553 55.724C114.591 55.596 114.635 55.4442 114.685 55.2677C114.714 55.0751 114.819 54.9238 115.001 54.813C115.182 54.7021 115.439 54.6228 115.772 54.5751C116.159 54.5193 116.467 54.5688 116.697 54.7241C116.926 54.8788 117.068 55.1406 117.121 55.5096L117.485 58.4204L117.994 61.3664C118.021 61.6823 117.958 61.9312 117.805 62.1132C117.652 62.2948 117.41 62.41 117.078 62.4578C116.949 62.4765 116.817 62.4812 116.685 62.4721C116.551 62.463 116.427 62.4478 116.311 62.4271C116.192 62.3878 116.081 62.3049 115.978 62.1786C115.875 62.0524 115.768 61.8654 115.657 61.6181C115.549 61.389 115.386 61.1774 115.17 60.9827C114.954 60.7882 114.693 60.6092 114.387 60.4465C114.062 60.286 113.782 60.1428 113.548 60.0169C113.313 59.8906 113.115 59.7922 112.954 59.7214L108.716 57.3682C108.452 57.237 108.218 57.1198 108.016 57.0175C107.812 56.915 107.629 56.8191 107.466 56.7299C107.302 56.6405 107.146 56.5686 106.997 56.5152C106.848 56.4612 106.696 56.4265 106.544 56.411C106.304 56.4455 106.035 56.4793 105.739 56.5127C105.442 56.5457 105.107 56.5705 104.733 56.587C104.379 56.6188 104.096 56.6456 103.883 56.6669C103.669 56.688 103.535 56.7029 103.479 56.7109C103.35 56.7296 103.221 56.7481 103.092 56.7667C102.962 56.7853 102.843 56.8025 102.732 56.8185C102.621 56.8344 102.508 56.8648 102.392 56.9097C102.276 56.9547 102.147 57.0059 102.005 57.0642C101.881 57.1195 101.751 57.2321 101.616 57.4024C101.48 57.5723 101.348 57.7981 101.219 58.0803C101.09 58.3621 100.92 58.5889 100.71 58.7603C100.499 58.9318 100.246 59.0388 99.9508 59.0812C99.674 59.1211 99.4479 59.1206 99.2725 59.0801C99.0972 59.0391 98.9527 58.9519 98.8393 58.8178C98.7466 58.6994 98.6667 58.5367 98.5994 58.3303C98.532 58.1236 98.4782 57.8822 98.4383 57.6058L98.0383 53.8535L97.3935 50.3627C97.351 50.0675 97.3282 49.812 97.3255 49.5963C97.3225 49.3803 97.3394 49.2036 97.3763 49.067C97.4311 48.9272 97.5471 48.8166 97.7239 48.7347C97.9001 48.6528 98.1361 48.5908 98.4315 48.5483C98.7264 48.5058 98.9956 48.542 99.2384 48.6579C99.4809 48.7733 99.6972 48.968 99.8876 49.2416C100.08 49.5336 100.349 49.73 100.693 49.8313C101.037 49.9322 101.44 49.9496 101.901 49.8831L103.064 49.7158C103.525 49.6495 103.923 49.5731 104.26 49.4872C104.595 49.401 104.85 49.308 105.025 49.208C105.198 49.1076 105.429 48.9425 105.716 48.7133C106.003 48.4838 106.355 48.1791 106.771 47.7997L110.587 44.2874L111.685 43.2828Z" fill="#121212"/>
<path d="M93.4434 27.1788C93.5261 27.2423 93.5997 27.2954 93.664 27.3384C93.7418 27.3683 93.8141 27.3784 93.881 27.3687C93.9476 27.3585 94.0226 27.316 94.1057 27.2407C94.1761 27.1514 94.2362 27.0715 94.2863 27.0014C94.3359 26.9311 94.3817 26.8772 94.4232 26.8395L96.2793 23.7953C96.3383 23.6661 96.3711 23.5418 96.3769 23.4231C96.3825 23.3043 96.3478 23.2033 96.2725 23.1203C96.2221 23.0649 96.1614 23.0189 96.0904 22.9827C96.0193 22.946 95.9505 22.9327 95.884 22.9427C95.8169 22.9526 95.7368 22.9685 95.6432 22.9906C95.5493 23.0125 95.4553 23.0409 95.361 23.0762L92.1253 24.2681L91.7383 24.4675C91.6412 24.5554 91.5742 24.6349 91.538 24.7057C91.5012 24.7768 91.4942 24.8523 91.517 24.9328C91.5391 25.0132 91.575 25.0943 91.6243 25.1761C91.6731 25.2578 91.7356 25.3402 91.8109 25.4232L92.0391 25.6327L93.1889 26.8986C93.2755 27.0218 93.3602 27.1151 93.4434 27.1788ZM100.048 18.374C100.343 18.4345 100.61 18.5962 100.849 18.8592L102.11 20.2892L103.415 21.642C103.514 21.7792 103.597 21.9054 103.664 22.0211C103.731 22.1365 103.776 22.2348 103.799 22.3154C103.821 22.3957 103.816 22.4947 103.785 22.6122C103.752 22.7296 103.706 22.8663 103.646 23.022L97.7688 34.818C97.5355 35.2565 97.3444 35.6437 97.1958 35.9805C97.0469 36.3171 96.9334 36.6091 96.8552 36.8567C96.7769 37.1039 96.7341 37.3697 96.7271 37.6539C96.7198 37.9378 96.755 38.2339 96.8328 38.5418C96.9104 38.8499 96.9063 39.1374 96.8207 39.4042C96.7349 39.6712 96.5742 39.9113 96.3388 40.1247C96.0339 40.4011 95.73 40.5251 95.4268 40.4971C95.1239 40.469 94.8213 40.2891 94.5197 39.9571L91.4567 36.3764L88.412 33.2331C88.2863 33.0946 88.1969 32.9609 88.1436 32.8332C88.0899 32.705 88.0805 32.5622 88.1147 32.4052C88.1474 32.2746 88.2137 32.1388 88.3132 31.9983C88.4126 31.8574 88.5317 31.7247 88.6704 31.599C88.8226 31.4611 88.9603 31.3552 89.083 31.2817C89.2058 31.2084 89.3275 31.1548 89.4482 31.121C89.5551 31.0999 89.674 31.1056 89.8049 31.1383C89.9356 31.1713 90.0581 31.2365 90.1727 31.3348C90.3007 31.4204 90.4227 31.499 90.5386 31.5707C90.6539 31.6424 90.7641 31.6938 90.8687 31.7256C90.973 31.757 91.0824 31.7524 91.197 31.7118C91.3115 31.6708 91.438 31.588 91.5766 31.4624C91.7704 31.2867 91.898 31.1144 91.9593 30.9453C92.0203 30.7766 92.0082 30.6172 91.9229 30.4676C91.8373 30.3179 91.7418 30.171 91.6366 30.0271C91.5307 29.883 91.409 29.7348 91.2708 29.5829L89.0107 27.0528C88.7956 26.8439 88.599 26.6693 88.4206 26.5282C88.2418 26.3876 88.0816 26.2802 87.9396 26.2073C87.81 26.148 87.6678 26.1446 87.5131 26.1965C87.3579 26.2485 87.1839 26.3624 86.9901 26.5381C86.893 26.626 86.8429 26.7721 86.8397 26.9772C86.8363 27.1819 86.8795 27.4454 86.97 27.7671C87.0864 28.0902 87.1153 28.3792 87.0569 28.6343C86.9979 28.8893 86.8648 29.111 86.6571 29.2992C86.4769 29.4626 86.312 29.5867 86.1625 29.672C86.0122 29.7571 85.8645 29.8031 85.7187 29.8093C85.5853 29.829 85.4475 29.796 85.3065 29.7098C85.1652 29.6233 85.0251 29.5043 84.8869 29.3523C84.7361 29.1862 84.5668 28.9927 84.3789 28.7722C84.1912 28.551 83.9915 28.2967 83.7806 28.009C83.5556 27.7335 83.374 27.5198 83.2358 27.3677C83.0973 27.2152 83.0095 27.1186 82.9718 27.0771C82.8461 26.9386 82.6985 26.7762 82.5289 26.5894C82.3593 26.4026 82.1606 26.1977 81.9331 25.9752C81.7044 25.7787 81.5237 25.6143 81.391 25.4828C81.2584 25.3505 81.1732 25.2638 81.1356 25.2224C81.0099 25.0839 80.9143 24.9434 80.8483 24.8016C80.7819 24.6596 80.7663 24.5101 80.8006 24.3531C80.8469 24.2099 80.9171 24.0642 81.0105 23.9169C81.1036 23.7692 81.2263 23.6267 81.3789 23.4885C81.5866 23.3002 81.8234 23.1926 82.0898 23.1659C82.3554 23.139 82.6579 23.1865 82.9963 23.309C83.3206 23.4439 83.6883 23.5078 84.0991 23.5015C84.5097 23.4948 84.951 23.4039 85.4233 23.2284C85.8938 23.0793 86.2874 22.9497 86.604 22.8395C86.9203 22.729 87.1661 22.6452 87.3412 22.5877L99.1021 18.4371C99.4378 18.3344 99.7534 18.3134 100.048 18.374Z" fill="#121212"/>
<path d="M66.8354 8.4105C66.826 8.57479 66.8402 8.71849 66.8773 8.84196C66.9142 8.96553 66.9941 9.06708 67.1168 9.14715C67.2393 9.22689 67.3956 9.28336 67.5852 9.31635C67.9072 9.37249 68.2148 9.37272 68.5079 9.31635C68.8006 9.26044 69.0711 9.13653 69.3195 8.94585C69.5641 8.77396 69.7635 8.55499 69.9175 8.28939C70.071 8.02356 70.1779 7.72038 70.2375 7.37951C70.2937 7.05799 70.2998 6.74229 70.2565 6.43217C70.2127 6.12239 70.1084 5.82626 69.943 5.54377C69.7997 5.24573 69.6111 5.01323 69.3768 4.84514C69.1424 4.67784 68.8641 4.56567 68.542 4.50953C68.3147 4.46994 68.1241 4.47106 67.9704 4.51244C67.8167 4.55415 67.6998 4.63613 67.6198 4.75847C67.5399 4.88116 67.4691 5.0347 67.4075 5.21889C67.3461 5.40331 67.2922 5.62798 67.246 5.89291L66.9137 7.79508C66.8707 8.04123 66.8445 8.24656 66.8354 8.4105ZM76.9649 18.4994C77.0052 18.6043 77.0991 18.7085 77.2473 18.812C77.3948 18.9159 77.5837 19.0365 77.8137 19.174C78.0622 19.3152 78.2397 19.4728 78.3462 19.6472C78.4521 19.822 78.4874 20.0132 78.451 20.2213C78.3947 20.5433 78.2894 20.8368 78.1358 21.1026C77.9819 21.3683 77.7776 21.6156 77.523 21.8442C77.2904 22.0573 77.0316 22.1974 76.7466 22.2648C76.4612 22.3321 76.1577 22.3377 75.8357 22.2815L73.4344 21.7754L71.1456 21.4641C70.975 21.4344 70.822 21.3881 70.6864 21.3257C70.551 21.2632 70.4345 21.1748 70.3373 21.0601C70.2211 20.9423 70.1272 20.8089 70.0558 20.6598C69.9839 20.511 69.9158 20.3429 69.8509 20.1561L67.699 13.6955C67.6337 13.5087 67.5748 13.3425 67.5225 13.1966C67.4696 13.0511 67.4217 12.9355 67.3781 12.8497C67.3377 12.7453 67.2827 12.6676 67.2139 12.6162C67.1444 12.5653 67.0532 12.5298 66.9394 12.51C66.8635 12.4968 66.7843 12.5025 66.7022 12.5271C66.6196 12.552 66.5435 12.5972 66.4735 12.6629C66.4034 12.7287 66.3478 12.8214 66.3076 12.9411C66.267 13.0611 66.2337 13.1965 66.2073 13.3478L65.6915 16.3006C65.6353 16.6227 65.6527 16.9133 65.7442 17.173C65.8352 17.4329 66.0068 17.6822 66.258 17.9207C66.5091 18.1597 66.686 18.4048 66.7884 18.6568C66.8908 18.9089 66.9189 19.1672 66.8726 19.4321C66.823 19.7161 66.75 19.9374 66.6542 20.0962C66.5578 20.2551 66.4258 20.3687 66.2578 20.4367C66.1117 20.4895 65.9265 20.5153 65.7021 20.5155C65.4776 20.5152 65.2232 20.4905 64.939 20.441L61.2402 19.6501L57.7475 19.1877C57.4632 19.1381 57.2201 19.0762 57.0183 19.002C56.8162 18.9275 56.6462 18.8399 56.508 18.7375C56.3917 18.62 56.3162 18.4656 56.2815 18.2739C56.2462 18.0825 56.2522 17.8547 56.2985 17.5892C56.3448 17.3244 56.4588 17.0907 56.6407 16.8883C56.8225 16.6858 57.0721 16.515 57.3893 16.3751C57.7066 16.2356 57.9689 16.018 58.177 15.7225C58.3847 15.427 58.5284 15.0522 58.6078 14.5979L59.1768 11.5081L59.8315 7.76031L60.3387 4.68903C60.4114 4.27289 60.3999 3.89054 60.3047 3.54195C60.2091 3.19393 60.036 2.90036 59.7849 2.6616C59.537 2.40382 59.3627 2.14448 59.2619 1.8829C59.161 1.62155 59.132 1.36791 59.1751 1.12176C59.2214 0.856831 59.2887 0.639427 59.377 0.469328C59.4651 0.299564 59.5821 0.188404 59.7282 0.135618C59.8583 0.0608025 60.0272 0.0171871 60.2344 0.00432587C60.4416 -0.00808716 60.6683 0.00689888 60.9147 0.0498428L66.7504 1.18394L72.8582 2.1021C73.6885 2.26649 74.4122 2.53881 75.0294 2.91937C75.6461 3.30017 76.1659 3.79033 76.5884 4.39054C77.0107 4.99075 77.291 5.64956 77.4297 6.36563C77.568 7.08237 77.5645 7.85715 77.419 8.68986C77.3298 9.20094 77.1919 9.65487 77.0055 10.0513C76.819 10.448 76.584 10.7874 76.3004 11.0695C75.9665 11.3037 75.6335 11.5339 75.3014 11.7583C74.9692 11.9834 74.6378 12.2036 74.3073 12.4189C74.2973 12.4759 74.2918 12.5332 74.2917 12.5917C74.291 12.6502 74.2954 12.7094 74.3046 12.7697C74.3324 12.833 74.3595 12.9013 74.3861 12.974C74.4122 13.0471 74.4566 13.1279 74.5193 13.2167L76.7736 18.0857L76.9649 18.4994Z" fill="#121212"/>
<path d="M33.1244 11.2207C32.9865 10.84 32.7946 10.5275 32.5493 10.2829C32.3039 10.039 32.02 9.87715 31.6973 9.79798C31.3682 9.70158 31.0996 9.56883 30.891 9.39918C30.6825 9.22986 30.5377 9.0327 30.456 8.80747C30.3745 8.58257 30.3314 8.38239 30.3271 8.20782C30.3225 8.03325 30.3567 7.88406 30.4292 7.75959C30.502 7.63568 30.6109 7.51769 30.757 7.40608C30.9027 7.2947 31.0798 7.20132 31.2878 7.12616L34.9397 5.9234L38.6367 4.43993C38.851 4.38211 39.048 4.3452 39.2286 4.32854C39.4089 4.31255 39.5668 4.32888 39.7022 4.37775C39.8377 4.42695 39.9596 4.51978 40.068 4.65666C40.1764 4.79377 40.2746 4.98366 40.3624 5.22589C40.4692 5.52046 40.5036 5.79166 40.4663 6.04015C40.4287 6.28864 40.3162 6.50571 40.1287 6.6908C40.0261 6.78675 39.9409 6.87633 39.8732 6.95953C39.805 7.04285 39.7458 7.12292 39.6955 7.19997C39.6513 7.29459 39.6167 7.37533 39.5925 7.44276C39.5679 7.51053 39.5563 7.57339 39.5579 7.63165C39.5606 7.74807 39.5881 7.90486 39.6399 8.10124C39.6916 8.2984 39.7678 8.53515 39.8681 8.81194L40.849 11.6003L42.5619 16.327C42.7627 16.8814 42.9621 17.3379 43.1611 17.6965C43.3596 18.0556 43.5573 18.3171 43.754 18.4808C43.9504 18.6449 44.2237 18.7223 44.5735 18.7133C44.9231 18.7045 45.349 18.6092 45.852 18.4274C46.3025 18.2644 46.7145 18.0764 47.0884 17.8628C47.4619 17.6498 47.8143 17.4049 48.1455 17.1282C48.4763 16.8521 48.7362 16.5672 48.924 16.274C49.1119 15.981 49.2278 15.6794 49.2726 15.3694C49.3171 15.0596 49.3623 14.7789 49.4085 14.5273C49.4544 14.2757 49.4983 14.0446 49.5395 13.8337C49.6154 13.6107 49.7199 13.4261 49.8534 13.2796C49.9866 13.1336 50.1484 13.0262 50.3393 12.957C50.4953 12.9007 50.6434 12.8765 50.7836 12.8847C50.9235 12.8927 51.0616 12.9214 51.1969 12.9701C51.3211 13.0427 51.4313 13.1304 51.5273 13.2326C51.6232 13.335 51.6994 13.4641 51.7558 13.6199C51.8249 13.8106 51.9092 14.0835 52.0086 14.4392C52.1082 14.7951 52.2228 15.2332 52.3528 15.754C52.4828 16.2751 52.5984 16.7035 52.7004 17.0383C52.8022 17.3737 52.8815 17.6189 52.9379 17.7749C53.0195 18.0001 53.0625 18.1998 53.067 18.3744C53.0715 18.5492 53.0459 18.6955 52.9907 18.8132C52.9118 18.9202 52.7991 19.0146 52.6525 19.0969C52.5059 19.1795 52.3196 19.2615 52.0946 19.3428L44.4812 21.9486L40.6 23.4104L37.872 24.4848C37.6121 24.5789 37.3847 24.6412 37.1902 24.6725C36.9956 24.7039 36.8165 24.7099 36.6528 24.6906C36.4998 24.6481 36.3591 24.5573 36.2302 24.4175C36.1013 24.2783 35.996 24.0959 35.9144 23.8706C35.8266 23.6284 35.81 23.3798 35.8649 23.1249C35.9195 22.8701 36.0456 22.6094 36.2428 22.342C36.4402 22.0752 36.5545 21.7694 36.5867 21.4247C36.6185 21.0803 36.5594 20.7001 36.4088 20.2846L35.409 17.4442L34.1668 14.0161L33.1244 11.2207Z" fill="#121212"/>
<path d="M19.3788 25.5928C18.7161 25.1725 18.088 24.8277 17.4935 24.5584C16.8849 24.2774 16.3292 24.1957 15.8266 24.312C15.3241 24.4289 14.8676 24.7384 14.4569 25.2409C14.0461 25.7437 13.842 26.2647 13.844 26.8046C13.8461 27.3448 14.0528 27.89 14.4647 28.4412C14.8649 29.0068 15.3405 29.5677 15.8916 30.1246C16.4425 30.6815 17.056 31.2353 17.7316 31.786C18.4362 32.3604 19.1239 32.8672 19.7946 33.3064C20.4657 33.7458 21.1113 34.0989 21.7318 34.3654C22.355 34.6579 22.9245 34.7455 23.4399 34.6272C23.9556 34.5094 24.4184 34.1992 24.8292 33.6965C25.146 33.3086 25.3245 32.8923 25.3653 32.4467C25.4057 32.0014 25.3082 31.5271 25.0727 31.024C24.8487 30.5067 24.4443 29.9318 23.8592 29.2991C23.2743 28.667 22.5219 27.9757 21.6017 27.2255L21.4939 27.1376L21.4076 27.0672C20.7175 26.5047 20.0412 26.0133 19.3788 25.5928ZM23.9717 38.7034C22.8262 39.3726 21.5982 39.7469 20.2875 39.8267C18.991 39.9182 17.7027 39.7292 16.4218 39.2593C15.1412 38.7895 13.8754 38.0447 12.6246 37.0251C11.5178 36.1227 10.6812 35.124 10.1151 34.0283C9.54917 32.9334 9.25942 31.7338 9.24609 30.4311C9.24721 29.1401 9.47304 27.8888 9.92391 26.6773C10.3749 25.4659 11.0638 24.2932 11.9907 23.1587C12.9878 21.9383 14.0589 20.9868 15.2029 20.3046C16.3471 19.6226 17.559 19.217 18.8382 19.0872C20.1292 18.9438 21.4001 19.0887 22.6507 19.5217C23.9014 19.9554 25.1448 20.6758 26.3811 21.6837C27.5456 22.6329 28.4251 23.6672 29.02 24.7858C29.6148 25.9048 29.939 27.1201 29.993 28.4319C30.0442 29.7178 29.8355 30.977 29.367 32.21C28.8985 33.443 28.183 34.6484 27.221 35.8257C26.2003 37.075 25.1168 38.0343 23.9717 38.7034Z" fill="#121212"/>
<path d="M6.46693 46.0432C6.61024 46.1223 6.73239 46.2223 6.83405 46.3439C6.93381 46.4846 7.00491 46.6318 7.04734 46.7857C7.08966 46.9398 7.10142 47.1191 7.08272 47.3236C6.60856 47.7871 6.16844 48.2353 5.76269 48.6671C5.35706 49.0994 4.9765 49.5152 4.62058 49.9142C4.26499 50.3137 3.98161 50.7427 3.77045 51.202C3.55952 51.6612 3.4302 52.1517 3.38273 52.6725C3.36235 52.8958 3.37098 53.1124 3.40815 53.3221C3.44532 53.5322 3.5013 53.7435 3.57575 53.9565C3.65222 54.1512 3.75511 54.3062 3.88555 54.421C4.01599 54.5362 4.18382 54.6029 4.38859 54.6216C4.68697 54.6487 5.02599 54.4312 5.40621 53.9683C5.78654 53.5059 6.20819 52.7984 6.67048 51.8457C7.11452 50.8918 7.57333 50.0329 8.04671 49.2689C8.52042 48.5055 8.99849 47.8453 9.48116 47.2885C9.94546 46.7304 10.5403 46.3341 11.266 46.0998C11.9918 45.866 12.8299 45.7917 13.7801 45.8781C14.9165 45.9815 15.8897 46.2812 16.6991 46.777C17.5088 47.2728 18.1743 47.9574 18.6956 48.8302C19.1986 49.702 19.5492 50.6485 19.747 51.6701C19.945 52.6922 19.9905 53.7891 19.8837 54.9615C19.8548 55.2781 19.8159 55.5983 19.7679 55.9219C19.7194 56.2461 19.6621 56.5645 19.5963 56.8774C19.5298 57.1907 19.4564 57.4839 19.3752 57.758C19.2937 58.032 19.215 58.2781 19.1387 58.4963C19.042 58.7316 18.9683 58.9219 18.9175 59.0673C18.8664 59.213 18.8379 59.3231 18.8312 59.3972C18.806 59.4702 18.7853 59.5434 18.7689 59.6167C18.7529 59.6905 18.7406 59.7738 18.7321 59.8667C18.7286 59.9042 18.7253 59.9413 18.7219 59.9783C18.7185 60.0158 18.716 60.0437 18.7143 60.0621C18.7295 60.1012 18.7353 60.1391 18.732 60.1763C18.7286 60.2138 18.7253 60.2509 18.7218 60.2879C18.7338 60.3643 18.7366 60.4348 18.7306 60.4999C18.7247 60.5652 18.7192 60.6254 18.7141 60.6812C18.692 60.9233 18.5899 61.1159 18.4078 61.2585C18.2258 61.4016 17.9536 61.5035 17.591 61.5642C17.2288 61.6254 16.8774 61.6638 16.538 61.6795C16.1983 61.6956 15.8796 61.6899 15.5815 61.6629L14.6286 61.6043C14.2002 61.5654 13.8396 61.5044 13.5464 61.4214C13.2536 61.3386 13.0281 61.2335 12.8707 61.1066C12.7131 60.9798 12.5997 60.8335 12.5302 60.6676C12.4609 60.5022 12.4363 60.3072 12.4566 60.0839C12.465 59.9911 12.6251 59.7804 12.9371 59.4521C13.2488 59.1243 13.7103 58.6971 14.3218 58.1708C14.935 57.6262 15.4131 57.0176 15.7563 56.3452C16.0993 55.6727 16.3072 54.9365 16.3802 54.1363C16.404 53.8758 16.4033 53.6273 16.3779 53.3901C16.3528 53.1534 16.3029 52.9286 16.2281 52.7151C16.1538 52.502 16.0373 52.3366 15.8787 52.2189C15.7204 52.1016 15.5204 52.0316 15.2781 52.0095C15.036 51.9875 14.7538 52.1966 14.4319 52.6361C14.1101 53.0761 13.7486 53.7469 13.3467 54.6483C12.9454 55.5503 12.518 56.3743 12.0648 57.1212C11.6118 57.868 11.1334 58.5282 10.6301 59.1016C10.1271 59.675 9.5078 60.0831 8.77143 60.3257C8.03562 60.5684 7.18337 60.6456 6.21446 60.5575C5.1712 60.4626 4.25592 60.2012 3.46816 59.7729C2.68073 59.3451 2.00258 58.7486 1.43348 57.9836C0.883081 57.2206 0.489649 56.3876 0.252402 55.4837C0.015604 54.5805 -0.0547076 53.5982 0.0420271 52.5375C0.0624041 52.3142 0.106181 52.0415 0.17291 51.7191C0.240199 51.3971 0.340516 51.0166 0.47431 50.5784C0.587839 50.1573 0.681663 49.8 0.755109 49.5062C0.828892 49.213 0.871549 49.001 0.883417 48.8707C0.891926 48.7778 0.878155 48.6731 0.841655 48.5572C0.805604 48.4413 0.75746 48.2962 0.698233 48.122C0.61874 47.9648 0.566454 47.8194 0.540703 47.6855C0.515512 47.5521 0.507787 47.4292 0.517975 47.3176C0.536561 47.1129 0.59019 46.9397 0.67808 46.7973C0.766193 46.6554 0.888231 46.554 1.04397 46.4928C1.12201 46.4626 1.21404 46.4335 1.31962 46.4053C1.42565 46.3776 1.55563 46.3424 1.70969 46.3001C1.8623 46.2766 2.02856 46.2544 2.20882 46.2329C2.38952 46.212 2.58366 46.1922 2.79202 46.1734C3.20874 46.1365 3.6726 46.0942 4.18415 46.0467C4.6957 45.9995 5.25484 45.9472 5.861 45.8897L5.94486 45.8973C6.15008 45.9159 6.32396 45.9647 6.46693 46.0432Z" fill="#121212"/>
<path d="M52.1406 61.5762L56.3357 61.3137C56.4266 61.9942 56.6115 62.5128 56.8906 62.8693C57.3447 63.4462 57.9937 63.7346 58.8373 63.7346C59.4666 63.7346 59.9517 63.5872 60.2924 63.2922C60.6331 62.9974 60.8035 62.6555 60.8035 62.2665C60.8035 61.897 60.6412 61.5666 60.3167 61.2748C59.9921 60.9831 59.2396 60.7078 58.0586 60.4485C56.1249 60.0143 54.7459 59.4373 53.9218 58.718C53.0912 57.9984 52.676 57.0814 52.676 55.9665C52.676 55.234 52.8884 54.5421 53.3135 53.8908C53.7384 53.2394 54.3776 52.7274 55.2311 52.3546C56.0842 51.982 57.2539 51.7957 58.74 51.7957C60.5634 51.7957 61.9535 52.1343 62.9106 52.8115C63.8678 53.489 64.4371 54.5664 64.6189 56.0444L60.4627 56.2873C60.3523 55.6457 60.1205 55.179 59.7668 54.8873C59.4131 54.5957 58.9249 54.4497 58.302 54.4497C57.7892 54.4497 57.4031 54.5584 57.1436 54.7755C56.8841 54.9928 56.7543 55.2568 56.7543 55.5678C56.7543 55.7947 56.8614 55.999 57.0754 56.1804C57.2831 56.3683 57.7763 56.5435 58.555 56.7053C60.4822 57.1202 61.8627 57.5399 62.6966 57.9644C63.5302 58.3889 64.1371 58.9157 64.5167 59.5443C64.8963 60.173 65.0862 60.8762 65.0862 61.654C65.0862 62.5679 64.833 63.4105 64.327 64.1818C63.8208 64.9532 63.1134 65.538 62.2051 65.9367C61.2965 66.3353 60.1512 66.5347 58.7692 66.5347C56.3422 66.5347 54.6617 66.068 53.7272 65.1346C52.7928 64.2013 52.2639 63.015 52.1406 61.5762Z" fill="white"/>
</svg>
