<svg width="24" height="24" viewBox="0 0 24 24" fill="none" xmlns="http://www.w3.org/2000/svg">
<path d="M5.88889 8.35763L10.4722 12.0005C10.9058 12.3454 11.4446 12.5333 12 12.5333C12.5554 12.5333 13.0942 12.3454 13.5278 12.0005L18.1111 8.35763M23 18.0719V5.92906C23 5.28496 22.7425 4.66725 22.284 4.2118C21.8256 3.75635 21.2039 3.50049 20.5556 3.50049H3.44444C2.79614 3.50049 2.17438 3.75635 1.71596 4.2118C1.25754 4.66725 1 5.28496 1 5.92906V18.0719C1 18.716 1.25754 19.3337 1.71596 19.7892C2.17438 20.2446 2.79614 20.5005 3.44444 20.5005H20.5556C21.2039 20.5005 21.8256 20.2446 22.284 19.7892C22.7425 19.3337 23 18.716 23 18.0719Z" stroke="#121212" stroke-width="2" stroke-linecap="round" stroke-linejoin="round"/>
</svg>
