<svg width="24" height="24" viewBox="0 0 24 24" fill="none" xmlns="http://www.w3.org/2000/svg">
<path d="M0.500079 11.9989H21.498C21.6306 11.9989 21.7577 11.9462 21.8515 11.8525C21.9452 11.7587 21.9979 11.6315 21.9979 11.4989V7.99927C21.998 7.86792 21.9722 7.73784 21.922 7.61645C21.8719 7.49507 21.7983 7.38476 21.7054 7.29183L14.7061 0.292474C14.6132 0.199648 14.5029 0.12604 14.3815 0.075857C14.2601 0.0256735 14.1301 -0.000102976 13.9987 3.0917e-07H1.99993C1.46955 3.0917e-07 0.960891 0.210695 0.585856 0.585733C0.210822 0.960771 0.000129326 1.46943 0.000129326 1.99982V11.4989C0.000129326 11.6315 0.0528025 11.7587 0.146561 11.8525C0.24032 11.9462 0.367484 11.9989 0.500079 11.9989ZM13.9987 2.49977L19.4982 7.99927H13.9987V2.49977ZM22.9978 16.0648C22.9754 16.3218 22.8567 16.5608 22.6655 16.734C22.4742 16.9072 22.2246 17.0016 21.9667 16.9984H18.9982V18.9983H20.9643C21.2223 18.9948 21.4721 19.0891 21.6634 19.2624C21.8547 19.4356 21.9733 19.6748 21.9954 19.9319C22.0045 20.0687 21.9853 20.2059 21.9392 20.3349C21.893 20.464 21.8208 20.5822 21.727 20.6822C21.6333 20.7822 21.5199 20.8618 21.3941 20.9162C21.2682 20.9705 21.1326 20.9984 20.9955 20.9981H18.9982V22.9641C19.0017 23.2222 18.9073 23.472 18.7341 23.6633C18.5609 23.8546 18.3217 23.9732 18.0646 23.9953C17.9278 24.0044 17.7906 23.9852 17.6615 23.9391C17.5325 23.8929 17.4143 23.8207 17.3143 23.7269C17.2143 23.6332 17.1347 23.5198 17.0803 23.394C17.026 23.2681 16.9981 23.1325 16.9984 22.9954V15.9985C16.9984 15.7333 17.1038 15.479 17.2913 15.2915C17.4788 15.104 17.7331 14.9986 17.9983 14.9986H21.9979C22.135 14.9983 22.2706 15.0262 22.3965 15.0806C22.5223 15.1349 22.6357 15.2145 22.7294 15.3145C22.8232 15.4145 22.8954 15.5327 22.9416 15.6618C22.9877 15.7908 23.0069 15.928 22.9978 16.0648ZM2.99983 14.9986H1.00003C0.734838 14.9986 0.480511 15.104 0.292993 15.2915C0.105476 15.479 0.000129326 15.7333 0.000129326 15.9985V22.9641C-0.00398253 23.2226 0.0900892 23.473 0.263366 23.6649C0.436643 23.8567 0.676227 23.9757 0.933785 23.9978C1.07056 24.0069 1.20774 23.9877 1.3368 23.9416C1.46587 23.8954 1.58406 23.8232 1.68404 23.7294C1.78403 23.6357 1.86366 23.5223 1.918 23.3965C1.97234 23.2706 2.00023 23.135 1.99993 22.9979V21.998H2.92483C4.82964 21.998 6.44198 20.5081 6.49822 18.6045C6.51245 18.1362 6.43248 17.6698 6.26306 17.2329C6.09365 16.7961 5.83823 16.3977 5.51197 16.0614C5.1857 15.7251 4.79522 15.4577 4.3637 15.2752C3.93217 15.0926 3.46838 14.9986 2.99983 14.9986ZM2.95608 19.9982H1.99993V16.9984H2.99983C3.20961 16.9975 3.41726 17.0405 3.60937 17.1248C3.80148 17.209 3.97377 17.3327 4.11512 17.4877C4.25647 17.6427 4.36373 17.8257 4.42997 18.0247C4.49621 18.2238 4.51996 18.4345 4.49967 18.6433C4.45604 19.0203 4.27396 19.3676 3.98875 19.6179C3.70354 19.8683 3.33553 20.0038 2.95608 19.9982ZM10.999 14.9986H8.99922C8.73403 14.9986 8.4797 15.104 8.29218 15.2915C8.10467 15.479 7.99932 15.7333 7.99932 15.9985V22.9979C7.99932 23.2631 8.10467 23.5174 8.29218 23.7049C8.4797 23.8925 8.73403 23.9978 8.99922 23.9978H10.914C13.3713 23.9978 15.4398 22.063 15.4973 19.607C15.5118 19.0071 15.4062 18.4104 15.1866 17.8519C14.9671 17.2935 14.6381 16.7846 14.2189 16.3552C13.7998 15.9258 13.299 15.5846 12.746 15.3516C12.1931 15.1186 11.5991 14.9986 10.999 14.9986ZM10.9378 21.998H9.99912V16.9984H10.999C11.3355 16.9982 11.6687 17.0659 11.9784 17.1975C12.2881 17.3291 12.5681 17.5219 12.8015 17.7643C13.0349 18.0067 13.217 18.2938 13.3368 18.6083C13.4566 18.9227 13.5117 19.2582 13.4988 19.5945C13.4463 20.9468 12.2914 21.998 10.9378 21.998Z" fill="#FF0000"/>
</svg>
