<svg width="36" height="37" viewBox="0 0 36 37" fill="none" xmlns="http://www.w3.org/2000/svg">
<g clip-path="url(#clip0_2064_10599)">
<mask id="path-1-inside-1_2064_10599" fill="white">
<path d="M2.76794 9.13338C2.75812 8.95178 2.71262 8.7739 2.63405 8.60989C2.55547 8.44587 2.44536 8.29894 2.31 8.17748C2.17464 8.05601 2.01667 7.9624 1.84513 7.90198C1.67358 7.84156 1.49181 7.81551 1.3102 7.82533C1.12859 7.83515 0.950686 7.88064 0.786656 7.95921C0.622626 8.03777 0.475678 8.14787 0.354202 8.28322C0.232726 8.41857 0.139102 8.57652 0.0786749 8.74805C0.0182475 8.91958 -0.00779984 9.10133 0.00202033 9.28292L2.76794 9.13338ZM4.55156 2.05682C4.30906 2.32478 4.18095 2.67692 4.19456 3.03804C4.20817 3.39916 4.36244 3.74065 4.62443 3.9896C4.88641 4.23854 5.23535 4.37521 5.59673 4.37042C5.95812 4.36563 6.30331 4.21976 6.5586 3.96396L4.55156 2.05682ZM15.5303 32.9256C15.6843 33.0248 15.8564 33.0925 16.0367 33.1247C16.2171 33.157 16.402 33.1531 16.5808 33.1134C16.7597 33.0737 16.9288 32.9988 17.0786 32.8933C17.2283 32.7877 17.3555 32.6535 17.453 32.4984C17.5505 32.3433 17.6162 32.1704 17.6463 31.9897C17.6765 31.809 17.6705 31.6242 17.6287 31.4458C17.587 31.2675 17.5102 31.0992 17.4029 30.9507C17.2956 30.8023 17.1599 30.6766 17.0037 30.5809L15.5303 32.9256ZM23.7449 33.3798C23.3853 33.3046 23.0104 33.3754 22.703 33.5765C22.3955 33.7777 22.1805 34.0928 22.1053 34.4524C22.0302 34.8121 22.101 35.1868 22.3021 35.4943C22.5033 35.8017 22.8184 36.0167 23.1781 36.0919L23.7449 33.3798ZM24.7272 25.0459L25.5673 24.1597L23.5585 22.2526L22.7183 23.1388L24.7272 25.0459ZM28.3351 23.7868L31.8617 25.8177L33.2447 23.4176L29.7162 21.3867L28.3351 23.7868ZM32.5431 30.027L29.9193 32.7871L31.9282 34.6961L34.5501 31.9342L32.5431 30.027ZM11.2743 25.8121C4.11766 18.2777 2.91749 11.9212 2.76794 9.13338L0.00202033 9.28292C0.186661 12.6984 1.63424 19.6845 9.26728 27.7193L11.2743 25.8121ZM13.815 13.5588L14.343 13.0012L12.336 11.0941L11.8061 11.6516L13.815 13.5588ZM14.7603 6.05942L12.432 2.76761L10.1702 4.36644L12.4966 7.65825L14.7603 6.05942ZM12.8087 12.6043C12.4764 12.284 12.1409 11.9671 11.8024 11.6535L11.7987 11.6572L11.7932 11.6627L11.7008 11.7698C11.52 12.0094 11.3768 12.2753 11.2762 12.5581C11.0952 13.0658 10.9992 13.7378 11.1211 14.576C11.3611 16.2229 12.4412 18.4365 15.2607 21.407L17.2696 19.498C14.6329 16.7232 13.983 15.0154 13.8611 14.1736C13.8021 13.7674 13.8611 13.5551 13.8851 13.4868L13.8999 13.4517L13.8482 13.52L13.815 13.5588L12.8087 12.6043ZM15.2607 21.4052C18.0728 24.3665 20.1961 25.5296 21.8154 25.7937C22.6482 25.9284 23.3221 25.8195 23.8317 25.6183C24.115 25.5082 24.3783 25.3523 24.6109 25.1567L24.6755 25.0939L24.7014 25.0681L24.7143 25.057L24.7198 25.0515L24.7217 25.0478C24.7217 25.0478 24.7254 25.0459 23.7209 24.0914C22.7165 23.1388 22.7183 23.1369 22.7183 23.1351L22.722 23.1333L22.7257 23.1277L22.7368 23.1185L22.8236 23.0409C22.8408 23.0311 22.8377 23.0317 22.8144 23.0428C22.7774 23.0576 22.6112 23.1166 22.2604 23.0594C21.5182 22.9376 19.9155 22.284 17.2696 19.498L15.2607 21.4052ZM12.432 2.76761C10.5598 0.120137 6.81525 -0.328494 4.55156 2.05682L6.5586 3.96396C7.52427 2.94854 9.22481 3.02793 10.1702 4.36644L12.432 2.76761ZM29.9193 32.7871C29.4042 33.3299 28.8669 33.6216 28.3425 33.6733L28.6139 36.4279C29.9932 36.2931 31.1103 35.5583 31.9282 34.6961L29.9193 32.7871ZM14.343 13.0012C16.1304 11.1199 16.2559 8.17704 14.7603 6.05942L12.4985 7.65825C13.2777 8.76044 13.1577 10.23 12.336 11.0941L14.343 13.0012ZM31.8617 25.8177C33.3776 26.6909 33.6749 28.8362 32.5431 30.027L34.5501 31.9342C36.9597 29.3975 36.258 25.153 33.2447 23.4176L31.8617 25.8177ZM25.5673 24.1597C26.2782 23.4102 27.3879 23.2422 28.3351 23.7868L29.7162 21.3867C27.687 20.2199 25.1741 20.5541 23.5585 22.2526L25.5673 24.1597ZM17.0037 30.5809C15.1887 29.4399 13.2555 27.8965 11.2743 25.8121L9.26728 27.7193C11.398 29.9624 13.5085 31.6554 15.5303 32.9256L17.0037 30.5809ZM28.3406 33.6733C26.8027 33.8075 25.2533 33.7085 23.7449 33.3798L23.1781 36.0919C24.9627 36.4774 26.7954 36.5907 28.6139 36.4279L28.3406 33.6733Z"/>
</mask>
<path d="M2.76794 9.13338C2.75812 8.95178 2.71262 8.7739 2.63405 8.60989C2.55547 8.44587 2.44536 8.29894 2.31 8.17748C2.17464 8.05601 2.01667 7.9624 1.84513 7.90198C1.67358 7.84156 1.49181 7.81551 1.3102 7.82533C1.12859 7.83515 0.950686 7.88064 0.786656 7.95921C0.622626 8.03777 0.475678 8.14787 0.354202 8.28322C0.232726 8.41857 0.139102 8.57652 0.0786749 8.74805C0.0182475 8.91958 -0.00779984 9.10133 0.00202033 9.28292L2.76794 9.13338ZM4.55156 2.05682C4.30906 2.32478 4.18095 2.67692 4.19456 3.03804C4.20817 3.39916 4.36244 3.74065 4.62443 3.9896C4.88641 4.23854 5.23535 4.37521 5.59673 4.37042C5.95812 4.36563 6.30331 4.21976 6.5586 3.96396L4.55156 2.05682ZM15.5303 32.9256C15.6843 33.0248 15.8564 33.0925 16.0367 33.1247C16.2171 33.157 16.402 33.1531 16.5808 33.1134C16.7597 33.0737 16.9288 32.9988 17.0786 32.8933C17.2283 32.7877 17.3555 32.6535 17.453 32.4984C17.5505 32.3433 17.6162 32.1704 17.6463 31.9897C17.6765 31.809 17.6705 31.6242 17.6287 31.4458C17.587 31.2675 17.5102 31.0992 17.4029 30.9507C17.2956 30.8023 17.1599 30.6766 17.0037 30.5809L15.5303 32.9256ZM23.7449 33.3798C23.3853 33.3046 23.0104 33.3754 22.703 33.5765C22.3955 33.7777 22.1805 34.0928 22.1053 34.4524C22.0302 34.8121 22.101 35.1868 22.3021 35.4943C22.5033 35.8017 22.8184 36.0167 23.1781 36.0919L23.7449 33.3798ZM24.7272 25.0459L25.5673 24.1597L23.5585 22.2526L22.7183 23.1388L24.7272 25.0459ZM28.3351 23.7868L31.8617 25.8177L33.2447 23.4176L29.7162 21.3867L28.3351 23.7868ZM32.5431 30.027L29.9193 32.7871L31.9282 34.6961L34.5501 31.9342L32.5431 30.027ZM11.2743 25.8121C4.11766 18.2777 2.91749 11.9212 2.76794 9.13338L0.00202033 9.28292C0.186661 12.6984 1.63424 19.6845 9.26728 27.7193L11.2743 25.8121ZM13.815 13.5588L14.343 13.0012L12.336 11.0941L11.8061 11.6516L13.815 13.5588ZM14.7603 6.05942L12.432 2.76761L10.1702 4.36644L12.4966 7.65825L14.7603 6.05942ZM12.8087 12.6043C12.4764 12.284 12.1409 11.9671 11.8024 11.6535L11.7987 11.6572L11.7932 11.6627L11.7008 11.7698C11.52 12.0094 11.3768 12.2753 11.2762 12.5581C11.0952 13.0658 10.9992 13.7378 11.1211 14.576C11.3611 16.2229 12.4412 18.4365 15.2607 21.407L17.2696 19.498C14.6329 16.7232 13.983 15.0154 13.8611 14.1736C13.8021 13.7674 13.8611 13.5551 13.8851 13.4868L13.8999 13.4517L13.8482 13.52L13.815 13.5588L12.8087 12.6043ZM15.2607 21.4052C18.0728 24.3665 20.1961 25.5296 21.8154 25.7937C22.6482 25.9284 23.3221 25.8195 23.8317 25.6183C24.115 25.5082 24.3783 25.3523 24.6109 25.1567L24.6755 25.0939L24.7014 25.0681L24.7143 25.057L24.7198 25.0515L24.7217 25.0478C24.7217 25.0478 24.7254 25.0459 23.7209 24.0914C22.7165 23.1388 22.7183 23.1369 22.7183 23.1351L22.722 23.1333L22.7257 23.1277L22.7368 23.1185L22.8236 23.0409C22.8408 23.0311 22.8377 23.0317 22.8144 23.0428C22.7774 23.0576 22.6112 23.1166 22.2604 23.0594C21.5182 22.9376 19.9155 22.284 17.2696 19.498L15.2607 21.4052ZM12.432 2.76761C10.5598 0.120137 6.81525 -0.328494 4.55156 2.05682L6.5586 3.96396C7.52427 2.94854 9.22481 3.02793 10.1702 4.36644L12.432 2.76761ZM29.9193 32.7871C29.4042 33.3299 28.8669 33.6216 28.3425 33.6733L28.6139 36.4279C29.9932 36.2931 31.1103 35.5583 31.9282 34.6961L29.9193 32.7871ZM14.343 13.0012C16.1304 11.1199 16.2559 8.17704 14.7603 6.05942L12.4985 7.65825C13.2777 8.76044 13.1577 10.23 12.336 11.0941L14.343 13.0012ZM31.8617 25.8177C33.3776 26.6909 33.6749 28.8362 32.5431 30.027L34.5501 31.9342C36.9597 29.3975 36.258 25.153 33.2447 23.4176L31.8617 25.8177ZM25.5673 24.1597C26.2782 23.4102 27.3879 23.2422 28.3351 23.7868L29.7162 21.3867C27.687 20.2199 25.1741 20.5541 23.5585 22.2526L25.5673 24.1597ZM17.0037 30.5809C15.1887 29.4399 13.2555 27.8965 11.2743 25.8121L9.26728 27.7193C11.398 29.9624 13.5085 31.6554 15.5303 32.9256L17.0037 30.5809ZM28.3406 33.6733C26.8027 33.8075 25.2533 33.7085 23.7449 33.3798L23.1781 36.0919C24.9627 36.4774 26.7954 36.5907 28.6139 36.4279L28.3406 33.6733Z" fill="#121212"/>
<path d="M23.5585 22.2526L24.2466 21.527L22.87 22.9778L23.5585 22.2526ZM31.8617 25.8177L30.995 25.3189L32.7282 26.3169L31.8617 25.8177ZM34.5501 31.9342L33.8613 32.6591L35.2396 31.2099L34.5501 31.9342ZM29.9193 32.7871L30.6075 32.0616L29.2305 33.512L29.9193 32.7871ZM11.2743 25.8121L11.9632 26.537L10.5855 25.0872L11.2743 25.8121ZM14.343 13.0012L13.6542 13.7261L15.0326 12.2769L14.343 13.0012ZM10.1702 4.36644L9.59295 3.54985L10.7471 5.18325L10.1702 4.36644ZM23.7209 24.0914L23.0328 24.817L24.039 25.7715L24.7272 25.0459L25.4154 24.3204L24.4091 23.3659L23.7209 24.0914ZM24.5629 23.2053L25.251 22.4797L24.2466 21.527L23.5585 22.2526L22.8703 22.9782L23.8747 23.9308L24.5629 23.2053ZM29.0257 22.5868L28.1589 22.088L27.4684 23.2881L28.3351 23.7868L29.2018 24.2856L29.8924 23.0855L29.0257 22.5868ZM32.5523 24.6176L31.6856 24.1189L30.995 25.3189L31.8617 25.8177L32.7285 26.3164L33.419 25.1164L32.5523 24.6176ZM33.5475 30.9797L32.858 31.7039L33.8606 32.6584L34.5501 31.9342L35.2396 31.2099L34.237 30.2554L33.5475 30.9797ZM30.9256 33.7416L31.6138 33.0161L30.6075 32.0616L29.9193 32.7871L29.2311 33.5127L30.2374 34.4672L30.9256 33.7416ZM28.4773 35.0524L27.4822 35.1513L27.6188 36.5267L28.6139 36.4279L29.609 36.329L29.4724 34.9536L28.4773 35.0524ZM10.2717 26.7648L10.9605 27.4897L11.9631 26.537L11.2743 25.8121L10.5855 25.0872L9.58291 26.0398L10.2717 26.7648ZM0.00202033 9.28292L0.056008 10.2815L2.82192 10.1319L2.76794 9.13338L2.71395 8.13483L-0.0519673 8.28438L0.00202033 9.28292ZM12.8105 12.6043L12.1217 13.3292L13.1261 14.2837L13.815 13.5588L14.5038 12.8339L13.4994 11.8794L12.8105 12.6043ZM13.3404 12.0467L12.6509 12.771L13.6535 13.7255L14.343 13.0012L15.0326 12.2769L14.03 11.3224L13.3404 12.0467ZM13.6285 6.85883L14.2054 7.67565L15.3372 6.87623L14.7603 6.05942L14.1834 5.24261L13.0516 6.04202L13.6285 6.85883ZM11.302 3.56703L10.7251 2.75022L9.59327 3.54963L10.1702 4.36644L10.7471 5.18325L11.8789 4.38384L11.302 3.56703ZM6.5586 3.96396L7.24744 3.23905L5.2404 1.3319L4.55156 2.05682L3.86273 2.78174L5.86977 4.68888L6.5586 3.96396ZM16.267 20.4525L16.9559 21.1774L17.9603 20.2229L17.2714 19.498L16.5826 18.7731L15.5781 19.7276L16.267 20.4525ZM17.0037 30.5809L16.157 30.0488L14.6836 32.3935L15.5303 32.9256L16.377 33.4577L17.8504 31.113L17.0037 30.5809ZM23.1781 36.0919L24.1569 36.2964L24.7238 33.5843L23.7449 33.3798L22.7661 33.1752L22.1992 35.8873L23.1781 36.0919ZM25.5673 24.1597L26.2558 23.4345L24.247 21.5274L23.5585 22.2526L22.87 22.9778L24.8788 24.885L25.5673 24.1597ZM31.8617 25.8177L32.7282 26.3169L34.1111 23.9168L33.2447 23.4176L32.3782 22.9183L30.9953 25.3184L31.8617 25.8177ZM29.7162 21.3867L28.8495 20.888L27.4684 23.2881L28.3351 23.7868L29.2018 24.2856L30.583 21.8855L29.7162 21.3867ZM29.9193 32.7871L29.2305 33.512L31.2394 35.421L31.9282 34.6961L32.6171 33.9712L30.6082 32.0622L29.9193 32.7871ZM34.5501 31.9342L35.2389 31.2093L33.2319 29.3021L32.5431 30.027L31.8542 30.7519L33.8613 32.6591L34.5501 31.9342ZM9.26728 27.7193L9.95612 28.4442L11.9632 26.537L11.2743 25.8121L10.5855 25.0872L8.57844 26.9943L9.26728 27.7193ZM14.343 13.0012L15.0319 12.2763L13.0248 10.3691L12.336 11.0941L11.6472 11.819L13.6542 13.7261L14.343 13.0012ZM12.432 2.76761L11.8548 1.95103L9.59295 3.54985L10.1702 4.36644L10.7474 5.18303L13.0092 3.5842L12.432 2.76761ZM23.7209 24.0914L25.0986 22.6416L25.0972 22.6403L23.7209 24.0914ZM24.7272 25.0459L23.3502 26.4964L24.8017 27.8744L26.1787 26.4219L24.7272 25.0459ZM23.5585 22.2526L22.1093 20.8742L22.107 20.8766L23.5585 22.2526ZM28.3351 23.7868L29.3332 22.0536L29.332 22.053L28.3351 23.7868ZM31.8617 25.8177L32.8601 24.0846L32.8598 24.0845L31.8617 25.8177ZM34.5501 31.9342L33.1 30.5568L33.0996 30.5572L34.5501 31.9342ZM29.9193 32.7871L28.4698 31.4092L28.4687 31.4103L29.9193 32.7871ZM28.6139 36.4279L28.7923 38.4199L28.8004 38.4192L28.8084 38.4184L28.6139 36.4279ZM11.2743 25.8121L9.82422 27.1895L9.82468 27.19L11.2743 25.8121ZM2.76794 9.13338L4.76506 9.02623L4.76502 9.02538L2.76794 9.13338ZM0.00202033 9.28292L1.9991 9.17496L1.9991 9.17492L0.00202033 9.28292ZM13.815 13.5588L12.4386 15.0098L13.8907 16.3872L15.2671 14.9341L13.815 13.5588ZM14.343 13.0012L12.8931 11.6237L12.891 11.6259L14.343 13.0012ZM14.7603 6.05942L16.394 4.90564L16.3932 4.90451L14.7603 6.05942ZM10.1702 4.36644L8.53654 5.52024L8.5369 5.52075L10.1702 4.36644ZM4.55156 2.05682L3.10085 0.680075L3.08454 0.697257L3.06865 0.714819L4.55156 2.05682ZM6.5586 3.96396L7.97422 5.37678L7.99125 5.3597L8.00788 5.34223L6.5586 3.96396ZM15.5303 32.9256L16.6136 31.2444L16.604 31.2382L16.5942 31.2321L15.5303 32.9256ZM17.0037 30.5809L15.9393 32.2741L15.9492 32.2804L15.9592 32.2865L17.0037 30.5809ZM23.7449 33.3798L24.1708 31.4256L24.1624 31.4238L24.154 31.422L23.7449 33.3798ZM23.1781 36.0919L23.6005 34.1369L23.5872 34.1341L23.1781 36.0919ZM25.5673 24.1597L24.1162 22.7835L24.1159 22.7838L25.5673 24.1597ZM22.7183 23.1388L21.2669 21.7628L19.8919 23.2132L21.3413 24.5893L22.7183 23.1388ZM33.2447 23.4176L34.2428 21.6844L34.2424 21.6842L33.2447 23.4176ZM29.7162 21.3867L30.7139 19.6533L30.7132 19.6529L29.7162 21.3867ZM32.5431 30.027L33.9926 31.405L33.9927 31.4049L32.5431 30.027ZM31.9282 34.6961L30.4777 33.3192L30.4773 33.3196L31.9282 34.6961ZM9.26728 27.7193L10.7174 26.3418L10.7173 26.3418L9.26728 27.7193ZM12.336 11.0941L10.8867 9.71584L10.8863 9.71624L12.336 11.0941ZM11.8061 11.6516L10.3564 10.2738L8.97779 11.7243L10.4291 13.1021L11.8061 11.6516ZM12.432 2.76761L10.7991 3.9224L10.7992 3.92253L12.432 2.76761ZM12.4966 7.65825L10.8634 8.81255L12.0173 10.4453L13.6505 9.29187L12.4966 7.65825ZM12.8087 12.6043L11.4208 14.0444L11.4266 14.0499L11.4323 14.0553L12.8087 12.6043ZM11.8024 11.6535L13.1616 10.1863L11.7498 8.87845L10.3886 10.2388L11.8024 11.6535ZM11.7987 11.6572L10.3849 10.2425L10.3843 10.2431L11.7987 11.6572ZM11.7932 11.6627L10.3788 10.2486L10.3266 10.3008L10.2784 10.3567L11.7932 11.6627ZM11.7008 11.7698L10.1861 10.4638L10.1435 10.5132L10.1042 10.5653L11.7008 11.7698ZM11.2762 12.5581L13.1601 13.2295L13.1604 13.2288L11.2762 12.5581ZM11.1211 14.576L9.14188 14.8638L9.14198 14.8645L11.1211 14.576ZM15.2607 21.407L13.8101 22.7839L15.1877 24.2354L16.6384 22.8568L15.2607 21.407ZM17.2696 19.498L18.7198 18.1208L18.7195 18.1204L17.2696 19.498ZM13.8611 14.1736L15.8405 13.887L15.8403 13.8856L13.8611 14.1736ZM13.8851 13.4868L12.0419 12.7105L12.0184 12.7665L11.9982 12.8237L13.8851 13.4868ZM13.8999 13.4517L15.7431 14.2279L12.3052 12.2447L13.8999 13.4517ZM13.8482 13.52L15.3666 14.8217L15.4062 14.7755L15.443 14.727L13.8482 13.52ZM15.2607 21.4052L13.8837 19.9547L12.4331 21.3319L13.8104 22.7824L15.2607 21.4052ZM21.8154 25.7937L21.4936 27.7676L21.4959 27.768L21.8154 25.7937ZM23.8317 25.6183L23.1074 23.754L23.0971 23.758L23.8317 25.6183ZM24.6109 25.1567L25.8978 26.6877L25.9529 26.6414L26.0044 26.5913L24.6109 25.1567ZM24.6755 25.0939L26.069 26.5286L26.0794 26.5185L26.0897 26.5082L24.6755 25.0939ZM24.7014 25.0681L23.3999 23.5495L23.3416 23.5995L23.2872 23.6538L24.7014 25.0681ZM24.7143 25.057L26.0158 26.5756L26.0741 26.5256L26.1284 26.4713L24.7143 25.057ZM24.7198 25.0515L26.134 26.4658L26.3634 26.2364L26.5085 25.9463L24.7198 25.0515ZM24.7217 25.0478L23.8277 23.2587L23.2313 23.5567L22.933 24.1529L24.7217 25.0478ZM22.7183 23.1351L21.8243 21.346L20.7183 21.8987V23.1351H22.7183ZM22.722 23.1333L23.616 24.9223L24.0914 24.6848L24.3862 24.2426L22.722 23.1333ZM22.7257 23.1277L21.4455 21.5912L21.2225 21.7769L21.0616 22.0184L22.7257 23.1277ZM22.7368 23.1185L24.017 24.655L24.0436 24.6329L24.0694 24.6099L22.7368 23.1185ZM22.8236 23.0409L21.8314 21.3044L21.6483 21.409L21.491 21.5496L22.8236 23.0409ZM22.8144 23.0428L23.5571 24.8998L23.6145 24.8768L23.6705 24.8503L22.8144 23.0428ZM22.2604 23.0594L21.9364 25.033L21.9384 25.0333L22.2604 23.0594ZM28.3425 33.6733L28.1463 31.683L26.156 31.8792L26.3521 33.8694L28.3425 33.6733ZM12.4985 7.65825L11.344 6.02507L9.71079 7.17956L10.8654 8.81277L12.4985 7.65825ZM28.3406 33.6733L30.3309 33.4759L30.1358 31.5091L28.1668 31.6809L28.3406 33.6733ZM2.76794 9.13338L4.76502 9.02538C4.74101 8.5815 4.62981 8.14669 4.43775 7.7458L2.63405 8.60989L0.830342 9.47397C0.795434 9.40111 0.775217 9.32207 0.770853 9.24137L2.76794 9.13338ZM2.63405 8.60989L4.43775 7.7458C4.2457 7.3449 3.97656 6.98577 3.64572 6.6889L2.31 8.17748L0.974281 9.66605C0.914163 9.61211 0.865249 9.54684 0.830342 9.47397L2.63405 8.60989ZM2.31 8.17748L3.64572 6.6889C3.31487 6.39203 2.9288 6.16323 2.50955 6.01557L1.84513 7.90198L1.1807 9.78839C1.10454 9.76156 1.0344 9.72 0.974281 9.66605L2.31 8.17748ZM1.84513 7.90198L2.50955 6.01557C2.0903 5.8679 1.64607 5.80425 1.20222 5.82825L1.3102 7.82533L1.41817 9.82241C1.33755 9.82677 1.25686 9.81521 1.1807 9.78839L1.84513 7.90198ZM1.3102 7.82533L1.20222 5.82825C0.758376 5.85224 0.323597 5.96342 -0.0772903 6.15543L0.786656 7.95921L1.6506 9.76298C1.57777 9.79786 1.4988 9.81805 1.41817 9.82241L1.3102 7.82533ZM0.786656 7.95921L-0.0772903 6.15543C-0.478178 6.34744 -0.837332 6.61653 -1.13424 6.94735L0.354202 8.28322L1.84264 9.61909C1.78869 9.67921 1.72343 9.7281 1.6506 9.76298L0.786656 7.95921ZM0.354202 8.28322L-1.13424 6.94735C-1.43115 7.27817 -1.65999 7.66423 -1.80769 8.0835L0.0786749 8.74805L1.96504 9.41259C1.93819 9.4888 1.8966 9.55897 1.84264 9.61909L0.354202 8.28322ZM0.0786749 8.74805L-1.80769 8.0835C-1.9554 8.50277 -2.01907 8.94703 -1.99506 9.39092L0.00202033 9.28292L1.9991 9.17492C2.00347 9.25562 1.99189 9.33638 1.96504 9.41259L0.0786749 8.74805ZM4.55156 2.05682L3.06865 0.714819C2.4759 1.36981 2.1627 2.2306 2.19598 3.11339L4.19456 3.03804L6.19314 2.96269C6.19919 3.12324 6.14223 3.27975 6.03448 3.39882L4.55156 2.05682ZM4.19456 3.03804L2.19598 3.11339C2.22926 3.99618 2.60639 4.83094 3.24676 5.43943L4.62443 3.9896L6.0021 2.53976C6.1185 2.65037 6.18709 2.80215 6.19314 2.96269L4.19456 3.03804ZM4.62443 3.9896L3.24676 5.43943C3.88712 6.04793 4.73999 6.38195 5.62324 6.37025L5.59673 4.37042L5.57023 2.3706C5.73071 2.36847 5.8857 2.42916 6.0021 2.53976L4.62443 3.9896ZM5.59673 4.37042L5.62324 6.37025C6.50649 6.35854 7.3502 6.00203 7.97422 5.37678L6.5586 3.96396L5.14299 2.55115C5.25642 2.4375 5.40975 2.37272 5.57023 2.3706L5.59673 4.37042ZM15.5303 32.9256L14.4469 34.6068C14.8233 34.8493 15.2441 35.0148 15.6848 35.0935L16.0367 33.1247L16.3887 31.156C16.4688 31.1703 16.5452 31.2003 16.6136 31.2444L15.5303 32.9256ZM16.0367 33.1247L15.6848 35.0935C16.1256 35.1723 16.5776 35.1629 17.0146 35.0658L16.5808 33.1134L16.147 31.161C16.2265 31.1434 16.3086 31.1416 16.3887 31.156L16.0367 33.1247ZM16.5808 33.1134L17.0146 35.0658C17.4517 34.9687 17.8652 34.7858 18.2311 34.5278L17.0786 32.8933L15.926 31.2588C15.9925 31.2119 16.0676 31.1786 16.147 31.161L16.5808 33.1134ZM17.0786 32.8933L18.2311 34.5278C18.5971 34.2697 18.9081 33.9416 19.1464 33.5625L17.453 32.4984L15.7596 31.4342C15.8029 31.3653 15.8595 31.3057 15.926 31.2588L17.0786 32.8933ZM17.453 32.4984L19.1464 33.5625C19.3846 33.1834 19.5453 32.7608 19.619 32.3191L17.6463 31.9897L15.6737 31.6603C15.6871 31.58 15.7163 31.5032 15.7596 31.4342L17.453 32.4984ZM17.6463 31.9897L19.619 32.3191C19.6928 31.8775 19.6782 31.4256 19.576 30.9896L17.6287 31.4458L15.6815 31.9021C15.6629 31.8228 15.6602 31.7406 15.6737 31.6603L17.6463 31.9897ZM17.6287 31.4458L19.576 30.9896C19.4739 30.5536 19.2862 30.1423 19.024 29.7793L17.4029 30.9507L15.7819 32.1221C15.7342 32.0562 15.7001 31.9814 15.6815 31.9021L17.6287 31.4458ZM17.4029 30.9507L19.024 29.7793C18.7617 29.4164 18.43 29.1091 18.0482 28.8753L17.0037 30.5809L15.9592 32.2865C15.8898 32.244 15.8295 32.1881 15.7819 32.1221L17.4029 30.9507ZM23.7449 33.3798L24.154 31.422C23.2752 31.2384 22.3594 31.4113 21.608 31.9029L22.703 33.5765L23.7979 35.2502C23.6615 35.3394 23.4953 35.3708 23.3358 35.3375L23.7449 33.3798ZM22.703 33.5765L21.608 31.9029C20.8567 32.3944 20.3313 33.1643 20.1476 34.0432L22.1053 34.4524L24.063 34.8616C24.0297 35.0212 23.9343 35.161 23.7979 35.2502L22.703 33.5765ZM22.1053 34.4524L20.1476 34.0432C19.9639 34.9222 20.1369 35.838 20.6286 36.5894L22.3021 35.4943L23.9757 34.3992C24.065 34.5356 24.0964 34.702 24.063 34.8616L22.1053 34.4524ZM22.3021 35.4943L20.6286 36.5894C21.1202 37.3407 21.8902 37.8659 22.769 38.0496L23.1781 36.0919L23.5872 34.1341C23.7467 34.1675 23.8864 34.2628 23.9757 34.3992L22.3021 35.4943ZM24.7272 25.0459L26.1787 26.4219L27.0188 25.5357L25.5673 24.1597L24.1159 22.7838L23.2758 23.67L24.7272 25.0459ZM23.5585 22.2526L22.107 20.8766L21.2669 21.7628L22.7183 23.1388L24.1698 24.5148L25.0099 23.6286L23.5585 22.2526ZM22.7183 23.1388L21.3413 24.5893L23.3502 26.4964L24.7272 25.0459L26.1042 23.5955L24.0953 21.6883L22.7183 23.1388ZM28.3351 23.7868L27.337 25.52L30.8637 27.5508L31.8617 25.8177L32.8598 24.0845L29.3332 22.0536L28.3351 23.7868ZM33.2447 23.4176L34.2424 21.6842L30.7139 19.6533L29.7162 21.3867L28.7185 23.1201L32.247 25.151L33.2447 23.4176ZM32.5431 30.027L31.0935 28.6491L28.4698 31.4092L29.9193 32.7871L31.3689 34.1651L33.9926 31.405L32.5431 30.027ZM31.9282 34.6961L33.3787 36.0731L36.0006 33.3111L34.5501 31.9342L33.0996 30.5572L30.4777 33.3192L31.9282 34.6961ZM11.2743 25.8121L12.7244 24.4347C5.91055 17.2612 4.89035 11.3615 4.76506 9.02623L2.76794 9.13338L0.770807 9.24052C0.944641 12.4808 2.32477 19.2942 9.82422 27.1895L11.2743 25.8121ZM0.00202033 9.28292L-1.99506 9.39088C-1.78601 13.258 -0.15885 20.7009 7.81728 29.0968L9.26728 27.7193L10.7173 26.3418C3.42733 18.6682 2.15933 12.1389 1.9991 9.17496L0.00202033 9.28292ZM13.815 13.5588L15.2671 14.9341L15.7951 14.3765L14.343 13.0012L12.891 11.6259L12.3629 12.1835L13.815 13.5588ZM12.336 11.0941L10.8863 9.71624L10.3564 10.2738L11.8061 11.6516L13.2558 13.0294L13.7857 12.4719L12.336 11.0941ZM11.8061 11.6516L10.4291 13.1021L12.438 15.0092L13.815 13.5588L15.192 12.1083L13.1831 10.2011L11.8061 11.6516ZM14.7603 6.05942L16.3932 4.90451L14.0649 1.6127L12.432 2.76761L10.7992 3.92253L13.1275 7.21434L14.7603 6.05942ZM10.1702 4.36644L8.5369 5.52075L10.8634 8.81255L12.4966 7.65825L14.1299 6.50394L11.8034 3.21213L10.1702 4.36644ZM12.4966 7.65825L13.6505 9.29187L15.9141 7.69304L14.7603 6.05942L13.6065 4.4258L11.3428 6.02463L12.4966 7.65825ZM12.8087 12.6043L14.1965 11.1642C13.8548 10.8348 13.5098 10.5088 13.1616 10.1863L11.8024 11.6535L10.4432 13.1207C10.7721 13.4253 11.098 13.7333 11.4208 14.0444L12.8087 12.6043ZM11.8024 11.6535L10.3886 10.2388L10.3849 10.2425L11.7987 11.6572L13.2125 13.0718L13.2162 13.0681L11.8024 11.6535ZM11.7987 11.6572L10.3843 10.2431L10.3788 10.2486L11.7932 11.6627L13.2075 13.0768L13.2131 13.0712L11.7987 11.6572ZM11.7932 11.6627L10.2784 10.3567L10.1861 10.4638L11.7008 11.7698L13.2156 13.0757L13.3079 12.9687L11.7932 11.6627ZM11.7008 11.7698L10.1042 10.5653C9.80098 10.9673 9.56081 11.4131 9.39197 11.8874L11.2762 12.5581L13.1604 13.2288C13.1929 13.1375 13.2391 13.0516 13.2975 12.9742L11.7008 11.7698ZM11.2762 12.5581L9.39224 11.8867C9.09643 12.7167 8.97546 13.7192 9.14188 14.8638L11.1211 14.576L13.1003 14.2883C13.023 13.7565 13.094 13.415 13.1601 13.2295L11.2762 12.5581ZM11.1211 14.576L9.14198 14.8645C9.46712 17.0952 10.8592 19.6748 13.8101 22.7839L15.2607 21.407L16.7113 20.0302C14.0233 17.1981 13.2551 15.3505 13.1002 14.2876L11.1211 14.576ZM15.2607 21.407L16.6384 22.8568L18.6473 20.9478L17.2696 19.498L15.8919 18.0482L13.883 19.9572L15.2607 21.407ZM17.2696 19.498L18.7195 18.1204C16.2145 15.4842 15.8776 14.1433 15.8405 13.887L13.8611 14.1736L11.8818 14.4601C12.0884 15.8875 13.0513 17.9622 15.8197 20.8757L17.2696 19.498ZM13.8611 14.1736L15.8403 13.8856C15.8317 13.8266 15.8387 13.8308 15.8335 13.8875C15.8278 13.9496 15.8106 14.0401 15.772 14.1498L13.8851 13.4868L11.9982 12.8237C11.863 13.2087 11.7782 13.7481 11.882 14.4615L13.8611 14.1736ZM13.8851 13.4868L15.7284 14.263L15.7431 14.2279L13.8999 13.4517L12.0567 12.6755L12.0419 12.7105L13.8851 13.4868ZM13.8999 13.4517L12.3052 12.2447L12.2535 12.313L13.8482 13.52L15.443 14.727L15.4947 14.6586L13.8999 13.4517ZM13.8482 13.52L12.3298 12.2183L12.2966 12.2571L13.815 13.5588L15.3334 14.8604L15.3666 14.8217L13.8482 13.52ZM13.815 13.5588L15.1913 12.1077L14.1851 11.1532L12.8087 12.6043L11.4323 14.0553L12.4386 15.0098L13.815 13.5588ZM15.2607 21.4052L13.8104 22.7824C16.7437 25.8713 19.2419 27.4005 21.4936 27.7676L21.8154 25.7937L22.1373 23.8197C21.1504 23.6588 19.4019 22.8617 16.711 20.028L15.2607 21.4052ZM21.8154 25.7937L21.4959 27.768C22.677 27.9591 23.7155 27.8144 24.5663 27.4785L23.8317 25.6183L23.0971 23.758C22.9287 23.8246 22.6194 23.8977 22.135 23.8193L21.8154 25.7937ZM23.8317 25.6183L24.556 27.4825C25.0438 27.293 25.4972 27.0244 25.8978 26.6877L24.6109 25.1567L23.324 23.6257C23.2593 23.6801 23.1862 23.7234 23.1075 23.754L23.8317 25.6183ZM24.6109 25.1567L26.0044 26.5913L26.069 26.5286L24.6755 25.0939L23.282 23.6593L23.2174 23.7221L24.6109 25.1567ZM24.6755 25.0939L26.0897 26.5082L26.1155 26.4824L24.7014 25.0681L23.2872 23.6538L23.2614 23.6796L24.6755 25.0939ZM24.7014 25.0681L26.0028 26.5867L26.0158 26.5756L24.7143 25.057L23.4128 23.5384L23.3999 23.5495L24.7014 25.0681ZM24.7143 25.057L26.1284 26.4713L26.134 26.4658L24.7198 25.0515L23.3057 23.6372L23.3002 23.6427L24.7143 25.057ZM24.7198 25.0515L26.5085 25.9463L26.5103 25.9426L24.7217 25.0478L22.933 24.1529L22.9312 24.1566L24.7198 25.0515ZM24.7217 25.0478C25.6157 26.8368 25.9011 26.663 26.1536 26.4441C26.2324 26.3585 26.4316 26.0852 26.5361 25.8892C26.7118 25.5103 26.7293 25.165 26.7195 24.9546C26.7016 24.5707 26.5752 24.2924 26.5427 24.2208C26.4556 24.0291 26.3564 23.8952 26.3405 23.8733C26.281 23.7913 26.2278 23.7317 26.2193 23.7221C26.1868 23.6854 26.1595 23.6575 26.1541 23.652C26.1357 23.633 26.1186 23.6161 26.1086 23.6063C26.0849 23.583 26.0473 23.5465 25.9838 23.4855C25.855 23.3617 25.6015 23.1195 25.0986 22.6416L23.7209 24.0914L22.3432 25.5412C22.8449 26.0179 23.0917 26.2539 23.2122 26.3696C23.2733 26.4283 23.2976 26.452 23.3045 26.4589C23.3099 26.4641 23.3003 26.4549 23.2856 26.4397C23.2821 26.4361 23.2558 26.4091 23.2237 26.3729C23.2154 26.3636 23.1622 26.3041 23.1028 26.2222C23.0869 26.2003 22.9877 26.0664 22.9007 25.8748C22.8681 25.8031 22.7418 25.5248 22.7239 25.1409C22.714 24.9305 22.7316 24.5853 22.9073 24.2064C23.0118 24.0104 23.211 23.7371 23.2898 23.6515C23.5423 23.4326 23.8277 23.2587 24.7217 25.0478ZM23.7209 24.0914L25.0972 22.6403C24.595 22.1639 24.3474 21.9282 24.2261 21.8121C24.196 21.7833 24.1748 21.7629 24.16 21.7486C24.1526 21.7414 24.1473 21.7363 24.1435 21.7326C24.1397 21.7289 24.1383 21.7275 24.1386 21.7278C24.1388 21.7281 24.1399 21.7291 24.1415 21.7307C24.1431 21.7323 24.1459 21.7351 24.1495 21.7388C24.154 21.7433 24.1722 21.7618 24.1954 21.7872C24.2072 21.8001 24.2288 21.8239 24.2547 21.855C24.2767 21.8814 24.3268 21.9425 24.3826 22.0262C24.4332 22.102 24.5468 22.2815 24.6269 22.5375C24.6712 22.6788 24.6979 22.819 24.7102 22.9546C24.7203 23.066 24.7183 23.1729 24.7183 23.1351H22.7183H20.7183C20.7183 23.0974 20.7164 23.2043 20.7265 23.3158C20.7388 23.4515 20.7655 23.5917 20.8098 23.7331C20.89 23.9892 21.0037 24.169 21.0545 24.2451C21.1479 24.3853 21.2417 24.4845 21.245 24.4881C21.2856 24.5324 21.3233 24.5693 21.3289 24.5748C21.3565 24.6021 21.3979 24.642 21.4598 24.7013C21.5887 24.8247 21.8425 25.0663 22.3446 25.5426L23.7209 24.0914ZM22.7183 23.1351L23.6124 24.9242L23.616 24.9223L22.722 23.1333L21.828 21.3442L21.8243 21.346L22.7183 23.1351ZM22.722 23.1333L24.3862 24.2426L24.3899 24.2371L22.7257 23.1277L21.0616 22.0184L21.0579 22.0239L22.722 23.1333ZM22.7257 23.1277L24.006 24.6643L24.017 24.655L22.7368 23.1185L21.4566 21.5819L21.4455 21.5912L22.7257 23.1277ZM22.7368 23.1185L24.0694 24.6099L24.1562 24.5323L22.8236 23.0409L21.491 21.5496L21.4042 21.6271L22.7368 23.1185ZM22.8236 23.0409L23.8158 24.7775C23.8212 24.7744 23.8695 24.7471 23.9252 24.7107C23.9418 24.6999 23.9734 24.679 24.0118 24.651C24.0312 24.6369 24.1346 24.5626 24.2487 24.4484C24.2906 24.4065 24.4534 24.2441 24.5924 23.988C24.6698 23.8454 25.1969 22.8141 24.4135 21.8065C24.0808 21.3785 23.6687 21.1991 23.4299 21.1247C23.1883 21.0493 22.9855 21.0368 22.8775 21.0345C22.663 21.0298 22.4975 21.0618 22.4423 21.0728C22.31 21.0992 22.2099 21.1337 22.1856 21.1421C22.145 21.156 22.113 21.1684 22.0955 21.1753C22.0601 21.1894 22.0322 21.2016 22.0199 21.207C21.9927 21.219 21.9697 21.2298 21.9583 21.2353L22.8144 23.0428L23.6705 24.8503C23.6692 24.8509 23.6659 24.8524 23.6612 24.8546C23.6569 24.8566 23.6481 24.8607 23.6363 24.8659C23.6273 24.8698 23.6021 24.8809 23.5687 24.8942C23.5522 24.9007 23.5211 24.9128 23.4812 24.9264C23.4576 24.9345 23.358 24.9689 23.2261 24.9953C23.1711 25.0062 23.0057 25.0381 22.7913 25.0335C22.6834 25.0312 22.4807 25.0187 22.2391 24.9433C22.0004 24.8689 21.5883 24.6895 21.2556 24.2616C20.4722 23.254 20.9993 22.2227 21.0767 22.0802C21.2156 21.8243 21.3784 21.6619 21.4201 21.6202C21.534 21.5063 21.637 21.4322 21.6558 21.4185C21.6936 21.3909 21.7245 21.3705 21.7402 21.3603C21.7725 21.3392 21.7979 21.3241 21.8066 21.3189C21.8182 21.312 21.8271 21.3069 21.8314 21.3044L22.8236 23.0409ZM22.8144 23.0428L22.0716 21.1858C22.1278 21.1634 22.1935 21.1406 22.2655 21.1222C22.3339 21.1046 22.3947 21.0945 22.446 21.0891C22.5494 21.0782 22.5994 21.0883 22.5825 21.0855L22.2604 23.0594L21.9384 25.0333C22.6354 25.147 23.1706 25.0543 23.5571 24.8998L22.8144 23.0428ZM22.2604 23.0594L22.5844 21.0858C22.4718 21.0673 21.243 20.7775 18.7198 18.1208L17.2696 19.498L15.8194 20.8753C18.588 23.7905 20.5645 24.8078 21.9364 25.033L22.2604 23.0594ZM17.2696 19.498L15.8926 18.0476L13.8837 19.9547L15.2607 21.4052L16.6377 22.8557L18.6466 20.9485L17.2696 19.498ZM12.432 2.76761L14.065 1.61283C11.5322 -1.9686 6.31135 -2.70292 3.10085 0.680075L4.55156 2.05682L6.00228 3.43357C7.31916 2.04593 9.5873 2.20887 10.7991 3.9224L12.432 2.76761ZM6.5586 3.96396L8.00788 5.34223C8.0567 5.29089 8.11687 5.26755 8.19133 5.2743C8.25415 5.28 8.39173 5.31521 8.53654 5.52024L10.1702 4.36644L11.8038 3.21264C10.1746 0.905912 6.99483 0.603059 5.10933 2.5857L6.5586 3.96396ZM29.9193 32.7871L28.4687 31.4103C28.1723 31.7226 28.052 31.6923 28.1463 31.683L28.3425 33.6733L28.5387 35.6637C29.6817 35.551 30.6361 34.9372 31.37 34.1639L29.9193 32.7871ZM28.3425 33.6733L26.3521 33.8694L26.6236 36.624L28.6139 36.4279L30.6043 36.2317L30.3329 33.4772L28.3425 33.6733ZM28.6139 36.4279L28.8084 38.4184C30.807 38.2231 32.3418 37.166 33.3791 36.0726L31.9282 34.6961L30.4773 33.3196C29.8787 33.9506 29.1794 34.3631 28.4194 34.4373L28.6139 36.4279ZM14.343 13.0012L15.793 14.3787C18.279 11.7621 18.4048 7.75273 16.394 4.90564L14.7603 6.05942L13.1267 7.2132C14.1071 8.60134 13.9818 10.4777 12.8931 11.6237L14.343 13.0012ZM14.7603 6.05942L13.6059 4.42625L11.344 6.02507L12.4985 7.65825L13.6529 9.29142L15.9148 7.6926L14.7603 6.05942ZM12.4985 7.65825L10.8654 8.81277C10.9826 8.97867 11.0312 9.17024 11.0209 9.35048C11.0101 9.53716 10.9408 9.65889 10.8867 9.71584L12.336 11.0941L13.7853 12.4723C15.3003 10.8792 15.4321 8.34334 14.1316 6.50373L12.4985 7.65825ZM31.8617 25.8177L30.8634 27.5507C31.0386 27.6516 31.1782 27.8456 31.2186 28.1077C31.2603 28.3781 31.1747 28.5636 31.0934 28.6492L32.5431 30.027L33.9927 31.4049C36.0425 29.2484 35.4653 25.5854 32.8601 24.0846L31.8617 25.8177ZM34.5501 31.9342L36.0002 33.3116C39.336 29.7997 38.3341 24.0407 34.2428 21.6844L33.2447 23.4176L32.2466 25.1507C34.1819 26.2653 34.5833 28.9952 33.1 30.5568L34.5501 31.9342ZM25.5673 24.1597L27.0185 25.536C27.0625 25.4896 27.1036 25.4737 27.1389 25.4688C27.1733 25.464 27.2407 25.4646 27.3382 25.5206L28.3351 23.7868L29.332 22.053C27.6031 21.0589 25.4775 21.348 24.1162 22.7835L25.5673 24.1597ZM29.7162 21.3867L30.7132 19.6529C27.9042 18.0377 24.3765 18.4907 22.1093 20.8742L23.5585 22.2526L25.0076 23.631C25.9717 22.6175 27.4699 22.4021 28.7193 23.1205L29.7162 21.3867ZM17.0037 30.5809L18.0681 28.8877C16.4011 27.8397 14.5962 26.4039 12.724 24.4342L11.2743 25.8121L9.82468 27.19C11.9149 29.389 13.9763 31.0401 15.9393 32.2741L17.0037 30.5809ZM9.26728 27.7193L7.8172 29.0967C10.057 31.4547 12.296 33.2556 14.4663 34.6191L15.5303 32.9256L16.5942 31.2321C14.7209 30.0552 12.739 28.4702 10.7174 26.3418L9.26728 27.7193ZM28.3406 33.6733L28.1668 31.6809C26.8296 31.7975 25.4824 31.7115 24.1708 31.4256L23.7449 33.3798L23.319 35.3339C25.0243 35.7055 26.7758 35.8174 28.5144 35.6657L28.3406 33.6733ZM23.1781 36.0919L22.7557 38.0467C24.7376 38.4749 26.7728 38.6007 28.7923 38.4199L28.6139 36.4279L28.4355 34.4358C26.818 34.5807 25.1878 34.4799 23.6005 34.137L23.1781 36.0919ZM28.6139 36.4279L30.6041 36.2304L30.3309 33.4759L28.3406 33.6733L26.3504 33.8708L26.6237 36.6253L28.6139 36.4279Z" fill="#121212" mask="url(#path-1-inside-1_2064_10599)"/>
</g>
<defs>
<clipPath id="clip0_2064_10599">
<rect width="36" height="36" fill="white" transform="translate(0 0.5)"/>
</clipPath>
</defs>
</svg>
