<svg width="18" height="18" viewBox="0 0 18 18" fill="none" xmlns="http://www.w3.org/2000/svg">
<g clip-path="url(#clip0_333_4841)">
<path d="M9 2L6.64949 5.92852L2.45256 6.56725C2.33685 6.58456 2.23106 6.64168 2.15007 6.72823C2.05215 6.83362 1.99819 6.97541 2.00005 7.12244C2.00191 7.26947 2.05943 7.40972 2.15998 7.51236L5.19652 10.6125L4.47912 14.9901C4.4623 15.092 4.47306 15.1967 4.51018 15.2925C4.54731 15.3882 4.60931 15.4712 4.68916 15.5319C4.76901 15.5926 4.86352 15.6287 4.96196 15.6361C5.0604 15.6434 5.15883 15.6217 5.24611 15.5735L9.00003 13.5067L9 2Z" fill="#FF8400"/>
<path d="M9 1L6.80374 6.66093L1 7.11302L5.4486 11.0639L4.05607 17L9 13.7764M9 1L11.1963 6.66093L17 7.11302L12.5514 11.0639L13.9439 17L9 13.7764" stroke="#FF8400" stroke-width="1.5" stroke-linecap="round" stroke-linejoin="round"/>
</g>
<defs>
<clipPath id="clip0_333_4841">
<rect width="18" height="18" fill="white"/>
</clipPath>
</defs>
</svg>
