<svg width="18" height="18" viewBox="0 0 18 18" fill="none" xmlns="http://www.w3.org/2000/svg">
<g clip-path="url(#clip0_333_4818)">
<path d="M9 1L6.80374 6.66093L1 7.11302L5.4486 11.0639L4.05607 17L9 13.7764M9 1L11.1963 6.66093L17 7.11302L12.5514 11.0639L13.9439 17L9 13.7764" stroke="#FF8400" stroke-width="1.5" stroke-linecap="round" stroke-linejoin="round"/>
<path d="M15.0051 7.45001L11.0379 6.87344L9.26451 3.27813C9.21607 3.17969 9.13638 3.10001 9.03794 3.05157C8.79107 2.92969 8.49107 3.03126 8.36763 3.27813L6.59419 6.87344L2.62701 7.45001C2.51763 7.46563 2.41763 7.51719 2.34107 7.59532C2.24851 7.69045 2.1975 7.81844 2.19926 7.95117C2.20102 8.08389 2.2554 8.21048 2.35044 8.30313L5.22076 11.1016L4.54263 15.0531C4.52673 15.1451 4.5369 15.2396 4.57199 15.326C4.60709 15.4125 4.6657 15.4873 4.74118 15.5422C4.81666 15.597 4.90599 15.6296 4.99904 15.6362C5.09209 15.6428 5.18514 15.6233 5.26763 15.5797L8.81607 13.7141L12.3645 15.5797C12.4614 15.6313 12.5739 15.6484 12.6817 15.6297C12.9536 15.5828 13.1364 15.325 13.0895 15.0531L12.4114 11.1016L15.2817 8.30313C15.3598 8.22657 15.4114 8.12657 15.427 8.01719C15.4692 7.74376 15.2786 7.49063 15.0051 7.45001Z" fill="#FF8400"/>
</g>
<defs>
<clipPath id="clip0_333_4818">
<rect width="18" height="18" fill="white"/>
</clipPath>
</defs>
</svg>
