<svg width="13" height="14" viewBox="0 0 13 14" fill="none" xmlns="http://www.w3.org/2000/svg">
<g clip-path="url(#clip0_2002_5231)">
<path fill-rule="evenodd" clip-rule="evenodd" d="M9.80392 0.834937C7.62793 0.388354 5.37138 0.388354 3.19539 0.834937L2.96093 0.882562C2.34868 1.00787 1.78632 1.28672 1.33647 1.68809C0.886614 2.08945 0.566913 2.59756 0.412961 3.15586C-0.137654 5.15148 -0.137654 7.24164 0.412961 9.23726C0.559797 9.7697 0.857523 10.257 1.27589 10.6496C1.69426 11.0421 2.21835 11.3261 2.79494 11.4725L3.11654 13.2352C3.12681 13.2912 3.15323 13.3436 3.19306 13.387C3.23289 13.4305 3.28467 13.4633 3.343 13.4821C3.40134 13.5009 3.46409 13.505 3.52474 13.494C3.58539 13.4829 3.64171 13.4572 3.68783 13.4194L5.57667 11.8681C6.99457 11.9467 8.41747 11.8426 9.80392 11.5588L10.0391 11.5112C10.6513 11.3859 11.2137 11.107 11.6635 10.7057C12.1134 10.3043 12.4331 9.7962 12.587 9.2379C13.1377 7.24228 13.1377 5.15211 12.587 3.1565C12.433 2.59812 12.1132 2.08995 11.6632 1.68858C11.2133 1.28721 10.6508 1.0084 10.0384 0.883197L9.80392 0.834937ZM3.77913 3.10443C3.65058 3.08715 3.51947 3.11091 3.40772 3.17174H3.39804C3.13868 3.31144 2.90491 3.48733 2.70572 3.69434C2.53972 3.87024 2.44981 4.04804 2.4263 4.21949C2.41246 4.32109 2.42215 4.42396 2.45465 4.52111L2.4671 4.52746C2.65384 5.03102 2.8973 5.51552 3.1947 5.97145C3.57834 6.61175 4.05023 7.204 4.59871 7.73358L4.61531 7.75517L4.64159 7.77295L4.6575 7.79009L4.67686 7.80533C5.25574 8.31037 5.90231 8.74567 6.60098 9.10074C7.39981 9.50015 7.88464 9.68875 8.17582 9.76749V9.7713C8.26089 9.79543 8.33835 9.80622 8.41651 9.80622C8.66462 9.78988 8.89949 9.69727 9.08324 9.54333C9.30802 9.36045 9.49822 9.14519 9.64623 8.90579V8.90135C9.78524 8.66005 9.73821 8.43272 9.53764 8.27841C9.1351 7.95483 8.69942 7.66774 8.23668 7.42116C7.92683 7.26685 7.61214 7.3602 7.48488 7.51641L7.21307 7.83137C7.07336 7.98758 6.82023 7.96599 6.82023 7.96599L6.81331 7.9698C4.92447 7.5272 4.42027 5.77143 4.42027 5.77143C4.42027 5.77143 4.39675 5.53267 4.57173 5.41075L4.91202 5.15929C5.07524 5.03737 5.18867 4.74908 5.01369 4.4646C4.74573 4.04005 4.43374 3.64026 4.08206 3.2708C4.00513 3.18404 3.8974 3.12492 3.77774 3.10379M6.97031 2.34116C6.87859 2.34116 6.79063 2.37461 6.72578 2.43415C6.66093 2.49369 6.62449 2.57445 6.62449 2.65866C6.62449 2.74286 6.66093 2.82362 6.72578 2.88316C6.79063 2.94271 6.87859 2.97616 6.97031 2.97616C7.84522 2.97616 8.57143 3.23841 9.14618 3.74133C9.4415 4.01629 9.67182 4.34204 9.82259 4.69891C9.97406 5.05642 10.0432 5.43805 10.0252 5.82032C10.0233 5.86202 10.0304 5.90365 10.046 5.94284C10.0616 5.98203 10.0855 6.01801 10.1163 6.04874C10.1784 6.11078 10.2648 6.14762 10.3565 6.15116C10.4482 6.1547 10.5377 6.12464 10.6053 6.06759C10.6729 6.01055 10.713 5.9312 10.7169 5.84699C10.7375 5.37681 10.6525 4.90777 10.4672 4.46904C10.281 4.02809 9.9975 3.62726 9.63447 3.29175L9.62755 3.2854C8.91448 2.65993 8.0119 2.34116 6.97031 2.34116ZM6.94679 3.3851C6.85508 3.3851 6.76712 3.41855 6.70226 3.47809C6.63741 3.53763 6.60098 3.61839 6.60098 3.7026C6.60098 3.7868 6.63741 3.86756 6.70226 3.9271C6.76712 3.98665 6.85508 4.0201 6.94679 4.0201H6.95855C7.58932 4.06137 8.04856 4.25441 8.37017 4.57128C8.70008 4.89767 8.87091 5.30343 8.85777 5.80508C8.85566 5.88929 8.89007 5.97082 8.95343 6.03173C9.01679 6.09264 9.10391 6.12795 9.19563 6.12989C9.28734 6.13182 9.37614 6.10023 9.44249 6.04206C9.50883 5.98388 9.54729 5.90389 9.5494 5.81969C9.566 5.16119 9.33499 4.59287 8.87713 4.13948V4.13821C8.4089 3.6772 7.76638 3.43336 6.99313 3.38573L6.98137 3.38446L6.94679 3.3851ZM6.93365 4.44872C6.88737 4.44497 6.84074 4.44983 6.79655 4.46299C6.75236 4.47615 6.71151 4.49735 6.67644 4.52533C6.64137 4.55331 6.6128 4.58748 6.59243 4.62582C6.57207 4.66416 6.56033 4.70588 6.55791 4.74847C6.55549 4.79107 6.56245 4.83368 6.57836 4.87375C6.59428 4.91383 6.61882 4.95055 6.65054 4.98172C6.68225 5.01289 6.72048 5.03788 6.76294 5.05519C6.80541 5.07249 6.85123 5.08177 6.89769 5.08245C7.18679 5.09642 7.37145 5.17643 7.48765 5.28375C7.60453 5.3917 7.69168 5.56505 7.70759 5.8362C7.70845 5.87881 7.71865 5.92082 7.73757 5.95973C7.75649 5.99865 7.78375 6.03366 7.81773 6.0627C7.8517 6.09173 7.8917 6.11419 7.93533 6.12873C7.97896 6.14328 8.02533 6.14961 8.07168 6.14735C8.11803 6.14509 8.16341 6.13428 8.20512 6.11558C8.24683 6.09688 8.284 6.07066 8.31444 6.03848C8.34487 6.0063 8.36794 5.96883 8.38227 5.9283C8.3966 5.88776 8.40189 5.845 8.39783 5.80254C8.3757 5.42154 8.24568 5.08499 7.9794 4.83734C7.71174 4.58969 7.34725 4.46904 6.93365 4.44872Z" fill="#665CA7"/>
</g>
<defs>
<clipPath id="clip0_2002_5231">
<rect width="13" height="13" fill="white" transform="translate(0 0.5)"/>
</clipPath>
</defs>
</svg>
