<svg width="13" height="14" viewBox="0 0 13 14" fill="none" xmlns="http://www.w3.org/2000/svg">
<g clip-path="url(#clip0_2002_5233)">
<path fill-rule="evenodd" clip-rule="evenodd" d="M6.50013 0.5C10.0899 0.5 13 3.41019 13 7C13 10.5898 10.0899 13.5 6.50013 13.5C5.37551 13.5 4.31739 13.214 3.39411 12.7109L0.528118 13.1916C0.457478 13.2034 0.385051 13.1983 0.316766 13.1767C0.248481 13.1551 0.186281 13.1177 0.135258 13.0674C0.0842351 13.0171 0.0458408 12.9555 0.0232185 12.8876C0.000596184 12.8196 -0.00561076 12.7473 0.00510587 12.6765L0.488817 9.47786C0.164775 8.69202 -0.00123646 7.85003 0.000268754 7C0.000268754 3.41019 2.91039 0.5 6.50013 0.5ZM4.04712 3.79535C3.60271 3.79535 3.23448 4.17023 3.30341 4.6334C3.43401 5.50167 3.81977 7.10158 4.96738 8.25767C6.16698 9.46637 7.88355 9.98335 8.81288 10.1871C9.29417 10.2929 9.70472 9.912 9.70472 9.44219V8.3393C9.70473 8.30266 9.69365 8.26687 9.67293 8.23665C9.6522 8.20643 9.62281 8.18319 9.58863 8.17L8.40354 7.7147C8.37155 7.70246 8.33675 7.69952 8.30317 7.70623L7.1078 7.93963C6.33688 7.54056 5.8701 7.09312 5.59015 6.41893L5.81508 5.20056C5.8211 5.16814 5.81818 5.13469 5.80661 5.10381L5.3622 3.91326C5.3493 3.87873 5.32619 3.84895 5.29595 3.82789C5.26571 3.80682 5.22976 3.79547 5.19291 3.79535H4.04712Z" fill="#60D569"/>
</g>
<defs>
<clipPath id="clip0_2002_5233">
<rect width="13" height="13" fill="white" transform="translate(0 0.5)"/>
</clipPath>
</defs>
</svg>
