<svg width="12" height="14" fill="none" xmlns="http://www.w3.org/2000/svg"><g clip-path="url(#clip0_2002_5243)"><path d="M11.4 7c0 2.785 0 4.178-.79 5.043-.791.865-2.065.866-4.61.866-2.545 0-3.818 0-4.61-.866C.6 11.18.6 9.785.6 7c0-2.786 0-4.178.79-5.044C2.183 1.09 3.456 1.09 6 1.09c2.545 0 3.819 0 4.61.865.525.575.701 1.384.76 2.68" stroke="#fff" stroke-width="1.3" stroke-linecap="round"/><path d="M3 4.636c0-.274 0-.411.03-.524a.883.883 0 01.233-.397.903.903 0 01.404-.23c.115-.03.255-.03.533-.03h3.6c.279 0 .418 0 .533.03a.883.883 0 01.636.626C9 4.225 9 4.362 9 4.636c0 .275 0 .412-.03.525a.883.883 0 01-.233.397.903.903 0 01-.404.23c-.115.03-.255.03-.533.03H4.2c-.279 0-.418 0-.533-.03a.903.903 0 01-.403-.23.883.883 0 01-.233-.396C3 5.048 3 4.91 3 4.636z" stroke="#fff" stroke-width="1.3"/><path d="M3.6 8.182c.331 0 .6-.265.6-.591A.596.596 0 003.6 7c-.331 0-.6.265-.6.59 0 .327.269.592.6.592zm0 2.364c.331 0 .6-.265.6-.591a.596.596 0 00-.6-.591c-.331 0-.6.264-.6.59 0 .327.269.592.6.592zM6 8.182c.331 0 .6-.265.6-.591A.596.596 0 006 7c-.331 0-.6.265-.6.59 0 .327.269.592.6.592zm0 2.364c.331 0 .6-.265.6-.591a.596.596 0 00-.6-.591c-.331 0-.6.264-.6.59 0 .327.269.592.6.592zm2.4-2.364c.332 0 .6-.265.6-.591A.596.596 0 008.4 7c-.331 0-.6.265-.6.59 0 .327.269.592.6.592zm0 2.364c.332 0 .6-.265.6-.591a.596.596 0 00-.6-.591c-.331 0-.6.264-.6.59 0 .327.269.592.6.592z" fill="#fff"/></g><defs><clipPath id="clip0_2002_5243"><path fill="#fff" transform="translate(0 .5)" d="M0 0h12v13H0z"/></clipPath></defs></svg>