<svg width="16" height="18" fill="none" xmlns="http://www.w3.org/2000/svg"><path d="M15 9.25c0 3.771 0 5.657-1.025 6.828C12.95 17.249 11.299 17.25 8 17.25c-3.3 0-4.95 0-5.975-1.172C1 14.908 1 13.021 1 9.25c0-3.771 0-5.657 1.025-6.829C3.05 1.25 4.701 1.25 8 1.25c3.3 0 4.95 0 5.975 1.171.681.78.91 1.875.986 3.629" stroke="#121212" stroke-linecap="round"/><path d="M4.5 6.45c0-.33 0-.496.036-.631a1.067 1.067 0 01.754-.754c.137-.037.302-.037.632-.037h4.264c.33 0 .496 0 .631.036a1.067 1.067 0 01.754.754c.037.137.037.302.037.632s0 .496-.037.632a1.066 1.066 0 01-.753.753c-.136.037-.302.037-.632.037H5.922c-.331 0-.496 0-.632-.036a1.066 1.066 0 01-.753-.754C4.5 6.945 4.5 6.78 4.5 6.45z" stroke="#121212"/><path d="M5.21 10.717a.711.711 0 100-1.422.711.711 0 000 1.422zm0 2.843a.71.71 0 100-1.421.71.71 0 000 1.422zm2.844-2.843a.711.711 0 100-1.422.711.711 0 000 1.422zm0 2.843a.71.71 0 100-1.421.71.71 0 000 1.422zm2.843-2.843a.711.711 0 100-1.422.711.711 0 000 1.422zm0 2.843a.71.71 0 100-1.421.71.71 0 000 1.422z" fill="#121212"/></svg>