<svg width="20" height="20" fill="none" xmlns="http://www.w3.org/2000/svg"><path d="M4.947 5.6h11.28c.927 0 1.39 0 1.631.316.242.316.142.79-.06 1.74-.696 3.288-1.27 5.544-5.05 5.544H6.63L4.424 3.212a1.595 1.595 0 00-.597-.873A1.742 1.742 0 002.791 2H2m5.373 11.2h-.346c-1.149 0-2.08.921-2.08 2.057a.321.321 0 00.099.24.353.353 0 00.248.103h9.338m0 0c-.698 0-1.264.537-1.264 1.2 0 .663.566 1.2 1.264 1.2.697 0 1.263-.537 1.263-1.2 0-.663-.566-1.2-1.263-1.2zM10 16.8c0 .663-.565 1.2-1.263 1.2s-1.263-.537-1.263-1.2c0-.663.565-1.2 1.263-1.2S10 16.137 10 16.8z" stroke="#121212" stroke-linecap="round" stroke-linejoin="round"/></svg>