<svg width="18" height="12" fill="none" xmlns="http://www.w3.org/2000/svg"><g clip-path="url(#clip0_2036_12325)"><path d="M17.325 2.77H6.205m-3.925 0H.675m1.605 0c0-.535.207-1.046.575-1.424.368-.377.867-.59 1.387-.59s1.02.213 1.388.59c.368.378.574.89.574 1.423 0 .534-.206 1.046-.574 1.423s-.867.59-1.388.59a1.94 1.94 0 01-1.387-.59A2.039 2.039 0 012.28 2.77zm15.045 6.098h-5.173m0 0a2.04 2.04 0 01-.576 1.424c-.368.377-.867.59-1.387.59s-1.02-.214-1.388-.591a2.039 2.039 0 01-.574-1.423m3.925 0a2.04 2.04 0 00-.576-1.423 1.938 1.938 0 00-1.387-.59c-.52 0-1.02.213-1.388.59-.368.377-.574.89-.574 1.423m0 0H.675" stroke="#fff" stroke-width="1.5" stroke-miterlimit="10" stroke-linecap="round"/></g><defs><clipPath id="clip0_2036_12325"><path fill="#fff" d="M0 0h18v12H0z"/></clipPath></defs></svg>