<svg width="20" height="20" fill="none" xmlns="http://www.w3.org/2000/svg"><g clip-path="url(#clip0_2002_5199)"><path d="M14.444 0A5.556 5.556 0 0120 5.556v8.888A5.555 5.555 0 0114.444 20H5.556A5.555 5.555 0 010 14.444V5.556A5.556 5.556 0 015.556 0h8.888zM10 5.556a4.444 4.444 0 100 8.889 4.444 4.444 0 000-8.89zm0 2.222a2.222 2.222 0 110 4.444 2.222 2.222 0 010-4.444zm5-3.89a1.111 1.111 0 100 2.223 1.111 1.111 0 000-2.222z" fill="#121212"/></g><defs><clipPath id="clip0_2002_5199"><path fill="#fff" d="M0 0h20v20H0z"/></clipPath></defs></svg>