<svg width="118" height="96" fill="none" xmlns="http://www.w3.org/2000/svg"><path d="M47.187 59.15c0-6.221 5.049-11.265 11.278-11.265s11.278 5.044 11.278 11.266c0 6.221-5.05 11.265-11.278 11.265-6.229 0-11.279-5.044-11.279-11.265z" fill="#E42B29"/><path d="M58.52 72.515c-7.389 0-13.379-5.984-13.379-13.364 0-7.381 5.99-13.364 13.38-13.364 7.389 0 13.38 5.983 13.38 13.364 0 7.38-5.991 13.364-13.38 13.364zm0-29.189c-8.749 0-15.842 7.085-15.842 15.825 0 8.74 7.093 15.824 15.843 15.824s15.842-7.085 15.842-15.824c0-8.74-7.093-15.825-15.842-15.825z" fill="#121212"/><path d="M50.348 31.08h-4.87l13.043-8.779 12.931 8.78h-4.59v15.936l-2.52-1.678V29.291l-5.821-3.858-5.766 3.97V45.06l-2.407 1.677V31.08zM30.306 67.538v4.865l-8.788-13.029 8.788-12.916v4.585h15.955l-1.68 2.516H28.516l-3.863 5.815 3.975 5.76h15.675l1.68 2.404H30.306zm56.653 0v4.865l8.789-13.029-8.79-12.916v4.585H71.005l1.68 2.516H88.75l3.863 5.815-3.975 5.76H72.964l-1.68 2.404H86.96zM50.404 87.221h-4.87L58.576 96l12.931-8.779h-4.59V71.285l-2.52 1.677V89.01l-5.821 3.859-5.766-3.97V73.242l-2.407-1.678v15.657zm61.281-43.938a2.82 2.82 0 00.476-.619c.15-.257.278-.553.38-.887.102-.335.257-.597.466-.787.208-.19.459-.306.755-.348.387-.056.697.007.931.19.234.183.38.477.438.883l.524 4.411.812 4.652c.018.26.018.487-.001.678-.02.19-.066.357-.14.5a.946.946 0 01-.35.318 1.795 1.795 0 01-.622.188c-.351.05-.647.018-.89-.097a1.2 1.2 0 01-.562-.569c-.114-.265-.222-.462-.325-.588-.103-.126-.201-.182-.293-.17-.129.02-.362.133-.7.341-.337.209-.768.52-1.292.934-.527.396-.92.734-1.181 1.017-.261.281-.382.487-.363.616a.711.711 0 00.077.243c.039.07.099.127.181.172a2.717 2.717 0 00.613.335l3.035 1.454a.41.41 0 00.2.112c.088.025.178.03.27.017a.397.397 0 00.214-.087.503.503 0 00.118-.158 8.74 8.74 0 00.097-.31l.132-.456a.625.625 0 01.316-.455c.181-.11.438-.19.771-.238.387-.056.695-.006.925.15.229.154.371.416.424.785l.364 2.91.509 2.946c.027.316-.036.565-.189.747-.153.182-.395.297-.727.345a1.854 1.854 0 01-.393.014 3.46 3.46 0 01-.374-.045.737.737 0 01-.333-.248 2.58 2.58 0 01-.321-.56 2.02 2.02 0 00-.487-.636 3.901 3.901 0 00-.783-.536 28.436 28.436 0 01-.839-.43 8.68 8.68 0 00-.594-.296l-4.238-2.353-.7-.35a17.757 17.757 0 01-.55-.288 3.347 3.347 0 00-.469-.215 1.893 1.893 0 00-.453-.104c-.24.035-.509.068-.805.102-.297.033-.632.058-1.006.074-.354.032-.637.059-.85.08-.214.021-.348.036-.404.044l-.387.056-.36.051a1.55 1.55 0 00-.34.092 23.39 23.39 0 00-.387.154c-.124.056-.254.168-.389.338-.136.17-.268.396-.397.678a1.858 1.858 0 01-.509.68 1.52 1.52 0 01-.76.321c-.276.04-.502.04-.678 0a.786.786 0 01-.433-.263 1.594 1.594 0 01-.24-.488 4.365 4.365 0 01-.16-.724l-.4-3.753-.645-3.49a6.017 6.017 0 01-.069-.767 1.979 1.979 0 01.051-.529c.055-.14.171-.25.348-.332a2.59 2.59 0 01.707-.187 1.38 1.38 0 01.807.11c.243.115.46.31.65.584.192.292.461.488.805.59.344.1.747.118 1.208.051l1.163-.167c.461-.066.859-.143 1.196-.229.335-.086.59-.179.765-.279.173-.1.404-.265.691-.495.287-.23.639-.534 1.055-.913l3.816-3.513 1.098-1.004zM93.443 27.179c.083.063.157.116.221.16.078.03.15.04.217.03a.462.462 0 00.225-.128c.07-.09.13-.17.18-.24a1 1 0 01.137-.162l1.856-3.044a1 1 0 00.098-.372.404.404 0 00-.105-.303.631.631 0 00-.182-.137.335.335 0 00-.206-.04 2.936 2.936 0 00-.523.133l-3.236 1.192-.387.2a.9.9 0 00-.2.238.3.3 0 00-.021.227c.022.08.058.161.107.243.05.082.112.164.187.247l.228.21 1.15 1.266c.087.123.171.216.254.28zm6.605-8.805c.295.06.562.222.801.485l1.261 1.43 1.305 1.353c.099.137.182.263.249.38.067.115.112.213.135.293a.58.58 0 01-.014.297 4.679 4.679 0 01-.139.41l-5.877 11.796c-.234.439-.425.826-.573 1.163a8.695 8.695 0 00-.34.876 2.862 2.862 0 00-.129.797c-.007.284.028.58.106.888.077.308.073.595-.012.862a1.652 1.652 0 01-.482.72c-.305.277-.609.401-.912.373-.303-.028-.606-.208-.907-.54l-3.063-3.58-3.045-3.144a1.431 1.431 0 01-.268-.4.7.7 0 01-.03-.428c.033-.13.1-.266.2-.407.099-.14.218-.273.356-.399.153-.138.29-.244.413-.317.123-.074.245-.127.365-.161a.816.816 0 01.357.017.9.9 0 01.368.197c.128.085.25.164.366.236.115.071.225.123.33.155a.516.516 0 00.328-.014 1.2 1.2 0 00.38-.25c.193-.175.321-.348.382-.517a.547.547 0 00-.036-.477 4.699 4.699 0 00-.286-.44 5.523 5.523 0 00-.366-.445l-2.26-2.53a7.873 7.873 0 00-.59-.525 3.087 3.087 0 00-.481-.32.563.563 0 00-.427-.011c-.155.052-.33.165-.523.341-.097.088-.147.234-.15.44-.004.204.04.467.13.79.116.322.145.611.087.866a1.27 1.27 0 01-.4.665 2.9 2.9 0 01-.495.373.984.984 0 01-.443.137.61.61 0 01-.412-.1 1.957 1.957 0 01-.42-.357c-.15-.166-.32-.36-.508-.58a13.735 13.735 0 01-.598-.763 16.87 16.87 0 00-.545-.641l-.264-.29-.443-.489c-.17-.186-.368-.391-.596-.614a10.733 10.733 0 01-.797-.753 1.697 1.697 0 01-.288-.42.686.686 0 01-.047-.449c.046-.143.116-.289.21-.436a2.08 2.08 0 01.368-.429 1.22 1.22 0 01.71-.322c.266-.027.569.02.907.143.325.135.692.199 1.103.192.41-.006.852-.097 1.324-.273.47-.149.864-.278 1.181-.389.316-.11.562-.194.737-.251l11.761-4.15c.336-.104.651-.125.946-.064zM66.835 8.41c-.009.165.005.308.042.432a.549.549 0 00.24.305c.122.08.279.136.468.17.322.055.63.056.923 0 .293-.057.563-.18.812-.371a2.05 2.05 0 00.598-.657c.153-.265.26-.569.32-.91.056-.321.062-.637.019-.947a2.414 2.414 0 00-.314-.888 1.794 1.794 0 00-.566-.699 2.01 2.01 0 00-.835-.335 1.342 1.342 0 00-.572.002.584.584 0 00-.35.246 2.02 2.02 0 00-.213.46 4.75 4.75 0 00-.161.675l-.332 1.902c-.043.246-.07.452-.079.616zm10.13 10.09c.04.104.134.209.282.312.148.104.337.224.567.362.248.141.426.299.532.473a.805.805 0 01.105.574 2.662 2.662 0 01-.315.882 3.063 3.063 0 01-.613.741 1.726 1.726 0 01-.776.42 2.25 2.25 0 01-.911.018l-2.402-.507-2.288-.31a1.857 1.857 0 01-.46-.14 1.004 1.004 0 01-.349-.265 1.47 1.47 0 01-.281-.4 4.732 4.732 0 01-.205-.504l-2.152-6.46a67.134 67.134 0 00-.177-.5 3.236 3.236 0 00-.144-.346.513.513 0 00-.164-.234.647.647 0 00-.275-.106.513.513 0 00-.237.017.575.575 0 00-.228.136.663.663 0 00-.166.278c-.041.12-.074.255-.1.407l-.516 2.953c-.057.322-.04.612.052.872.091.26.263.51.514.748.251.239.428.484.53.736.103.252.13.51.085.775-.05.284-.123.505-.219.664a.809.809 0 01-.396.34 1.662 1.662 0 01-.556.08 4.53 4.53 0 01-.763-.075l-3.699-.79-3.492-.463a4.255 4.255 0 01-.73-.186 2.036 2.036 0 01-.51-.264.856.856 0 01-.227-.464 1.979 1.979 0 01.017-.685 1.38 1.38 0 01.343-.7c.181-.203.431-.374.748-.514.318-.14.58-.357.788-.652.208-.296.351-.67.43-1.125l.57-3.09.654-3.748.508-3.071a2.613 2.613 0 00-.034-1.147 1.874 1.874 0 00-.52-.88 2.375 2.375 0 01-.523-.78 1.41 1.41 0 01-.087-.76 2.28 2.28 0 01.202-.653.648.648 0 01.351-.333c.13-.075.3-.119.506-.132.208-.012.434.003.68.046l5.836 1.134 6.108.918c.83.164 1.554.437 2.171.817a5.286 5.286 0 011.56 1.472c.422.6.702 1.259.84 1.975.139.716.135 1.491-.01 2.324a5.41 5.41 0 01-.413 1.361 3.55 3.55 0 01-.706 1.018 69.655 69.655 0 01-1.993 1.35 1.006 1.006 0 00-.002.35c.027.064.054.132.081.205.026.073.07.154.133.243l2.255 4.869.19.413zm-43.841-7.28a2.506 2.506 0 00-.575-.937 1.8 1.8 0 00-.852-.485 2.279 2.279 0 01-.806-.399 1.353 1.353 0 01-.435-.592 1.932 1.932 0 01-.129-.6.83.83 0 01.102-.447c.073-.124.182-.242.328-.354.146-.111.323-.205.53-.28l3.653-1.203 3.697-1.483c.214-.058.411-.095.592-.111.18-.016.338 0 .473.049a.826.826 0 01.366.279c.108.137.207.327.294.569.107.294.142.566.104.814-.037.249-.15.466-.337.65a2.767 2.767 0 00-.433.51 2.95 2.95 0 00-.103.243.514.514 0 00-.035.189c.003.116.03.273.082.47.052.196.128.433.228.71l.981 2.788 1.713 4.727c.2.554.4 1.01.6 1.37.198.359.395.62.592.784.196.164.47.241.82.232.35-.009.775-.104 1.278-.286a7.92 7.92 0 001.236-.564 7.24 7.24 0 001.057-.735c.331-.276.591-.56.779-.854.188-.293.304-.595.349-.905.044-.31.09-.59.135-.842.046-.251.09-.482.131-.693.076-.223.18-.408.314-.554a1.2 1.2 0 01.486-.323c.156-.056.304-.08.445-.072.14.008.278.036.413.085.124.073.234.16.33.263.096.102.172.231.229.387.069.19.153.464.253.82.1.355.214.793.344 1.314.13.521.245.95.347 1.284.102.336.181.58.238.737.081.225.124.425.129.6a.971.971 0 01-.076.438 1.048 1.048 0 01-.338.284 3.754 3.754 0 01-.558.246l-7.614 2.606L40.6 23.41l-2.728 1.075a3.84 3.84 0 01-.682.188 1.947 1.947 0 01-.537.018.906.906 0 01-.423-.273 1.592 1.592 0 01-.316-.547 1.327 1.327 0 01-.05-.746c.056-.255.182-.516.379-.783s.311-.573.344-.917c.031-.345-.028-.725-.178-1.14l-1-2.84-1.242-3.429-1.043-2.795zM19.379 25.593a15.603 15.603 0 00-1.886-1.035c-.608-.28-1.164-.362-1.666-.246-.503.117-.96.426-1.37.929-.41.503-.615 1.024-.613 1.564.002.54.209 1.085.62 1.636.4.566.877 1.127 1.428 1.684.55.556 1.164 1.11 1.84 1.661a24.666 24.666 0 002.063 1.52c.67.44 1.316.793 1.937 1.06.623.292 1.192.38 1.708.261.516-.118.978-.428 1.39-.93.316-.388.495-.805.535-1.25.04-.446-.057-.92-.292-1.423-.224-.517-.629-1.092-1.214-1.725-.585-.632-1.337-1.323-2.257-2.073l-.108-.088-.086-.07a21.264 21.264 0 00-2.03-1.475zm4.593 13.11a8.195 8.195 0 01-3.684 1.124 9.227 9.227 0 01-3.866-.568c-1.28-.47-2.547-1.214-3.797-2.234-1.107-.902-1.944-1.901-2.51-2.997-.566-1.095-.856-2.294-.869-3.597.001-1.29.227-2.542.678-3.754.45-1.211 1.14-2.384 2.067-3.518.997-1.22 2.068-2.172 3.212-2.854a8.754 8.754 0 013.635-1.218 8.61 8.61 0 013.813.435c1.25.433 2.494 1.154 3.73 2.162 1.165.949 2.044 1.983 2.639 3.102a8.402 8.402 0 01.973 3.646 9.474 9.474 0 01-.626 3.778c-.469 1.233-1.184 2.438-2.146 3.616-1.02 1.249-2.104 2.208-3.25 2.877zm-17.505 7.34c.143.08.265.18.367.3.1.142.17.289.213.443.043.154.054.333.036.538-.474.463-.915.911-1.32 1.343-.406.432-.787.848-1.142 1.247a5.2 5.2 0 00-.85 1.288c-.211.46-.34.95-.388 1.47-.02.224-.012.44.025.65.037.21.093.421.168.634.076.195.18.35.31.465a.85.85 0 00.503.2c.298.028.637-.19 1.017-.653.38-.462.802-1.17 1.264-2.122.445-.954.903-1.813 1.377-2.577a15.3 15.3 0 011.434-1.98 3.776 3.776 0 011.785-1.19c.726-.233 1.564-.307 2.514-.22 1.136.102 2.11.402 2.92.898.809.496 1.474 1.18 1.996 2.053a9.1 9.1 0 011.051 2.84c.198 1.022.244 2.12.137 3.291a17.213 17.213 0 01-.288 1.916c-.066.314-.14.607-.22.881-.082.274-.161.52-.237.738-.097.236-.17.426-.221.571a1.5 1.5 0 00-.087.33 2.032 2.032 0 00-.062.22 2.083 2.083 0 00-.037.25l-.01.111-.008.084a.25.25 0 01.018.114l-.01.112a.859.859 0 01.009.212l-.017.181a.792.792 0 01-.306.578c-.182.143-.454.245-.817.305-.362.061-.714.1-1.053.115-.34.017-.658.01-.957-.016l-.952-.059a6.05 6.05 0 01-1.083-.183c-.292-.082-.518-.188-.675-.314a1.116 1.116 0 01-.34-.44 1.214 1.214 0 01-.074-.583c.008-.093.168-.304.48-.632.312-.328.773-.755 1.385-1.281a6.221 6.221 0 001.434-1.826 6.01 6.01 0 00.624-2.209c.024-.26.023-.509-.002-.746a2.986 2.986 0 00-.15-.675 1.013 1.013 0 00-.35-.496 1.166 1.166 0 00-.6-.21c-.242-.022-.524.188-.846.627-.322.44-.683 1.11-1.085 2.012a22.02 22.02 0 01-1.282 2.473 14.003 14.003 0 01-1.435 1.98 4.156 4.156 0 01-1.859 1.225c-.735.242-1.588.32-2.557.231-1.043-.094-1.958-.356-2.746-.784a6.231 6.231 0 01-2.035-1.79 7.486 7.486 0 01-1.18-2.5c-.237-.902-.308-1.885-.211-2.945a7.6 7.6 0 01.13-.819c.068-.322.169-.702.302-1.14.114-.422.208-.779.281-1.073.074-.293.117-.505.128-.635a.806.806 0 00-.041-.314 18.4 18.4 0 00-.144-.435 1.684 1.684 0 01-.157-.437 1.337 1.337 0 01-.023-.367 1.18 1.18 0 01.16-.52.737.737 0 01.366-.305c.078-.03.17-.06.276-.088.106-.027.236-.063.39-.105.152-.023.319-.046.499-.067.18-.021.375-.04.583-.06l1.392-.126 1.677-.157.084.007c.205.019.379.068.522.146z" fill="#121212"/><path d="M52.14 61.576l4.196-.262c.09.68.276 1.199.555 1.555.454.577 1.103.866 1.946.866.63 0 1.115-.148 1.455-.443.341-.295.511-.636.511-1.026 0-.369-.162-.7-.486-.991-.325-.292-1.077-.567-2.258-.826-1.934-.435-3.313-1.012-4.137-1.731-.83-.72-1.246-1.637-1.246-2.752 0-.732.212-1.424.637-2.075.425-.652 1.065-1.164 1.918-1.536.853-.373 2.023-.56 3.509-.56 1.823 0 3.213.34 4.17 1.017.958.677 1.527 1.754 1.709 3.232l-4.156.243c-.11-.641-.343-1.108-.696-1.4-.354-.291-.842-.437-1.465-.437-.513 0-.899.108-1.158.325-.26.218-.39.482-.39.793 0 .227.107.431.321.612.208.188.701.364 1.48.525 1.927.415 3.308.835 4.142 1.26.833.424 1.44.95 1.82 1.58.38.628.57 1.331.57 2.109 0 .914-.254 1.756-.76 2.528-.506.771-1.214 1.356-2.122 1.755-.908.398-2.054.598-3.436.598-2.427 0-4.107-.467-5.042-1.4-.934-.934-1.463-2.12-1.586-3.559z" fill="#fff"/></svg>