<svg width="24" height="24" fill="none" xmlns="http://www.w3.org/2000/svg"><path d="M.5 11.999h20.998a.5.5 0 00.5-.5v-3.5a1 1 0 00-.293-.707l-6.999-7A1 1 0 0014 0H2a2 2 0 00-2 2v9.499a.5.5 0 00.5.5zm13.5-9.5l5.5 5.5H14V2.5zm8.999 13.566a1.023 1.023 0 01-1.031.933h-2.969v2h1.966a1.02 1.02 0 011.031.934 1 1 0 01-1 1.066h-1.997v1.966a1.021 1.021 0 01-.933 1.031 1.001 1.001 0 01-1.067-1v-6.997a1 1 0 011-1h4a1 1 0 011 1.067zM3 14.999H1a1 1 0 00-1 1v6.965a1.021 1.021 0 00.934 1.034 1 1 0 001.066-1v-1h.925c1.905 0 3.517-1.49 3.573-3.393A3.5 3.5 0 003 14.999zm-.044 5H2v-3h1a1.5 1.5 0 011.5 1.644 1.53 1.53 0 01-1.544 1.355zm8.043-5h-2a1 1 0 00-1 1v6.999a1 1 0 001 1h1.915c2.457 0 4.526-1.935 4.583-4.391A4.499 4.499 0 0011 14.999zm-.061 6.999h-.939v-5h1a2.5 2.5 0 012.5 2.596c-.053 1.353-1.208 2.404-2.561 2.404z" fill="red"/></svg>