<svg width="36" height="37" fill="none" xmlns="http://www.w3.org/2000/svg"><g clip-path="url(#clip0_2064_10599)"><mask id="a" fill="#fff"><path d="M2.768 9.133a1.385 1.385 0 00-2.766.15l2.766-.15zm1.784-7.076a1.385 1.385 0 002.007 1.907L4.552 2.057zM15.53 32.926a1.385 1.385 0 101.474-2.345l-1.474 2.345zm8.215.454a1.385 1.385 0 10-.567 2.712l.567-2.712zm.982-8.334l.84-.886-2.009-1.907-.84.886 2.01 1.907zm3.608-1.26l3.527 2.032 1.383-2.4-3.529-2.031-1.38 2.4zm4.208 6.241l-2.624 2.76 2.01 1.91 2.621-2.763-2.007-1.907zm-21.269-4.215c-7.156-7.534-8.357-13.89-8.506-16.679l-2.766.15c.185 3.415 1.632 10.402 9.265 18.436l2.007-1.907zm2.541-12.253l.528-.558-2.007-1.907-.53.558 2.009 1.907zm.945-7.5l-2.328-3.291-2.262 1.598 2.327 3.292L14.76 6.06zm-1.951 6.545c-.333-.32-.668-.637-1.007-.95l-.003.003-.006.006-.092.107a2.95 2.95 0 00-.425.788c-.18.508-.277 1.18-.155 2.018.24 1.647 1.32 3.86 4.14 6.831l2.009-1.909c-2.637-2.775-3.287-4.483-3.409-5.324-.059-.407 0-.619.024-.687l.015-.035-.052.068-.033.039-1.006-.955zm2.452 8.801c2.812 2.961 4.935 4.125 6.554 4.389.833.134 1.507.026 2.017-.176a2.77 2.77 0 00.779-.461l.064-.063.026-.026.013-.011.006-.005.002-.004s.003-.002-1.001-.957c-1.005-.952-1.003-.954-1.003-.956l.004-.002.004-.005.01-.01.088-.077c.017-.01.014-.01-.01.002-.037.015-.203.074-.554.016-.742-.121-2.345-.775-4.99-3.561l-2.01 1.907zM12.432 2.768C10.56.12 6.815-.328 4.552 2.057l2.007 1.907c.965-1.015 2.666-.936 3.611.402l2.262-1.598zm17.487 30.02c-.515.542-1.052.834-1.576.885l.27 2.755c1.38-.135 2.497-.87 3.315-1.732l-2.009-1.909zM14.343 13c1.787-1.881 1.913-4.824.417-6.942L12.5 7.66c.779 1.101.659 2.571-.163 3.435l2.007 1.907zm17.519 12.817c1.516.873 1.813 3.018.681 4.209l2.007 1.907c2.41-2.537 1.708-6.781-1.305-8.516l-1.383 2.4zm-6.295-1.658c.711-.75 1.82-.918 2.768-.373l1.381-2.4c-2.029-1.167-4.542-.833-6.158.866l2.01 1.907zm-8.563 6.42c-1.815-1.14-3.749-2.683-5.73-4.768L9.267 27.72c2.131 2.243 4.242 3.936 6.263 5.207l1.474-2.345zm11.337 3.093a15.327 15.327 0 01-4.596-.293l-.567 2.712a18.1 18.1 0 005.436.336l-.273-2.755z"/></mask><path d="M2.768 9.133a1.385 1.385 0 00-2.766.15l2.766-.15zm1.784-7.076a1.385 1.385 0 002.007 1.907L4.552 2.057zM15.53 32.926a1.385 1.385 0 101.474-2.345l-1.474 2.345zm8.215.454a1.385 1.385 0 10-.567 2.712l.567-2.712zm.982-8.334l.84-.886-2.009-1.907-.84.886 2.01 1.907zm3.608-1.26l3.527 2.032 1.383-2.4-3.529-2.031-1.38 2.4zm4.208 6.241l-2.624 2.76 2.01 1.91 2.621-2.763-2.007-1.907zm-21.269-4.215c-7.156-7.534-8.357-13.89-8.506-16.679l-2.766.15c.185 3.415 1.632 10.402 9.265 18.436l2.007-1.907zm2.541-12.253l.528-.558-2.007-1.907-.53.558 2.009 1.907zm.945-7.5l-2.328-3.291-2.262 1.598 2.327 3.292L14.76 6.06zm-1.951 6.545c-.333-.32-.668-.637-1.007-.95l-.003.003-.006.006-.092.107a2.95 2.95 0 00-.425.788c-.18.508-.277 1.18-.155 2.018.24 1.647 1.32 3.86 4.14 6.831l2.009-1.909c-2.637-2.775-3.287-4.483-3.409-5.324-.059-.407 0-.619.024-.687l.015-.035-.052.068-.033.039-1.006-.955zm2.452 8.801c2.812 2.961 4.935 4.125 6.554 4.389.833.134 1.507.026 2.017-.176a2.77 2.77 0 00.779-.461l.064-.063.026-.026.013-.011.006-.005.002-.004s.003-.002-1.001-.957c-1.005-.952-1.003-.954-1.003-.956l.004-.002.004-.005.01-.01.088-.077c.017-.01.014-.01-.01.002-.037.015-.203.074-.554.016-.742-.121-2.345-.775-4.99-3.561l-2.01 1.907zM12.432 2.768C10.56.12 6.815-.328 4.552 2.057l2.007 1.907c.965-1.015 2.666-.936 3.611.402l2.262-1.598zm17.487 30.02c-.515.542-1.052.834-1.576.885l.27 2.755c1.38-.135 2.497-.87 3.315-1.732l-2.009-1.909zM14.343 13c1.787-1.881 1.913-4.824.417-6.942L12.5 7.66c.779 1.101.659 2.571-.163 3.435l2.007 1.907zm17.519 12.817c1.516.873 1.813 3.018.681 4.209l2.007 1.907c2.41-2.537 1.708-6.781-1.305-8.516l-1.383 2.4zm-6.295-1.658c.711-.75 1.82-.918 2.768-.373l1.381-2.4c-2.029-1.167-4.542-.833-6.158.866l2.01 1.907zm-8.563 6.42c-1.815-1.14-3.749-2.683-5.73-4.768L9.267 27.72c2.131 2.243 4.242 3.936 6.263 5.207l1.474-2.345zm11.337 3.093a15.327 15.327 0 01-4.596-.293l-.567 2.712a18.1 18.1 0 005.436.336l-.273-2.755z" fill="#121212"/><path d="M23.558 22.253l.689-.726-1.377 1.45.688-.724zm8.304 3.565l-.867-.5 1.733.999-.866-.5zm2.688 6.116l-.689.725 1.379-1.45-.69.725zm-4.63.853l.688-.725-1.378 1.45.69-.725zm-18.646-6.975l.69.725-1.379-1.45.69.725zm3.069-12.81l-.689.724 1.379-1.45-.69.725zM10.17 4.365l-.577-.816 1.154 1.633-.577-.817zM23.72 24.09l-.687.726 1.006.954.688-.725.688-.726-1.006-.954-.688.725zm.843-.886l.688-.725-1.004-.953-.689.726-.688.725 1.005.953.688-.726zm4.463-.618l-.867-.499-.69 1.2.866.499.867.499.69-1.2-.866-.5zm3.526 2.03l-.866-.498-.691 1.2.867.499.866.498.691-1.2-.867-.498zm.995 6.363l-.689.724 1.003.954.69-.724.689-.724-1.003-.955-.69.725zm-2.621 2.762l.688-.726-1.006-.954-.689.725-.688.726 1.006.954.689-.725zm-2.449 1.31l-.995.1.137 1.375.995-.1.995-.098-.137-1.375-.995.098zm-18.205-8.287l.688.725 1.003-.953-.689-.725-.688-.725-1.003.953.689.725zM.002 9.283l.054.998 2.766-.15-.054-.998-.054-.998-2.766.15.054.998zm12.808 3.321l-.688.725 1.004.955.689-.725.689-.725-1.005-.955-.689.725zm.53-.557l-.69.724 1.003.954.69-.724.69-.724-1.003-.955-.69.725zm.289-5.188l.576.817 1.132-.8-.577-.817-.577-.816-1.131.799.577.817zm-2.327-3.292l-.577-.817-1.132.8.577.816.577.817 1.132-.8-.577-.816zm-4.743.397l.688-.725L5.24 1.332l-.688.725-.69.725L5.87 4.689l.689-.725zm9.708 16.489l.689.724 1.004-.954-.689-.725-.688-.725-1.005.955.689.724zm.737 10.128l-.847-.532-1.473 2.345.846.532.847.532 1.473-2.345-.846-.532zm6.174 5.51l.979.205.567-2.712-.98-.204-.978-.205-.567 2.712.98.205zm2.39-11.931l.688-.726-2.009-1.907-.689.726-.688.725 2.009 1.907.688-.725zm6.294 1.658l.866.499 1.383-2.4-.866-.5-.867-.499-1.383 2.4.867.5zm-2.146-4.431l-.867-.499-1.38 2.4.866.499.867.499 1.381-2.4-.867-.5zm.203 11.4l-.689.725 2.01 1.909.688-.725.69-.725-2.01-1.909-.689.725zm4.631-.853l.689-.725-2.007-1.907-.689.725-.689.725 2.007 1.907.69-.725zM9.267 27.72l.69.725 2.006-1.907-.689-.725-.688-.725-2.008 1.907.69.725zm5.076-14.718l.689-.725-2.007-1.907-.689.725-.689.725 2.007 1.907.689-.725zM12.432 2.768l-.577-.817L9.593 3.55l.577.816.577.817 2.262-1.599-.577-.816zM23.721 24.09l1.378-1.45h-.002l-1.376 1.45zm1.006.955l-1.377 1.45 1.452 1.378 1.377-1.452-1.452-1.376zm-1.169-2.793l-1.449-1.379-.002.003 1.451 1.376zm4.777 1.534l.998-1.733-.001-.001-.997 1.734zm3.527 2.03l.998-1.732-.998 1.733zm2.688 6.117l-1.45-1.377 1.45 1.377zm-4.63.853l-1.45-1.378-.001.001 1.45 1.377zm-1.306 3.64l.178 1.993h.008l.008-.002-.194-1.99zm-17.34-10.615l-1.45 1.377v.001l1.45-1.378zM2.768 9.133l1.997-.107-1.997.107zm-2.766.15l1.997-.108-1.997.108zm13.813 4.276l-1.376 1.45 1.452 1.378 1.376-1.453-1.452-1.375zm.528-.558l-1.45-1.377-.002.002L14.343 13zm.417-6.942l1.634-1.153v-.001L14.76 6.059zm-4.59-1.693L8.537 5.52l1.633-1.154zm-5.618-2.31L3.1.68l-.016.017-.016.018 1.483 1.342zm2.007 1.908l1.415 1.413.017-.017.017-.018-1.45-1.378zm8.971 28.962l1.084-1.682-.01-.006-.01-.006-1.064 1.694zm1.474-2.345l-1.065 1.693.01.006.01.006 1.045-1.705zm6.74 2.799l.427-1.954-.009-.002-.008-.002-.41 1.958zm-.566 2.712l.422-1.955-.013-.003-.409 1.958zm2.39-11.932l-1.452-1.377 1.451 1.377zm-2.85-1.021l-1.451-1.376-1.375 1.45 1.45 1.376 1.376-1.45zm10.527.279l.998-1.734-.998 1.734zm-3.529-2.031l.998-1.734-.998 1.734zm2.827 8.64l1.45 1.378-1.45-1.378zm-.615 4.67l-1.45-1.378 1.45 1.377zm-22.66-6.978l1.45-1.377-1.45 1.377zm3.068-16.625l-1.45-1.378 1.45 1.378zm-.53.558l-1.45-1.378-1.378 1.45 1.451 1.378 1.377-1.45zm.626-8.884l-1.633 1.154 1.633-1.154zm.065 4.89l-1.634 1.155 1.154 1.632 1.633-1.153-1.153-1.634zm.312 4.946l-1.388 1.44.006.006.005.005 1.377-1.45zm-1.007-.95l1.36-1.468-1.412-1.308-1.361 1.36 1.413 1.415zm-.003.003l-1.414-1.415v.001l1.414 1.414zm-.006.006l-1.414-1.414-.052.052-.049.056 1.515 1.306zm-.092.107l-1.515-1.306-.043.05-.039.051 1.597 1.205zm-.425.788l1.884.671-1.884-.67zm-.155 2.018l-1.98.288h.001l1.98-.288zm4.14 6.831l-1.45 1.377 1.377 1.451 1.45-1.378-1.377-1.45zm2.009-1.909l1.45-1.377-1.45 1.377zm-3.409-5.324l1.98-.287v-.001l-1.98.288zm.024-.687l-1.843-.777-.024.056-.02.058 1.887.663zm.015-.035l1.843.776-3.438-1.983 1.595 1.207zm-.052.068l1.519 1.302.04-.046.036-.049-1.595-1.207zm1.413 7.885l-1.377-1.45-1.45 1.377 1.376 1.45 1.45-1.377zm6.554 4.389l-.321 1.974h.002l.32-1.974zm2.017-.176l-.725-1.864-.01.004.735 1.86zm.779-.461l1.287 1.53.055-.046.051-.05-1.393-1.434zm.064-.063l1.394 1.435.01-.01.01-.01-1.413-1.415zm.026-.026L23.4 23.55l-.058.05-.055.055 1.414 1.414zm.013-.011l1.302 1.519.058-.05.054-.055-1.414-1.414zm.006-.005l1.414 1.414.23-.23.145-.29-1.79-.895zm.002-.004l-.894-1.79-.597.299-.298.596 1.789.895zm-2.004-1.913l-.894-1.789-1.106.553v1.236h2zm.004-.002l.894 1.79.475-.238.295-.442-1.664-1.11zm.004-.005l-1.28-1.537-.224.186-.16.241 1.664 1.11zm.01-.01l1.281 1.537.027-.022.025-.023-1.332-1.491zm.088-.077l-.993-1.737-.183.105-.157.14 1.333 1.492zm-.01.002l.743 1.857.058-.023.056-.027-.857-1.807zm-.554.016l-.324 1.974h.002l.322-1.974zm6.082 10.614l-.196-1.99-1.99.196.196 1.99 1.99-.196zM12.5 7.658l-1.155-1.633L9.711 7.18l1.154 1.633 1.633-1.155zm15.84 26.015l1.99-.197-.195-1.967-1.97.172.175 1.992zM2.768 9.133l1.997-.108a3.385 3.385 0 00-.327-1.28l-1.804.865-1.804.864a.615.615 0 01-.06-.233l1.998-.108zm-.134-.523l1.804-.864a3.382 3.382 0 00-.792-1.057L2.31 8.177.974 9.667a.615.615 0 01-.144-.193l1.804-.864zm-.324-.433L3.646 6.69a3.385 3.385 0 00-1.136-.673l-.665 1.886-.664 1.886a.615.615 0 01-.207-.122l1.336-1.49zm-.465-.275l.665-1.886a3.385 3.385 0 00-1.308-.188l.108 1.997.108 1.997a.615.615 0 01-.237-.034l.664-1.886zm-.535-.077l-.108-1.997a3.385 3.385 0 00-1.28.327L.788 7.96l.864 1.804a.615.615 0 01-.233.06l-.109-2zm-.523.134l-.864-1.804c-.401.192-.76.462-1.057.792L.354 8.283 1.843 9.62a.615.615 0 01-.192.144L.787 7.959zm-.433.324l-1.488-1.336a3.388 3.388 0 00-.674 1.137l1.887.664 1.886.665a.615.615 0 01-.122.206L.354 8.283zm-.275.465l-1.887-.664a3.395 3.395 0 00-.187 1.307l1.997-.108 1.997-.108a.615.615 0 01-.034.238L.079 8.748zm4.473-6.691L3.069.715a3.385 3.385 0 00-.873 2.398l1.999-.075 1.998-.075a.615.615 0 01-.159.436L4.552 2.057zm-.357.981l-1.999.075c.033.883.41 1.718 1.05 2.326l1.378-1.45 1.378-1.45a.615.615 0 01.191.424l-1.998.075zm.43.952L3.246 5.44c.64.608 1.493.942 2.376.93l-.026-2-.027-2a.615.615 0 01.432.17L4.624 3.99zm.972.38l.026 2a3.385 3.385 0 002.351-.993L6.56 3.964 5.143 2.551a.615.615 0 01.427-.18l.027 2zm9.933 28.556l-1.083 1.68a3.36 3.36 0 001.238.487l.352-1.968.352-1.969c.08.014.156.044.225.088l-1.084 1.682zm.507.199l-.352 1.968c.44.08.893.07 1.33-.027l-.434-1.953-.434-1.952a.615.615 0 01.242-.005l-.352 1.969zm.544-.012l.434 1.953c.437-.097.85-.28 1.216-.538l-1.152-1.635-1.153-1.634a.614.614 0 01.221-.098l.434 1.952zm.498-.22l1.152 1.635a3.38 3.38 0 00.915-.965l-1.693-1.065-1.693-1.064a.615.615 0 01.166-.175l1.153 1.634zm.374-.395l1.693 1.065c.239-.38.4-.802.473-1.244l-1.973-.33-1.972-.329a.616.616 0 01.086-.226l1.693 1.064zm.193-.508l1.973.33c.074-.442.06-.894-.043-1.33l-1.947.456-1.948.456a.613.613 0 01-.007-.242l1.972.33zm-.017-.544l1.947-.456a3.385 3.385 0 00-.552-1.21l-1.621 1.17-1.621 1.172a.614.614 0 01-.1-.22l1.947-.456zm-.226-.495l1.621-1.172a3.386 3.386 0 00-.976-.904l-1.044 1.706-1.045 1.705a.614.614 0 01-.177-.164l1.62-1.171zm6.342 2.429l.409-1.958a3.386 3.386 0 00-2.546.48l1.095 1.675 1.095 1.673a.615.615 0 01-.462.087l.409-1.957zm-1.042.197l-1.095-1.674a3.385 3.385 0 00-1.46 2.14l1.957.41 1.958.409a.614.614 0 01-.265.388l-1.095-1.673zm-.598.875l-1.957-.409a3.385 3.385 0 00.48 2.546l1.674-1.095 1.674-1.095a.62.62 0 01.087.463l-1.958-.41zm.197 1.042L20.63 36.59a3.386 3.386 0 002.14 1.46l.41-1.957.408-1.958c.16.033.3.129.389.265l-1.674 1.095zm2.425-10.448l1.452 1.376.84-.886-1.452-1.376-1.451-1.376-.84.886 1.451 1.376zm-1.169-2.793l-1.451-1.376-.84.886 1.451 1.376 1.452 1.376.84-.886-1.452-1.376zm-.84.886l-1.377 1.45 2.01 1.907 1.376-1.45 1.377-1.45-2.009-1.908-1.377 1.45zm5.617.648l-.998 1.733 3.527 2.03.998-1.732.998-1.734-3.527-2.03-.998 1.733zm4.91-.37l.997-1.733-3.528-2.03-.998 1.733-.998 1.733 3.529 2.031.998-1.733zm-.702 6.61l-1.45-1.378-2.623 2.76 1.45 1.378 1.449 1.378 2.624-2.76-1.45-1.378zm-.615 4.67l1.45 1.376 2.623-2.762-1.45-1.377-1.451-1.377-2.622 2.762 1.45 1.377zm-20.654-8.885l1.45-1.377C5.911 17.26 4.89 11.362 4.765 9.026l-1.997.107-1.997.108c.174 3.24 1.554 10.053 9.053 17.948l1.45-1.377zM.002 9.282l-1.997.109c.209 3.867 1.836 11.31 9.812 19.706l1.45-1.378 1.45-1.377C3.427 18.668 2.16 12.139 2 9.175l-1.997.108zm13.813 4.277l1.452 1.375.528-.557L14.343 13l-1.452-1.375-.528.558 1.452 1.375zm-1.479-2.465l-1.45-1.378-.53.558 1.45 1.378 1.45 1.377.53-.557-1.45-1.378zm-.53.558l-1.377 1.45 2.009 1.907 1.377-1.45 1.377-1.45-2.009-1.908-1.377 1.45zm2.954-5.593l1.633-1.154-2.328-3.292-1.633 1.155-1.633 1.155 2.329 3.291L14.76 6.06zm-4.59-1.693L8.537 5.521l2.326 3.292 1.634-1.155 1.633-1.154-2.327-3.292-1.633 1.154zm2.327 3.292l1.153 1.634 2.264-1.599-1.154-1.634-1.153-1.633-2.264 1.599 1.154 1.633zm.312 4.946l1.388-1.44a71.29 71.29 0 00-1.035-.978l-1.36 1.467-1.359 1.468c.33.304.655.612.978.923l1.388-1.44zm-1.007-.95l-1.413-1.415-.004.003 1.414 1.415 1.414 1.415.003-.004-1.414-1.415zm-.003.003l-1.415-1.414-.005.006 1.414 1.414 1.415 1.414.005-.006-1.414-1.414zm-.006.006l-1.515-1.306-.092.107 1.515 1.306 1.515 1.306.092-.107-1.515-1.306zm-.092.107l-1.597-1.205a4.955 4.955 0 00-.712 1.322l1.884.671 1.884.67a.954.954 0 01.137-.254l-1.596-1.204zm-.425.788l-1.884-.671c-.296.83-.417 1.832-.25 2.977l1.98-.288 1.978-.288c-.077-.531-.006-.873.06-1.059l-1.884-.67zm-.155 2.018l-1.979.288c.325 2.231 1.717 4.81 4.668 7.92l1.45-1.377 1.451-1.377c-2.688-2.832-3.456-4.68-3.61-5.742l-1.98.288zm4.14 6.831l1.377 1.45 2.01-1.91-1.378-1.449-1.378-1.45-2.009 1.91 1.378 1.449zm2.009-1.909l1.45-1.378c-2.505-2.636-2.842-3.977-2.88-4.233l-1.979.287-1.98.286c.207 1.427 1.17 3.502 3.939 6.416l1.45-1.378zm-3.409-5.324l1.98-.288c-.01-.06-.002-.055-.007.002a1.122 1.122 0 01-.062.262l-1.887-.663-1.887-.663c-.135.385-.22.924-.116 1.637l1.98-.287zm.024-.687l1.843.776.015-.035-1.843-.776-1.843-.777-.015.035 1.843.777zm.015-.035l-1.595-1.207-.051.068 1.594 1.207 1.595 1.207.052-.068-1.595-1.207zm-.052.068l-1.518-1.302-.033.04 1.518 1.3 1.518 1.302.034-.038-1.519-1.302zm-.033.039l1.376-1.451-1.006-.955-1.376 1.451-1.377 1.451 1.007.955 1.376-1.451zm1.446 7.846l-1.45 1.377c2.933 3.09 5.43 4.619 7.683 4.986l.321-1.974.322-1.974c-.987-.161-2.735-.958-5.426-3.792l-1.45 1.377zm6.554 4.389l-.32 1.974c1.182.191 2.22.046 3.071-.29l-.734-1.86-.735-1.86c-.168.067-.478.14-.962.061l-.32 1.975zm2.017-.176l.724 1.865a4.77 4.77 0 001.342-.795l-1.287-1.531-1.287-1.531a.77.77 0 01-.216.128l.724 1.864zm.779-.461l1.393 1.434.065-.062-1.393-1.435-1.394-1.435-.065.063 1.394 1.435zm.064-.063l1.415 1.414.026-.026-1.415-1.414-1.414-1.414-.026.026 1.415 1.414zm.026-.026l1.302 1.519.013-.011-1.302-1.519-1.301-1.519-.013.011 1.301 1.52zm.013-.011l1.414 1.414.006-.005-1.414-1.415-1.414-1.414-.006.006 1.414 1.414zm.006-.005l1.789.894.001-.003-1.788-.895-1.789-.895-.002.004 1.789.895zm.002-.004c.894 1.789 1.18 1.615 1.432 1.396.078-.085.278-.359.382-.555a2 2 0 00.183-.934c-.017-.384-.144-.663-.176-.734-.087-.192-.187-.326-.203-.348-.059-.082-.112-.141-.12-.15a1.947 1.947 0 00-.111-.117l-.125-.12a243.57 243.57 0 00-.885-.844l-1.378 1.45-1.378 1.45a247.847 247.847 0 01.962.917l-.02-.02c-.003-.003-.03-.03-.061-.066a1.94 1.94 0 01-.121-.15c-.016-.023-.115-.157-.202-.348a2 2 0 01.006-1.669c.105-.196.304-.469.383-.555.252-.218.538-.392 1.432 1.397zm-1.001-.957l1.376-1.45a322.239 322.239 0 01-.937-.892.111.111 0 00-.017-.016l-.004-.005.003.003a.79.79 0 01.053.056 1.904 1.904 0 01.188.24 1.994 1.994 0 01.327.928c.01.111.008.218.008.18h-4c0-.038-.002.07.009.18a2 2 0 00.328.93c.093.14.187.24.19.243.04.044.078.081.084.087l.13.126.886.842 1.376-1.452zm-1.003-.956l.894 1.79.004-.003-.894-1.789-.894-1.789-.004.002.894 1.79zm.004-.002l1.664 1.11.004-.006-1.664-1.11-1.664-1.109-.004.006 1.664 1.11zm.004-.005l1.28 1.536.011-.009-1.28-1.537-1.28-1.536-.012.01 1.28 1.536zm.01-.01l1.333 1.492.087-.078-1.332-1.491-1.333-1.491-.087.077 1.333 1.492zm.088-.077l.992 1.736c.005-.003.053-.03.11-.066l.086-.06a1.978 1.978 0 00.58-.663c.078-.143.605-1.174-.178-2.181a2 2 0 00-2.456-.572l.856 1.808.857 1.807-.01.005-.025.01-.067.03a1.965 1.965 0 01-.088.031 2.009 2.009 0 01-1.242.017 2 2 0 01-.983-.681c-.784-1.008-.257-2.04-.18-2.182.14-.256.302-.418.344-.46a1.887 1.887 0 01.32-.26l.067-.041.024-.015.993 1.737zm-.01.002l-.742-1.857a1.588 1.588 0 01.374-.097c.103-.01.153 0 .136-.003l-.322 1.973-.322 1.974c.697.114 1.233.021 1.62-.133l-.744-1.857zm-.554.016l.324-1.973c-.112-.019-1.341-.308-3.864-2.965l-1.45 1.377-1.45 1.377c2.768 2.916 4.744 3.933 6.116 4.158l.324-1.974zm-4.99-3.561l-1.377-1.45-2.01 1.907 1.378 1.45 1.377 1.45 2.009-1.907-1.377-1.45zm-4.838-16.73l1.633-1.155C11.532-1.97 6.311-2.703 3.101.68l1.45 1.377 1.451 1.377c1.317-1.388 3.585-1.225 4.797.488l1.633-1.154zM6.559 3.964l1.449 1.378a.213.213 0 01.183-.068c.063.006.2.041.346.246l1.633-1.154 1.634-1.153c-1.63-2.307-4.81-2.61-6.695-.627l1.45 1.378zm23.36 28.823l-1.45-1.377c-.297.313-.417.282-.323.273l.197 1.99.196 1.99c1.143-.112 2.097-.726 2.831-1.5l-1.45-1.376zm-1.576.886l-1.99.196.27 2.755 1.99-.196 1.991-.196-.271-2.755-1.99.196zm.27 2.755l.195 1.99c1.999-.195 3.534-1.252 4.571-2.345l-1.45-1.377-1.452-1.376c-.598.63-1.298 1.043-2.058 1.117l.195 1.99zM14.344 13l1.45 1.378c2.486-2.617 2.612-6.626.601-9.473L14.76 6.059l-1.633 1.154c.98 1.388.855 3.265-.234 4.41l1.45 1.378zm.417-6.942l-1.154-1.633-2.262 1.6L12.5 7.657l1.154 1.633 2.262-1.598-1.155-1.634zM12.5 7.66l-1.634 1.154a.849.849 0 01.156.537.584.584 0 01-.134.366l1.449 1.378 1.45 1.378c1.514-1.593 1.646-4.129.346-5.968L12.5 7.659zm19.363 18.159l-.999 1.733a.76.76 0 01.356.557c.041.27-.044.456-.126.541l1.45 1.378 1.45 1.378c2.05-2.157 1.472-5.82-1.133-7.32l-.998 1.733zm2.688 6.116L36 33.312c3.336-3.512 2.334-9.271-1.757-11.628l-.998 1.734-.998 1.733c1.935 1.114 2.336 3.844.853 5.406l1.45 1.377zm-8.983-7.774l1.451 1.376a.2.2 0 01.12-.067c.035-.005.103-.004.2.052l.997-1.734.997-1.734c-1.729-.994-3.855-.705-5.216.73l1.451 1.377zm4.15-2.773l.996-1.734c-2.809-1.615-6.337-1.162-8.604 1.221l1.45 1.379 1.449 1.378c.964-1.014 2.462-1.229 3.711-.51l.997-1.734zM17.003 30.58l1.064-1.693c-1.667-1.048-3.472-2.484-5.344-4.454l-1.45 1.378-1.45 1.378c2.09 2.199 4.152 3.85 6.115 5.084l1.065-1.693zm-7.737-2.862l-1.45 1.378c2.24 2.358 4.479 4.159 6.65 5.522l1.063-1.693 1.064-1.694c-1.873-1.177-3.855-2.762-5.877-4.89l-1.45 1.377zm19.074 5.954l-.174-1.992c-1.337.116-2.685.03-3.996-.255l-.426 1.954-.426 1.954c1.705.371 3.457.483 5.195.332l-.173-1.993zm-5.163 2.419l-.422 1.955c1.982.428 4.017.554 6.036.373l-.178-1.992-.178-1.992a16.097 16.097 0 01-4.835-.299l-.423 1.955zm5.436.336l1.99-.198-.273-2.754-1.99.197-1.99.198.273 2.754 1.99-.197z" fill="#121212" mask="url(#a)"/></g><defs><clipPath id="clip0_2064_10599"><path fill="#fff" transform="translate(0 .5)" d="M0 0h36v36H0z"/></clipPath></defs></svg>