<svg width="18" height="18" fill="none" xmlns="http://www.w3.org/2000/svg"><g clip-path="url(#clip0_333_4818)"><path d="M9 1L6.804 6.66 1 7.114l4.449 3.95L4.056 17 9 13.776M9 1l2.196 5.66L17 7.114l-4.449 3.95L13.944 17 9 13.776" stroke="#FF8400" stroke-width="1.5" stroke-linecap="round" stroke-linejoin="round"/><path d="M15.005 7.45l-3.967-.577-1.773-3.595a.502.502 0 00-.897 0L6.594 6.873l-3.967.577a.499.499 0 00-.277.853l2.87 2.799-.677 3.951a.5.5 0 00.725.527l3.548-1.866 3.548 1.866a.5.5 0 00.725-.527l-.678-3.951 2.87-2.799a.499.499 0 00-.276-.853z" fill="#FF8400"/></g><defs><clipPath id="clip0_333_4818"><path fill="#fff" d="M0 0h18v18H0z"/></clipPath></defs></svg>