<svg width="18" height="18" fill="none" xmlns="http://www.w3.org/2000/svg"><g clip-path="url(#clip0_333_4841)"><path d="M9 2L6.65 5.929l-4.197.638a.52.52 0 00-.303.161.569.569 0 00.01.784l3.037 3.1-.718 4.378a.578.578 0 00.031.303.55.55 0 00.18.239.514.514 0 00.556.041L9 13.508V2z" fill="#FF8400"/><path d="M9 1L6.804 6.66 1 7.114l4.449 3.95L4.056 17 9 13.776M9 1l2.196 5.66L17 7.114l-4.449 3.95L13.944 17 9 13.776" stroke="#FF8400" stroke-width="1.5" stroke-linecap="round" stroke-linejoin="round"/></g><defs><clipPath id="clip0_333_4841"><path fill="#fff" d="M0 0h18v18H0z"/></clipPath></defs></svg>