<svg width="13" height="14" fill="none" xmlns="http://www.w3.org/2000/svg"><g clip-path="url(#clip0_2002_5231)"><path fill-rule="evenodd" clip-rule="evenodd" d="M9.804.835a16.466 16.466 0 00-6.609 0l-.234.048a3.49 3.49 0 00-1.625.805c-.45.401-.77.91-.923 1.468a11.401 11.401 0 000 6.081 3.06 3.06 0 00.863 1.413 3.46 3.46 0 001.519.822l.322 1.763c.01.056.036.109.076.152s.092.076.15.095a.376.376 0 00.345-.063l1.889-1.55a16.55 16.55 0 004.227-.31l.235-.048a3.49 3.49 0 001.625-.805c.45-.402.77-.91.923-1.468a11.4 11.4 0 000-6.082 3.063 3.063 0 00-.924-1.467 3.49 3.49 0 00-1.625-.806L9.804.835zm-6.025 2.27a.61.61 0 00-.371.067h-.01c-.26.14-.493.315-.692.522-.166.176-.256.354-.28.525a.666.666 0 00.029.302l.012.006c.187.504.43.989.728 1.444.383.64.855 1.233 1.404 1.763l.016.021.027.018.015.017.02.015A9.41 9.41 0 006.6 9.101c.799.4 1.284.588 1.575.666v.004a.865.865 0 00.24.035c.249-.016.483-.109.667-.263a2.56 2.56 0 00.563-.637V8.9c.14-.24.092-.468-.108-.623a8.324 8.324 0 00-1.301-.857c-.31-.154-.625-.06-.752.095l-.272.315c-.14.157-.393.135-.393.135l-.007.004C4.924 7.527 4.42 5.77 4.42 5.77s-.023-.238.152-.36l.34-.252a.521.521 0 00.102-.694 7.67 7.67 0 00-.932-1.194.529.529 0 00-.304-.167M6.97 2.34a.362.362 0 00-.244.093.305.305 0 00-.102.225c0 .084.037.165.102.224a.36.36 0 00.244.093c.875 0 1.601.262 2.176.765.295.275.526.601.677.958.151.357.22.739.202 1.121a.295.295 0 00.021.123c.016.039.04.075.07.106a.365.365 0 00.489.019.308.308 0 00.112-.221 3.19 3.19 0 00-.25-1.378 3.415 3.415 0 00-.833-1.177l-.006-.007c-.714-.625-1.616-.944-2.658-.944zm-.023 1.044a.362.362 0 00-.245.093.305.305 0 00-.101.225c0 .084.036.165.101.224a.36.36 0 00.245.093h.012c.63.041 1.09.234 1.411.551.33.327.5.732.488 1.234a.304.304 0 00.095.227.36.36 0 00.243.098c.091.002.18-.03.246-.088a.306.306 0 00.107-.222 2.21 2.21 0 00-.672-1.68v-.002c-.468-.46-1.11-.705-1.884-.752l-.012-.002-.034.001zM6.934 4.45a.375.375 0 00-.258.076.322.322 0 00-.084.1.297.297 0 00.059.357.372.372 0 00.247.1c.289.014.473.094.59.202.117.108.204.281.22.552 0 .043.01.085.03.124a.32.32 0 00.08.103.374.374 0 00.387.053.344.344 0 00.11-.078.312.312 0 00.067-.11.293.293 0 00.016-.125c-.022-.381-.152-.718-.419-.966-.267-.247-.632-.368-1.045-.388z" fill="#665CA7"/></g><defs><clipPath id="clip0_2002_5231"><path fill="#fff" transform="translate(0 .5)" d="M0 0h13v13H0z"/></clipPath></defs></svg>