<svg width="13" height="14" fill="none" xmlns="http://www.w3.org/2000/svg"><g clip-path="url(#clip0_2002_5233)"><path fill-rule="evenodd" clip-rule="evenodd" d="M6.5.5a6.5 6.5 0 11-3.106 12.21l-2.866.482a.453.453 0 01-.523-.515l.484-3.2A6.5 6.5 0 016.5.5zM4.047 3.795c-.444 0-.813.375-.744.838.131.869.517 2.469 1.664 3.625 1.2 1.208 2.917 1.725 3.846 1.93.481.105.892-.276.892-.746V8.34a.181.181 0 00-.116-.169l-1.185-.455a.181.181 0 00-.1-.009l-1.196.234c-.771-.4-1.238-.847-1.518-1.521l.225-1.22a.181.181 0 00-.008-.097l-.445-1.19a.181.181 0 00-.17-.119H4.048z" fill="#60D569"/></g><defs><clipPath id="clip0_2002_5233"><path fill="#fff" transform="translate(0 .5)" d="M0 0h13v13H0z"/></clipPath></defs></svg>