<svg width="641" height="286" fill="none" xmlns="http://www.w3.org/2000/svg"><mask id="a" maskUnits="userSpaceOnUse" x="0" y="51.5" width="158" height="180" fill="#000"><path fill="#fff" d="M0 51.5h158v180H0z"/><path d="M10.063 196.5v-33.75L74.436 61.5h30.626v45h-17.5l-34.688 55v1.25h95v33.75H10.062zm77.812 25v-35.313l.938-14.687v-110h40.624v160H87.875z"/></mask><path d="M10.063 196.5h-10v10h10v-10zm0-33.75l-8.44-5.365-1.56 2.455v2.91h10zM74.436 61.5v-10h-5.492L66 56.135l8.439 5.365zm30.626 0h10v-10h-10v10zm0 45v10h10v-10h-10zm-17.5 0v-10h-5.516l-2.943 4.665 8.459 5.335zm-34.688 55l-8.458-5.335-1.542 2.445v2.89h10zm0 1.25h-10v10h10v-10zm95 0h10v-10h-10v10zm0 33.75v10h10v-10h-10zm-60 25h-10v10h10v-10zm0-35.313l-9.98-.637-.02.319v.318h10zm.938-14.687l9.98.637.02-.318v-.319h-10zm0-110v-10h-10v10h10zm40.624 0h10v-10h-10v10zm0 160v10h10v-10h-10zm-119.375-25h10v-33.75h-20v33.75h10zm0-33.75l8.44 5.365 64.374-101.25-8.439-5.365L66 56.135 1.624 157.385l8.438 5.365zM74.439 61.5v10h30.625v-20H74.437v10zm30.625 0h-10v45h20v-45h-10zm0 45v-10h-17.5v20h17.5v-10zm-17.5 0l-8.459-5.335-34.687 55 8.458 5.335 8.458 5.335 34.688-55.001-8.459-5.334zm-34.688 55h-10v1.25h20v-1.25h-10zm0 1.25v10h95v-20h-95v10zm95 0h-10v33.75h20v-33.75h-10zm0 33.75v-10H10.062v20h137.813v-10zm-60 25h10v-35.313h-20V221.5h10zm0-35.313l9.98.638.937-14.688-9.98-.637-9.98-.637-.937 14.687 9.98.637zm.938-14.687h10v-110h-20v110h10zm0-110v10h40.624v-20H88.812v10zm40.624 0h-10v160h20v-160h-10zm0 160v-10H87.875v20h41.562v-10z" fill="#121212" mask="url(#a)"/><mask id="b" maskUnits="userSpaceOnUse" x="197" y="0" width="246" height="286" fill="#000"><path fill="#fff" d="M197 0h246v286H197z"/><path d="M319.77 275.96c-23.118-.083-43.087-5.427-59.908-16.033-16.82-10.606-29.788-25.894-38.902-45.863-9.115-19.969-13.631-43.916-13.548-71.84.083-28.006 4.64-51.787 13.672-71.342 9.114-19.555 22.041-34.428 38.778-44.62 16.821-10.192 36.79-15.288 59.908-15.288 23.118 0 43.087 5.138 59.908 15.412 16.82 10.192 29.788 25.066 38.902 44.62 9.115 19.555 13.631 43.295 13.548 71.218 0 28.09-4.557 52.119-13.672 72.088-9.115 19.97-22.082 35.257-38.903 45.863-16.737 10.524-36.665 15.785-59.783 15.785zm0-56.179c11.932 0 21.709-6.214 29.332-18.643 7.706-12.512 11.518-32.15 11.435-58.914 0-17.483-1.74-31.776-5.22-42.88-3.48-11.103-8.286-19.306-14.418-24.609-6.131-5.386-13.175-8.079-21.129-8.079-11.932 0-21.668 6.049-29.208 18.146-7.54 12.098-11.393 31.239-11.559 57.422-.083 17.815 1.616 32.481 5.096 43.999 3.48 11.435 8.286 19.886 14.417 25.355 6.215 5.469 13.299 8.203 21.254 8.203z"/></mask><path d="M319.77 275.96l-.036 10h.036v-10zm-59.908-16.033l-5.333 8.459 5.333-8.459zm-38.902-45.863l-9.098 4.152 9.098-4.152zm-13.548-71.84l10 .03-10-.03zm13.672-71.342l-9.064-4.225-.007.016-.008.016 9.079 4.193zm38.778-44.62l-5.182-8.553-.009.006-.01.006 5.201 8.541zm119.816.124l-5.213 8.534.015.01.015.009 5.183-8.553zm38.902 44.62l9.064-4.224-9.064 4.224zm13.548 71.218l-10-.029v.029h10zm-13.672 72.088l9.097 4.153-9.097-4.153zm-38.903 45.863l5.323 8.466.011-.007-5.334-8.459zm-30.451-59.037l-8.514-5.244-.005.008-.005.007 8.524 5.229zm11.435-58.914h-10v.031l10-.031zm-5.22-42.88l9.542-2.99-9.542 2.99zm-14.418-24.609l-6.599 7.513.029.026.029.025 6.541-7.564zm-50.337 10.067l-8.487-5.289 8.487 5.29zm-11.559 57.422l-10-.063v.017l10 .046zm5.096 43.999l-9.573 2.892.003.01.003.01 9.567-2.912zm14.417 25.355l-6.656 7.463.025.022.025.022 6.606-7.507zm21.254 64.382l.036-10c-21.553-.077-39.62-5.04-54.61-14.492l-5.334 8.459-5.333 8.459c18.65 11.76 40.522 17.486 65.205 17.574l.036-10zm-59.908-16.033l5.334-8.459c-15.005-9.461-26.746-23.167-35.139-41.556l-9.097 4.152-9.098 4.152c9.836 21.55 24.03 38.418 42.667 50.17l5.333-8.459zm-38.902-45.863l9.097-4.152c-8.376-18.351-12.725-40.798-12.645-67.658l-10-.03-10-.029c-.086 28.987 4.597 54.433 14.45 76.021l9.098-4.152zm-13.548-71.84l10 .03c.08-26.983 4.474-49.26 12.75-67.179l-9.078-4.193-9.079-4.193c-9.787 21.19-14.507 46.475-14.593 75.506l10 .029zm13.672-71.342l9.064 4.225c8.368-17.955 20.031-31.241 34.915-40.304l-5.201-8.54-5.201-8.542c-18.591 11.32-32.78 27.781-42.641 48.936l9.064 4.225zm38.778-44.62l5.182 8.553c15.002-9.09 33.111-13.84 54.726-13.84v-20c-24.621 0-46.451 5.44-65.09 16.734l5.182 8.553zm59.908-15.288v10c21.601 0 39.698 4.785 54.695 13.946l5.213-8.534 5.212-8.534C366.246 6.464 344.405.974 319.77.974v10zm59.908 15.412l-5.183 8.553c14.964 9.066 26.659 22.35 35.021 40.292l9.064-4.225 9.064-4.224c-9.867-21.169-24.106-37.63-42.784-48.948l-5.182 8.552zm38.902 44.62l-9.064 4.225c8.34 17.891 12.692 40.094 12.612 66.964l10 .029 10 .03c.086-28.977-4.594-54.254-14.484-75.472l-9.064 4.224zm13.548 71.218h-10c0 27.043-4.391 49.581-12.769 67.936l9.097 4.152 9.097 4.153c9.851-21.584 14.575-47.104 14.575-76.241h-10zm-13.672 72.088l-9.097-4.152c-8.394 18.389-20.135 32.096-35.139 41.557l5.333 8.458 5.334 8.459c18.637-11.751 32.83-28.62 42.666-50.169l-9.097-4.153zm-38.903 45.863l-5.322-8.465c-14.89 9.361-32.902 14.25-54.461 14.25v20c24.677 0 46.52-5.634 65.106-17.319l-5.323-8.466zm-59.783-40.394v10c16.22 0 28.884-8.785 37.857-23.415l-8.525-5.228-8.524-5.229c-6.273 10.228-13.165 13.872-20.808 13.872v10zm29.332-18.643l8.515 5.244c9.196-14.932 13.004-36.875 12.92-64.189l-10 .031-10 .031c.081 26.214-3.734 43.547-9.949 53.639l8.514 5.244zm11.435-58.914h10c0-18.041-1.783-33.444-5.678-45.87l-9.542 2.99-9.542 2.991c3.065 9.78 4.762 22.964 4.762 39.889h10zm-5.22-42.88l9.542-2.99c-3.807-12.146-9.396-22.245-17.418-29.183l-6.542 7.564-6.541 7.564c4.241 3.668 8.263 9.975 11.417 20.036l9.542-2.99zm-14.418-24.609l6.6-7.513c-7.905-6.943-17.277-10.566-27.729-10.566v20c5.457 0 10.171 1.763 14.53 5.592l6.599-7.513zm-21.129-8.079v-10c-16.101 0-28.743 8.494-37.695 22.857l8.487 5.29 8.486 5.29c6.129-9.833 12.959-13.437 20.722-13.437v-10zm-29.208 18.146l-8.487-5.289c-9.037 14.5-12.903 35.937-13.072 62.648l10 .063 10 .064c.162-25.657 4.002-42.5 10.045-52.196l-8.486-5.29zm-11.559 57.422l-10-.046c-.086 18.38 1.653 34.128 5.523 46.937l9.573-2.892 9.572-2.892c-3.089-10.226-4.748-23.811-4.668-41.06l-10-.047zm5.096 43.999l-9.567 2.912c3.786 12.438 9.34 22.782 17.328 29.906l6.656-7.463 6.656-7.463c-4.275-3.813-8.332-10.373-11.507-20.804l-9.566 2.912zm14.417 25.355l-6.606 7.507c7.959 7.004 17.367 10.696 27.86 10.696v-20c-5.417 0-10.177-1.776-14.647-5.71l-6.607 7.507z" fill="#121212" mask="url(#b)"/><mask id="c" maskUnits="userSpaceOnUse" x="483" y="51.5" width="158" height="180" fill="#000"><path fill="#fff" d="M483 51.5h158v180H483z"/><path d="M493.063 196.5v-33.75L557.438 61.5h30.625v45h-17.501l-34.687 55v1.25h95v33.75H493.063zm77.812 25v-35.313l.938-14.687v-110h40.624v160h-41.562z"/></mask><path d="M493.063 196.5h-10v10h10v-10zm0-33.75l-8.439-5.365-1.561 2.455v2.91h10zM557.438 61.5v-10h-5.493l-2.946 4.635 8.439 5.365zm30.625 0h10v-10h-10v10zm0 45v10h10v-10h-10zm-17.501 0v-10h-5.515l-2.943 4.665 8.458 5.335zm-34.687 55l-8.458-5.335-1.542 2.445v2.89h10zm0 1.25h-10v10h10v-10zm95 0h10v-10h-10v10zm0 33.75v10h10v-10h-10zm-60 25h-10v10h10v-10zm0-35.313l-9.98-.637-.02.319v.318h10zm.938-14.687l9.979.637.021-.318v-.319h-10zm0-110v-10h-10v10h10zm40.624 0h10v-10h-10v10zm0 160v10h10v-10h-10zm-119.374-25h10v-33.75h-20v33.75h10zm0-33.75l8.438 5.365 64.375-101.25-8.438-5.365-8.439-5.365-64.375 101.25 8.439 5.365zM557.438 61.5v10h30.625v-20h-30.625v10zm30.625 0h-10v45h20v-45h-10zm0 45v-10h-17.501v20h17.501v-10zm-17.501 0l-8.458-5.335-34.687 55 8.458 5.335 8.458 5.335 34.688-55.001-8.459-5.334zm-34.687 55h-10v1.25h20v-1.25h-10zm0 1.25v10h95v-20h-95v10zm95 0h-10v33.75h20v-33.75h-10zm0 33.75v-10H493.063v20h137.812v-10zm-60 25h10v-35.313h-20V221.5h10zm0-35.313l9.98.638.937-14.688-9.979-.637-9.98-.637-.938 14.687 9.98.637zm.938-14.687h10v-110h-20v110h10zm0-110v10h40.624v-20h-40.624v10zm40.624 0h-10v160h20v-160h-10zm0 160v-10h-41.562v20h41.562v-10z" fill="#121212" mask="url(#c)"/></svg>