<svg width="74" height="69" fill="none" xmlns="http://www.w3.org/2000/svg"><path fill-rule="evenodd" clip-rule="evenodd" d="M30.07.667c16.569 0 30 13.431 30 30 0 16.569-13.431 30-30 30-16.568 0-30-13.431-30-30 0-16.569 13.432-30 30-30z" fill="#EFEFEF"/><path d="M71.65 45c0-.176.005-1.218 0-1.292-.081-1.145-1.056-2.057-2.284-2.132-.079-.005-.172-.005-.363-.005h-5.914c-4.056 0-7.343 3.07-7.343 6.857 0 3.788 3.289 6.858 7.341 6.858h5.916c.19 0 .284 0 .364-.005 1.227-.075 2.204-.987 2.284-2.133.004-.073.004-1.115.004-1.291" stroke="#121212" stroke-width="2" stroke-linecap="round"/><path d="M62.565 45.143a3.28 3.28 0 013.274 3.286 3.28 3.28 0 01-3.274 3.285 3.28 3.28 0 01-3.272-3.285 3.28 3.28 0 013.272-3.286z" fill="red" stroke="#121212" stroke-width="2"/><path d="M44.385 66.715h6.818c8.57 0 12.857 0 15.518-2.68 1.839-1.846 2.41-4.47 2.584-8.749m0-13.714c-.177-4.28-.745-6.903-2.584-8.75-2.661-2.679-6.947-2.679-15.518-2.679h-6.818c-8.57 0-12.857 0-15.518 2.679-2.662 2.679-2.664 6.987-2.664 15.607s0 12.93 2.664 15.607c1.484 1.495 3.473 2.155 6.427 2.445m0-36.338l8.489-5.662a7.333 7.333 0 018.022 0l8.489 5.662" stroke="#121212" stroke-width="2" stroke-linecap="round"/><rect x="33" y="37" width="15" height="4" rx="2" fill="red" stroke="#121212" stroke-width="2"/></svg>