<svg width="70" height="70" fill="none" xmlns="http://www.w3.org/2000/svg"><path fill-rule="evenodd" clip-rule="evenodd" d="M30.125.667c16.569 0 30 13.431 30 30 0 16.569-13.431 30-30 30-16.569 0-30-13.431-30-30 0-16.569 13.431-30 30-30z" fill="#EFEFEF"/><g clip-path="url(#clip0_471_9558)"><path d="M49.875 43.112H30.844V26.663a.96.96 0 01.197-.584.934.934 0 01.51-.337l18.324-4.575v21.945zm-.078 25.398V43.112h18.425c0 18.383-16.157 24.615-18.425 25.4" fill="red"/><path d="M30.844 42.516h37.379M49.533 68.51v-47.3m-18.69 21.903c0 18.199 16.162 24.59 18.426 25.398a.76.76 0 00.528 0c2.269-.781 18.426-7.012 18.426-25.395V26.663a.955.955 0 00-.198-.584.933.933 0 00-.51-.336L49.76 21.237a.922.922 0 00-.453 0l-17.755 4.506a.934.934 0 00-.511.336.955.955 0 00-.197.584v16.45z" stroke="#121212" stroke-width="2" stroke-miterlimit="10" stroke-linecap="round"/></g><defs><clipPath id="clip0_471_9558"><path fill="#fff" transform="translate(28.875 19.667)" d="M0 0h41v50H0z"/></clipPath></defs></svg>