<svg width="78" height="69" fill="none" xmlns="http://www.w3.org/2000/svg"><path fill-rule="evenodd" clip-rule="evenodd" d="M30 .667c16.569 0 30 13.431 30 30 0 16.569-13.431 30-30 30-16.569 0-30-13.431-30-30 0-16.569 13.431-30 30-30z" fill="#EFEFEF"/><path d="M53 52.485v6.819" stroke="#121212" stroke-width="2" stroke-linecap="round"/><path d="M60.956 66.122h-15.91l.774-3.854a2.273 2.273 0 012.227-1.828h9.909a2.273 2.273 0 012.227 1.828l.773 3.854z" stroke="#121212" stroke-width="2" stroke-linecap="round" stroke-linejoin="round"/><path d="M68.91 27.486l2.157.718c2.25.75 3.375 1.125 4.018 2.019.643.893.643 2.081.643 4.45v.166c0 1.954 0 2.934-.47 3.734-.47.8-1.328 1.275-3.037 2.227l-6.72 3.732M37.09 27.486l-2.156.718c-2.25.75-3.375 1.125-4.018 2.019-.644.893-.644 2.081-.644 4.45v.166c0 1.954 0 2.934.47 3.734.471.8 1.328 1.275 3.037 2.227l6.72 3.732" stroke="#121212" stroke-width="2"/><path d="M66.635 66.122H39.362m25-44.418c1.684.32 2.684.675 3.545 1.738 1.085 1.332 1.028 2.771.912 5.648C68.409 39.438 66.09 52.486 53 52.486c-13.091 0-15.412-13.046-15.825-23.396-.114-2.877-.17-4.318.909-5.648 1.081-1.331 2.375-1.55 4.963-1.986a60 60 0 019.95-.788c1.634.003 3.149.054 4.546.154" stroke="#121212" stroke-width="2" stroke-linecap="round"/><g clip-path="url(#clip0_471_9567)"><path d="M57.67 42.633a.74.74 0 01-.345-.084L53.5 40.514l-3.825 2.035a.74.74 0 01-.792-.06.76.76 0 01-.295-.748l.75-4.29-3.09-3.047a.766.766 0 01-.188-.762.761.761 0 01.608-.518l4.275-.632 1.882-3.909a.758.758 0 01.277-.313.741.741 0 011.073.313l1.905 3.901 4.275.633c.139.02.27.079.377.17a.764.764 0 01.23.348.774.774 0 01-.187.762l-3.09 3.047.75 4.29a.775.775 0 01-.3.761.741.741 0 01-.465.138z" fill="red" stroke="#121212" stroke-width="2"/></g><defs><clipPath id="clip0_471_9567"><path fill="#fff" transform="translate(45 26.667)" d="M0 0h17v17H0z"/></clipPath></defs></svg>