<svg width="74" height="69" fill="none" xmlns="http://www.w3.org/2000/svg"><path fill-rule="evenodd" clip-rule="evenodd" d="M30.25 0c16.569 0 30 13.432 30 30 0 16.569-13.431 30-30 30-16.569 0-30-13.431-30-30 0-16.568 13.431-30 30-30z" fill="#EFEFEF"/><path fill-rule="evenodd" clip-rule="evenodd" d="M57 40.5a8 8 0 110 16 8 8 0 010-16z" fill="red"/><g clip-path="url(#clip0_1188_16737)" stroke="#121212" stroke-width="2" stroke-linecap="round" stroke-linejoin="round"><path d="M48.602 48.816c0 2.093.837 4.101 2.328 5.582a7.978 7.978 0 005.622 2.312c2.108 0 4.13-.831 5.621-2.312a7.867 7.867 0 002.329-5.582 7.867 7.867 0 00-2.329-5.583 7.979 7.979 0 00-5.621-2.312 7.98 7.98 0 00-5.622 2.312 7.867 7.867 0 00-2.328 5.583z"/><path d="M51.25 55.395v11.842l5.3-3.948 5.3 3.948V55.395"/><path d="M43.3 59.342H30.05a5.32 5.32 0 01-3.748-1.541 5.245 5.245 0 01-1.552-3.722V27.763c0-2.895 2.385-5.263 5.3-5.263h37.1a5.32 5.32 0 013.748 1.541 5.245 5.245 0 011.552 3.722V54.08a5.236 5.236 0 01-.711 2.629 5.282 5.282 0 01-1.939 1.924M32.7 33.026h31.8m-31.8 7.895h7.95m-7.95 7.895H38"/></g><defs><clipPath id="clip0_1188_16737"><path fill="#fff" transform="translate(23.75 21.5)" d="M0 0h50v47H0z"/></clipPath></defs></svg>