<svg width="74" height="69" fill="none" xmlns="http://www.w3.org/2000/svg"><path fill-rule="evenodd" clip-rule="evenodd" d="M30 0c16.569 0 30 13.432 30 30 0 16.569-13.431 30-30 30C13.431 60 0 46.57 0 30 0 13.432 13.431 0 30 0z" fill="#EFEFEF"/><path d="M34 53a15 15 0 1030.002 0A15 15 0 0034 53z" stroke="#121212" stroke-width="2" stroke-linecap="round" stroke-linejoin="round"/><path d="M49 44.667V53l5 5" stroke="#121212" stroke-width="2" stroke-linecap="round" stroke-linejoin="round"/><path d="M51.138 38c10.784-2.7 4.745-13.5-2.588-18-.863 3.15-2.158 4.05-4.746 7.2-3.427 4.17-1.725 9 3.02 10.8-.72-.9-2.574-2.79-1.295-5.4.442-.9 1.324-1.8.883-3.6.863.45 2.647.9 3.088 3.15.72-.9 1.465-2.79.775-4.95 5.401 4.05 3.196 8.1.863 10.8z" fill="red" stroke="#121212" stroke-width="2" stroke-linecap="round" stroke-linejoin="round"/></svg>