<svg width="78" height="69" fill="none" xmlns="http://www.w3.org/2000/svg"><path fill-rule="evenodd" clip-rule="evenodd" d="M30 0c16.569 0 30 13.432 30 30 0 16.569-13.431 30-30 30C13.431 60 0 46.57 0 30 0 13.432 13.431 0 30 0z" fill="#EFEFEF"/><path d="M57.546 65.467h-9.09c-8.571 0-12.858 0-15.519-2.664-2.661-2.664-2.664-6.948-2.664-15.518v-4.546c0-8.57 0-12.856 2.664-15.518 2.664-2.661 6.948-2.663 15.518-2.663h9.091c8.57 0 12.857 0 15.518 2.663 2.662 2.664 2.664 6.948 2.664 15.518v4.546c0 8.57 0 12.857-2.664 15.518-1.484 1.486-3.472 2.143-6.427 2.432m-25-40.677v-3.41m22.727 3.41v-3.41m10.228 14.773H50.16m-19.887 0h8.807" stroke="#121212" stroke-width="2" stroke-linecap="round"/><path d="M66.636 54.103a2.273 2.273 0 11-4.545 0 2.273 2.273 0 014.545 0zm0-9.091a2.272 2.272 0 11-4.545 0 2.272 2.272 0 014.545 0zm-11.364 9.09a2.273 2.273 0 11-4.546 0 2.273 2.273 0 014.546 0zm0-9.09a2.273 2.273 0 11-4.545 0 2.273 2.273 0 014.545 0zm-11.363 9.09a2.273 2.273 0 11-4.546.001 2.273 2.273 0 014.546 0zm0-9.09a2.273 2.273 0 11-4.546 0 2.273 2.273 0 014.546 0z" fill="#121212"/><circle cx="64.602" cy="44.875" r="5" fill="red" stroke="#121212" stroke-width="2"/></svg>