<svg width="74" height="69" fill="none" xmlns="http://www.w3.org/2000/svg"><path fill-rule="evenodd" clip-rule="evenodd" d="M30 0c16.569 0 30 13.432 30 30 0 16.569-13.431 30-30 30C13.431 60 0 46.57 0 30 0 13.432 13.431 0 30 0z" fill="#EFEFEF"/><g clip-path="url(#clip0_1188_16792)" stroke="#121212" stroke-width="2"><path d="M70.278 27.239a14.78 14.78 0 012.208 7.796c0 8.23-6.7 14.9-14.962 14.9-1.505 0-4.938-.345-6.607-1.733l-2.088 2.08c-1.74 1.732-.348 1.732.348 3.117 0 0 1.74 2.427 0 4.853-1.044 1.385-3.968 3.324-7.306 0l-.696.691s2.085 2.427.348 4.854c-1.044 1.385-3.828 2.77-6.265.345l-2.433 2.425c-1.672 1.664-3.712.693-4.522 0l-2.09-2.079c-1.949-1.941-.812-4.044 0-4.853l18.091-18.016s-1.74-2.77-1.74-6.582c0-8.229 6.7-14.9 14.962-14.9 1.94 0 3.79.367 5.49 1.034" stroke-linecap="round" stroke-linejoin="round"/><path d="M62.743 35.038a5.209 5.209 0 01-5.218 5.196 5.208 5.208 0 01-5.22-5.196 5.208 5.208 0 015.22-5.2 5.207 5.207 0 015.218 5.2z" fill="red"/></g><defs><clipPath id="clip0_1188_16792"><path fill="#fff" transform="translate(24 19)" d="M0 0h50v50H0z"/></clipPath></defs></svg>