<svg width="56" height="45" fill="none" xmlns="http://www.w3.org/2000/svg"><g clip-path="url(#clip0_1188_16534)"><mask id="a" style="mask-type:luminance" maskUnits="userSpaceOnUse" x="0" y="0" width="56" height="45"><path d="M9.575 2.283c7.746-.41 13.77-.614 18.075-.614s10.332.205 18.083.615c2.028.108 3.95.992 5.41 2.49 1.46 1.498 2.358 3.507 2.527 5.654.355 4.497.533 8.46.533 11.887 0 3.468-.182 7.485-.545 12.052-.169 2.122-1.05 4.11-2.482 5.602-1.433 1.492-3.323 2.389-5.326 2.528-6.625.46-12.692.69-18.2.69-5.506 0-11.57-.23-18.192-.69-2.003-.14-3.892-1.036-5.325-2.526C2.7 38.48 1.82 36.492 1.65 34.37c-.368-4.601-.552-8.62-.552-12.056 0-3.396.179-7.36.538-11.892.17-2.146 1.068-4.155 2.528-5.652 1.46-1.497 3.382-2.38 5.41-2.488h0z" fill="#fff" stroke="#fff" stroke-width="2" stroke-linejoin="round"/><path d="M23.46 15.918v13.043c0 .23.06.455.17.652.111.197.27.359.462.467a1.141 1.141 0 001.228-.06l9.219-6.464c.165-.115.3-.272.394-.456a1.331 1.331 0 00.005-1.2 1.248 1.248 0 00-.39-.46l-9.221-6.578a1.142 1.142 0 00-1.231-.067c-.192.109-.352.27-.464.468a1.33 1.33 0 00-.171.654v.001z" fill="#000" stroke="#000" stroke-width="1.714" stroke-linejoin="round"/></mask><g mask="url(#a)"><path d="M-5.887-13.158h67.08v71.172h-67.08v-71.172z" fill="red"/></g><path d="M36.5 19.914c2 1.154 2 4.041 0 5.196L26 31.172c-2 1.155-4.5-.289-4.5-2.598V16.449c0-2.309 2.5-3.752 4.5-2.598l10.5 6.063z" fill="#fff"/></g><defs><clipPath id="clip0_1188_16534"><path fill="#fff" transform="translate(0 .512)" d="M0 0h56v43.977H0z"/></clipPath></defs></svg>