<svg width="230" height="170" fill="none" xmlns="http://www.w3.org/2000/svg"><g clip-path="url(#clip0_512_14159)"><path d="M31.617 23.026c-51.215 49.602-21.221 144.271-21.221 144.271l202.224.411s37.682-67.341-1.25-122.06C175.419-4.877 70.883-15.001 31.618 23.027z" fill="#D1E5FF"/><path d="M13.903 166.08H76.18V23.027H13.903V166.08z" fill="#9BC1F9"/><path d="M51.748 166.122h4.072V14.578h-4.072v151.544z" fill="#466EB6"/><path d="M51.752 14.58l.028 151.481H14.086V22.935l37.666-8.355z" fill="#86B1F2"/><path d="M18.402 35.48l.186 40.005a3.8 3.8 0 014.267 3.75l20.918-2.57a3.798 3.798 0 013.337-3.786l-.188-41.872a3.838 3.838 0 01-.798.084c-2.038 0-3.784-1.648-3.794-3.78l-20.916 4.438a3.797 3.797 0 01-3.012 3.73zm1.467 1.033a5.3 5.3 0 002.868-3.553l18.433-3.91a5.28 5.28 0 004.297 3.46l.176 39.247a5.27 5.27 0 00-3.17 3.596l-18.418 2.263a5.284 5.284 0 00-4.011-3.528l-.175-37.575zm-1.404 71.867l.084 47.679h.007a3.799 3.799 0 013.802 3.789l5.466-.009a3.8 3.8 0 013.795-3.797v-48.147a3.8 3.8 0 01-4.128-3.782l-5.55.478a3.8 3.8 0 01-3.476 3.789zm1.464 1.157a5.325 5.325 0 003.295-3.591l3.044-.262a5.278 5.278 0 003.889 3.563v45.544a5.286 5.286 0 00-3.589 3.59l-2.957.005a5.284 5.284 0 00-3.602-3.583l-.08-45.266zm14.13-2.506v48.994h.006c2.1 0 3.802 1.699 3.802 3.796l4.465-.008a3.8 3.8 0 013.795-3.767l.378-49.403a3.799 3.799 0 01-4.128-3.811l-4.843.417c0 1.97-1.51 3.613-3.475 3.782zm1.462 1.166a5.213 5.213 0 003.302-3.594l2.32-.199a5.227 5.227 0 001.298 2.159 5.237 5.237 0 002.591 1.431l-.358 46.799a5.3 5.3 0 00-3.589 3.562l-1.963.004a5.282 5.282 0 00-3.601-3.59v-46.572z" fill="#9BC1F9"/><path d="M43.141 93.374c.848 0 1.536-1.332 1.536-2.974 0-1.643-.688-2.974-1.536-2.974-.848 0-1.535 1.331-1.535 2.974 0 1.642.687 2.974 1.535 2.974z" fill="#F7CC7F"/><path d="M40.168 89.353v2.345h3.218c.095-.387.148-.82.148-1.277 0-.376-.036-.736-.103-1.068h-3.263z" fill="#F47458"/><path d="M37.953 90.4c0 2.475 1.036 4.481 2.315 4.481 1.278 0 2.314-2.006 2.314-4.481 0-2.476-1.036-4.483-2.314-4.483-1.279 0-2.315 2.007-2.315 4.483z" fill="#FAE0B2"/><path d="M39.647 94.881c1.278 0 2.314-2.006 2.314-4.481 0-2.476-1.036-4.483-2.314-4.483-1.279 0-2.315 2.007-2.315 4.483 0 2.475 1.036 4.481 2.315 4.481z" fill="#FAE0B2"/><path d="M1.03 169.03h224.31c.569 0 1.031-.673 1.031-1.504s-.462-1.505-1.031-1.505H1.03c-.569 0-1.03.674-1.03 1.505 0 .831.461 1.504 1.03 1.504z" fill="#FE978E"/><path d="M198.976 158.983s.016.144.016.385c0 .722-.141 2.312-1.27 3.486-1.507 1.565-1.516 3.512.076 3.845 1.591.332 5.387-.107 5.387-.107s.858-1.489.272-5.466c-.586-3.976-.926-8.338-.926-8.338l-4.325-.674.77 6.869z" fill="#FF7446"/><path d="M198.127 160.674s-1.605 2.174-1.98 3.081c-.376.907-.295 3.162 0 3.395 2.594 2.045 7.513.204 7.513.204s.338-1.499.508-3.34c.171-1.84.075-3.556-.508-3.556-.584 0-.686.966-2.018.693-1.331-.273-2.15-.75-3.515-.477z" fill="#001653"/><path d="M204.068 164.931c-1 .39-2.358.846-3.62 1.026-1.348.192-3.162-.407-4.531-1.009-.071.964.031 2.045.23 2.202 2.594 2.045 7.513.204 7.513.204s.231-1.026.408-2.423z" fill="#FAFAFA"/><path d="M204.069 164.931c-3.722 1.116-4.407 1.314-8.151.017.623.335 1.278.612 1.957.826 1.439.446 2.289.407 3.186.206a13.848 13.848 0 003.008-1.049z" fill="#957447"/><path d="M155.706 91.334c1.065.4 2.476.993 2.476.993.183-.439-3.332-1.189-3.824-2.257-.264-.572 4.032 1.533 4.331 1.282.123-.104-4.861-1.724-4.63-2.115.193-.328 5.24 1.448 5.268 1.202.038-.342-4.37-1.225-3.976-1.716.203-.252 5.553 1.193 6.13 1.277.707 0-1.849-1.734-.979-1.966 1.183-.314 4.152 3.084 4.384 3.132.672.14 6.395.84 9.198-.99 2.263-1.479 4.459-3.752 4.997-5.709.527-1.919 1.257-4.66.633-6.773 2.549-.388 5.022-.477 7.609-.168.157 3.175-3.65 15.755-5.242 16.79-3.502 2.278-9.75 1.72-14.155 1.358-3.55-.291-7.027-.99-10.224-2.61-.715-.362-1.672-.768-2.226-1.398-.143-.163.027-.409.23-.332z" fill="#F25C12"/><path d="M181.304 67.037c-1.897 1.956-3.813 13.68-3.108 16.474 1.218 2.27 6.731 2.66 8.514 3.737 4.112-1.688 1.295-9.26 1.295-9.26l1.499-14.75s-4.586.072-8.2 3.799z" fill="#E6A500"/><path d="M186.491 156.361c.562 1.763.007 3.703-1.432 4.867a7.588 7.588 0 01-1.727 1.064c-2.519 1.099-5.782.852-6.237 3.111-.455 2.259 15.975-.634 15.975-.634s-1.14-5.494-1.213-6.414c-.074-.92.1-4.3.1-4.3l-6.345-.454.879 2.76z" fill="#FF7446"/><path d="M192.402 160.881s.201.872.661 2.351c.46 1.48.173 2.873.173 2.873s-15.389.727-16.012.241c-.623-.487-.303-2.259-.145-2.415.157-.157 2.11-.684 3.112-1.301 1.002-.617 4.422-2.951 5.578-2.857 1.156.094 1.689.946 3.884 1.044 2.195.098 2.204-.362 2.749.064z" fill="#001653"/><path d="M177.224 166.346c.623.486 16.013-.241 16.013-.241s.188-.914.015-2.048c-8.033 1.486-16.173-.126-16.173-.126-.158.157-.478 1.928.145 2.415z" fill="#FAFAFA"/><path d="M193.255 164.057c-5.486 1.094-11.568.863-16.173-.126 8.377 1.263 15.131.284 14.664.331l1.509-.205z" fill="#957447"/><path d="M205.138 103.119c2.64 9.641-.638 52.883-.638 52.883l-7.905-.54s-1.798-43.018-3.102-44.32c-.382-.381-.792-.261-1.107-.044a1.71 1.71 0 00-.654.916c-.814 2.654-5.463 18.105-4.526 21.489 1.027 3.705 5.607 23.552 5.607 23.552l-6.633.265s-9.094-15.163-9.094-25.748 1.479-24.617 5.776-30.326c1.956-2.599 11.586-4.609 11.586-4.609s9.865 3.471 10.69 6.482z" fill="#021F6E"/><path d="M190.852 157.038s-4.58-21.163-5.607-25.113c-.745-2.869 2.042-13.873 3.624-19.684.475-1.745 2.574-2.447 4.007-1.342 0 0-6.696 18.899-5.67 22.604 1.027 3.705 5.607 23.552 5.607 23.552l-6.633.265-.048-.082 4.72-.2zm12.646-55.919c.847.661 1.46 1.342 1.64 2 2.641 9.64-.637 52.883-.637 52.883l-1.958-.133c.11-1.564 2.948-42.267.955-54.75z" fill="#021753"/><path d="M181.344 103.831c.461-.982.967-1.852 1.518-2.585.227-.302.558-.596.965-.879 1.099.56 2.618 1.171 4.719 1.817 6.337 1.945 13.17.908 16.008-.079.289.34.492.68.583 1.015.23.836.414 1.925.56 3.216-1.417 1.053-9.655 3.596-17.151 1.214-4.756-1.512-6.529-2.427-7.202-3.719z" fill="#021753"/><path d="M204.499 159.276c-2.026.657-6.901.494-8.065 0-1.073-.455-1.146-4.442 0-4.658 1.61-.304 6.174-.27 8.065 0 1.154.165 1.109 4.299 0 4.658zm-12.02-1.781c-2.025.657-6.9.494-8.064 0-1.074-.455-1.146-4.442 0-4.658 1.61-.304 6.174-.27 8.064 0 1.155.165 1.109 4.299 0 4.658z" fill="#5D70A2"/><path d="M195.497 62.908s6.592-.338 9.286 2.85c2.694 3.187 2.474 36.676 1.383 37.611-1.09.934-10.459 3.757-17.9 1.559-7.441-2.199-7.914-5.217-7.914-5.217s1.98-22.522 1.98-28.677c0-6.156 6.019-9.782 13.165-8.126z" fill="#FCC332"/><path d="M201.313 96.83c.583-1.617-.041-6.76-.704-10.481-.519.099-1.018.216-1.489.352-.797-2.461-1.499-8.849-1.522-12.865-.044-7.533 3.775-9.724 3.775-9.724.757-.172 1.968.539 3.862 2.508 2.188 5.971 1.73 33.763.704 34.642-.437.374-1.292 2.723-3.496 3.19-.573-2.247-1.669-6.127-1.13-7.622zm-5.247-33.853c1.43 1.312 1.541 1.337.055 3.058-1.485 1.721-6.402 3.678-7.103 3.348-1.741-.82-.121-3.56 1.038-5.53.361-.615 4.581-2.188 6.01-.876z" fill="#E6A500"/><path d="M189.675 58.017s-.385 9.064 0 9.46c.385.398 5.902-1.52 6.383-2.645.481-1.125-2.011-17.51-2.011-17.51l-4.372 10.695z" fill="#F25C12"/><path opacity=".6" d="M189.512 63.994c.975-.175 1.814-.423 2.061-.701 2.25-2.538.564-6.657.741-7.728.352-2.131 1.069-3.892.709-5.73l-3.345 8.182s-.139 3.278-.166 5.977z" fill="#B5450E"/><path d="M160.097 68.314c-.375.944.405 1.859 1.221 1.453a.878.878 0 00.418-.466c.377-.944-.404-1.86-1.221-1.454a.882.882 0 00-.418.467z" fill="#00424C"/><path d="M160.602 68.768l.279.39.169-.467c.221-.61 2.095-5.998.026-7.224-.611-.364-1.187-.246-1.58.318-.905 1.298-.624 4.56 1.106 6.983zm-.694-6.6c.191-.274.427-.36.718-.257.067.023.136.056.209.1 1.257.744.464 4.179-.104 5.947-1.382-2.239-1.439-4.906-.823-5.79z" fill="#00424C"/><path d="M160.863 68.468l.432.094c.393.084.784.124 1.166.124 1.921 0 3.598-.991 4.003-2.135.216-.608.044-1.186-.472-1.587-1.722-1.337-4.54 2.648-4.856 3.107l-.273.397zm.987-.43c.805-1.069 2.298-2.736 3.342-2.736.184 0 .355.052.505.17.305.236.396.514.278.847-.322.907-2.082 1.964-4.125 1.719z" fill="#00424C"/><path d="M147.117 92.3h25.932a2.568 2.568 0 002.571-2.566V71.456a2.569 2.569 0 00-2.571-2.567h-25.932a2.569 2.569 0 00-2.57 2.567v18.278a2.568 2.568 0 002.57 2.567z" fill="#FCC332"/><path d="M146.58 68.89h9.712V92.3h-9.712c-1.123 0-2.033-1.452-2.033-3.244V72.134c0-1.792.91-3.245 2.033-3.245z" fill="#F29913"/><path d="M165.027 68.89h.767c4.144 7.47 1.605 20.558.98 23.41h-.598c.429-1.921 3.39-16.156-1.113-23.342a.434.434 0 01-.036-.069zm-14.332 23.323c.004.03.006.059.006.088h-.568c-1.673-13.338.173-20.395 1.419-23.412h.702c-1.133 2.522-3.308 9.474-1.559 23.324z" fill="#00424C"/><path d="M196.812 117.612h19.357a.663.663 0 00.664-.663v-12.547a.663.663 0 00-.664-.663h-19.357a.663.663 0 00-.664.663v12.547c0 .366.297.663.664.663z" fill="#50BFA5"/><path d="M196.937 116.014h17.52v-10.677h-17.52v10.677z" fill="#FAFAFA"/><path d="M196.081 113.728h1.099a.373.373 0 00.374-.374v-5.357a.373.373 0 00-.374-.374h-1.099a.374.374 0 00-.374.374v5.357c0 .207.168.374.374.374z" fill="#F29913"/><path d="M202.902 96.83c-1.304 3.962 3.288 12.532 1.423 15.275-1.865 2.742-.927 5.622 1.333 7.05 2.26 1.427 5.069-.573 4.843-1.66l-1.115-5.351c-.279-1.338 4.978-12.056 1.277-18.555-2.195-3.857 1.051-10.495-.664-14.784-1.535 2.856-8.801 1.072-8.384 4.206.663 2.678 2.02 11.592 1.287 13.82z" fill="#F25C12"/><path d="M186.438 48.62s-.946 3.253-.946 5.92c0 2.668.063 7.287 1.956 7.287 1.892 0 4.605-.52 5.235-4.294.631-3.773 0-7.937-1.892-8.913-1.893-.976-4.353 0-4.353 0z" fill="#FF7446"/><path d="M187.178 51.023c.509-.21 1.036.244.938.8-.156.892-.117 1.87.718 2.073 1.608.392 2.369 0 2.632.271.263.272-.76 1.72 0 1.99.76.272 1.169-2.321 1.842-2.321.672 0 .819 3.739 0 4.583-.819.845.117 1.99 1.199 1.99s-.137 1.358 1.32 1.81c1.458.452 2.627.452 3.095-1.387.468-1.84 0-2.865 0-2.865s1.49-1.74 1.111-3.458c-.21-.956-1.178-2.674-1.178-2.674s-.751-2.04-.956-3.217c-.205-1.176-3.105-2.352-5.09-2.563-1.986-.211-.992-1.417-2.659-1.417-1.667 0-1.895 2.197-1.895 2.197s-2.38-1.42-2.491-1.353c-1.385.843-.234 2.322-.234 2.322s-1.14.12-1.374 1.599c-.234 1.477.731 2.382 2.251 1.9.288-.092.545-.187.771-.28z" fill="#100062"/><path d="M185.531 45.649c.294.042.68.135 1.142.272.713.396 1.581.915 1.581.915s3.107.868 4.887 1.715c2.282 1.086 4.281 2.175 5.624 3.033.055.158.09.251.09.251s.356.632.683 1.343c-1.413-.309-4.173-1.371-7.251-2.836-3.477-1.654-6.952-4.527-6.756-4.693z" fill="#0C004A"/><path d="M192.253 53.633s.804-1.479 1.52-.654c.716.825.34 4.313-.76 4.313s-1.15-2.724-.76-3.66z" fill="#FF7446"/><path d="M201.171 64.183s-2.242 1.704-2.202 9.237c.022 4.016 1.202 10.82 1.93 13.282 3.019-.953 7.277-1.015 10.361 0 .415-3.287-.424-10.3-.947-12.566-1.287-5.573-5.938-11.228-9.142-9.953z" fill="#FCC332"/><path d="M187.603 46.042c1.491-3.124 5.26-4.438 8.418-2.935 3.157 1.502 4.509 5.253 3.018 8.376a6.89 6.89 0 01-.184.352l-11.41-5.43a6.57 6.57 0 01.158-.363z" fill="#FCB500"/><path d="M189.975 47.467c.049-.122.101-.244.158-.364 1.246-2.609 4.08-3.956 6.821-3.453a6.492 6.492 0 00-.933-.543c-3.158-1.503-6.926-.189-8.417 2.935-.058.12-.11.241-.159.363l11.41 5.43c.021-.037-8.88-4.368-8.88-4.368z" fill="#FCC332"/><path d="M182.348 44.135c.121-.254 6.062 2.165 9.86 3.973 3.798 1.807 6.779 3.479 6.657 3.733-.121.254-6.421-1.223-10.219-3.03-3.798-1.808-6.42-4.421-6.298-4.676z" fill="#FC9700"/><path d="M70.025 156.195s-1.342 1.326-1.373 1.813c-.03.486-.119 5.699.43 6.185.547.487 2.157.832 1.64 1.379-.391.414-3.4.326-5.395.215-.583-.033-1.313-4.734-1.543-5.425-.335-1.004-1.393-3.529-1.089-4.228.148-.341 1.102-.777 2.102-1.431 1.052-.687 2.058-2.219 2.058-2.219l3.17 3.711zm17.959 3.257s-1.202 3.435-1.203 3.444c-.09.544-.441 1.889-.441 2.383 0 1.859 8.282-1.577 6.426-2.401-.169-.075-.696-.67-.75-1.303-.086-.974.697-2.197.697-2.197l-4.73.074z" fill="#F7A491"/><path d="M87.297 98.207l-4.288 4.995-4.204 26.128-13.23 24.376s1.989 3.049 4.125 3.529l18.78-24.636 10.177-30.84-.357-6.853-11.003 3.301z" fill="#184655"/><path d="M98.028 93.387l2.963 9.125s2.609 27.184 2.238 29.057c-.906 4.568-10.053 29.444-10.053 29.444l-5.86-.745 6.432-29.412-10.717-27.63 14.997-9.84z" fill="#355389"/><path d="M126.479 62.323c-1.385 1.526-1.084 1.71-1.267 1.9-.216.226-4.237 1.081-4.237 1.081s-11.835 2.603-12.479 2.72l-12.277-2.788-2.988 5.94s13.429 2.663 14.153 2.675c.724.011 16.306-5.454 17.694-5.888 0 0 1.845.12 3.006.155 1.161.035 2.271-.469 2.599-.511.048-.007 1.13-.214 2.394-.84 1.089-.54-.187-.55-.187-.55s-2.194.62-2.213.431c-.015-.146 1.204-.41 2.414-.995.312-.15.619-.3.899-.439.737-.366.727-.944-.104-.69-.294.09-.778.252-1.107.418-.355.18-.738.225-1.059.328-.638.205-1.1.363-1.095.331.008-.042-.147-.095.179-.265.391-.204 1.317-.446 1.87-.793.314-.197.993-.567.993-.567s1.134-.74 1.024-.893c-.241-.334-1.034.004-1.426.33-.353.073-1.057.483-1.057.483s-1.607.495-1.68.258c-.029-.094.799-.574 1.627-1.147.875-.605 1.477-1.085 1.393-1.28-.133-.31-.871.12-.871.12s-.65.38-.875.49c-.264.127-1.085.446-1.085.446s-2.905.972-2.956.741c-.052-.23.043-.871.202-.997.16-.126.569-.194.728-.32.16-.125.476-.428.341-.645-.135-.218-1.345.073-1.345.073s-.807.247-1.208.688z" fill="#F8A492"/><path d="M100.428 65.866s-.423 2.604-.695 3.567c-.225.8-1.814 4.093-1.814 4.093s-5.692-1.864-8.382-2.93c-3.264-1.293-7.036-4.078-6.791-4.43.687-.99 1.797-2.144 3.362-2.535 5.419-1.352 14.32 2.235 14.32 2.235z" fill="#3C8F7C"/><path d="M101.086 102.32c-5.431 2.141-18.196.905-18.196.905s.809-5.565 1.094-9.324c.286-3.756-2.11-9.703-3.12-20.023-.215-2.189.642-8.1 3.715-9.955 1.08-.65 1.74-.736 1.74-.736.03 0 4.229-.856 6.372-.197.609.542 2.507 2.106 3.599 3.936 1.434 2.423 2.612 5.217 2.89 6.136 1.237 4.092 1.763 15.942 1.763 18.177 0 2.234.143 11.081.143 11.081z" fill="#50BFA5"/><path d="M96.29 66.926c-.004.003-.01.003-.015.005-2.087.648-9.959-3.721-9.959-3.721l.003-.023.955-6.233s4.913-1.156 4.628.616c-.286 1.77.665 5.308.665 5.308.032.032.072.07.123.112.61.542 2.507 2.106 3.6 3.936z" fill="#F7A491"/><path d="M91.903 57.57c.286-1.77-4.628-.615-4.628-.615l-.08.519c.144.347.32.644.533.871 1.098 1.172 2.814 1.876 4.297 1.929-.148-.955-.24-1.978-.122-2.704z" fill="#FE875E"/><path d="M86.326 47.371c-.15-.054-1.206 7.715.797 9.853s5.905 2.838 7.305 1.154c1.549-1.862 1.471-10.213-1.643-12.412-3.114-2.2-6.46 1.405-6.46 1.405z" fill="#F7A491"/><path d="M91.6 41.81c-2.408.486-3.967 1.945-4.54 2.567-1.093.128-2.578.727-4.112 3.246-1.887 3.098-.494 6.53 1.702 8.214 2.196 1.683 2.17 3.638 2.17 3.638s3.721-1.906 3.36-4.843c-.152-1.233-.687-1.512-.286-2.477.417-1.002.105-2.56.183-3.912l.223-.853s1.558-1.203 3.083-.864c1.524.34 1.305-5.34-1.784-4.716z" fill="#13375B"/><path d="M90.504 52.965c.016.948-.177 1.707-.729 1.716-.552.01-.707-.362-1.164-1.7-.428-1.254.092-1.724.643-1.733.552-.01 1.234.769 1.25 1.717z" fill="#F7A491"/><path d="M64.862 154.67s2.804 8.601 4.015 9.027c.322.113 2.155.616 2.446 1.306a.364.364 0 01.019.062c.093.437-.275.841-.723.841h-5.745s-.816-3.885-1.138-5.591c0 0-1.708-4.171-1.518-4.55.19-.379 2.644-1.095 2.644-1.095zm21.009 11.222l.949-3.032s1.991.853 2.987.711c.996-.142 2.94-.711 2.94-.711 3.975 1.324 7.232 1.967 6.64 3.032H85.87z" fill="#3C8F7C"/><path d="M126.819 75.454c-1.829 1.108-1.721 1.24-1.959 1.376-.282.16-4.629-.03-4.629-.03s-12.815-.477-13.506-.527L94.907 70.55l-4.657 4.912s13.031 5.894 13.769 6.086c.739.192 18.16-1.12 19.697-1.188 0 0 1.857.575 3.036.9 1.178.323 2.451.12 2.797.162.051.006 1.215.079 2.677-.202 1.26-.242-.043-.57-.043-.57s-2.413.041-2.381-.144c.024-.142 1.342-.09 2.739-.343.359-.066.713-.131 1.038-.194.853-.165.998-.718.078-.683-.324.012-.863.045-1.244.121-.412.083-.817.03-1.173.047-.708.036-1.184.07-1.17.041.019-.037-.165-.125.214-.206.456-.097 1.469-.096 2.129-.289.373-.109 1.169-.292 1.169-.292s.943-.562.937-.637c-.035-.404-.709-.212-1.198 0-.381-.018-1.212.197-1.212.197s-1.778.07-1.789-.174c-.005-.093 1.021-.163 2.079-.498 1.211-.385 1.511-.927 1.477-1.142-.053-.329-.735-.02-.735-.02s-.935.424-1.195.472c-.305.055-4.299.128-4.29-.104.01-.231.395-.536.592-.615.197-.08.572-.188.769-.268.196-.08.332-.486.252-.727-.08-.241-.949-.111-.949-.111s-.973.054-1.501.374z" fill="#F8A492"/><path d="M93.75 80.727s2.325-2.93 3.136-4.115c1.573-2.301 2.89-4.895 2.89-4.895s-6.479-3.726-8.893-4.997c-8.86-4.663-8.655 2.291-8.243 3.835.921 3.451 11.11 10.171 11.11 10.171z" fill="#96D9C9"/><path d="M126.629 65.55c.766-.435 1.359-1.12 1.164-1.98.657.681-.171 1.94-1.164 1.98z" fill="#FE875E"/></g><defs><clipPath id="clip0_512_14159"><path fill="#fff" d="M0 0h230v170H0z"/></clipPath></defs></svg>