<svg width="230" height="92" fill="none" xmlns="http://www.w3.org/2000/svg"><g clip-path="url(#clip0_2006_7529)"><path d="M9.853 22.089v27.684h4.874c4.283 0 7.625-1.286 10.063-3.821 2.437-2.57 3.655-6.044 3.655-10.456 0-4.168-1.218-7.433-3.62-9.83-2.403-2.396-5.78-3.577-10.167-3.577H9.853zM0 57.762V14.1h15.493c15.564 0 23.328 7.086 23.328 21.292 0 6.808-2.124 12.227-6.372 16.291-4.247 4.064-9.888 6.079-16.956 6.079H0zm63.052-18.754c0-4.48-1.81-6.704-5.432-6.704-1.531 0-2.89.626-4.003 1.911-1.114 1.285-1.811 2.883-2.054 4.793h11.489zm8.913 5.905H51.562c.314 4.516 3.169 6.809 8.565 6.809 3.447 0 6.476-.8 9.053-2.432v6.947c-2.89 1.528-6.65 2.327-11.281 2.327-5.049 0-8.948-1.39-11.768-4.203-2.785-2.778-4.178-6.669-4.178-11.67 0-5.176 1.497-9.275 4.526-12.297 2.995-3.022 6.72-4.55 11.107-4.55 4.56 0 8.077 1.354 10.584 4.064 2.507 2.71 3.725 6.356 3.725 11.01v3.995h.07zm14.136 12.854h-9.644V11.603h9.644v46.164zm16.538-.005h-9.644V26.57h9.644v31.192zm-4.77-36.124c-1.636 0-2.959-.487-4.004-1.46-1.044-.972-1.566-2.153-1.566-3.542 0-1.424.522-2.605 1.566-3.543 1.045-.903 2.368-1.355 4.004-1.355 1.637 0 2.995.452 4.004 1.355 1.045.903 1.532 2.084 1.532 3.543s-.522 2.675-1.532 3.578c-1.009.972-2.367 1.424-4.004 1.424zm41.398 4.936l-11.629 31.192h-11.002l-11.072-31.192h10.306l5.432 19.209c.626 2.188.975 4.03 1.079 5.557h.139c.139-1.424.522-3.23 1.114-5.349l5.571-19.382h10.062v-.035zm21.412 12.434c0-4.48-1.81-6.704-5.431-6.704-1.532 0-2.89.626-4.004 1.911-1.114 1.285-1.81 2.883-2.054 4.793h11.489zm8.948 5.905h-20.402c.313 4.516 3.168 6.809 8.565 6.809 3.447 0 6.476-.8 9.052-2.432v6.947c-2.89 1.528-6.65 2.327-11.281 2.327-5.048 0-8.948-1.39-11.768-4.203-2.785-2.778-4.178-6.669-4.178-11.67 0-5.176 1.497-9.275 4.526-12.297 2.995-3.022 6.72-4.55 11.107-4.55 4.561 0 8.078 1.354 10.584 4.064 2.507 2.71 3.726 6.356 3.726 11.01v3.995h.069zm24.86-9.653c-1.149-.626-2.507-.938-4.074-.938-2.089 0-3.725.764-4.909 2.292-1.184 1.529-1.776 3.613-1.776 6.252v14.902h-9.644V26.576h9.644v5.8h.14c1.532-4.237 4.282-6.321 8.251-6.321 1.01 0 1.811.104 2.368.382v8.823zm35.512-8.686l-12.708 33.693c-3.064 8.094-7.66 12.158-13.788 12.158-2.332 0-4.247-.278-5.779-.8V63.95c1.288.764 2.681 1.112 4.178 1.112 2.472 0 4.213-1.181 5.187-3.508l1.637-3.856-12.708-31.123h10.688l5.815 18.966c.383 1.18.661 2.57.87 4.168h.139c.175-1.181.523-2.536 1.01-4.099l5.884-19.035h9.575zM44.532 87.673c-2.472 1.39-5.014 2.084-7.625 2.084-3.273 0-5.884-1.111-7.903-3.3-2.02-2.223-3.03-5.106-3.03-8.683 0-3.613 1.08-6.635 3.273-9.066 2.159-2.432 5.084-3.647 8.705-3.647 2.089 0 4.143.416 6.128 1.25v1.806c-2.16-1.042-4.283-1.563-6.372-1.563-3.03 0-5.432 1.042-7.277 3.091-1.845 2.05-2.75 4.69-2.75 7.85 0 3.37.87 5.975 2.576 7.886 1.706 1.91 4.039 2.848 6.963 2.848 2.16 0 4.04-.452 5.676-1.39v-7.885h-5.64v-1.493h7.31v10.212h-.034zm6.508-20.707v10.212h4.109c1.81 0 3.273-.486 4.352-1.424 1.08-.938 1.601-2.258 1.601-3.925 0-1.529-.487-2.71-1.462-3.578-.975-.868-2.367-1.285-4.143-1.285h-4.456zm10.585 22.37l-3.203-6.982c-.662-1.46-1.323-2.397-1.985-2.918-.661-.486-1.497-.73-2.472-.73h-2.96v10.63H49.37V65.438h6.65c2.124 0 3.76.555 4.979 1.701 1.219 1.147 1.81 2.64 1.81 4.516 0 1.737-.487 3.16-1.497 4.307-.974 1.147-2.367 1.91-4.143 2.223v.07c.94.382 1.88 1.528 2.785 3.439l3.552 7.607h-1.88v.034zm16.085-22.78c-2.785 0-5.083 1.007-6.858 3.022-1.811 2.014-2.681 4.654-2.681 7.885 0 3.3.835 5.905 2.541 7.85 1.706 1.945 3.97 2.917 6.824 2.917 2.96 0 5.292-.972 7.033-2.883 1.741-1.91 2.577-4.62 2.577-8.058 0-3.37-.836-6.01-2.542-7.92-1.706-1.875-4.004-2.813-6.894-2.813zm-.174 23.203c-3.377 0-6.093-1.112-8.077-3.37-2.02-2.257-3.03-5.14-3.03-8.753 0-3.82 1.045-6.843 3.1-9.17 2.054-2.292 4.874-3.439 8.46-3.439 3.238 0 5.85 1.112 7.834 3.3 1.984 2.189 2.994 5.106 2.994 8.684 0 3.96-1.01 7.052-3.064 9.344-2.054 2.292-4.805 3.404-8.217 3.404zm31.79-9.972c0 6.635-2.82 9.97-8.53 9.97-5.397 0-8.112-3.196-8.112-9.587V65.477h1.636V79.96c0 5.558 2.263 8.302 6.789 8.302 4.387 0 6.546-2.71 6.546-8.093V65.477h1.636v14.31h.035zm6.822-12.817v11.29h3.412c2.159 0 3.795-.522 4.909-1.53 1.114-1.041 1.672-2.466 1.672-4.341 0-3.578-2.055-5.384-6.198-5.384h-3.795v-.035zm0 12.817v9.587h-1.636V65.477h5.779c2.472 0 4.352.555 5.641 1.702 1.288 1.146 1.949 2.813 1.949 5.002 0 2.222-.731 4.029-2.193 5.488-1.462 1.424-3.482 2.153-6.093 2.153h-3.447v-.035z" fill="#121212"/><path d="M145.533 20.702h-16.398l8.808-10.35L129.135 0h16.398l8.809 10.351-8.809 10.351z" fill="#FDCE00"/><path d="M170.742 20.702h-16.398l8.808-10.35L154.344 0h16.398l8.809 10.351-8.809 10.351z" fill="#B2B2B3"/><path d="M195.984 20.702h-16.433l8.808-10.35L179.551 0h16.433l8.809 10.351-8.809 10.351z" fill="#3F53A1"/><path d="M221.192 20.702h-16.399l8.809-10.35L204.793 0h16.399L230 10.351l-8.808 10.351z" fill="#95B51F"/></g><defs><clipPath id="clip0_2006_7529"><path fill="#fff" d="M0 0h230v92H0z"/></clipPath></defs></svg>