<svg width="411" height="68" fill="none" xmlns="http://www.w3.org/2000/svg"><path d="M11.677 67.486H.516V.629h11.16V27.39h22.281V.63h11.161v66.857h-11.16V40.77H11.676v26.716zm82.008 0H55.461V.629h38.224v13.379H66.622V27.39h18.315v13.38H66.622v13.333h27.063v13.383zm83.21 0h-11.119V14.008h-16.76V.628h44.6v13.38h-16.721v53.478zm135.091 0h-39.041V.629h11.162v53.474h27.879v13.383zm47.868-26.716c0 3.7-.582 7.172-1.75 10.42-1.166 3.25-2.76 6.08-4.783 8.485-2.022 2.41-4.388 4.315-7.095 5.713-2.709 1.398-5.607 2.097-8.692 2.097-3.084 0-5.982-.699-8.691-2.097-2.709-1.398-5.067-3.303-7.077-5.713-2.009-2.406-3.597-5.235-4.763-8.484-1.166-3.25-1.749-6.72-1.749-10.422V.63h11.119v40.14c0 1.834.293 3.562.876 5.178s1.381 3.027 2.392 4.24a11.33 11.33 0 003.558 2.867 9.348 9.348 0 004.335 1.049c1.53 0 2.976-.35 4.336-1.05a11.363 11.363 0 003.558-2.866c1.011-1.213 1.807-2.624 2.392-4.24.583-1.616.873-3.344.873-5.178V.63h11.161v40.14zm6.416-20.096c0-2.764.439-5.359 1.322-7.785.881-2.423 2.079-4.545 3.596-6.363 1.516-1.817 3.286-3.257 5.309-4.314A13.807 13.807 0 01382.99.63h25.586v13.379H382.99c-.777 0-1.503.172-2.177.513a5.534 5.534 0 00-1.77 1.423 6.793 6.793 0 00-1.186 2.123 7.781 7.781 0 00-.428 2.607c0 .934.143 1.814.428 2.636a6.754 6.754 0 001.186 2.143 5.522 5.522 0 001.77 1.423c.674.342 1.4.514 2.177.514h11.159c2.308 0 4.479.518 6.515 1.563 2.033 1.041 3.811 2.468 5.327 4.286 1.515 1.822 2.708 3.948 3.577 6.39.868 2.44 1.302 5.043 1.302 7.807 0 2.768-.434 5.363-1.302 7.79-.869 2.422-2.062 4.544-3.577 6.362-1.516 1.818-3.294 3.258-5.327 4.314a13.935 13.935 0 01-6.515 1.584h-24.768V54.103h24.768c.78 0 1.504-.169 2.179-.51a5.596 5.596 0 001.768-1.423 6.774 6.774 0 001.187-2.122 7.786 7.786 0 00.428-2.612c0-.93-.143-1.801-.428-2.608a6.771 6.771 0 00-1.187-2.122 5.54 5.54 0 00-1.768-1.423 4.757 4.757 0 00-2.179-.514H382.99c-2.307 0-4.471-.526-6.493-1.583-2.023-1.057-3.793-2.496-5.309-4.314-1.517-1.819-2.715-3.945-3.596-6.387-.883-2.44-1.322-5.043-1.322-7.81zm-222.542-3.705c-1.165-3.25-2.759-6.083-4.782-8.51-2.022-2.422-4.388-4.334-7.095-5.732-2.71-1.4-5.607-2.098-8.692-2.098-3.084 0-5.982.699-8.691 2.098-2.709 1.398-5.067 3.31-7.077 5.733-2.009 2.426-3.598 5.26-4.763 8.509-1.166 3.249-1.749 6.72-1.749 10.421v40.096h11.119V27.39c0-1.833.293-3.565.876-5.198.583-1.633 1.38-3.056 2.392-4.265a11.342 11.342 0 013.558-2.87 9.352 9.352 0 014.335-1.05c1.53 0 2.975.35 4.336 1.05a11.365 11.365 0 013.558 2.87c1.011 1.209 1.807 2.632 2.392 4.265.583 1.633.873 3.365.873 5.198v40.097h11.161V27.39c0-3.701-.583-7.172-1.751-10.421zm121.889 3.335a30.169 30.169 0 00-2.254-6.387 26.95 26.95 0 00-3.5-5.433 23.668 23.668 0 00-4.511-4.195 20.36 20.36 0 00-5.309-2.706 18.382 18.382 0 00-5.91-.955h-22.321v13.478h11.162v-.099h11.159c1.53 0 2.969.35 4.316 1.05a11.455 11.455 0 013.54 2.87c1.011 1.209 1.807 2.632 2.39 4.264.584 1.633.875 3.365.875 5.2 0 1.833-.291 3.565-.875 5.198-.583 1.633-1.379 3.051-2.39 4.265a11.441 11.441 0 01-3.54 2.866 9.236 9.236 0 01-4.316 1.05H228.45c-2.659 0-6.638 1.636-6.638 8.083v18.632h11.162V54.103h11.159c3.06 0 5.943-.7 8.651-2.098 2.71-1.398 5.076-3.31 7.098-5.733 2.022-2.427 3.617-5.26 4.782-8.51 1.166-3.249 1.751-6.703 1.751-10.372 0-2.455-.266-4.82-.798-7.086z" fill="#121212"/><path d="M130.061 45.43c0 4.142-3.081 7.501-6.882 7.501-3.801 0-6.882-3.358-6.882-7.502 0-4.143 3.081-7.501 6.882-7.501 3.801 0 6.882 3.358 6.882 7.501zm105.516-17.812c0 4.143-3.081 7.502-6.883 7.502-3.8 0-6.882-3.359-6.882-7.502 0-4.144 3.082-7.502 6.882-7.502 3.802 0 6.883 3.358 6.883 7.502z" fill="#E42B28"/></svg>