<svg width="74" height="69" fill="none" xmlns="http://www.w3.org/2000/svg"><path fill-rule="evenodd" clip-rule="evenodd" d="M30.25 0c16.569 0 30 13.432 30 30 0 16.569-13.431 30-30 30-16.569 0-30-13.431-30-30 0-16.568 13.431-30 30-30z" fill="#EFEFEF"/><path fill-rule="evenodd" clip-rule="evenodd" d="M57 40.5a8 8 0 110 16 8 8 0 010-16z" fill="red"/><g clip-path="url(#clip0_42_2487)" stroke="#121212" stroke-width="2" stroke-linecap="round" stroke-linejoin="round"><path d="M48.6 48.815c0 2.094.837 4.102 2.328 5.583a7.978 7.978 0 005.622 2.312 7.98 7.98 0 005.621-2.312 7.867 7.867 0 002.329-5.583 7.867 7.867 0 00-2.329-5.582 7.978 7.978 0 00-5.621-2.313 7.977 7.977 0 00-5.622 2.313 7.867 7.867 0 00-2.328 5.582z"/><path d="M51.25 55.395v11.842l5.3-3.948 5.3 3.948V55.395"/><path d="M43.3 59.342H30.05a5.32 5.32 0 01-3.748-1.542 5.245 5.245 0 01-1.552-3.721V27.762c0-2.895 2.385-5.264 5.3-5.264h37.1a5.32 5.32 0 013.748 1.542 5.245 5.245 0 011.552 3.722v26.315a5.236 5.236 0 01-.711 2.629A5.282 5.282 0 0169.8 58.63M32.7 33.026h31.8M32.7 40.92h7.95m-7.95 7.894H38"/></g><defs><clipPath id="clip0_42_2487"><path fill="#fff" transform="translate(23.75 21.5)" d="M0 0h50v47H0z"/></clipPath></defs></svg>