<svg width="78" height="68" fill="none" xmlns="http://www.w3.org/2000/svg"><path fill-rule="evenodd" clip-rule="evenodd" d="M30 0c16.569 0 30 13.432 30 30 0 16.569-13.431 30-30 30C13.431 60 0 46.57 0 30 0 13.432 13.431 0 30 0z" fill="#EFEFEF"/><path d="M53 51.819v6.818" stroke="#121212" stroke-width="2" stroke-linecap="round"/><path d="M60.954 65.455h-15.91l.774-3.854a2.273 2.273 0 012.227-1.828h9.909a2.274 2.274 0 012.227 1.828l.773 3.854z" stroke="#121212" stroke-width="2" stroke-linecap="round" stroke-linejoin="round"/><path d="M68.91 26.819l2.157.718c2.25.75 3.375 1.125 4.018 2.018.643.893.643 2.082.643 4.45v.166c0 1.955 0 2.934-.47 3.734-.47.8-1.328 1.275-3.037 2.227l-6.72 3.732M37.09 26.82l-2.156.718c-2.25.75-3.375 1.125-4.018 2.018-.644.893-.644 2.082-.644 4.45v.166c0 1.955 0 2.934.47 3.734.471.8 1.328 1.275 3.037 2.227l6.72 3.732" stroke="#121212" stroke-width="2"/><path d="M66.637 65.455H39.364m25-44.418c1.684.32 2.684.675 3.545 1.739 1.084 1.331 1.028 2.77.912 5.647-.41 10.348-2.727 23.396-15.818 23.396S37.59 38.773 37.178 28.423c-.114-2.877-.17-4.318.909-5.647 1.081-1.332 2.375-1.55 4.963-1.987A60 60 0 0153 20c1.634.004 3.149.055 4.546.155" stroke="#121212" stroke-width="2" stroke-linecap="round"/><g clip-path="url(#clip0_42_2508)"><path d="M57.67 41.966a.74.74 0 01-.345-.084L53.5 39.848l-3.825 2.034a.74.74 0 01-.792-.06.76.76 0 01-.295-.748l.75-4.29-3.09-3.047a.766.766 0 01-.188-.762.761.761 0 01.608-.518l4.275-.632 1.882-3.909a.758.758 0 01.277-.313.741.741 0 011.073.313l1.905 3.901 4.275.633a.745.745 0 01.608.518.773.773 0 01-.188.761l-3.09 3.048.75 4.29a.775.775 0 01-.3.761.741.741 0 01-.465.138z" fill="red" stroke="#121212" stroke-width="2"/></g><defs><clipPath id="clip0_42_2508"><path fill="#fff" transform="translate(45 26)" d="M0 0h17v17H0z"/></clipPath></defs></svg>