<svg width="80" height="70" fill="none" xmlns="http://www.w3.org/2000/svg"><path fill-rule="evenodd" clip-rule="evenodd" d="M30.25 0c16.569 0 30 13.432 30 30 0 16.569-13.431 30-30 30-16.569 0-30-13.431-30-30 0-16.568 13.431-30 30-30z" fill="#EFEFEF"/><g clip-path="url(#clip0_42_2517)"><circle cx="36" cy="39.875" r="5" fill="red"/><circle cx="68" cy="31.875" r="5" fill="red"/><path d="M36.083 44.926a5.353 5.353 0 01-3.77-1.55 5.275 5.275 0 01-1.563-3.744c0-1.404.562-2.75 1.562-3.743 1-.993 2.357-1.55 3.771-1.55m0 10.587a5.354 5.354 0 003.772-1.55c1-.993 1.562-2.34 1.562-3.744 0-1.404-.562-2.75-1.562-3.743a5.354 5.354 0 00-3.772-1.55m0 10.587v21.177m0-31.765V23.75m20.152 28.443a5.33 5.33 0 00-2.134-1.578 5.37 5.37 0 00-5.119.592 5.305 5.305 0 00-1.71 2.023 5.26 5.26 0 00.299 5.108 5.317 5.317 0 001.935 1.812c.79.432 1.676.659 2.577.659v5.294m0-42.353v26.47m16-13.235a5.353 5.353 0 01-3.77-1.55 5.275 5.275 0 01-1.563-3.744c0-1.404.562-2.75 1.562-3.743 1-.993 2.357-1.55 3.771-1.55m0 10.587a5.354 5.354 0 003.772-1.55c1-.993 1.562-2.34 1.562-3.744 0-1.404-.562-2.75-1.562-3.743a5.353 5.353 0 00-3.772-1.55m0 10.587v10.589m0-21.177V23.75m5.334 45l5.333-5.294-5.333-5.294m-8 0l-5.334 5.294 5.334 5.294" stroke="#121212" stroke-width="2" stroke-linecap="round" stroke-linejoin="round"/></g><defs><clipPath id="clip0_42_2517"><path fill="#fff" transform="translate(29.75 22.75)" d="M0 0h50v47H0z"/></clipPath></defs></svg>