<svg aria-hidden="true" style="position:absolute;width:0;height:0" xmlns="http://www.w3.org/2000/svg" overflow="hidden"><defs><symbol id="icon-cabinet" viewBox="0 0 30 32"><path stroke-linejoin="round" stroke-linecap="round" stroke-width="1.778" d="M14.893 17.107a7.664 7.664 0 007.664-7.665 7.664 7.664 0 10-7.664 7.665z"/><path stroke-linejoin="round" stroke-linecap="round" stroke-width="1.778" d="M28.009 30.222A13.113 13.113 0 005.62 20.948a13.113 13.113 0 00-3.841 9.274"/></symbol><symbol id="icon-menu-1" viewBox="0 0 43 32"><path stroke-linejoin="round" stroke-linecap="round" stroke-width="2.286" d="M33.143 11.429h-32l9.143-9.143m0 18.285h32l-9.143 9.143"/></symbol><symbol id="icon-star" viewBox="0 0 32 32"><path stroke-linejoin="round" stroke-linecap="round" stroke-width="2.667" d="M16 1.778l-3.904 10.064-10.318.804 7.909 7.024-2.476 10.553L16 24.492m0-22.714l3.905 10.064 10.318.804-7.909 7.024 2.476 10.553-8.789-5.731"/></symbol><symbol id="icon-cart" viewBox="0 0 30 32"><path stroke-linejoin="round" stroke-linecap="round" stroke-width="1.778" d="M6.128 8.178H26.18c1.648 0 2.472 0 2.901.562s.252 1.405-.106 3.093c-1.239 5.845-2.261 9.856-8.98 9.856H9.122L5.199 3.933c-.162-.615-.536-1.162-1.062-1.552s-1.175-.603-1.842-.603H.889m9.551 19.911h-.615c-2.042 0-3.696 1.637-3.696 3.657a.573.573 0 00.175.426.627.627 0 00.441.184h16.601m-.001 0c-1.24 0-2.246.954-2.246 2.133s1.006 2.133 2.246 2.133 2.246-.955 2.246-2.133-1.005-2.133-2.245-2.133zm-8.234 2.133c0 1.178-1.005 2.133-2.246 2.133s-2.246-.955-2.246-2.133 1.005-2.134 2.246-2.134 2.246.955 2.246 2.134z"/></symbol><symbol id="icon-plus" viewBox="0 0 34 32"><path d="M17 0a2 2 0 012 2v28a2 2 0 11-4 0V2a2 2 0 012-2z"/><path d="M3 14h28a2 2 0 110 4H3a2 2 0 110-4z"/></symbol><symbol id="icon-settings" viewBox="0 0 48 32"><path stroke-linecap="round" stroke-miterlimit="10" stroke-width="4" d="M46.199 7.384H16.547m-10.466 0H1.799m4.282 0c0-1.423.551-2.788 1.532-3.794s2.312-1.572 3.7-1.572c1.388 0 2.718.565 3.7 1.572s1.532 2.371 1.532 3.794-.551 2.788-1.532 3.794-2.312 1.572-3.7 1.572c-1.388 0-2.718-.565-3.7-1.572S6.081 8.807 6.081 7.384zm40.118 16.264H32.404m0 0c0 1.424-.553 2.79-1.534 3.796s-2.313 1.572-3.701 1.572-2.718-.568-3.7-1.574-1.532-2.371-1.532-3.794m10.467 0c0-1.424-.553-2.788-1.534-3.794s-2.313-1.572-3.701-1.572-2.718.565-3.7 1.572-1.532 2.371-1.532 3.794m.001 0H1.8"/></symbol><symbol id="icon-chev-bottom" viewBox="0 0 56 32"><path stroke-linejoin="round" stroke-linecap="round" stroke-width="6" d="M4 4l24 24L52 4"/></symbol><symbol id="icon-solar_calculator-broken" viewBox="0 0 27 32"><path stroke-linecap="round" stroke-width="2.971" d="M26.057 16c0 6.367 0 9.55-1.808 11.528s-4.718 1.979-10.535 1.979c-5.818 0-8.728 0-10.535-1.979C1.371 25.552 1.371 22.367 1.371 16s0-9.55 1.808-11.529c1.808-1.979 4.718-1.977 10.535-1.977s8.728 0 10.535 1.977c1.201 1.316 1.605 3.165 1.739 6.127"/><path stroke-width="2.971" d="M6.857 10.598c0-.628 0-.941.07-1.199a2.031 2.031 0 011.454-1.432c.265-.07.583-.07 1.219-.07h8.229c.638 0 .956 0 1.218.069.349.092.666.273.922.524s.439.564.532.908c.071.261.071.574.071 1.201s0 .941-.07 1.199a2.031 2.031 0 01-1.453 1.432c-.263.07-.583.07-1.219.07H9.601c-.638 0-.956 0-1.218-.069-.349-.092-.666-.273-.921-.524s-.439-.564-.532-.908c-.071-.261-.071-.574-.071-1.201z"/><path d="M8.229 18.701c.757 0 1.371-.605 1.371-1.351s-.614-1.351-1.371-1.351-1.371.605-1.371 1.351.614 1.351 1.371 1.351zm0 5.403c.757 0 1.371-.605 1.371-1.351s-.614-1.351-1.371-1.351-1.371.605-1.371 1.351.614 1.351 1.371 1.351zm5.485-5.403c.757 0 1.371-.605 1.371-1.351s-.614-1.351-1.371-1.351-1.371.605-1.371 1.351.614 1.351 1.371 1.351zm0 5.403c.757 0 1.371-.605 1.371-1.351s-.614-1.351-1.371-1.351-1.371.605-1.371 1.351.614 1.351 1.371 1.351zm5.487-5.403c.757 0 1.371-.605 1.371-1.351s-.614-1.351-1.371-1.351-1.371.605-1.371 1.351.614 1.351 1.371 1.351zm0 5.403c.757 0 1.371-.605 1.371-1.351s-.614-1.351-1.371-1.351-1.371.605-1.371 1.351.614 1.351 1.371 1.351z"/></symbol><symbol id="icon-heart" viewBox="0 0 36 32"><path stroke-linejoin="round" stroke-linecap="round" stroke-width="1.778" d="M25.291 1.778c-3.27 0-6.094 1.892-7.514 4.651-1.419-2.759-4.243-4.651-7.514-4.651-4.688 0-8.486 3.883-8.486 8.661s2.907 9.159 6.664 12.757c3.757 3.598 9.336 7.026 9.336 7.026s5.398-3.371 9.336-7.026c4.2-3.897 6.664-7.964 6.664-12.757s-3.798-8.661-8.486-8.661z"/></symbol></defs></svg>