<svg width="230" height="77" fill="none" xmlns="http://www.w3.org/2000/svg"><g clip-path="url(#clip0_2006_7556)"><mask id="a" style="mask-type:luminance" maskUnits="userSpaceOnUse" x="112" y="35" width="7" height="34"><path d="M112.559 35.143h5.687v33.49h-5.687v-33.49z" fill="#fff"/></mask><g mask="url(#a)"><mask id="b" style="mask-type:luminance" maskUnits="userSpaceOnUse" x="112" y="35" width="7" height="34"><path d="M115.376 40.662c-1.52 0-2.667-1.167-2.667-2.713 0-1.585 1.19-2.777 2.768-2.777 1.596 0 2.711 1.14 2.711 2.777.026.728-.223 1.4-.704 1.895-.51.53-1.26.818-2.108.818zm-2.123 3.914h4.443v24.04h-4.443v-24.04z" fill="#fff"/></mask><g mask="url(#b)"><path d="M-.838-.908h119.92v78.691H-.838V-.908z" fill="#CC0B01"/></g></g><mask id="c" style="mask-type:luminance" maskUnits="userSpaceOnUse" x="112" y="35" width="7" height="34"><path d="M112.559 35.027h5.777V68.8h-5.777V35.027z" fill="#fff"/></mask><g mask="url(#c)"><mask id="d" style="mask-type:luminance" maskUnits="userSpaceOnUse" x="112" y="35" width="7" height="34"><path d="M117.758 44.512h-4.569v24.166h4.569V44.512zm-2.281-9.405c-1.613 0-2.832 1.222-2.832 2.84 0 1.582 1.175 2.777 2.733 2.777.863 0 1.63-.297 2.155-.838.489-.507.744-1.195.718-1.944 0-1.665-1.141-2.835-2.774-2.835zm2.154 33.444h-4.315V44.638h4.315v23.913zm-2.154-33.317c1.624 0 2.649 1.184 2.649 2.713.052 1.47-1.028 2.653-2.748 2.653-1.526 0-2.606-1.184-2.606-2.653 0-1.529 1.132-2.713 2.705-2.713z" fill="#fff"/></mask><g mask="url(#d)"><path d="M-.838-.908h119.92v78.691H-.838V-.908z" fill="#CC0B01"/></g></g><mask id="e" style="mask-type:luminance" maskUnits="userSpaceOnUse" x="0" y="15" width="99" height="49"><path d="M0 15.398h98.32v47.765H0V15.398z" fill="#fff"/></mask><g mask="url(#e)"><mask id="f" style="mask-type:luminance" maskUnits="userSpaceOnUse" x="0" y="15" width="99" height="48"><path d="M95.76 32.658c-2.681 5-24.645 27.092-34.022 29.61l-.501.115c-.385.04-.77.08-1.15.115C19.926 66.133.284 32.643 0 32.145c17.838 11.513 46.251-5.084 64.098-13.543a31.37 31.37 0 016.107-2.158l.003.006c2.462-.587 5.236-.919 8.175-.919 4.514 0 8.647.78 11.838 2.077h.003a45.793 45.793 0 017.607 3.27l.03.123.155 1.414c.018.064 1.098 5.309-2.256 10.243z" fill="#fff"/></mask><g mask="url(#f)"><path d="M-.836-.906h119.92v78.691H-.836V-.906z" fill="#CC0B01"/></g></g><mask id="g" style="mask-type:luminance" maskUnits="userSpaceOnUse" x="61" y="62" width="1" height="1"><path d="M61.213 62.143h.669v.282h-.67v-.282z" fill="#fff"/></mask><g mask="url(#g)"><mask id="h" style="mask-type:luminance" maskUnits="userSpaceOnUse" x="61" y="62" width="1" height="1"><path d="M61.737 62.266l-.055.046c-.168.04-.307.055-.446.069l.501-.115z" fill="#fff"/></mask><g mask="url(#h)"><path d="M-.838-.908h119.92v78.691H-.838V-.908z" fill="#CC0B01"/></g></g><mask id="i" style="mask-type:luminance" maskUnits="userSpaceOnUse" x="60" y="62" width="2" height="1"><path d="M60.043 62.31h1.21v.335h-1.21v-.335z" fill="#fff"/></mask><g mask="url(#i)"><mask id="j" style="mask-type:luminance" maskUnits="userSpaceOnUse" x="60" y="62" width="2" height="1"><path d="M61.237 62.383c-.38.078-.736.115-1.063.115h-.06c.353-.035.738-.075 1.123-.115z" fill="#fff"/></mask><g mask="url(#j)"><path d="M-.838-.906h119.92v78.691H-.838V-.906z" fill="#CC0B01"/></g></g><mask id="k" style="mask-type:luminance" maskUnits="userSpaceOnUse" x="76" y="1" width="21" height="22"><path d="M76.266 1.59h19.902v20.462H76.266V1.59z" fill="#fff"/></mask><g mask="url(#k)"><mask id="l" style="mask-type:luminance" maskUnits="userSpaceOnUse" x="76" y="1" width="21" height="21"><path d="M96.157 11.786c0 5.631-4.428 10.153-9.895 10.153-5.47 0-9.924-4.522-9.924-10.153 0-5.602 4.454-10.153 9.924-10.153 5.467 0 9.895 4.55 9.895 10.153z" fill="#fff"/></mask><g mask="url(#l)"><path d="M-.838-.908h119.92v78.691H-.838V-.908z" fill="#fff"/></g></g><mask id="m" style="mask-type:luminance" maskUnits="userSpaceOnUse" x="75" y="0" width="22" height="23"><path d="M75.598.924h21.24v21.625h-21.24V.924z" fill="#fff"/></mask><g mask="url(#m)"><mask id="n" style="mask-type:luminance" maskUnits="userSpaceOnUse" x="75" y="1" width="22" height="22"><path d="M96.743 11.786c0 5.936-4.671 10.735-10.48 10.735-5.806 0-10.51-4.796-10.51-10.735 0-5.91 4.7-10.735 10.51-10.735 5.809 0 10.48 4.827 10.48 10.735H95.57c0-5.3-4.179-9.572-9.307-9.572-5.132 0-9.336 4.275-9.336 9.572 0 5.323 4.204 9.571 9.336 9.571 5.128 0 9.307-4.245 9.307-9.571h1.173z" fill="#fff"/></mask><g mask="url(#n)"><path d="M-.836-.908h119.92v78.691H-.836V-.908z" fill="#CC0B01"/></g></g><mask id="o" style="mask-type:luminance" maskUnits="userSpaceOnUse" x="34" y="0" width="81" height="77"><path d="M34.955.486h79.446v75.95H34.955V.485z" fill="#fff"/></mask><g mask="url(#o)"><mask id="p" style="mask-type:luminance" maskUnits="userSpaceOnUse" x="35" y="0" width="80" height="77"><path d="M114.4.582s-5.623 15.234-16.517 20.31c0 0 1.65 7.44-3.976 13.54 0 0-14.867-20.31-41.954 5.41 0 0 22.465-9.457 21.79 3.384-.65 12.88-24.437 31.17-38.65 33.19 17.842 0 69.059 0 79.307-75.834z" fill="#fff"/></mask><g mask="url(#p)"><path d="M-.838-.906h119.92v78.691H-.838V-.906z" fill="#fff"/></g></g><mask id="q" style="mask-type:luminance" maskUnits="userSpaceOnUse" x="34" y="-1" width="82" height="79"><path d="M34.453-.076h80.616v77.193H34.453V-.076z" fill="#fff"/></mask><g mask="url(#q)"><mask id="r" style="mask-type:luminance" maskUnits="userSpaceOnUse" x="34" y="0" width="81" height="77"><path d="M114.948.783c.014-.037-5.673 15.444-16.819 20.635l-.246-.527.57-.127c.007.032.241 1.092.241 2.733 0 2.797-.678 7.337-4.355 11.326a.59.59 0 01-.464.19.59.59 0 01-.44-.239c.026.035-5.395-7.374-15.64-7.374-6.48 0-15.009 2.959-25.436 12.864l-.406-.42-.229-.536c-.011.006 8.062-3.402 14.503-3.402 4.236 0 8.116 1.524 8.116 6.769l-.014.585c-.672 13.28-24.814 31.695-39.154 33.731l-.08-.576v-.582c17.762 0 68.542.044 78.724-75.326a.586.586 0 011.161.155C104.671 76.957 53.01 77 35.094 77a.586.586 0 01-.585-.541.583.583 0 01.504-.617C49.095 73.84 72.531 55.674 73.162 43.2v-.003l.011-.524c0-4.252-2.939-5.602-6.946-5.602-6.169 0-14.033 3.303-14.045 3.31a.59.59 0 01-.718-.217.576.576 0 01.087-.74c10.572-10.041 19.375-13.186 26.244-13.186 10.833 0 16.561 7.82 16.587 7.854l-.475.343-.431-.395c3.414-3.7 4.045-7.918 4.045-10.542 0-1.535-.217-2.508-.208-2.48a.578.578 0 01.321-.65C108.28 15.403 113.836.416 113.851.382a.583.583 0 01.75-.346.58.58 0 01.347.746z" fill="#fff"/></mask><g mask="url(#r)"><path d="M-.836-.908h119.92v78.691H-.836V-.908z" fill="#CC0B01"/></g></g><mask id="s" style="mask-type:luminance" maskUnits="userSpaceOnUse" x="124" y="34" width="22" height="35"><path d="M124.828 34.904h20.74v33.772h-20.74V34.904z" fill="#fff"/></mask><g mask="url(#s)"><mask id="t" style="mask-type:luminance" maskUnits="userSpaceOnUse" x="124" y="34" width="22" height="35"><path d="M129.294 51.676c.959.221 2.129.334 3.472.334 5.239 0 8.242-2.567 8.242-7.043 0-4.17-2.751-6.466-7.752-6.466-1.732 0-3.168.121-3.962.331v12.844zm-4.401 16.94l.052-33.018c2.493-.418 5.258-.631 8.215-.631 4.164 0 7.3.939 9.327 2.794 1.883 1.604 2.919 4.093 2.919 7.005 0 2.964-.866 5.369-2.571 7.143-2.189 2.35-5.8 3.647-10.164 3.647-1.324 0-2.418-.02-3.377-.265v13.324h-4.401z" fill="#fff"/></mask><g mask="url(#t)"><path d="M123.992 34.07h22.246v35.437h-22.246V34.07z" fill="#CC0B01"/></g></g><mask id="u" style="mask-type:luminance" maskUnits="userSpaceOnUse" x="124" y="34" width="22" height="35"><path d="M124.828 34.904h20.74v33.94h-20.74v-33.94z" fill="#fff"/></mask><g mask="url(#u)"><mask id="v" style="mask-type:luminance" maskUnits="userSpaceOnUse" x="124" y="34" width="22" height="35"><path d="M129.357 38.882c.788-.201 2.23-.32 3.898-.32 4.957 0 7.688 2.276 7.688 6.403 0 4.436-2.98 6.982-8.178 6.982-1.317 0-2.464-.11-3.408-.322V38.882zm3.802-3.978c-2.962 0-5.73.213-8.227.634l-.104.017V68.68h4.529V55.372c.944.23 2.018.248 3.31.248 4.384 0 8.01-1.302 10.213-3.667 1.718-1.786 2.589-4.202 2.589-7.186 0-2.93-1.045-5.436-2.945-7.054-2.033-1.864-5.186-2.809-9.365-2.809zm-.394 17.167c5.161 0 8.306-2.532 8.306-7.106 0-4.424-3.093-6.527-7.816-6.527-1.868 0-3.293.142-4.022.349v12.938c.929.22 2.114.346 3.532.346zm.394-17.04c4.219 0 7.318.977 9.284 2.777 1.816 1.55 2.899 3.975 2.899 6.959 0 2.998-.883 5.366-2.554 7.1-2.265 2.43-5.942 3.629-10.121 3.629-1.283 0-2.45-.017-3.434-.285v13.342h-4.28V35.659c2.061-.346 4.766-.628 8.206-.628z" fill="#fff"/></mask><g mask="url(#v)"><path d="M123.992 34.072h22.246V69.51h-22.246V34.072z" fill="#CC0B01"/></g></g><mask id="w" style="mask-type:luminance" maskUnits="userSpaceOnUse" x="148" y="34" width="32" height="36"><path d="M148.996 34.621h30.606v34.602h-30.606V34.62z" fill="#fff"/></mask><g mask="url(#w)"><mask id="x" style="mask-type:luminance" maskUnits="userSpaceOnUse" x="149" y="34" width="31" height="36"><path d="M164.304 38.293c-7.289 0-10.552 6.927-10.552 13.794 0 6.466 3.286 13.428 10.5 13.428 7.286 0 10.546-6.913 10.546-13.765 0-6.481-3.284-13.454-10.497-13.454m-.29 30.834c-4.329 0-8.053-1.616-10.775-4.678-2.73-3.076-4.175-7.307-4.175-12.241-.003-10.32 6.347-17.527 15.437-17.527 8.942 0 14.948 6.789 14.948 16.896 0 5.418-1.57 9.937-4.535 13.07-2.736 2.893-6.608 4.483-10.9 4.483" fill="#fff"/></mask><g mask="url(#x)"><path d="M148.16 33.787h32.111v36.267H148.16V33.787z" fill="#CC0B01"/></g></g><mask id="y" style="mask-type:luminance" maskUnits="userSpaceOnUse" x="148" y="34" width="32" height="36"><path d="M148.996 34.621h30.606v34.602h-30.606V34.62z" fill="#fff"/></mask><g mask="url(#y)"><mask id="z" style="mask-type:luminance" maskUnits="userSpaceOnUse" x="148" y="34" width="32" height="36"><path d="M164.251 65.452c-7.17 0-10.436-6.93-10.436-13.364 0-6.836 3.243-13.731 10.485-13.731 7.17 0 10.437 6.942 10.437 13.394 0 6.82-3.244 13.704-10.489 13.704m.249-30.834c-4.367 0-8.308 1.708-11.099 4.81-2.879 3.203-4.402 7.625-4.402 12.78 0 4.949 1.448 9.197 4.193 12.282a13.7 13.7 0 004.752 3.471c1.853.815 3.895 1.227 6.07 1.227 4.309 0 8.195-1.599 10.943-4.499 2.98-3.145 4.555-7.682 4.555-13.114 0-4.917-1.413-9.137-4.083-12.201-2.713-3.111-6.49-4.756-10.929-4.756zm-.246 30.955c6.782 0 10.61-6.262 10.61-13.828 0-6.622-3.434-13.518-10.558-13.518-7.08 0-10.613 6.556-10.613 13.855 0 7.137 3.834 13.491 10.561 13.491zm.246-30.831c9.041 0 14.887 6.959 14.887 16.833 0 11.426-6.929 17.492-15.373 17.492-8.754 0-14.89-6.8-14.89-16.859 0-10.57 6.535-17.466 15.376-17.466z" fill="#fff"/></mask><g mask="url(#z)"><path d="M148.16 33.79h32.111v36.266H148.16V33.789z" fill="#CC0B01"/></g></g><mask id="A" style="mask-type:luminance" maskUnits="userSpaceOnUse" x="183" y="34" width="21" height="36"><path d="M183.111 34.621h20.407v34.602h-20.407V34.62z" fill="#fff"/></mask><g mask="url(#A)"><mask id="B" style="mask-type:luminance" maskUnits="userSpaceOnUse" x="183" y="34" width="21" height="36"><path d="M191.706 69.112c-3.049 0-6.617-.907-8.482-2.157l-.04-.026 1.12-3.727.07.043c1.065.657 3.941 2.186 7.627 2.186 4.17 0 6.866-2.209 6.866-5.628 0-3.021-1.679-4.798-6.197-6.553-5.994-2.154-8.789-5.164-8.789-9.467 0-5.358 4.431-9.1 10.773-9.1 3.918 0 6.289 1.014 7.352 1.617l.046.025-1.222 3.635-.066-.037c-1.063-.585-3.287-1.567-6.255-1.567-4.268 0-6.18 2.46-6.18 4.9 0 3.223 2.204 4.68 6.548 6.388 6.029 2.33 8.487 5.17 8.487 9.808 0 4.456-3.055 9.658-11.661 9.658" fill="#fff"/></mask><g mask="url(#B)"><path d="M182.277 33.787h21.91v36.267h-21.91V33.787z" fill="#CC0B01"/></g></g><mask id="C" style="mask-type:luminance" maskUnits="userSpaceOnUse" x="183" y="34" width="21" height="36"><path d="M183.111 34.621h20.407v34.602h-20.407V34.62z" fill="#fff"/></mask><g mask="url(#C)"><mask id="D" style="mask-type:luminance" maskUnits="userSpaceOnUse" x="183" y="34" width="21" height="36"><path d="M194.654 34.621c-6.38 0-10.836 3.768-10.836 9.162 0 4.335 2.809 7.36 8.835 9.523 4.483 1.745 6.151 3.505 6.151 6.495 0 3.382-2.67 5.568-6.8 5.568-3.672 0-6.536-1.524-7.595-2.178l-.139-.086-1.159 3.85.079.053c1.876 1.256 5.458 2.166 8.519 2.166 3.686 0 6.733-1.003 8.812-2.9 1.873-1.715 2.907-4.134 2.907-6.821 0-2.42-.704-4.376-2.157-5.977-1.361-1.5-3.385-2.74-6.371-3.892-4.315-1.699-6.507-3.142-6.507-6.33 0-2.408 1.891-4.837 6.116-4.837 2.957 0 5.169.98 6.226 1.561l.13.073 1.263-3.754-.09-.051c-1.068-.608-3.452-1.625-7.384-1.625zm0 .124c3.394 0 5.849.772 7.323 1.61l-1.181 3.517c-1.083-.6-3.29-1.575-6.284-1.575-4.523 0-6.243 2.713-6.243 4.96 0 3.116 2.015 4.648 6.585 6.446 5.6 2.163 8.45 4.876 8.45 9.752 0 5.145-3.785 9.595-11.595 9.595-3.191 0-6.681-.965-8.45-2.146l1.083-3.606c1.914 1.18 4.717 2.195 7.662 2.195 4.373 0 6.927-2.348 6.927-5.692 0-3.122-1.769-4.876-6.235-6.613-5.403-1.939-8.751-4.73-8.751-9.405 0-5.201 4.274-9.038 10.709-9.038z" fill="#fff"/></mask><g mask="url(#D)"><path d="M182.277 33.79h21.91v36.266h-21.91V33.789z" fill="#CC0B01"/></g></g><mask id="E" style="mask-type:luminance" maskUnits="userSpaceOnUse" x="205" y="35" width="25" height="34"><path d="M205.303 35.223h24.637v3.764h-24.637v-3.764zm10.071 3.764h4.445v29.628h-4.445V38.987z" fill="#fff"/></mask><g mask="url(#E)"><path d="M204.402 34.33h26.427v35.103h-26.427V34.33z" fill="#CC0B01"/></g><mask id="F" style="mask-type:luminance" maskUnits="userSpaceOnUse" x="205" y="35" width="25" height="34"><path d="M205.238 35.162H230v.124h-24.762v-.124zm24.638.124H230v3.638h-.124v-3.638zm-24.638 0h.125v3.638h-.125v-3.638zm0 3.638h10.196v.127h-10.196v-.127zm14.517 0H230v.127h-10.245v-.127zm0 .127h.127v29.5h-.127v-29.5zm-4.445 0h.124v29.5h-.124v-29.5zm0 29.5h4.572v.127h-4.572v-.127z" fill="#fff"/></mask><g mask="url(#F)"><path d="M204.402 34.33h26.427v35.103h-26.427V34.33z" fill="#CC0B01"/></g></g><defs><clipPath id="clip0_2006_7556"><path fill="#fff" d="M0 0h230v77H0z"/></clipPath></defs></svg>