<svg width="254" height="207" fill="none" xmlns="http://www.w3.org/2000/svg"><path d="M101.59 126.998c0-13.358 10.833-24.187 24.197-24.187 13.363 0 24.196 10.829 24.196 24.187 0 13.359-10.833 24.188-24.196 24.188-13.364 0-24.197-10.829-24.197-24.188z" fill="#E42B29"/><path d="M125.907 155.692c-15.853 0-28.704-12.847-28.704-28.693 0-15.847 12.851-28.693 28.704-28.693s28.704 12.846 28.704 28.693c0 15.846-12.851 28.693-28.704 28.693zm0-62.669c-18.772 0-33.989 15.212-33.989 33.976s15.217 33.975 33.989 33.975c18.771 0 33.989-15.211 33.989-33.975 0-18.764-15.218-33.976-33.989-33.976z" fill="#121212"/><path d="M108.375 66.731h-10.45l27.985-18.848 27.743 18.848h-9.848v34.216l-5.405-3.602V62.89l-12.49-8.283-12.371 8.524v33.615l-5.164 3.602V66.731zm-42.999 78.276v10.445l-18.857-27.973 18.857-27.733v9.845h34.229l-3.603 5.402h-34.47l-8.287 12.486 8.528 12.366H95.4l3.603 5.162H65.376zm121.545 0v10.445l18.856-27.973-18.856-27.733v9.845h-34.23l3.603 5.402h34.47l8.287 12.486-8.527 12.366h-33.629l-3.603 5.162h33.629zm-78.429 42.259H98.043l27.984 18.848 27.743-18.848h-9.848V153.05l-5.405 3.602v34.455l-12.49 8.284-12.371-8.524v-33.615l-5.164-3.602v33.616zm131.476-94.334c.355-.335.695-.777 1.02-1.329a8.914 8.914 0 00.817-1.905c.219-.719.552-1.282.999-1.688a2.966 2.966 0 011.619-.749c.832-.12 1.497.016 1.999.409.5.392.814 1.023.94 1.894l1.122 9.472 1.743 9.989c.04.559.039 1.044-.002 1.454a3.008 3.008 0 01-.3 1.073c-.165.266-.414.493-.75.684-.336.189-.782.324-1.336.404-.752.109-1.388.038-1.909-.21-.521-.249-.923-.654-1.206-1.219-.244-.571-.477-.992-.697-1.263-.221-.271-.431-.393-.629-.364-.277.04-.777.283-1.501.731-.723.447-1.648 1.116-2.771 2.005-1.131.849-1.976 1.577-2.535 2.182-.56.605-.819 1.047-.778 1.324.028.198.083.372.165.522a.939.939 0 00.387.368 5.626 5.626 0 001.316.719l6.511 3.122c.096.108.239.187.429.241.189.054.382.066.581.038.198-.029.351-.091.458-.187.107-.097.191-.21.254-.34.056-.17.125-.392.207-.666.081-.275.176-.601.283-.98.062-.413.288-.738.677-.976.391-.238.942-.408 1.654-.511.832-.119 1.493-.013 1.986.32.492.333.796.895.91 1.687l.78 6.249 1.093 6.326c.057.678-.078 1.212-.405 1.603-.329.39-.848.637-1.561.74-.277.04-.559.05-.844.031a7.64 7.64 0 01-.801-.097c-.255-.085-.493-.262-.714-.534-.221-.271-.451-.672-.689-1.203a4.347 4.347 0 00-1.045-1.364 8.394 8.394 0 00-1.681-1.152 57.752 57.752 0 01-1.8-.922 18.723 18.723 0 00-1.273-.634l-9.093-5.053c-.566-.281-1.067-.533-1.502-.753-.437-.22-.83-.426-1.18-.617a7.254 7.254 0 00-1.006-.461 4.027 4.027 0 00-.972-.224c-.515.074-1.091.147-1.726.219-.637.07-1.357.124-2.159.159-.759.068-1.367.126-1.825.172-.458.045-.746.077-.865.094l-.831.12-.772.111a3.285 3.285 0 00-.729.196 40.8 40.8 0 00-.831.332c-.266.118-.545.36-.835.726-.291.365-.575.849-.851 1.455-.276.605-.641 1.092-1.093 1.46-.452.368-.995.598-1.628.689-.594.086-1.079.085-1.455-.002a1.69 1.69 0 01-.93-.563c-.198-.255-.37-.604-.514-1.047a9.375 9.375 0 01-.346-1.556l-.858-8.056-1.383-7.495a12.801 12.801 0 01-.146-1.645c-.007-.464.03-.843.109-1.137.117-.3.366-.537.746-.713.378-.176.884-.309 1.518-.4.632-.091 1.21-.014 1.731.235.52.248.984.666 1.392 1.253.414.627.99 1.049 1.729 1.267.737.216 1.601.253 2.592.111l2.494-.36a24.715 24.715 0 002.565-.49c.721-.185 1.268-.385 1.642-.6.372-.215.866-.57 1.483-1.062a47.832 47.832 0 002.263-1.962l8.187-7.54 2.356-2.157zM200.83 58.354c.177.137.335.25.473.343a.92.92 0 00.466.065c.143-.022.304-.113.482-.275.151-.191.28-.363.387-.513.107-.151.205-.267.294-.348l3.982-6.536a2.19 2.19 0 00.21-.8.867.867 0 00-.225-.65 1.353 1.353 0 00-.39-.295.719.719 0 00-.443-.085 6.125 6.125 0 00-1.122.286l-6.942 2.56-.83.427c-.209.189-.352.36-.43.512a.643.643 0 00-.045.487c.047.173.124.347.23.523.105.175.239.352.401.53l.489.45 2.467 2.718c.186.264.368.465.546.601zm14.171-18.904c.632.13 1.205.477 1.717 1.042l2.706 3.07 2.799 2.905c.212.294.391.565.535.814.144.248.24.459.289.632.048.172.037.385-.031.637a9.412 9.412 0 01-.298.88L210.11 74.756a38.434 38.434 0 00-1.23 2.496c-.319.723-.563 1.35-.73 1.881a6.147 6.147 0 00-.275 1.712c-.016.61.06 1.245.227 1.906.166.662.157 1.279-.026 1.852-.184.573-.529 1.089-1.034 1.547-.654.593-1.306.86-1.957.8-.65-.061-1.299-.447-1.946-1.16l-6.571-7.688-6.533-6.749c-.269-.297-.461-.584-.575-.858-.116-.276-.136-.582-.062-.92.07-.28.212-.571.426-.873.213-.302.468-.587.766-.857a5.76 5.76 0 01.885-.681c.264-.158.525-.273.784-.346.229-.045.484-.033.765.038.28.07.543.21.789.422.274.183.536.352.785.506.247.154.484.264.708.332.224.068.459.058.705-.029.245-.088.516-.266.814-.535.416-.378.689-.748.821-1.11a1.175 1.175 0 00-.078-1.026 10.35 10.35 0 00-1.399-1.9l-4.849-5.432a16.916 16.916 0 00-1.266-1.126 6.61 6.61 0 00-1.032-.69c-.278-.127-.583-.134-.915-.023-.333.112-.706.357-1.122.734-.208.189-.316.502-.323.943-.007.44.086 1.005.28 1.696.249.693.311 1.314.186 1.861a2.72 2.72 0 01-.858 1.428 6.22 6.22 0 01-1.061.8 2.109 2.109 0 01-.952.295c-.286.043-.582-.028-.884-.213a4.18 4.18 0 01-.9-.768 51.645 51.645 0 01-1.09-1.245 29.65 29.65 0 01-1.284-1.639 35.879 35.879 0 00-1.169-1.377l-.566-.624-.95-1.047c-.364-.4-.79-.841-1.278-1.319a23.123 23.123 0 01-1.164-1.057 18.26 18.26 0 01-.547-.56 3.647 3.647 0 01-.617-.902 1.474 1.474 0 01-.102-.963c.099-.308.25-.62.45-.937.2-.317.463-.623.791-.92a2.607 2.607 0 011.525-.692c.57-.058 1.218.044 1.945.307.695.29 1.484.427 2.366.413.88-.014 1.827-.21 2.84-.586 1.01-.32 1.854-.599 2.534-.835a91.568 91.568 0 011.581-.54l25.232-8.912c.721-.22 1.397-.266 2.031-.136zm-71.255-21.393c-.02.353.01.662.09.927.079.265.25.483.514.655.262.171.598.292 1.005.363.69.12 1.35.121 1.979 0a4.09 4.09 0 001.741-.795c.525-.37.953-.84 1.283-1.41.33-.57.559-1.221.687-1.953.12-.69.134-1.368.041-2.034a5.183 5.183 0 00-.673-1.908c-.307-.64-.712-1.139-1.215-1.5-.503-.359-1.1-.6-1.791-.72-.487-.085-.896-.083-1.226.006-.33.09-.581.266-.752.528a4.349 4.349 0 00-.456.989c-.131.396-.247.878-.346 1.447l-.713 4.084c-.092.528-.149.97-.168 1.321zm21.732 21.661c.086.226.288.45.606.671.316.224.722.482 1.215.778.533.303.914.641 1.142 1.016.228.375.303.786.225 1.232a5.712 5.712 0 01-.676 1.892 6.554 6.554 0 01-1.315 1.593 3.7 3.7 0 01-1.665.903 4.83 4.83 0 01-1.955.036l-5.151-1.087-4.911-.668a3.981 3.981 0 01-.985-.298 2.152 2.152 0 01-.749-.57 3.16 3.16 0 01-.604-.86 10.4 10.4 0 01-.44-1.08l-4.616-13.872c-.14-.4-.267-.758-.379-1.07a6.743 6.743 0 00-.31-.746 1.092 1.092 0 00-.352-.501 1.388 1.388 0 00-.589-.228 1.099 1.099 0 00-.509.037c-.177.053-.34.15-.491.291-.15.142-.269.34-.355.598a5.83 5.83 0 00-.216.873l-1.106 6.34c-.121.69-.084 1.315.113 1.873.195.557.563 1.093 1.102 1.605.539.513.918 1.04 1.138 1.58.22.541.28 1.096.181 1.665-.107.61-.263 1.085-.469 1.426-.207.34-.49.585-.85.73-.314.114-.711.17-1.192.17a9.702 9.702 0 01-1.638-.16l-7.935-1.698-7.493-.993a9.134 9.134 0 01-1.565-.398 4.391 4.391 0 01-1.095-.568c-.249-.253-.411-.584-.486-.996-.075-.41-.063-.9.037-1.47.099-.568.344-1.07.734-1.505.39-.434.925-.801 1.606-1.102a4.014 4.014 0 001.69-1.4c.446-.635.754-1.44.924-2.415l1.221-6.634 1.405-8.047 1.088-6.594c.156-.893.131-1.714-.073-2.463a4.03 4.03 0 00-1.115-1.89c-.532-.553-.906-1.11-1.122-1.672-.217-.56-.279-1.105-.187-1.634.1-.569.244-1.035.434-1.4.189-.365.44-.604.753-.717.279-.16.641-.254 1.086-.282.445-.027.931.005 1.46.098l12.52 2.435 13.103 1.97c1.782.354 3.334.939 4.659 1.756a11.334 11.334 0 013.344 3.158 10.887 10.887 0 011.805 4.24c.297 1.54.289 3.203-.023 4.991-.191 1.097-.487 2.072-.887 2.923-.4.852-.904 1.58-1.513 2.186a149.729 149.729 0 01-4.276 2.898 2.263 2.263 0 00-.005.753 8 8 0 01.174.438c.056.157.152.33.286.521l4.836 10.454.411.888zM71.42 24.091c-.296-.817-.707-1.488-1.234-2.013a3.86 3.86 0 00-1.828-1.041c-.706-.207-1.282-.492-1.73-.857-.447-.363-.757-.787-.932-1.27-.175-.483-.268-.913-.277-1.288-.01-.374.064-.695.219-.962.156-.266.39-.52.703-.759.313-.239.693-.44 1.139-.6l7.835-2.583 7.932-3.185c.46-.124.882-.204 1.27-.24.386-.034.725.001 1.015.106.291.106.553.305.785.599.233.294.444.702.632 1.222.229.633.303 1.215.223 1.748-.081.534-.322 1-.724 1.397a5.89 5.89 0 00-.93 1.094 6.01 6.01 0 00-.22.52 1.074 1.074 0 00-.075.406c.006.25.065.587.176 1.009.11.423.274.931.49 1.526l2.104 5.986 3.675 10.149c.43 1.19.858 2.17 1.285 2.94.426.771.85 1.332 1.272 1.684.422.352 1.008.518 1.758.5.75-.02 1.664-.224 2.743-.615a16.96 16.96 0 002.653-1.212 15.586 15.586 0 002.268-1.577c.71-.593 1.267-1.205 1.67-1.834.403-.63.652-1.277.748-1.942a44.92 44.92 0 01.292-1.809c.098-.54.192-1.036.281-1.489a3.34 3.34 0 01.673-1.19 2.578 2.578 0 011.042-.692c.335-.12.653-.173.954-.155.3.017.596.079.886.183.267.156.503.344.709.564.206.22.369.497.49.831.149.41.33.996.543 1.76.213.764.459 1.704.738 2.822a57.52 57.52 0 00.746 2.758c.218.72.388 1.246.51 1.581.175.484.267.913.277 1.287.009.376-.046.69-.164.942-.169.23-.411.433-.726.61a8.023 8.023 0 01-1.197.528l-16.334 5.594-8.326 3.139-5.853 2.307a8.25 8.25 0 01-1.463.402 4.172 4.172 0 01-1.153.04c-.328-.092-.63-.287-.906-.587-.277-.299-.503-.69-.678-1.174a2.852 2.852 0 01-.106-1.601c.117-.547.388-1.107.81-1.681a3.85 3.85 0 00.738-1.97c.069-.739-.058-1.555-.381-2.447l-2.145-6.099-2.665-7.36-2.237-6.002zM41.93 54.95c-1.421-.903-2.769-1.643-4.044-2.222-1.306-.603-2.498-.778-3.577-.529-1.078.251-2.057.916-2.938 1.995-.882 1.08-1.32 2.198-1.315 3.357.004 1.16.448 2.33 1.332 3.514a28.882 28.882 0 003.06 3.614 49.934 49.934 0 003.949 3.567 52.876 52.876 0 004.425 3.265c1.44.943 2.825 1.701 4.156 2.273 1.337.628 2.56.816 3.665.562 1.106-.252 2.1-.919 2.98-1.998.68-.832 1.063-1.726 1.15-2.683.088-.956-.122-1.974-.627-3.055-.48-1.11-1.348-2.344-2.603-3.703-1.255-1.357-2.87-2.841-4.844-4.452l-.23-.189-.186-.15a45.597 45.597 0 00-4.353-3.166zm9.854 28.148a17.575 17.575 0 01-7.904 2.412c-2.782.197-5.546-.21-8.294-1.218-2.747-1.009-5.463-2.608-8.146-4.797-2.375-1.938-4.17-4.082-5.384-6.434-1.214-2.351-1.836-4.927-1.865-7.724a23 23 0 011.455-8.06c.967-2.6 2.445-5.118 4.434-7.554 2.139-2.62 4.437-4.663 6.891-6.128 2.455-1.464 5.055-2.335 7.8-2.613 2.77-.308 5.496.003 8.179.933s5.35 2.478 8.003 4.642c2.499 2.037 4.385 4.258 5.662 6.66 1.276 2.402 1.971 5.012 2.087 7.828.11 2.76-.338 5.465-1.343 8.112-1.005 2.647-2.54 5.235-4.604 7.763-2.19 2.682-4.514 4.742-6.971 6.178zM14.23 98.856c.307.17.57.384.787.646.214.302.367.618.458.948.09.331.116.716.076 1.155a95.311 95.311 0 00-2.832 2.884 146.11 146.11 0 00-2.45 2.678 11.172 11.172 0 00-1.824 2.765 9.6 9.6 0 00-.832 3.157c-.044.48-.025.945.054 1.395.08.451.2.905.36 1.362.164.418.385.751.665.997.28.248.64.391 1.079.431.64.058 1.367-.409 2.183-1.403.816-.993 1.72-2.511 2.712-4.557.953-2.048 1.937-3.892 2.953-5.532 1.016-1.64 2.042-3.057 3.078-4.252.996-1.199 2.272-2.05 3.829-2.552 1.557-.503 3.355-.662 5.394-.476 2.438.222 4.526.865 6.262 1.929 1.737 1.065 3.165 2.535 4.283 4.409a19.543 19.543 0 012.256 6.097c.425 2.194.523 4.55.293 7.067a35.605 35.605 0 01-.617 4.113c-.142.673-.3 1.302-.474 1.891a35.795 35.795 0 01-.507 1.585c-.207.505-.365.914-.475 1.226-.11.313-.17.549-.185.708a4.326 4.326 0 00-.133.472 4.467 4.467 0 00-.08.536l-.021.24-.017.18a.535.535 0 01.038.245l-.021.24c.025.164.031.315.019.455l-.036.389c-.047.52-.266.933-.657 1.24-.39.307-.974.526-1.752.656a18.91 18.91 0 01-2.26.248c-.728.034-1.412.022-2.052-.036l-2.044-.126c-.92-.084-1.693-.214-2.322-.393-.628-.178-1.112-.403-1.45-.675a2.406 2.406 0 01-.73-.943c-.149-.355-.201-.774-.158-1.253.018-.2.362-.652 1.03-1.357.67-.704 1.66-1.621 2.972-2.751 1.315-1.169 2.341-2.476 3.077-3.919.736-1.444 1.182-3.025 1.339-4.743a8.12 8.12 0 00-.005-1.602 6.411 6.411 0 00-.322-1.449c-.159-.458-.409-.813-.749-1.066-.34-.252-.769-.402-1.289-.449-.519-.047-1.125.402-1.815 1.345-.69.945-1.466 2.385-2.328 4.32a47.325 47.325 0 01-2.75 5.31c-.972 1.603-1.999 3.021-3.078 4.252a8.918 8.918 0 01-3.988 2.628c-1.579.521-3.407.687-5.486.498-2.238-.204-4.202-.765-5.892-1.685-1.69-.918-3.144-2.199-4.365-3.842a16.072 16.072 0 01-2.534-5.367c-.508-1.939-.659-4.048-.451-6.326.043-.479.137-1.064.28-1.757.145-.691.36-1.508.647-2.449.244-.904.445-1.671.602-2.302.159-.629.25-1.085.276-1.364a1.74 1.74 0 00-.09-.673c-.077-.249-.18-.561-.308-.935a3.617 3.617 0 01-.337-.937 2.87 2.87 0 01-.05-.79c.04-.439.156-.811.344-1.117a1.58 1.58 0 01.785-.654c.168-.065.365-.127.592-.188.227-.06.506-.135.836-.225a33.1 33.1 0 011.071-.145 49.68 49.68 0 011.252-.128 1421.264 1421.264 0 006.584-.61l.18.018c.44.04.813.144 1.12.313z" fill="#121212"/><path d="M112.219 132.208l9-.564c.195 1.461.592 2.574 1.19 3.34.975 1.238 2.367 1.858 4.177 1.858 1.35 0 2.391-.317 3.122-.95.731-.633 1.096-1.367 1.096-2.202 0-.794-.348-1.503-1.044-2.13-.696-.626-2.311-1.217-4.845-1.774-4.148-.932-7.107-2.171-8.875-3.715-1.782-1.545-2.673-3.514-2.673-5.908 0-1.572.456-3.058 1.368-4.456.912-1.399 2.283-2.498 4.114-3.298 1.83-.8 4.34-1.2 7.528-1.2 3.912 0 6.894.727 8.948 2.18 2.053 1.455 3.275 3.768 3.665 6.942l-8.917.521c-.237-1.377-.734-2.379-1.493-3.006-.759-.626-1.806-.939-3.143-.939-1.1 0-1.928.233-2.485.699-.557.467-.835 1.034-.835 1.701 0 .488.23.926.689 1.316.446.403 1.504.779 3.174 1.127 4.135.89 7.097 1.792 8.886 2.703 1.788.911 3.09 2.042 3.905 3.392.814 1.35 1.221 2.86 1.221 4.53 0 1.962-.543 3.771-1.628 5.427-1.086 1.656-2.604 2.912-4.553 3.768-1.949.855-4.406 1.284-7.371 1.284-5.207 0-8.813-1.002-10.817-3.006-2.005-2.004-3.14-4.551-3.404-7.64z" fill="#fff"/></svg>