<svg width="620" height="83" fill="none" xmlns="http://www.w3.org/2000/svg"><path d="M57.327 43.573c2.402 2.978 3.603 6.613 3.603 10.903 0 5.06-1.441 9.767-4.324 14.122-2.884 4.356-6.968 7.83-12.254 10.423-5.285 2.594-11.356 3.891-18.211 3.891-8.138 0-14.529-1.76-19.173-5.284C2.322 74.107 0 69.208 0 62.93c0-3.201.592-5.572 1.778-7.109 1.185-1.537 2.994-2.305 5.43-2.305 1.793 0 3.22.496 4.276 1.489 1.057.993 1.586 2.418 1.586 4.275 0 3.33.433 5.94 1.298 7.83.864 1.889 2.273 3.265 4.228 4.13 1.954.865 4.693 1.297 8.217 1.297 3.844 0 7.288-.865 10.332-2.594 3.042-1.73 5.413-4.002 7.111-6.82 1.697-2.818 2.547-5.828 2.547-9.03 0-2.69-.641-4.948-1.922-6.774-1.282-1.825-2.948-2.897-4.998-3.218-4.934 2.819-9.931 4.227-14.992 4.227-2.114 0-3.62-.351-4.517-1.057-.897-.704-1.345-1.857-1.345-3.458 0-2.306 1.233-4.067 3.7-5.284 2.465-1.216 6.358-1.953 11.676-2.21 6.535-4.097 9.803-9.477 9.803-16.139 0-2.817-.802-5.01-2.403-6.58-1.602-1.569-4.004-2.354-7.207-2.354-3.013 0-5.67.466-7.977 1.393-2.307.93-4.1 2.178-5.382 3.747-1.282 1.57-1.922 3.251-1.922 5.043 0 .514.063 1.186.192 2.018.128.833.192 1.474.192 1.921 0 1.602-.497 2.803-1.489 3.602-.994.802-2.323 1.201-3.989 1.201-2.435 0-4.197-.88-5.285-2.642-1.09-1.76-1.634-4.114-1.634-7.06 0-3.522 1.168-6.773 3.508-9.751 2.338-2.978 5.685-5.347 10.043-7.11C25.21 1.849 30.24.968 35.943.968c7.367 0 12.75 1.474 16.146 4.42 3.395 2.946 5.093 6.98 5.093 12.104 0 3.842-.85 7.478-2.547 10.903-1.698 3.427-4.18 6.389-7.448 8.886 4.357 1.218 7.737 3.315 10.14 6.293zm89.57 18.589c.48.768.72 1.825.72 3.17 0 2.562-.609 4.548-1.826 5.956-2.948 3.395-5.975 6.181-9.081 8.358-3.109 2.178-6.648 3.266-10.62 3.266-3.332 0-5.67-1.024-7.016-3.074-1.345-2.05-2.018-5.123-2.018-9.223 0-1.729.159-3.81.48-6.244-5.638 0-9.547-.063-11.724-.192-.129 1.794-.193 3.043-.193 3.746v2.018c-.064 3.972-.16 6.758-.288 8.358-.129 1.602-.513 2.77-1.153 3.506-.641.736-1.698 1.105-3.172 1.105-2.435 0-4.149-1.28-5.141-3.843-.994-2.56-1.49-6.66-1.49-12.296 0-8.325 1.185-16.235 3.556-23.729.577-1.857 1.505-3.218 2.787-4.082 1.281-.865 3.139-1.298 5.574-1.298 1.281 0 2.178.161 2.691.481.512.321.769.93.769 1.825 0 1.025-.48 3.331-1.442 6.917-.513 2.114-.994 4.676-1.441 7.685h12.301c.64-3.01 1.569-6.852 2.787-11.528.512-1.92 1.298-3.297 2.355-4.13 1.057-.832 2.643-1.25 4.757-1.25 1.473 0 2.499.178 3.075.529.577.353.865 1.009.865 1.97 0 1.6-.802 5.989-2.402 13.16-1.795 8.2-2.691 13.258-2.691 15.179 0 1.217.255 2.161.769 2.834.511.672 1.184 1.009 2.018 1.009 1.281 0 2.802-.784 4.565-2.354 1.761-1.569 4.116-4.114 7.064-7.637.768-.896 1.633-1.345 2.594-1.345.832 0 1.49.384 1.971 1.153z" fill="#121212"/><path d="M159.148 70.712c1.281-1.665 2.211-3.875 2.788-6.629l3.555-17.676c-2.691.064-5.174 1.073-7.448 3.026-2.275 1.954-4.084 4.532-5.43 7.733-1.345 3.204-2.018 6.597-2.018 10.183 0 1.986.4 3.459 1.201 4.42.801.96 1.906 1.44 3.316 1.44 1.408 0 2.754-.831 4.036-2.497zm-17.01 7.877c-2.371-2.882-3.556-6.66-3.556-11.336 0-5.123 1.185-9.974 3.556-14.554 2.37-4.578 5.526-8.262 9.466-11.048 3.941-2.786 8.121-4.178 12.542-4.178 1.408 0 2.354.273 2.835.816.481.545.88 1.522 1.201 2.93a22.653 22.653 0 014.229-.384c3.138 0 4.709 1.121 4.709 3.362 0 1.345-.481 4.548-1.442 9.607-1.474 7.365-2.21 12.489-2.21 15.37 0 .961.24 1.73.721 2.306.48.576 1.105.865 1.874.865 1.216 0 2.691-.784 4.42-2.354 1.73-1.569 4.069-4.114 7.016-7.637.769-.896 1.634-1.345 2.595-1.345.832 0 1.49.384 1.97 1.153.481.768.721 1.825.721 3.17 0 2.562-.61 4.548-1.826 5.956-2.628 3.266-5.415 6.02-8.361 8.262-2.948 2.242-5.799 3.362-8.553 3.362-2.115 0-4.053-.72-5.815-2.161-1.763-1.441-3.092-3.41-3.988-5.909-3.332 5.38-7.529 8.07-12.59 8.07-3.973 0-7.144-1.441-9.514-4.323z" fill="#121212"/><path d="M262.602 62.162c.481.768.721 1.825.721 3.17 0 2.627-.61 4.644-1.826 6.052-2.948 3.459-5.814 6.244-8.601 8.358-2.788 2.113-5.848 3.17-9.178 3.17-3.397 0-5.831-1.28-7.304-3.843-1.475-2.56-2.211-6.276-2.211-11.144 0-4.226.512-9.51 1.538-15.85h-.192c-1.603 2.754-3.109 5.86-4.517 9.318-1.41 3.458-2.98 7.558-4.71 12.297l-1.633 4.323c-.706 1.921-1.538 3.218-2.499 3.89-.961.673-2.114 1.01-3.46 1.01-1.41 0-2.435-.385-3.075-1.154-.641-.768-1.218-1.984-1.73-3.65-.577-1.922-1.057-4.563-1.441-7.926a89.863 89.863 0 01-.577-10.23c0-2.114.096-4.132.288-6.053h-.192c-1.602 6.213-3.171 11.32-4.709 15.322-1.538 4.004-3.621 7.27-6.247 9.8-2.628 2.53-5.959 3.794-9.995 3.794-3.396 0-6.006-1.184-7.832-3.555-1.827-2.368-2.74-5.346-2.74-8.934 0-3.201.736-5.875 2.211-8.021 1.473-2.145 3.556-3.218 6.247-3.218 2.562 0 3.844.864 3.844 2.593 0 .322-.033.577-.096.769-.514 3.074-.769 5.252-.769 6.532 0 2.178.48 3.267 1.442 3.267.896 0 1.792-.656 2.691-1.97.896-1.312 2.145-4.179 3.748-8.598a383.298 383.298 0 006.151-18.252c.639-1.985 1.585-3.442 2.834-4.372 1.25-.927 2.931-1.393 5.046-1.393 1.793 0 3.283.353 4.469 1.057 1.184.706 1.778 1.859 1.778 3.459 0 9.287.223 16.364.673 21.23h.192c1.088-3.65 2.787-7.844 5.093-12.584 2.307-4.739 4.133-7.845 5.478-9.319 1.216-1.28 2.451-2.257 3.7-2.93 1.249-.672 2.643-1.008 4.181-1.008 2.306 0 3.876.496 4.709 1.488.832.994 1.249 2.835 1.249 5.524 0 1.474-.033 2.93-.096 4.371a539.663 539.663 0 01-.192 3.987c-.257 4.74-.385 8.262-.385 10.568 0 3.65.256 6.116.77 7.397.511 1.282 1.472 1.921 2.883 1.921 2.561 0 5.797-3.362 9.706-10.087.704-1.153 1.569-1.73 2.595-1.73.832 0 1.49.385 1.97 1.154z" fill="#121212"/><path d="M258.278 78.925c-1.826-2.656-2.739-5.97-2.739-9.943 0-4.803.32-9.205.961-13.209.64-4.002 1.697-8.245 3.172-12.729.639-1.92 1.537-3.297 2.69-4.13 1.154-.832 2.98-1.25 5.478-1.25 1.409 0 2.387.226 2.932.673.543.45.817 1.121.817 2.017 0 .514-.353 2.243-1.058 5.188a99.876 99.876 0 00-1.537 6.437c-1.283 6.724-1.922 11.208-1.922 13.449 0 1.345.159 2.29.48 2.834.32.545.832.817 1.538.817.961 0 2.162-.961 3.604-2.883 1.441-1.92 2.979-4.834 4.613-8.741 1.633-3.906 3.219-8.71 4.757-14.41.512-1.922 1.297-3.299 2.355-4.131 1.056-.832 2.642-1.25 4.757-1.25 1.473 0 2.498.178 3.075.529.577.353.865 1.009.865 1.97 0 1.6-.802 5.989-2.403 13.16-1.794 8.2-2.691 13.258-2.691 15.179 0 1.217.256 2.161.769 2.834.512.672 1.185 1.009 2.018 1.009 1.281 0 2.802-.784 4.565-2.354 1.762-1.569 4.116-4.114 7.064-7.637.769-.896 1.634-1.345 2.595-1.345.832 0 1.49.384 1.97 1.153.481.768.721 1.825.721 3.17 0 2.562-.61 4.548-1.826 5.956-2.756 3.395-5.718 6.181-8.89 8.358-3.171 2.178-6.775 3.266-10.811 3.266-3.076 0-5.334-1.184-6.776-3.555-1.441-2.368-2.162-5.699-2.162-9.99-1.091 4.356-2.724 7.702-4.902 10.039-2.179 2.338-4.517 3.506-7.015 3.506-2.883 0-5.238-1.328-7.064-3.987z" fill="#121212"/><path d="M327.088 79.07c-.995-2.561-1.49-6.66-1.49-12.297 0-8.325 1.185-16.235 3.556-23.729.577-1.857 1.521-3.218 2.835-4.082 1.312-.865 3.155-1.298 5.526-1.298 1.281 0 2.177.161 2.691.481.512.321.769.93.769 1.825 0 1.025-.481 3.331-1.442 6.917a158.437 158.437 0 00-1.538 6.677c-.384 1.89-.705 4.243-.961 7.06 1.73-4.995 3.797-9.222 6.199-12.68 2.403-3.459 4.868-6.036 7.4-7.734 2.53-1.696 4.917-2.546 7.16-2.546 2.242 0 3.828.514 4.757 1.538.928 1.025 1.394 2.593 1.394 4.707 0 2.05-.61 5.764-1.826 11.144-.514 2.305-.865 4.035-1.057 5.187 3.203-7.877 6.759-13.608 10.667-17.196 3.908-3.586 7.559-5.38 10.956-5.38 4.164 0 6.247 2.082 6.247 6.245 0 2.498-.706 7.013-2.114 13.546-1.218 5.571-1.826 9.255-1.826 11.047 0 2.562.928 3.843 2.787 3.843 1.28 0 2.802-.784 4.565-2.354 1.761-1.569 4.116-4.114 7.064-7.637.768-.896 1.633-1.345 2.594-1.345.832 0 1.49.384 1.97 1.153.481.768.721 1.825.721 3.17 0 2.562-.61 4.548-1.826 5.956-2.755 3.395-5.718 6.181-8.889 8.358-3.172 2.178-6.776 3.266-10.812 3.266-3.268 0-5.735-.944-7.4-2.834-1.667-1.888-2.499-4.626-2.499-8.213 0-1.793.447-4.996 1.345-9.607.832-4.035 1.25-6.821 1.25-8.358 0-1.024-.353-1.537-1.058-1.537-.833 0-2.018 1.073-3.555 3.218-1.538 2.147-3.076 4.98-4.613 8.502a69.097 69.097 0 00-3.749 11.144c-.705 3.074-1.522 5.124-2.45 6.148-.93 1.025-2.419 1.537-4.469 1.537-2.114 0-3.7-1.009-4.757-3.026-1.057-2.017-1.586-4.467-1.586-7.35 0-2.432.32-5.955.961-10.566.512-4.098.769-6.788.769-8.07 0-1.024-.353-1.537-1.057-1.537-.961 0-2.179 1.153-3.652 3.458-1.475 2.306-2.9 5.253-4.277 8.838-1.378 3.588-2.483 7.11-3.315 10.568-.706 3.01-1.523 5.043-2.451 6.1-.93 1.057-2.388 1.585-4.373 1.585-2.435 0-4.149-1.28-5.141-3.843z" fill="#E42B29"/><path d="M409.544 51.21c-1.633 2.754-2.45 6.085-2.45 9.991v.192c3.779-.896 6.758-2.24 8.937-4.035 2.178-1.792 3.268-3.874 3.268-6.244 0-1.216-.337-2.193-1.009-2.93-.673-.735-1.586-1.105-2.739-1.105-2.371 0-4.373 1.378-6.007 4.131zm32.195 10.952c.481.768.721 1.825.721 3.17 0 2.562-.61 4.548-1.826 5.956-2.371 2.882-5.718 5.54-10.043 7.974-4.325 2.434-8.954 3.65-13.887 3.65-6.727 0-11.95-1.825-15.665-5.476-3.716-3.65-5.574-8.646-5.574-14.986 0-4.42.928-8.534 2.787-12.345 1.857-3.81 4.436-6.835 7.736-9.078 3.3-2.241 7.031-3.363 11.196-3.363 3.716 0 6.695 1.105 8.938 3.315 2.242 2.21 3.364 5.204 3.364 8.982 0 4.42-1.586 8.214-4.757 11.384-3.172 3.17-8.538 5.685-16.098 7.541 1.601 2.947 4.645 4.42 9.13 4.42 2.883 0 6.166-1.01 9.851-3.027a32.527 32.527 0 009.562-7.925c.769-.896 1.634-1.345 2.595-1.345.832 0 1.49.384 1.97 1.153z" fill="#E42B29"/><path d="M436.357 79.07c-.994-2.561-1.49-6.66-1.49-12.297 0-8.325 1.185-16.235 3.556-23.729.577-1.857 1.521-3.218 2.835-4.082 1.313-.865 3.155-1.298 5.526-1.298 1.281 0 2.178.161 2.691.481.513.321.769.93.769 1.825 0 1.025-.48 3.331-1.441 6.917a145.255 145.255 0 00-1.538 6.725c-.384 1.921-.706 4.291-.961 7.108 2.114-5.507 4.484-9.99 7.112-13.449 2.626-3.458 5.204-5.923 7.736-7.397 2.531-1.472 4.853-2.21 6.968-2.21 4.164 0 6.247 2.082 6.247 6.245 0 2.498-.706 7.013-2.115 13.546-1.218 5.571-1.826 9.255-1.826 11.047 0 2.562.928 3.843 2.787 3.843 1.281 0 2.802-.784 4.565-2.354 1.762-1.569 4.116-4.114 7.064-7.637.769-.896 1.634-1.345 2.595-1.345.832 0 1.49.384 1.97 1.153.48.768.721 1.825.721 3.17 0 2.562-.61 4.548-1.826 5.956-2.756 3.395-5.718 6.181-8.89 8.358-3.172 2.178-6.775 3.266-10.812 3.266-3.267 0-5.735-.944-7.4-2.834-1.666-1.888-2.499-4.626-2.499-8.213 0-1.793.448-4.996 1.346-9.607.832-4.035 1.249-6.821 1.249-8.358 0-1.024-.353-1.537-1.057-1.537-.833 0-2.003 1.073-3.508 3.218-1.506 2.147-3.044 4.98-4.613 8.502a66.04 66.04 0 00-3.796 11.144c-.706 3.01-1.523 5.043-2.451 6.1-.929 1.057-2.387 1.585-4.372 1.585-2.436 0-4.15-1.28-5.142-3.843z" fill="#E42B29"/><path d="M541.013 62.162c.481.768.721 1.825.721 3.17 0 2.562-.61 4.548-1.826 5.956-2.114 2.498-3.957 4.5-5.526 6.004-1.57 1.506-3.493 2.82-5.766 3.939-2.275 1.121-4.853 1.681-7.737 1.681-3.781 0-6.472-1.489-8.073-4.467-1.602-2.978-2.402-7.477-2.402-13.497 0-3.01.128-5.924.384-8.742h-.192c-2.563 8.518-5.718 15.082-9.466 19.693-3.748 4.611-8.025 6.917-12.83 6.917-3.268 0-5.831-1.184-7.688-3.555-1.86-2.368-2.788-5.346-2.788-8.934 0-3.201.736-5.795 2.211-7.78 1.473-1.985 3.556-2.98 6.247-2.98 1.216 0 2.129.257 2.739.77.608.513.848 1.217.72 2.113-.513 3.074-.768 5.188-.768 6.34 0 2.306.576 3.459 1.729 3.459.64 0 1.361-.48 2.163-1.441.8-.96 2.162-3.298 4.084-7.013 1.473-2.818 2.994-5.988 4.565-9.51 1.569-3.522 2.867-6.661 3.892-9.415 1.025-2.69 2.211-4.53 3.556-5.524 1.346-.992 3.268-1.49 5.767-1.49 2.434 0 4.228.481 5.381 1.442 1.154.96 1.73 2.53 1.73 4.707l-.192 7.109c-.257 5.38-.384 9.256-.384 11.624 0 6.725 1.377 10.087 4.132 10.087 1.153 0 2.29-.543 3.412-1.633 1.12-1.088 2.866-3.074 5.238-5.956l2.402-2.882c.769-.896 1.634-1.345 2.595-1.345.832 0 1.49.384 1.97 1.153z" fill="#E42B29"/><path d="M557.93 70.231c1.505-1.664 2.514-4.066 3.028-7.205a13.252 13.252 0 01-4.565-5.283 15.634 15.634 0 01-1.586-6.917c0-1.024.096-2.05.288-3.074h-.48c-2.564 0-4.694 1.233-6.391 3.698-1.699 2.466-2.547 5.941-2.547 10.423 0 3.523.688 6.213 2.066 8.07 1.377 1.859 2.995 2.786 4.854 2.786 2.049 0 3.827-.832 5.333-2.498zm28.111-16.043c.448.833.673 1.89.673 3.17 0 3.074-.93 4.9-2.787 5.476-3.844 1.345-8.073 2.114-12.686 2.306-1.218 5.38-3.62 9.687-7.208 12.92-3.589 3.236-7.657 4.852-12.205 4.852-3.844 0-7.128-.928-9.851-2.786-2.724-1.857-4.79-4.323-6.199-7.397-1.41-3.074-2.114-6.403-2.114-9.99 0-4.867.928-9.207 2.787-13.018 1.857-3.81 4.421-6.787 7.688-8.934 3.268-2.145 6.887-3.218 10.86-3.218 4.868 0 8.794 1.68 11.773 5.043 2.979 3.362 4.724 7.51 5.238 12.44 3.01-.191 6.598-.83 10.763-1.92.512-.128.962-.193 1.346-.193.832 0 1.473.418 1.922 1.25zm10.567 4.899c-.833-.576-1.249-1.472-1.249-2.69l.096-.768c1.088-7.172 2.561-15.338 4.421-24.497 1.857-9.158 3.587-17.067 5.189-23.728 1.024-4.098 3.811-6.149 8.361-6.149 4.1 0 6.151 1.314 6.151 3.94 0 .575-.096 1.216-.288 1.92-1.667 6.79-3.878 15.003-6.631 24.641-2.756 9.64-5.382 18.013-7.881 25.122-.706 2.05-2.371 3.074-4.998 3.074-1.282 0-2.339-.288-3.171-.864zm-6.871 21.52c-1.442-1.538-2.163-3.555-2.163-6.053 0-2.882.817-5.187 2.451-6.916 1.634-1.73 3.924-2.594 6.871-2.594 2.819 0 4.95.689 6.391 2.065 1.442 1.378 2.163 3.41 2.163 6.1 0 2.947-.834 5.3-2.499 7.061-1.667 1.763-3.94 2.642-6.824 2.642-2.82 0-4.949-.769-6.39-2.306z" fill="#E42B29"/></svg>