<svg width="25" height="18" fill="none" xmlns="http://www.w3.org/2000/svg"><g clip-path="url(#clip0_2001_4765)"><path d="M12.501 16.08a8.36 8.36 0 01-8.322.047 8.254 8.254 0 01-3.056-3.008 8.15 8.15 0 010-8.24 8.255 8.255 0 013.056-3.007 8.36 8.36 0 018.322.047 8.359 8.359 0 018.323-.047A8.256 8.256 0 0123.88 4.88a8.15 8.15 0 010 8.24 8.255 8.255 0 01-3.056 3.007 8.361 8.361 0 01-8.323-.047zm1.934-1.557a6.079 6.079 0 005.63-.577 5.984 5.984 0 001.954-2.144 5.915 5.915 0 000-5.604 5.984 5.984 0 00-1.953-2.145 6.078 6.078 0 00-5.63-.577A8.133 8.133 0 0116.59 9a8.139 8.139 0 01-2.157 5.523M10.566 3.476a6.078 6.078 0 00-5.63.577 5.984 5.984 0 00-1.954 2.145 5.915 5.915 0 000 5.604 5.984 5.984 0 001.954 2.144 6.08 6.08 0 005.63.577A8.133 8.133 0 018.41 9c0-2.127.816-4.066 2.156-5.524zm1.935 1.254a5.938 5.938 0 00-1.347 1.952 5.917 5.917 0 001.347 6.587 5.938 5.938 0 001.347-1.952A5.89 5.89 0 0014.32 9a5.89 5.89 0 00-.47-2.318A5.938 5.938 0 0012.5 4.73z" fill="#9C9A9A"/></g><defs><clipPath id="clip0_2001_4765"><path fill="#fff" d="M0 0h25v18H0z"/></clipPath></defs></svg>