<svg width="230" height="82" fill="none" xmlns="http://www.w3.org/2000/svg"><g clip-path="url(#clip0_2006_7504)" fill-rule="evenodd" clip-rule="evenodd" fill="#ED1C24"><path d="M100.682 13.91h4.837c1.763 0 2.651.87 2.651 2.832v6.956h9.477v-6.956c0-1.962.874-2.832 2.862-2.832h4.626v4.571h-1.975l-.225.224V38.28h-5.288v-9.788h-9.477v9.788h-5.288V18.705s0-.224-.226-.224h-1.974v-4.57zm38.331-.433l.119.013v5.019l-.119-.027c-3.963 0-7.051 3.267-7.051 7.403 0 4.347 3.088 7.825 7.051 7.825l.119-.026v5.018l-.119.013c-7.051 0-12.777-5.65-12.777-12.83 0-6.968 5.726-12.408 12.777-12.408zm.12.011l2.452.237c5.818 1.133 10.205 6.06 10.205 12.159 0 6.27-4.387 11.394-10.205 12.566l-2.452.25v-5.018l2.69-.58c2.598-1.185 4.467-3.965 4.467-7.218a7.39 7.39 0 00-4.467-6.824l-2.69-.553v-5.019zm13.756.422h10.908v4.571h-3.42v5.006h3.42v4.347h-3.42v5.44c0 .224 0 .224.225.224h3.195v4.782h-6.057c-1.763 0-2.638-.87-2.638-2.833V18.481h-2.213v-4.57zm10.908 0h.106c4.851 0 7.714 2.608 7.714 6.534 0 2.384-1.1 3.912-2.201 5.005 1.989.87 3.301 3.043 3.301 5.428 0 4.57-3.526 7.403-8.589 7.403h-.331v-4.782h.543c1.763 0 2.876-1.093 2.876-2.832 0-1.739-1.113-2.832-2.876-2.832h-.543v-4.347h.106c1.551 0 2.425-1.094 2.425-2.608 0-1.529-.874-2.398-2.425-2.398h-.106v-4.57zm19.06 0h2.637v6.968c-.212.435-.437 1.08-.437 1.74l-1.763 5.005h2.2v4.558h-3.512l-1.551 3.925c-.437 1.515-1.312 2.174-3.075 2.174h-3.313v-4.782h1.1c.451 0 .451 0 .663-.224l7.051-19.364zm2.637 0h2.651l7.051 19.364c.212.224.212.224.649.224h.888v4.782h-3.088c-1.763 0-2.637-.659-3.088-2.398l-1.537-3.701h-3.526v-4.558h2.2l-1.749-5.006c0-.658-.226-1.304-.451-1.739V13.91zm-84.812 31.324h19.165c1.762 0 2.862.87 2.862 2.832v16.532c0 .211 0 .211.226.211h1.763v4.795h-4.626c-1.988 0-2.863-.87-2.863-2.832V50.029s0-.224-.225-.224h-8.814v19.799h-5.288V49.805h-2.2v-4.57zm37.892-.434l.106.014v5.019l-.106-.027c-3.976 0-7.051 3.267-7.051 7.404 0 4.346 3.075 7.824 7.051 7.824l.106-.026v5.019l-.106.013c-7.051 0-12.564-5.665-12.564-12.83 0-6.969 5.513-12.41 12.564-12.41zm.108.015l2.531.237c5.925 1.132 10.139 6.059 10.139 12.158 0 6.27-4.214 11.394-10.139 12.567l-2.531.25v-5.019l2.796-.58c2.638-1.185 4.374-3.964 4.374-7.218 0-3.109-1.736-5.717-4.374-6.824l-2.796-.553v-5.018zm13.769.419h4.851c1.763 0 2.638.87 2.638 2.832v16.532c0 .211 0 .211.225.211h6.388V45.234h5.288V64.81h6.389c.225 0 .225 0 .225-.21V48.065c0-1.962.875-2.832 2.638-2.832h4.851v4.571h-1.989c-.225 0-.225.224-.225.224v16.743c0 1.962-.875 2.832-2.637 2.832h-23.579c-1.975 0-2.863-.87-2.863-2.832V50.029s0-.224-.212-.224h-1.988v-4.57zm37.668 0h16.527c1.988 0 2.651.87 2.651 2.609v4.136h-4.851v-1.95c0-.224 0-.224-.225-.224h-3.075v19.799h-5.302V49.805h-3.074c-.226 0-.226 0-.226.224v1.95h-4.851v-4.136c0-1.74.663-2.609 2.426-2.609zm26.003 0h2.638v6.969a3.961 3.961 0 00-.437 1.738l-1.763 5.006h2.2v4.558h-3.526l-1.537 3.701c-.437 1.74-1.325 2.398-3.088 2.398h-3.3v-4.795h1.1c.45 0 .45 0 .662-.21l7.051-19.365zm2.64 0h2.637l7.065 19.364c.212.211.212.211.662.211h.875v4.795h-3.088c-1.763 0-2.638-.659-3.088-2.398l-1.538-3.701h-3.525v-4.558h2.2l-1.763-5.006c0-.658-.212-1.304-.437-1.738v-6.969zM66.727 24.277c.252-.079.583.08.915.514l14.977 14.57c.874.869.874 2.186 0 2.831L67.642 56.985c-.332.435-.663.54-.915.409-.252-.132-.41-.514-.41-1.067V25.226c0-.54.159-.87.41-.949zM41.107 0h1.06l1.021.422 15.414 15.227c.663.87.438 1.528-.662 1.528h-6.39c-1.1 0-1.975.87-1.975 1.963v11.302c0 1.093-.888 1.963-2.213 1.963H36.137c-1.1 0-1.988-.87-1.988-1.963V19.14c0-1.093-.875-1.963-1.988-1.963h-6.826c-1.1 0-1.325-.658-.663-1.528L40.1.422 41.107 0zM16.958 23.948c.279.131.45.513.45 1.067V56.76c0 .553-.171.882-.45.988-.265.105-.65 0-1.1-.33L.656 42.192c-.875-.646-.875-1.963 0-2.832l15.202-15.004c.45-.435.835-.54 1.1-.408zm19.179 24.99h11.226c1.326 0 2.214.869 2.214 1.962v11.961c0 1.304.874 2.173 1.974 2.173h5.951c1.1 0 1.538.646.663 1.305L43.188 81.342c-.45.435-.994.659-1.55.659-.544 0-1.1-.224-1.538-.659L25.123 66.34c-.888-.659-.45-1.305.65-1.305h6.388c1.114 0 1.988-.869 1.988-2.173v-11.96c0-1.094.888-1.964 1.988-1.964z"/></g><defs><clipPath id="clip0_2006_7504"><path fill="#fff" d="M0 0h230v82H0z"/></clipPath></defs></svg>