<svg width="411" height="148" fill="none" xmlns="http://www.w3.org/2000/svg"><path d="M218.792 50.185c-2.115-4.872-2.234-10.826.931-15.615 3.193-4.797 8.893-7.587 14.477-9.257 2.846-.829 5.788-1.403 8.764-1.643 3.023-.187 5.685-.362 8.44-.984 5.397-1.103 10.481-3.805 12.648-8.196.336-.696 1.229-1.011 1.994-.705.613.245.956.826.896 1.4-.633 5.606-1.884 11.024-3.635 16.379-1.825 5.303-4.057 10.606-7.68 15.232-3.535 4.585-8.648 8.613-14.886 9.787-6.241 1.083-12.45-.596-17.731-3.152 5.572 1.987 11.714 3.26 17.381 1.8 5.677-1.338 10.143-5.192 13.256-9.65 6.194-9.07 8.991-20.002 10.269-30.624l2.891.695c-2.803 5.42-8.972 8.395-14.78 9.484-2.904.626-6.067.786-8.834.916-2.81.223-5.61.603-8.332 1.276-5.39 1.354-10.734 3.745-13.904 7.961-3.31 4.152-3.646 9.84-2.165 14.896zm-9.758.601c2.316-6.532 2.758-13.86-.346-20.018-1.481-3.08-3.919-5.701-6.815-7.739-2.827-2.154-6.291-3.49-9.715-4.736l-.004-.002-.177-.076c-1.427-.616-3.327-1.112-5.077-1.508-1.794-.4-3.615-.728-5.447-1.031-3.664-.61-7.381-1.023-11.107-1.357l.165.006c-2.397 0-4.617-.264-6.885-.696-2.248-.444-4.46-1.104-6.572-2.02a21.861 21.861 0 01-5.769-3.716c-1.729-1.524-2.959-3.446-3.954-5.422l2.926-.624c.788 7.243 2.237 14.562 4.417 21.618 2.196 7.055 5.161 13.941 9.38 20.121 4.211 6.11 10.201 11.488 17.898 13.568 7.693 2.16 16.087.692 23.662-1.934-7.299 3.202-15.792 5.075-24.069 3.27-8.256-1.935-14.859-7.483-19.486-13.716-4.724-6.29-7.684-13.436-10.078-20.606-2.305-7.228-3.929-14.564-4.755-22.103-.082-.757.525-1.43 1.356-1.506.662-.06 1.266.277 1.528.797l.042.086c.83 1.658 1.809 3.274 3.253 4.567a18.83 18.83 0 004.929 3.246c3.692 1.649 8.012 2.5 12.121 2.583l.097.002.071.005c3.78.378 7.555.837 11.309 1.502 1.88.314 3.745.733 5.6 1.205 1.883.51 3.636.97 5.586 1.893l-.179-.077c3.568 1.423 7.157 2.95 10.113 5.354 2.995 2.282 5.57 5.176 6.943 8.54 2.836 6.715 1.956 14.178-.961 20.524z" fill="#2E8942"/><path d="M36.707 65.613H22.241v30.452h-7.77V65.613H0v-3.655h36.707v3.655zm30.931 30.452h-7.504v-15.35c0-2.338-.642-4.016-1.93-5.042-1.284-1.023-3.142-1.534-5.574-1.534h-6.966v21.926h-7.5V61.958h7.5v8.77h6.966c5.112 0 8.888.837 11.336 2.509 2.444 1.674 3.672 4.165 3.672 7.479v15.349zm18.588-23.144c-1.037 0-2.001.178-2.89.537-.898.359-1.671.924-2.333 1.704-.662.779-1.197 1.787-1.607 3.02-.41 1.236-.634 2.73-.67 4.484H93.73c0-1.69-.215-3.15-.646-4.387-.426-1.232-.989-2.247-1.686-3.045-.698-.794-1.5-1.377-2.413-1.751a7.215 7.215 0 00-2.759-.562zm1.878 20.708c1.75 0 3.382-.276 4.9-.83 1.52-.552 3.011-1.33 4.478-2.339l2.142 2.926a12.735 12.735 0 01-2.385 1.508c-.909.457-1.894.837-2.947 1.145a26.44 26.44 0 01-3.297.733c-1.14.177-2.285.268-3.43.268-2.535 0-4.848-.3-6.937-.903-2.09-.602-3.868-1.479-5.331-2.632a11.81 11.81 0 01-3.405-4.263c-.802-1.69-1.204-3.636-1.204-5.847 0-2.175.382-4.115 1.152-5.823.765-1.704 1.838-3.132 3.214-4.285 1.375-1.153 3.01-2.03 4.904-2.632 1.894-.602 3.984-.902 6.268-.902 2.145 0 4.163.293 6.057.877 1.894.587 3.537 1.44 4.928 2.56a12.582 12.582 0 013.326 4.067c.821 1.591 1.232 3.393 1.232 5.409v3.411H78.886c.43 2.694 1.455 4.626 3.082 5.797 1.623 1.168 3.668 1.755 6.136 1.755zm38.148-19.489h-6.428c-2.432 0-4.29.594-5.574 1.78-1.288 1.185-1.93 2.946-1.93 5.285v14.86h-7.5v-14.86c0-3.314 1.153-5.888 3.453-7.722 2.305-1.838 5.618-2.755 9.941-2.755h8.038v3.411zm1.455-3.412h27.863c5.108 0 8.888.837 11.336 2.509 2.445 1.675 3.669 4.165 3.669 7.479v15.349h-7.5v-15.35c0-2.338-.642-4.016-1.93-5.042-1.288-1.022-3.142-1.534-5.575-1.534h-2.679v21.926h-7.5V74.139h-10.184v21.926h-7.5V70.728zm62.266 23.144c1.14 0 2.213-.196 3.214-.584a6.903 6.903 0 002.627-1.827c.75-.83 1.348-1.91 1.795-3.241.446-1.33.67-2.94.67-4.826 0-1.881-.224-3.49-.67-4.821-.447-1.33-1.045-2.41-1.795-3.241a6.905 6.905 0 00-2.627-1.827 8.822 8.822 0 00-3.214-.584 8.828 8.828 0 00-3.218.584c-.997.391-1.874 1-2.623 1.827-.75.83-1.348 1.91-1.795 3.24-.446 1.331-.67 2.94-.67 4.822 0 1.886.224 3.495.67 4.826.447 1.33 1.045 2.41 1.795 3.24a6.92 6.92 0 002.623 1.828 8.828 8.828 0 003.218.584zm0-24.12c2.392 0 4.598.302 6.619.903 2.017.602 3.74 1.48 5.171 2.632a11.989 11.989 0 013.346 4.285c.805 1.708 1.208 3.647 1.208 5.822 0 2.212-.403 4.159-1.208 5.848a12.04 12.04 0 01-3.346 4.263c-1.431 1.153-3.154 2.03-5.171 2.633-2.021.601-4.227.902-6.619.902-2.432 0-4.645-.3-6.647-.903-2.002-.602-3.716-1.479-5.143-2.632a12.095 12.095 0 01-3.35-4.263c-.801-1.69-1.204-3.636-1.204-5.848 0-2.175.403-4.114 1.204-5.822a12.043 12.043 0 013.35-4.285c1.427-1.153 3.141-2.03 5.143-2.632 2.002-.602 4.215-.902 6.647-.902zm49.304-8.769c3.503 0 6.817.504 9.937 1.512 3.116 1.008 5.777 2.37 7.969 4.093l-2.889 2.922c-2.192-1.722-4.495-2.962-6.902-3.727a24.844 24.844 0 00-7.539-1.146c-1.964 0-3.773.287-5.428.852-1.655.57-3.09 1.44-4.302 2.607-1.212 1.17-2.158 2.657-2.832 4.459-.675 1.801-1.01 3.955-1.01 6.456 0 2.567.348 4.768 1.04 6.602.692 1.834 1.654 3.346 2.888 4.532 1.234 1.185 2.725 2.062 4.478 2.632 1.749.565 3.666.852 5.747.852 1.732 0 3.223-.131 4.474-.392 1.25-.257 2.303-.566 3.15-.924 1.002-.392 1.827-.845 2.484-1.364v-9.258h-7.508v-3.165h15.881V91.92c-1.423.975-3.078 1.838-4.965 2.585-1.62.649-3.61 1.232-5.978 1.755-2.368.518-5.076.779-8.119.779-3.464 0-6.584-.392-9.356-1.171-2.772-.78-5.14-1.932-7.105-3.459a15.13 15.13 0 01-4.504-5.651c-1.04-2.24-1.56-4.826-1.56-7.748 0-2.922.52-5.506 1.56-7.747a15.469 15.469 0 014.419-5.652c1.903-1.526 4.216-2.679 6.932-3.458 2.712-.78 5.725-1.171 9.038-1.171zm46.32 13.157h-6.928c-2.622 0-4.624.594-6.008 1.78-1.388 1.185-2.08 2.946-2.08 5.285v14.86h-8.085v-14.86c0-3.314 1.242-5.888 3.722-7.722 2.484-1.838 6.056-2.755 10.715-2.755h8.664v3.411zm15.136-1.219c-1.117 0-2.157.178-3.116.537a6.36 6.36 0 00-2.514 1.704c-.713.779-1.289 1.787-1.732 3.02-.443 1.236-.683 2.73-.722 4.484h16.173c0-1.69-.232-3.15-.696-4.387-.46-1.232-1.066-2.247-1.818-3.045a6.933 6.933 0 00-2.601-1.751 8.301 8.301 0 00-2.974-.562zm2.025 20.708c1.886 0 3.644-.276 5.282-.83 1.637-.552 3.245-1.33 4.826-2.339l2.308 2.926a13.9 13.9 0 01-2.57 1.508 19.74 19.74 0 01-3.176 1.145 30.445 30.445 0 01-3.554.733c-1.23.177-2.463.268-3.697.268-2.733 0-5.226-.3-7.478-.903-2.252-.602-4.169-1.479-5.746-2.632a12 12 0 01-3.671-4.263c-.863-1.69-1.298-3.636-1.298-5.847 0-2.175.413-4.115 1.242-5.823a11.966 11.966 0 013.465-4.285c1.482-1.153 3.245-2.03 5.286-2.632 2.042-.602 4.294-.902 6.756-.902 2.313 0 4.487.293 6.529.877 2.041.587 3.812 1.44 5.312 2.56a12.82 12.82 0 013.584 4.067c.886 1.591 1.329 3.393 1.329 5.409v3.411h-24.666c.464 2.694 1.569 4.626 3.322 5.797 1.749 1.168 3.954 1.755 6.615 1.755zm33.612-20.708c-1.117 0-2.158.178-3.116.537a6.358 6.358 0 00-2.514 1.704c-.714.779-1.29 1.787-1.732 3.02-.443 1.236-.684 2.73-.722 4.484h16.173c0-1.69-.232-3.15-.697-4.387-.459-1.232-1.065-2.247-1.818-3.045a6.938 6.938 0 00-2.6-1.751 8.305 8.305 0 00-2.974-.562zm2.024 20.708c1.887 0 3.645-.276 5.283-.83 1.637-.552 3.244-1.33 4.826-2.339l2.308 2.926a13.933 13.933 0 01-2.57 1.508c-.98.457-2.042.837-3.176 1.145a30.42 30.42 0 01-3.555.733 25.808 25.808 0 01-3.696.268c-2.733 0-5.226-.3-7.478-.903-2.252-.602-4.169-1.479-5.747-2.632a12.008 12.008 0 01-3.67-4.263c-.864-1.69-1.298-3.636-1.298-5.847 0-2.175.413-4.115 1.242-5.823a11.964 11.964 0 013.464-4.285c1.483-1.153 3.245-2.03 5.287-2.632 2.041-.602 4.293-.902 6.756-.902 2.312 0 4.487.293 6.529.877 2.041.587 3.812 1.44 5.312 2.56a12.82 12.82 0 013.584 4.067c.886 1.591 1.328 3.393 1.328 5.409v3.411h-24.665c.464 2.694 1.568 4.626 3.322 5.797 1.749 1.168 3.954 1.755 6.614 1.755zm50.075 2.436h-8.089v-15.35c0-2.338-.691-4.016-2.079-5.042-1.385-1.023-3.387-1.534-6.009-1.534h-7.509v21.926h-8.084V70.728h15.593c5.51 0 9.58.837 12.219 2.509 2.635 1.674 3.958 4.165 3.958 7.479v15.349z" fill="#080909"/><path d="M279.093 107.891c-.144-.74-.463-1.291-.957-1.653-.495-.366-1.105-.548-1.831-.548-.351 0-.678.047-.98.134a2.621 2.621 0 00-.822.406 2.43 2.43 0 00-.614.689 2.985 2.985 0 00-.359.972h5.563zm-2.596 4.753a6.742 6.742 0 01-1.978-.272 4.53 4.53 0 01-1.527-.787 3.502 3.502 0 01-.981-1.258c-.231-.497-.347-1.059-.347-1.686 0-.631.112-1.192.343-1.689.223-.497.542-.914.949-1.258a4.226 4.226 0 011.468-.783 6.165 6.165 0 011.881-.276 6.37 6.37 0 011.906.269c.57.181 1.061.442 1.468.783.406.34.717.761.941 1.258.215.496.327 1.062.327 1.696v.323h-7.453c.04.449.144.837.311 1.164.168.326.383.598.65.808.267.214.575.374.925.479.343.105.718.156 1.117.156.303 0 .598-.033.885-.095.287-.061.542-.148.774-.268.223-.116.41-.261.554-.439.143-.174.223-.373.239-.594h1.818a2.368 2.368 0 01-.474 1.055 3.067 3.067 0 01-.933.776c-.379.21-.81.366-1.296.475a7.218 7.218 0 01-1.567.163zm12.172 0a6.35 6.35 0 01-1.906-.269 4.222 4.222 0 01-1.468-.775 3.429 3.429 0 01-.941-1.255c-.219-.497-.327-1.066-.327-1.704 0-.641.112-1.211.335-1.707a3.52 3.52 0 01.945-1.258 4.174 4.174 0 011.464-.776 6.487 6.487 0 011.898-.265c.534 0 1.033.055 1.495.163a4.33 4.33 0 011.216.472c.343.206.63.464.853.772.224.308.367.66.431 1.055h-1.818a1.198 1.198 0 00-.204-.606 1.458 1.458 0 00-.474-.438 2.326 2.326 0 00-.678-.268 3.55 3.55 0 00-.821-.095c-.415 0-.798.062-1.141.185a2.467 2.467 0 00-.901.551 2.462 2.462 0 00-.582.921c-.143.37-.211.801-.211 1.294 0 .479.068.903.203 1.269.136.366.327.674.582.921.248.246.55.431.893.555.351.123.734.185 1.157.185.287 0 .558-.03.821-.088a2.35 2.35 0 00.678-.264c.195-.116.355-.265.474-.439.12-.177.188-.377.204-.605h1.818a2.398 2.398 0 01-.431 1.058c-.223.305-.51.562-.853.773-.351.21-.754.366-1.216.475a6.562 6.562 0 01-1.495.163zm11.293-1.073a3.37 3.37 0 001.14-.185c.351-.124.646-.308.901-.555a2.52 2.52 0 00.578-.921c.136-.366.204-.79.204-1.269a3.74 3.74 0 00-.208-1.294 2.477 2.477 0 00-.59-.921 2.431 2.431 0 00-.889-.551 3.346 3.346 0 00-1.136-.185c-.415 0-.798.062-1.141.185a2.48 2.48 0 00-.901.551 2.475 2.475 0 00-.582.921c-.143.37-.211.801-.211 1.294 0 .479.068.903.203 1.269.135.366.327.674.582.921.247.247.55.431.893.555.351.123.734.185 1.157.185zm0-6.936c.701 0 1.335.091 1.906.269.57.181 1.06.442 1.467.783.407.341.718.761.941 1.258.215.496.327 1.062.327 1.696 0 .628-.112 1.189-.327 1.686a3.487 3.487 0 01-.941 1.258 4.342 4.342 0 01-1.467.787 6.282 6.282 0 01-1.906.272 6.35 6.35 0 01-1.906-.269 4.222 4.222 0 01-1.468-.775 3.429 3.429 0 01-.941-1.255c-.219-.497-.327-1.066-.327-1.704 0-.641.112-1.21.335-1.707a3.52 3.52 0 01.945-1.258 4.182 4.182 0 011.464-.776 6.487 6.487 0 011.898-.265zm21.281 8.009c-2.712 0-4.127-.823-4.247-2.469h1.771c0 .931.817 1.396 2.452 1.396.733 0 1.292-.116 1.674-.352.383-.236.575-.526.575-.878a.776.776 0 00-.112-.427c-.08-.109-.223-.211-.431-.297a5.228 5.228 0 00-.881-.261 38.138 38.138 0 00-1.459-.291c-1.173-.235-2.022-.485-2.548-.757-.534-.283-.802-.776-.802-1.472 0-.319.088-.613.264-.881.175-.268.426-.5.745-.693a4.256 4.256 0 011.168-.46 6.465 6.465 0 011.508-.167c2.583 0 3.907.715 3.971 2.135h-1.758c-.064-.717-.762-1.08-2.094-1.08-.287 0-.554.022-.801.066a2.808 2.808 0 00-.654.188 1.167 1.167 0 00-.439.319.666.666 0 00-.163.446c0 .308.151.526.454.656.303.127 1.049.305 2.237.526.606.112 1.133.232 1.571.366.447.13.81.272 1.097.42.295.142.514.341.658.602.143.258.215.569.215.932 0 .344-.096.667-.279.968a2.442 2.442 0 01-.806.768 4.285 4.285 0 01-1.248.512 6.685 6.685 0 01-1.638.185zm8.317 1.664c.877 0 1.591-.617 2.141-1.849l-3.744-7.657h1.902l2.62 5.993 2.631-5.993h1.902l-3.744 7.657c-.183.369-.355.692-.506.975-.16.279-.295.518-.415.714a3.581 3.581 0 01-.438.551 2.753 2.753 0 01-1.228.743 2.86 2.86 0 01-.822.113c-.215 0-.419-.008-.61-.022a4.171 4.171 0 01-.526-.08v-1.247c.287.065.566.102.837.102zm14.272-1.664c-2.711 0-4.126-.823-4.246-2.469h1.77c0 .931.818 1.396 2.452 1.396.734 0 1.292-.116 1.675-.352s.574-.526.574-.878a.775.775 0 00-.111-.427c-.08-.109-.223-.211-.431-.297a5.228 5.228 0 00-.881-.261 38.138 38.138 0 00-1.459-.291c-1.173-.235-2.022-.485-2.548-.757-.535-.283-.802-.776-.802-1.472 0-.319.088-.613.263-.881.176-.268.427-.5.746-.693a4.256 4.256 0 011.168-.46 6.462 6.462 0 011.507-.167c2.584 0 3.908.715 3.972 2.135h-1.758c-.064-.717-.762-1.08-2.094-1.08-.287 0-.554.022-.801.066a2.794 2.794 0 00-.654.188 1.167 1.167 0 00-.439.319.661.661 0 00-.163.446c0 .308.151.526.454.656.303.127 1.049.305 2.237.526.606.112 1.132.232 1.571.366.447.13.809.272 1.096.42.296.142.515.341.659.602.143.258.215.569.215.932 0 .344-.096.667-.279.968a2.452 2.452 0 01-.806.768 4.297 4.297 0 01-1.248.512 6.688 6.688 0 01-1.639.185zm11.614-.168a8.95 8.95 0 01-1.268.084c-.575 0-1.017-.058-1.328-.178-.311-.116-.542-.279-.694-.486a1.407 1.407 0 01-.267-.739 8.633 8.633 0 01-.044-.947v-4.335h-1.22v-1.074h1.22v-1.892h1.758v1.892h1.603v1.074h-1.603v4.408c0 .272.02.489.064.649a.853.853 0 00.192.366.58.58 0 00.307.159c.119.026.251.04.394.04.304 0 .599-.021.886-.058v1.037zm10.006-4.585c-.143-.74-.462-1.291-.957-1.653-.494-.366-1.105-.548-1.83-.548a3.54 3.54 0 00-.981.134 2.626 2.626 0 00-.821.406 2.418 2.418 0 00-.615.689 2.961 2.961 0 00-.358.972h5.562zm-2.596 4.753a6.752 6.752 0 01-1.978-.272 4.53 4.53 0 01-1.527-.787 3.524 3.524 0 01-.981-1.258c-.231-.497-.347-1.059-.347-1.686 0-.631.112-1.192.343-1.689a3.53 3.53 0 01.949-1.258 4.235 4.235 0 011.468-.783 6.166 6.166 0 011.882-.276 6.37 6.37 0 011.906.269c.57.181 1.06.442 1.467.783.407.34.718.761.941 1.258.215.496.327 1.062.327 1.696v.323h-7.452c.04.449.143.837.311 1.164.167.326.383.598.65.808.267.214.574.374.925.479.343.105.717.156 1.116.156.303 0 .598-.033.885-.095.288-.061.543-.148.774-.268.223-.116.411-.261.554-.439.144-.174.223-.373.24-.594h1.818a2.37 2.37 0 01-.475 1.055 3.067 3.067 0 01-.933.776 4.83 4.83 0 01-1.296.475 7.211 7.211 0 01-1.567.163zm21.537-.186h-1.758v-4.948c0-.635-.12-1.084-.351-1.352-.239-.269-.634-.403-1.192-.403-.853 0-1.691.406-2.512 1.222v5.481h-1.759v-4.948c0-.635-.119-1.084-.351-1.352-.239-.269-.633-.403-1.192-.403-.853 0-1.686.406-2.5 1.222v5.481h-1.77v-7.656h1.77v.982c.822-.765 1.743-1.149 2.763-1.149 1.452 0 2.377.461 2.776 1.378.335-.294.642-.537.921-.729.279-.192.534-.326.765-.406a4.157 4.157 0 011.352-.243c2.026 0 3.038.943 3.038 2.821v5.002z" fill="#2E8942"/><path d="M388.296 130.078c-1.062 5.717-7.268 9.615-13.801 9.615H234.896c-.122.148-.286.259-.449.445l-2.082 2.562c-2.082 2.45-5.267 3.898-8.779 3.898h-7.308c-.531.594-1.347.965-2.327.965h-.286c-1.633 0-2.899-1.225-2.899-2.599v-1.633h-9.473v-1.596h9.473v-8.093h-9.473v-1.671h9.473v-1.076c0-1.337 1.266-2.525 2.899-2.525h.286c.98 0 1.714.335 2.327.854h6.41c3.304 0 6.443 1.31 8.597 3.587l3.243 3.429.246.223H375.23c5.308 0 9.554-3.712 9.554-8.353 0-4.603-4.246-8.315-9.554-8.315H11.76c-6.452 0-11.76-4.64-11.76-10.246 0-5.643 5.308-10.246 11.76-10.246l194.31.186c2.246 0 4.002-1.56 4.002-3.527V61.321a6.374 6.374 0 00-1.26-3.803 91.159 91.159 0 00-4.293-5.398c-2.858-3.453-6.043-6.608-9.432-9.615-3.308-3.044-7.023-5.717-10.861-8.241-3.879-2.45-7.92-4.789-12.289-6.682 4.776.89 9.35 2.635 13.555 4.863 4.246 2.264 8.206 4.937 11.718 8.055 3.471 3.156 6.738 6.534 9.269 10.358 1.633 2.264 2.98 4.64 4.124 7.127h3.062c.939-1.596 2.082-3.081 3.307-4.492 2.695-3.155 5.921-5.865 9.309-8.278 6.819-4.826 14.372-8.761 22.498-11.323-6.983 4.53-14.046 8.762-20.619 13.513-3.308 2.302-6.493 4.79-9.391 7.499a69.933 69.933 0 00-2.302 2.281 9.398 9.398 0 00-2.639 6.521v32.776c0 3.452-3.225 6.236-7.186 6.236l-194.882-.185c-4.451 0-8.044 3.118-8.044 7.016 0 3.861 3.593 6.979 8.043 6.979H375.23c8.044 0 14.453 6.311 13.066 13.55z" fill="#2E8942"/><path d="M391.69 61.345h-2.956v-1.9h8.46v1.9h-3.005v8.108h-2.499v-8.108zm16.067 4.277a102.379 102.379 0 01-.098-4.113h-.049a50.316 50.316 0 01-1.225 3.875l-1.339 3.905h-1.944l-1.175-3.875a42.306 42.306 0 01-.996-3.905h-.033c-.066 1.351-.114 2.895-.196 4.142l-.196 3.802h-2.303l.702-10.008h3.316l1.078 3.34c.342 1.159.686 2.406.931 3.58h.048a78.65 78.65 0 011.046-3.594l1.176-3.326h3.25l.604 10.008h-2.434l-.163-3.831z" fill="#121212"/></svg>