<svg width="54" height="18" fill="none" xmlns="http://www.w3.org/2000/svg"><g clip-path="url(#clip0_2001_4763)"><path d="M50 17.477l-.507-2.53h-5.656l-.9 2.512-4.534.01a8940.362 8940.362 0 016.489-15.564c.369-.882 1.024-1.332 1.989-1.325.738.006 1.943.007 3.614.002L54 17.471l-4 .006zm-4.892-5.998h3.647l-1.361-6.345-2.286 6.345zM15.89.578l4.558.004-7.047 16.898-4.615-.005c-1.16-4.463-2.306-8.93-3.438-13.4-.225-.892-.67-1.515-1.527-1.81C3.054 2.003 1.78 1.597 0 1.048V.582h7.283c1.26 0 1.996.61 2.232 1.861.239 1.254.839 4.445 1.8 9.572L15.89.578zm10.822.004L23.11 17.477l-4.34-.006L22.364.578l4.347.004zM35.51.27c1.298 0 2.934.405 3.874.778l-.76 3.501c-.851-.342-2.25-.803-3.427-.787-1.71.029-2.768.747-2.768 1.435 0 1.12 1.836 1.685 3.726 2.91 2.156 1.394 2.441 2.648 2.414 4.011-.029 2.824-2.414 5.612-7.445 5.612-2.295-.034-3.123-.226-4.995-.892l.792-3.654c1.906.797 2.714 1.051 4.343 1.051 1.491 0 2.772-.603 2.783-1.653.009-.748-.45-1.119-2.124-2.041-1.674-.923-4.023-2.203-3.991-4.775C27.97 2.476 31.085.27 35.51.27z" fill="#9C9A9A"/></g><defs><clipPath id="clip0_2001_4763"><path fill="#fff" d="M0 0h54v18H0z"/></clipPath></defs></svg>