<svg width="78" height="68" viewBox="0 0 78 68" fill="none" xmlns="http://www.w3.org/2000/svg">
<path fill-rule="evenodd" clip-rule="evenodd" d="M30 0C46.5685 0 60 13.4316 60 30C60 46.5685 46.5685 60.0001 30 60.0001C13.4315 60.0001 0 46.5685 0 30C0 13.4316 13.4315 0 30 0Z" fill="#EFEFEF"/>
<path d="M53 51.8188V58.637" stroke="#121212" stroke-width="2" stroke-linecap="round"/>
<path d="M60.954 65.4553H45.0449L45.8176 61.6007C45.9206 61.0857 46.1987 60.6222 46.6048 60.2891C47.0108 59.956 47.5197 59.7738 48.0449 59.7734H57.954C58.4792 59.7738 58.9881 59.956 59.3942 60.2891C59.8002 60.6222 60.0783 61.0857 60.1813 61.6007L60.954 65.4553Z" stroke="#121212" stroke-width="2" stroke-linecap="round" stroke-linejoin="round"/>
<path d="M68.9098 26.8188L71.0666 27.537C73.3166 28.287 74.4416 28.662 75.0848 29.5552C75.728 30.4484 75.728 31.637 75.728 34.0052V34.1711C75.728 36.1257 75.728 37.1052 75.2575 37.9052C74.7871 38.7052 73.9303 39.1802 72.2212 40.1325L65.5007 43.8643M37.0916 26.8188L34.9348 27.537C32.6848 28.287 31.5598 28.662 30.9166 29.5552C30.2734 30.4484 30.2734 31.637 30.2734 34.0052V34.1711C30.2734 36.1257 30.2734 37.1052 30.7439 37.9052C31.2143 38.7052 32.0712 39.1802 33.7803 40.1325L40.5007 43.8643" stroke="#121212" stroke-width="2"/>
<path d="M66.6366 65.4551H39.3639M64.3639 21.0369C66.048 21.3573 67.048 21.7119 67.9094 22.7755C68.9935 24.1073 68.9366 25.546 68.8207 28.4233C68.4116 38.771 66.0935 51.8187 53.0026 51.8187C39.9116 51.8187 37.5912 38.7733 37.1775 28.4233C37.0639 25.546 37.0071 24.1051 38.0866 22.7755C39.1685 21.4437 40.4616 21.2255 43.0503 20.7892C46.3393 20.2504 49.6675 19.9866 53.0003 20.0005C54.6336 20.0036 56.1488 20.0551 57.5457 20.1551" stroke="#121212" stroke-width="2" stroke-linecap="round"/>
<g clip-path="url(#clip0_42_2508)">
<path d="M57.6701 41.9656C57.5501 41.9661 57.4318 41.9374 57.3251 41.8818L53.5001 39.8476L49.6751 41.8818C49.5509 41.9482 49.4108 41.9778 49.2709 41.9673C49.1309 41.9568 48.9967 41.9067 48.8834 41.8226C48.7701 41.7384 48.6823 41.6237 48.63 41.4914C48.5777 41.3591 48.563 41.2146 48.5876 41.0742L49.3376 36.7847L46.2476 33.7371C46.1512 33.6393 46.0828 33.5168 46.0497 33.3826C46.0167 33.2483 46.0203 33.1075 46.0601 32.9752C46.1035 32.8398 46.1835 32.7194 46.2909 32.6279C46.3983 32.5363 46.5288 32.4771 46.6676 32.4571L50.9426 31.8247L52.8251 27.9161C52.8865 27.7873 52.9824 27.6787 53.1017 27.6027C53.2211 27.5266 53.3592 27.4863 53.5001 27.4863C53.641 27.4863 53.779 27.5266 53.8984 27.6027C54.0178 27.6787 54.1137 27.7873 54.1751 27.9161L56.0801 31.8171L60.3551 32.4495C60.4939 32.4695 60.6244 32.5287 60.7318 32.6202C60.8391 32.7118 60.9191 32.8321 60.9626 32.9676C61.0024 33.0999 61.0059 33.2407 60.9729 33.3749C60.9399 33.5092 60.8715 33.6317 60.7751 33.7295L57.6851 36.7771L58.4351 41.0666C58.4618 41.2094 58.4478 41.3571 58.3947 41.4921C58.3415 41.6271 58.2514 41.7438 58.1351 41.8285C57.9993 41.9252 57.8357 41.9734 57.6701 41.9656Z" fill="#FF0000" stroke="#121212" stroke-width="2"/>
</g>
<defs>
<clipPath id="clip0_42_2508">
<rect width="17" height="17" fill="white" transform="translate(45 26)"/>
</clipPath>
</defs>
</svg>
