<svg width="641" height="286" viewBox="0 0 641 286" fill="none" xmlns="http://www.w3.org/2000/svg">
<mask id="path-1-outside-1_483_11546" maskUnits="userSpaceOnUse" x="0" y="51.5" width="158" height="180" fill="black">
<rect fill="white" y="51.5" width="158" height="180"/>
<path d="M10.0625 196.5V162.75L74.4375 61.5H105.063V106.5H87.5625L52.875 161.5V162.75H147.875V196.5H10.0625ZM87.875 221.5V186.187L88.8125 171.5V61.5H129.437V221.5H87.875Z"/>
</mask>
<path d="M10.0625 196.5H0.0625004V206.5H10.0625V196.5ZM10.0625 162.75L1.62374 157.385L0.0625004 159.84V162.75H10.0625ZM74.4375 61.5V51.5H68.9454L65.9987 56.1346L74.4375 61.5ZM105.063 61.5H115.063V51.5H105.063V61.5ZM105.063 106.5V116.5H115.063V106.5H105.063ZM87.5625 106.5V96.5H82.0466L79.1042 101.165L87.5625 106.5ZM52.875 161.5L44.4167 156.165L42.875 158.61V161.5H52.875ZM52.875 162.75H42.875V172.75H52.875V162.75ZM147.875 162.75H157.875V152.75H147.875V162.75ZM147.875 196.5V206.5H157.875V196.5H147.875ZM87.875 221.5H77.875V231.5H87.875V221.5ZM87.875 186.187L77.8953 185.55L77.875 185.869V186.187H87.875ZM88.8125 171.5L98.7922 172.137L98.8125 171.819V171.5H88.8125ZM88.8125 61.5V51.5H78.8125V61.5H88.8125ZM129.437 61.5H139.437V51.5H129.437V61.5ZM129.437 221.5V231.5H139.437V221.5H129.437ZM10.0625 196.5H20.0625V162.75H10.0625H0.0625004V196.5H10.0625ZM10.0625 162.75L18.5013 168.115L82.8763 66.8654L74.4375 61.5L65.9987 56.1346L1.62374 157.385L10.0625 162.75ZM74.4375 61.5V71.5H105.063V61.5V51.5H74.4375V61.5ZM105.063 61.5H95.0625V106.5H105.063H115.063V61.5H105.063ZM105.063 106.5V96.5H87.5625V106.5V116.5H105.063V106.5ZM87.5625 106.5L79.1042 101.165L44.4167 156.165L52.875 161.5L61.3333 166.835L96.0208 111.834L87.5625 106.5ZM52.875 161.5H42.875V162.75H52.875H62.875V161.5H52.875ZM52.875 162.75V172.75H147.875V162.75V152.75H52.875V162.75ZM147.875 162.75H137.875V196.5H147.875H157.875V162.75H147.875ZM147.875 196.5V186.5H10.0625V196.5V206.5H147.875V196.5ZM87.875 221.5H97.875V186.187H87.875H77.875V221.5H87.875ZM87.875 186.187L97.8547 186.825L98.7922 172.137L88.8125 171.5L78.8328 170.863L77.8953 185.55L87.875 186.187ZM88.8125 171.5H98.8125V61.5H88.8125H78.8125V171.5H88.8125ZM88.8125 61.5V71.5H129.437V61.5V51.5H88.8125V61.5ZM129.437 61.5H119.437V221.5H129.437H139.437V61.5H129.437ZM129.437 221.5V211.5H87.875V221.5V231.5H129.437V221.5Z" fill="#121212" mask="url(#path-1-outside-1_483_11546)"/>
<mask id="path-3-outside-2_483_11546" maskUnits="userSpaceOnUse" x="197" y="0" width="246" height="286" fill="black">
<rect fill="white" x="197" width="246" height="286"/>
<path d="M319.77 275.96C296.652 275.877 276.683 270.533 259.862 259.927C243.042 249.321 230.074 234.033 220.96 214.064C211.845 194.095 207.329 170.148 207.412 142.224C207.495 114.218 212.052 90.437 221.084 70.8821C230.198 51.3272 243.125 36.4538 259.862 26.2621C276.683 16.0703 296.652 10.9744 319.77 10.9744C342.888 10.9744 362.857 16.1117 379.678 26.3864C396.498 36.5781 409.466 51.4515 418.58 71.0064C427.695 90.5613 432.211 114.301 432.128 142.224C432.128 170.314 427.571 194.343 418.456 214.312C409.341 234.282 396.374 249.569 379.553 260.175C362.816 270.699 342.888 275.96 319.77 275.96ZM319.77 219.781C331.702 219.781 341.479 213.567 349.102 201.138C356.808 188.626 360.62 168.988 360.537 142.224C360.537 124.741 358.797 110.448 355.317 99.3445C351.837 88.2412 347.031 80.0381 340.899 74.7351C334.768 69.3492 327.724 66.6562 319.77 66.6562C307.838 66.6562 298.102 72.705 290.562 84.8025C283.022 96.9001 279.169 116.041 279.003 142.224C278.92 160.039 280.619 174.705 284.099 186.223C287.579 197.658 292.385 206.109 298.516 211.578C304.731 217.047 311.815 219.781 319.77 219.781Z"/>
</mask>
<path d="M319.77 275.96L319.734 285.96L319.752 285.96H319.77V275.96ZM259.862 259.927L254.529 268.386L254.529 268.386L259.862 259.927ZM220.96 214.064L211.862 218.216L211.862 218.216L220.96 214.064ZM207.412 142.224L217.412 142.254L217.412 142.254L207.412 142.224ZM221.084 70.8821L212.02 66.6575L212.013 66.6733L212.005 66.6891L221.084 70.8821ZM259.862 26.2621L254.68 17.7095L254.671 17.7152L254.661 17.7209L259.862 26.2621ZM379.678 26.3864L374.465 34.9202L374.48 34.9296L374.495 34.9389L379.678 26.3864ZM418.58 71.0064L427.644 66.7817L427.644 66.7817L418.58 71.0064ZM432.128 142.224L422.128 142.195L422.128 142.21V142.224H432.128ZM418.456 214.312L427.553 218.465L427.553 218.465L418.456 214.312ZM379.553 260.175L384.876 268.641L384.887 268.634L379.553 260.175ZM349.102 201.138L340.588 195.894L340.583 195.902L340.578 195.909L349.102 201.138ZM360.537 142.224H350.537V142.24L350.537 142.255L360.537 142.224ZM355.317 99.3445L364.859 96.3536L364.859 96.3536L355.317 99.3445ZM340.899 74.7351L334.3 82.2483L334.329 82.2736L334.358 82.2987L340.899 74.7351ZM290.562 84.8025L282.075 79.513L282.075 79.513L290.562 84.8025ZM279.003 142.224L269.003 142.161L269.003 142.17L269.003 142.178L279.003 142.224ZM284.099 186.223L274.526 189.115L274.529 189.125L274.532 189.135L284.099 186.223ZM298.516 211.578L291.86 219.041L291.885 219.063L291.91 219.085L298.516 211.578ZM319.77 275.96L319.806 265.96C298.253 265.883 280.186 260.92 265.196 251.468L259.862 259.927L254.529 268.386C273.179 280.146 295.051 285.872 319.734 285.96L319.77 275.96ZM259.862 259.927L265.196 251.468C250.191 242.007 238.45 228.301 230.057 209.912L220.96 214.064L211.862 218.216C221.698 239.766 235.892 256.634 254.529 268.386L259.862 259.927ZM220.96 214.064L230.057 209.912C221.681 191.561 217.332 169.114 217.412 142.254L207.412 142.224L197.412 142.195C197.326 171.182 202.009 196.628 211.862 218.216L220.96 214.064ZM207.412 142.224L217.412 142.254C217.492 115.271 221.886 92.9949 230.162 75.0751L221.084 70.8821L212.005 66.6891C202.218 87.8792 197.498 113.164 197.412 142.195L207.412 142.224ZM221.084 70.8821L230.148 75.1068C238.516 57.1523 250.179 43.866 265.063 34.8032L259.862 26.2621L254.661 17.7209C236.07 29.0417 221.881 45.5021 212.02 66.6575L221.084 70.8821ZM259.862 26.2621L265.044 34.8146C280.046 25.7247 298.155 20.9744 319.77 20.9744V10.9744V0.974422C295.149 0.974422 273.319 6.41586 254.68 17.7095L259.862 26.2621ZM319.77 10.9744V20.9744C341.371 20.9744 359.468 25.7595 374.465 34.9202L379.678 26.3864L384.89 17.8525C366.246 6.46395 344.405 0.974422 319.77 0.974422V10.9744ZM379.678 26.3864L374.495 34.9389C389.459 44.0052 401.154 57.2898 409.516 75.231L418.58 71.0064L427.644 66.7817C417.777 45.6131 403.538 29.1511 384.86 17.8338L379.678 26.3864ZM418.58 71.0064L409.516 75.231C417.856 93.1223 422.208 115.325 422.128 142.195L432.128 142.224L442.128 142.254C442.214 113.277 437.534 88.0003 427.644 66.7817L418.58 71.0064ZM432.128 142.224H422.128C422.128 169.267 417.737 191.805 409.359 210.16L418.456 214.312L427.553 218.465C437.404 196.881 442.128 171.361 442.128 142.224H432.128ZM418.456 214.312L409.359 210.16C400.965 228.549 389.224 242.256 374.22 251.717L379.553 260.175L384.887 268.634C403.524 256.883 417.717 240.014 427.553 218.465L418.456 214.312ZM379.553 260.175L374.231 251.71C359.341 261.071 341.329 265.96 319.77 265.96V275.96V285.96C344.447 285.96 366.29 280.326 384.876 268.641L379.553 260.175ZM319.77 219.781V229.781C335.99 229.781 348.654 220.996 357.627 206.366L349.102 201.138L340.578 195.909C334.305 206.137 327.413 209.781 319.77 209.781V219.781ZM349.102 201.138L357.617 206.382C366.813 191.45 370.621 169.507 370.537 142.193L360.537 142.224L350.537 142.255C350.618 168.469 346.803 185.802 340.588 195.894L349.102 201.138ZM360.537 142.224H370.537C370.537 124.183 368.754 108.78 364.859 96.3536L355.317 99.3445L345.775 102.335C348.84 112.115 350.537 125.299 350.537 142.224H360.537ZM355.317 99.3445L364.859 96.3536C361.052 84.2082 355.463 74.1094 347.441 67.1714L340.899 74.7351L334.358 82.2987C338.599 85.9668 342.621 92.2742 345.775 102.335L355.317 99.3445ZM340.899 74.7351L347.499 67.2219C339.594 60.2789 330.222 56.6562 319.77 56.6562V66.6562V76.6562C325.227 76.6562 329.941 78.4195 334.3 82.2483L340.899 74.7351ZM319.77 66.6562V56.6562C303.669 56.6562 291.027 65.1504 282.075 79.513L290.562 84.8025L299.048 90.0921C305.177 80.2596 312.007 76.6562 319.77 76.6562V66.6562ZM290.562 84.8025L282.075 79.513C273.038 94.0126 269.172 115.45 269.003 142.161L279.003 142.224L289.003 142.288C289.165 116.631 293.005 99.7875 299.048 90.0921L290.562 84.8025ZM279.003 142.224L269.003 142.178C268.917 160.558 270.656 176.306 274.526 189.115L284.099 186.223L293.671 183.331C290.582 173.105 288.923 159.52 289.003 142.271L279.003 142.224ZM284.099 186.223L274.532 189.135C278.318 201.573 283.872 211.917 291.86 219.041L298.516 211.578L305.172 204.115C300.897 200.302 296.84 193.742 293.665 183.311L284.099 186.223ZM298.516 211.578L291.91 219.085C299.869 226.089 309.277 229.781 319.77 229.781V219.781V209.781C314.353 209.781 309.593 208.005 305.123 204.071L298.516 211.578Z" fill="#121212" mask="url(#path-3-outside-2_483_11546)"/>
<mask id="path-5-outside-3_483_11546" maskUnits="userSpaceOnUse" x="483" y="51.5" width="158" height="180" fill="black">
<rect fill="white" x="483" y="51.5" width="158" height="180"/>
<path d="M493.063 196.5V162.75L557.438 61.5H588.063V106.5H570.562L535.875 161.5V162.75H630.875V196.5H493.063ZM570.875 221.5V186.187L571.813 171.5V61.5H612.437V221.5H570.875Z"/>
</mask>
<path d="M493.063 196.5H483.063V206.5H493.063V196.5ZM493.063 162.75L484.624 157.385L483.063 159.84V162.75H493.063ZM557.438 61.5V51.5H551.945L548.999 56.1346L557.438 61.5ZM588.063 61.5H598.063V51.5H588.063V61.5ZM588.063 106.5V116.5H598.063V106.5H588.063ZM570.562 106.5V96.5H565.047L562.104 101.165L570.562 106.5ZM535.875 161.5L527.417 156.165L525.875 158.61V161.5H535.875ZM535.875 162.75H525.875V172.75H535.875V162.75ZM630.875 162.75H640.875V152.75H630.875V162.75ZM630.875 196.5V206.5H640.875V196.5H630.875ZM570.875 221.5H560.875V231.5H570.875V221.5ZM570.875 186.187L560.895 185.55L560.875 185.869V186.187H570.875ZM571.813 171.5L581.792 172.137L581.813 171.819V171.5H571.813ZM571.813 61.5V51.5H561.813V61.5H571.813ZM612.437 61.5H622.437V51.5H612.437V61.5ZM612.437 221.5V231.5H622.437V221.5H612.437ZM493.063 196.5H503.063V162.75H493.063H483.063V196.5H493.063ZM493.063 162.75L501.501 168.115L565.876 66.8654L557.438 61.5L548.999 56.1346L484.624 157.385L493.063 162.75ZM557.438 61.5V71.5H588.063V61.5V51.5H557.438V61.5ZM588.063 61.5H578.063V106.5H588.063H598.063V61.5H588.063ZM588.063 106.5V96.5H570.562V106.5V116.5H588.063V106.5ZM570.562 106.5L562.104 101.165L527.417 156.165L535.875 161.5L544.333 166.835L579.021 111.834L570.562 106.5ZM535.875 161.5H525.875V162.75H535.875H545.875V161.5H535.875ZM535.875 162.75V172.75H630.875V162.75V152.75H535.875V162.75ZM630.875 162.75H620.875V196.5H630.875H640.875V162.75H630.875ZM630.875 196.5V186.5H493.063V196.5V206.5H630.875V196.5ZM570.875 221.5H580.875V186.187H570.875H560.875V221.5H570.875ZM570.875 186.187L580.855 186.825L581.792 172.137L571.813 171.5L561.833 170.863L560.895 185.55L570.875 186.187ZM571.813 171.5H581.813V61.5H571.813H561.813V171.5H571.813ZM571.813 61.5V71.5H612.437V61.5V51.5H571.813V61.5ZM612.437 61.5H602.437V221.5H612.437H622.437V61.5H612.437ZM612.437 221.5V211.5H570.875V221.5V231.5H612.437V221.5Z" fill="#121212" mask="url(#path-5-outside-3_483_11546)"/>
</svg>
