<svg width="70" height="70" viewBox="0 0 70 70" fill="none" xmlns="http://www.w3.org/2000/svg">
<path fill-rule="evenodd" clip-rule="evenodd" d="M30.125 0.666992C46.6936 0.666992 60.125 14.0985 60.125 30.667C60.125 47.2355 46.6936 60.6671 30.125 60.6671C13.5565 60.6671 0.125 47.2355 0.125 30.667C0.125 14.0985 13.5565 0.666992 30.125 0.666992Z" fill="#EFEFEF"/>
<g clip-path="url(#clip0_471_9558)">
<path d="M49.875 43.1123H30.8438V26.6634C30.8433 26.4519 30.9127 26.2462 31.041 26.0793C31.1693 25.9124 31.3491 25.7938 31.5516 25.7425L49.875 21.167V43.1123Z" fill="#FF0000"/>
<path d="M49.7969 68.5104V43.1121L68.2223 43.1125C68.2223 61.4955 52.0653 67.7267 49.7969 68.5127" fill="#FF0000"/>
<path d="M30.8438 42.5158H68.2227M49.5332 68.5101V21.209M30.8438 43.1124C30.8438 61.3108 47.0055 67.7028 49.2692 68.5101C49.4452 68.5732 49.6212 68.5732 49.7972 68.5101C52.0656 67.7289 68.2227 61.4978 68.2227 43.1148V26.6635C68.2232 26.452 68.1537 26.2463 68.0254 26.0794C67.8971 25.9125 67.7174 25.7939 67.5148 25.7426L49.7598 21.2374C49.611 21.1997 49.4554 21.1997 49.3066 21.2374L31.5516 25.7426C31.3491 25.7939 31.1693 25.9125 31.041 26.0794C30.9127 26.2463 30.8433 26.452 30.8438 26.6635V43.1124Z" stroke="#121212" stroke-width="2" stroke-miterlimit="10" stroke-linecap="round"/>
</g>
<defs>
<clipPath id="clip0_471_9558">
<rect width="41" height="50" fill="white" transform="translate(28.875 19.667)"/>
</clipPath>
</defs>
</svg>
