<svg width="78" height="69" viewBox="0 0 78 69" fill="none" xmlns="http://www.w3.org/2000/svg">
<path fill-rule="evenodd" clip-rule="evenodd" d="M30 0.666992C46.5685 0.666992 60 14.0985 60 30.667C60 47.2355 46.5685 60.6671 30 60.6671C13.4315 60.6671 0 47.2355 0 30.667C0 14.0985 13.4315 0.666992 30 0.666992Z" fill="#EFEFEF"/>
<path d="M53 52.4854V59.3035" stroke="#121212" stroke-width="2" stroke-linecap="round"/>
<path d="M60.956 66.1222H45.0469L45.8196 62.2677C45.9225 61.7527 46.2007 61.2892 46.6067 60.9561C47.0128 60.623 47.5217 60.4407 48.0469 60.4404H57.956C58.4812 60.4407 58.9901 60.623 59.3961 60.9561C59.8022 61.2892 60.0803 61.7527 60.1832 62.2677L60.956 66.1222Z" stroke="#121212" stroke-width="2" stroke-linecap="round" stroke-linejoin="round"/>
<path d="M68.9098 27.4863L71.0666 28.2045C73.3166 28.9545 74.4416 29.3295 75.0848 30.2227C75.728 31.1159 75.728 32.3045 75.728 34.6727V34.8386C75.728 36.7931 75.728 37.7727 75.2575 38.5727C74.7871 39.3727 73.9303 39.8477 72.2212 40.8L65.5007 44.5318M37.0916 27.4863L34.9348 28.2045C32.6848 28.9545 31.5598 29.3295 30.9166 30.2227C30.2734 31.1159 30.2734 32.3045 30.2734 34.6727V34.8386C30.2734 36.7931 30.2734 37.7727 30.7439 38.5727C31.2143 39.3727 32.0712 39.8477 33.7803 40.8L40.5007 44.5318" stroke="#121212" stroke-width="2"/>
<path d="M66.6347 66.1221H39.362M64.362 21.7039C66.0461 22.0243 67.0461 22.3789 67.9074 23.4425C68.9915 24.7743 68.9347 26.213 68.8188 29.0902C68.4097 39.438 66.0915 52.4857 53.0006 52.4857C39.9097 52.4857 37.5892 39.4402 37.1756 29.0902C37.062 26.213 37.0051 24.7721 38.0847 23.4425C39.1665 22.1107 40.4597 21.8925 43.0483 21.4562C46.3373 20.9174 49.6655 20.6536 52.9983 20.6675C54.6317 20.6705 56.1468 20.7221 57.5438 20.8221" stroke="#121212" stroke-width="2" stroke-linecap="round"/>
<g clip-path="url(#clip0_471_9567)">
<path d="M57.6701 42.6326C57.5501 42.6331 57.4318 42.6044 57.3251 42.5488L53.5001 40.5145L49.6751 42.5488C49.5509 42.6152 49.4108 42.6448 49.2709 42.6343C49.1309 42.6238 48.9967 42.5737 48.8834 42.4896C48.7701 42.4054 48.6823 42.2907 48.63 42.1584C48.5777 42.0261 48.563 41.8816 48.5876 41.7412L49.3376 37.4517L46.2476 34.4041C46.1512 34.3063 46.0828 34.1838 46.0497 34.0496C46.0167 33.9153 46.0203 33.7745 46.0601 33.6422C46.1035 33.5068 46.1835 33.3864 46.2909 33.2949C46.3983 33.2033 46.5288 33.1441 46.6676 33.1241L50.9426 32.4917L52.8251 28.5831C52.8865 28.4543 52.9824 28.3457 53.1017 28.2697C53.2211 28.1936 53.3592 28.1533 53.5001 28.1533C53.641 28.1533 53.779 28.1936 53.8984 28.2697C54.0178 28.3457 54.1137 28.4543 54.1751 28.5831L56.0801 32.4841L60.3551 33.1165C60.4939 33.1365 60.6244 33.1957 60.7318 33.2872C60.8391 33.3788 60.9191 33.4991 60.9626 33.6345C61.0024 33.7669 61.0059 33.9077 60.9729 34.0419C60.9399 34.1762 60.8715 34.2987 60.7751 34.3965L57.6851 37.4441L58.4351 41.7336C58.4618 41.8764 58.4478 42.0241 58.3947 42.1591C58.3415 42.2941 58.2514 42.4108 58.1351 42.4955C57.9993 42.5922 57.8357 42.6404 57.6701 42.6326Z" fill="#FF0000" stroke="#121212" stroke-width="2"/>
</g>
<defs>
<clipPath id="clip0_471_9567">
<rect width="17" height="17" fill="white" transform="translate(45 26.667)"/>
</clipPath>
</defs>
</svg>
