<svg width="74" height="69" viewBox="0 0 74 69" fill="none" xmlns="http://www.w3.org/2000/svg">
<path fill-rule="evenodd" clip-rule="evenodd" d="M30.0703 0.666992C46.6388 0.666992 60.0703 14.0985 60.0703 30.667C60.0703 47.2355 46.6388 60.6671 30.0703 60.6671C13.5018 60.6671 0.0703125 47.2355 0.0703125 30.667C0.0703125 14.0985 13.5018 0.666992 30.0703 0.666992Z" fill="#EFEFEF"/>
<path d="M71.6506 44.9999C71.6506 44.8239 71.6552 43.7816 71.6506 43.7084C71.5688 42.5633 70.5938 41.6513 69.3665 41.5759C69.287 41.5713 69.1938 41.5713 69.0029 41.5713H63.0893C59.0325 41.5713 55.7461 44.641 55.7461 48.4284C55.7461 52.2159 59.0347 55.2856 63.087 55.2856H69.0029C69.1938 55.2856 69.287 55.2856 69.3665 55.281C70.5938 55.2056 71.5711 54.2936 71.6506 53.1484C71.6552 53.0753 71.6552 52.033 71.6552 51.857" stroke="#121212" stroke-width="2" stroke-linecap="round"/>
<path d="M62.5654 45.1426C64.3783 45.1426 65.8389 46.6194 65.8389 48.4287C65.8386 50.2378 64.3781 51.7139 62.5654 51.7139C60.7529 51.7137 59.2932 50.2377 59.293 48.4287C59.293 46.6195 60.7527 45.1427 62.5654 45.1426Z" fill="#FF0000" stroke="#121212" stroke-width="2"/>
<path d="M44.3849 66.7146H51.2031C59.7736 66.7146 64.0599 66.7146 66.7213 64.0357C68.5599 62.1889 69.1304 59.5649 69.3054 55.286M69.3054 41.5717C69.1281 37.2929 68.5599 34.6689 66.7213 32.822C64.0599 30.1432 59.7736 30.1432 51.2031 30.1432H44.3849C35.8145 30.1432 31.5281 30.1432 28.8668 32.822C26.2054 35.5009 26.2031 39.8094 26.2031 48.4289C26.2031 57.0483 26.2031 61.3591 28.8668 64.0357C30.3509 65.5306 32.3395 66.1912 35.294 66.4814M35.294 30.1432L43.7827 24.4814C44.9768 23.7013 46.3701 23.2861 47.794 23.2861C49.2179 23.2861 50.6113 23.7013 51.8054 24.4814L60.294 30.1432" stroke="#121212" stroke-width="2" stroke-linecap="round"/>
<rect x="33" y="37" width="15" height="4" rx="2" fill="#FF0000" stroke="#121212" stroke-width="2"/>
</svg>
