<svg width="78" height="69" viewBox="0 0 78 69" fill="none" xmlns="http://www.w3.org/2000/svg">
<path fill-rule="evenodd" clip-rule="evenodd" d="M30 0C46.5685 0 60 13.4316 60 30C60 46.5685 46.5685 60.0001 30 60.0001C13.4315 60.0001 0 46.5685 0 30C0 13.4316 13.4315 0 30 0Z" fill="#EFEFEF"/>
<path d="M57.5462 65.4666H48.4553C39.8848 65.4666 35.5984 65.4666 32.9371 62.803C30.2757 60.1393 30.2734 55.8553 30.2734 47.2848V42.7393C30.2734 34.1689 30.2734 29.8825 32.9371 27.2212C35.6007 24.5598 39.8848 24.5575 48.4553 24.5575H57.5462C66.1166 24.5575 70.403 24.5575 73.0643 27.2212C75.7257 29.8848 75.728 34.1689 75.728 42.7393V47.2848C75.728 55.8553 75.728 60.1416 73.0643 62.803C71.5803 64.2893 69.5916 64.9462 66.6371 65.2348M41.6371 24.5575V21.1484M64.3643 24.5575V21.1484M74.5916 35.9212H50.1598M30.2734 35.9212H39.0803" stroke="#121212" stroke-width="2" stroke-linecap="round"/>
<path d="M66.636 54.1029C66.636 54.7057 66.3966 55.2837 65.9703 55.71C65.5441 56.1362 64.966 56.3756 64.3633 56.3756C63.7605 56.3756 63.1824 56.1362 62.7562 55.71C62.33 55.2837 62.0906 54.7057 62.0906 54.1029C62.0906 53.5001 62.33 52.9221 62.7562 52.4958C63.1824 52.0696 63.7605 51.8302 64.3633 51.8302C64.966 51.8302 65.5441 52.0696 65.9703 52.4958C66.3966 52.9221 66.636 53.5001 66.636 54.1029ZM66.636 45.012C66.636 45.6147 66.3966 46.1928 65.9703 46.619C65.5441 47.0453 64.966 47.2847 64.3633 47.2847C63.7605 47.2847 63.1824 47.0453 62.7562 46.619C62.33 46.1928 62.0906 45.6147 62.0906 45.012C62.0906 44.4092 62.33 43.8311 62.7562 43.4049C63.1824 42.9787 63.7605 42.7393 64.3633 42.7393C64.966 42.7393 65.5441 42.9787 65.9703 43.4049C66.3966 43.8311 66.636 44.4092 66.636 45.012ZM55.2724 54.1029C55.2724 54.7057 55.0329 55.2837 54.6067 55.71C54.1805 56.1362 53.6024 56.3756 52.9996 56.3756C52.3969 56.3756 51.8188 56.1362 51.3926 55.71C50.9664 55.2837 50.7269 54.7057 50.7269 54.1029C50.7269 53.5001 50.9664 52.9221 51.3926 52.4958C51.8188 52.0696 52.3969 51.8302 52.9996 51.8302C53.6024 51.8302 54.1805 52.0696 54.6067 52.4958C55.0329 52.9221 55.2724 53.5001 55.2724 54.1029ZM55.2724 45.012C55.2724 45.6147 55.0329 46.1928 54.6067 46.619C54.1805 47.0453 53.6024 47.2847 52.9996 47.2847C52.3969 47.2847 51.8188 47.0453 51.3926 46.619C50.9664 46.1928 50.7269 45.6147 50.7269 45.012C50.7269 44.4092 50.9664 43.8311 51.3926 43.4049C51.8188 42.9787 52.3969 42.7393 52.9996 42.7393C53.6024 42.7393 54.1805 42.9787 54.6067 43.4049C55.0329 43.8311 55.2724 44.4092 55.2724 45.012ZM43.9087 54.1029C43.9087 54.7057 43.6693 55.2837 43.2431 55.71C42.8168 56.1362 42.2388 56.3756 41.636 56.3756C41.0332 56.3756 40.4552 56.1362 40.0289 55.71C39.6027 55.2837 39.3633 54.7057 39.3633 54.1029C39.3633 53.5001 39.6027 52.9221 40.0289 52.4958C40.4552 52.0696 41.0332 51.8302 41.636 51.8302C42.2388 51.8302 42.8168 52.0696 43.2431 52.4958C43.6693 52.9221 43.9087 53.5001 43.9087 54.1029ZM43.9087 45.012C43.9087 45.6147 43.6693 46.1928 43.2431 46.619C42.8168 47.0453 42.2388 47.2847 41.636 47.2847C41.0332 47.2847 40.4552 47.0453 40.0289 46.619C39.6027 46.1928 39.3633 45.6147 39.3633 45.012C39.3633 44.4092 39.6027 43.8311 40.0289 43.4049C40.4552 42.9787 41.0332 42.7393 41.636 42.7393C42.2388 42.7393 42.8168 42.9787 43.2431 43.4049C43.6693 43.8311 43.9087 44.4092 43.9087 45.012Z" fill="#121212"/>
<circle cx="64.6016" cy="44.875" r="5" fill="#FF0000" stroke="#121212" stroke-width="2"/>
</svg>
