<svg width="74" height="69" viewBox="0 0 74 69" fill="none" xmlns="http://www.w3.org/2000/svg">
<path fill-rule="evenodd" clip-rule="evenodd" d="M30.25 0C46.8185 0 60.25 13.4316 60.25 30C60.25 46.5685 46.8185 60.0001 30.25 60.0001C13.6815 60.0001 0.25 46.5685 0.25 30C0.25 13.4316 13.6815 0 30.25 0Z" fill="#EFEFEF"/>
<path fill-rule="evenodd" clip-rule="evenodd" d="M57 40.5C61.4183 40.5 65 44.0818 65 48.5C65 52.9182 61.4183 56.5 57 56.5C52.5817 56.5 49 52.9182 49 48.5C49 44.0818 52.5817 40.5 57 40.5Z" fill="#FF0000"/>
<g clip-path="url(#clip0_1188_16737)">
<path d="M48.6016 48.8156C48.6016 50.9094 49.4391 52.9175 50.9301 54.3981C52.421 55.8786 54.4431 56.7104 56.5516 56.7104C58.66 56.7104 60.6821 55.8786 62.1731 54.3981C63.664 52.9175 64.5016 50.9094 64.5016 48.8156C64.5016 46.7218 63.664 44.7138 62.1731 43.2332C60.6821 41.7527 58.66 40.9209 56.5516 40.9209C54.4431 40.9209 52.421 41.7527 50.9301 43.2332C49.4391 44.7138 48.6016 46.7218 48.6016 48.8156Z" stroke="#121212" stroke-width="2" stroke-linecap="round" stroke-linejoin="round"/>
<path d="M51.25 55.3945V67.2366L56.55 63.2893L61.85 67.2366V55.3945" stroke="#121212" stroke-width="2" stroke-linecap="round" stroke-linejoin="round"/>
<path d="M43.3 59.3421H30.05C28.6444 59.3421 27.2963 58.7876 26.3023 57.8006C25.3084 56.8135 24.75 55.4748 24.75 54.0789V27.7632C24.75 24.8684 27.135 22.5 30.05 22.5H67.15C68.5556 22.5 69.9037 23.0545 70.8977 24.0415C71.8916 25.0286 72.45 26.3673 72.45 27.7632V54.0789C72.449 55.0019 72.2037 55.9084 71.7386 56.7075C71.2735 57.5065 70.6049 58.1701 69.8 58.6316M32.7 33.0263H64.5M32.7 40.9211H40.65M32.7 48.8158H38" stroke="#121212" stroke-width="2" stroke-linecap="round" stroke-linejoin="round"/>
</g>
<defs>
<clipPath id="clip0_1188_16737">
<rect width="50" height="47" fill="white" transform="translate(23.75 21.5)"/>
</clipPath>
</defs>
</svg>
