<svg width="74" height="69" viewBox="0 0 74 69" fill="none" xmlns="http://www.w3.org/2000/svg">
<path fill-rule="evenodd" clip-rule="evenodd" d="M30 0C46.5685 0 60 13.4316 60 30C60 46.5685 46.5685 60.0001 30 60.0001C13.4315 60.0001 0 46.5685 0 30C0 13.4316 13.4315 0 30 0Z" fill="#EFEFEF"/>
<path d="M34 53C34 54.9698 34.388 56.9204 35.1418 58.7403C35.8956 60.5601 37.0005 62.2137 38.3934 63.6066C39.7863 64.9995 41.4399 66.1044 43.2597 66.8582C45.0796 67.612 47.0302 68 49 68C50.9698 68 52.9204 67.612 54.7403 66.8582C56.5601 66.1044 58.2137 64.9995 59.6066 63.6066C60.9995 62.2137 62.1044 60.5601 62.8582 58.7403C63.612 56.9204 64 54.9698 64 53C64 49.0218 62.4196 45.2064 59.6066 42.3934C56.7936 39.5804 52.9782 38 49 38C45.0218 38 41.2064 39.5804 38.3934 42.3934C35.5804 45.2064 34 49.0218 34 53Z" stroke="#121212" stroke-width="2" stroke-linecap="round" stroke-linejoin="round"/>
<path d="M49 44.667V53.0003L54 58.0003" stroke="#121212" stroke-width="2" stroke-linecap="round" stroke-linejoin="round"/>
<path d="M51.1377 38C61.9219 35.3 55.883 24.5 48.5497 20C47.6868 23.15 46.3924 24.05 43.8044 27.2C40.3773 31.3706 42.0794 36.2 46.8238 38C46.1047 37.1 44.25 35.21 45.5294 32.6C45.9706 31.7 46.8529 30.8 46.4118 29C47.2747 29.45 49.0588 29.9 49.5 32.15C50.2191 31.25 50.9647 29.36 50.2747 27.2C55.6765 31.25 53.4706 35.3 51.1377 38Z" fill="#FF0000" stroke="#121212" stroke-width="2" stroke-linecap="round" stroke-linejoin="round"/>
</svg>
