<svg width="74" height="69" viewBox="0 0 74 69" fill="none" xmlns="http://www.w3.org/2000/svg">
<path fill-rule="evenodd" clip-rule="evenodd" d="M30 0C46.5685 0 60 13.4316 60 30C60 46.5685 46.5685 60.0001 30 60.0001C13.4315 60.0001 0 46.5685 0 30C0 13.4316 13.4315 0 30 0Z" fill="#EFEFEF"/>
<g clip-path="url(#clip0_1188_16792)">
<path d="M70.2775 27.239C71.679 29.507 72.4863 32.1774 72.4863 35.0349C72.4863 43.2641 65.7864 49.9355 57.5241 49.9355C56.0185 49.9355 52.5857 49.5898 50.9167 48.2025L48.8286 50.2811C47.0885 52.0141 48.4806 52.0141 49.1766 53.399C49.1766 53.399 50.9167 55.8256 49.1766 58.2523C48.1326 59.6372 45.2088 61.5761 41.8707 58.2523L41.1747 58.9435C41.1747 58.9435 43.2604 61.3701 41.5227 63.7968C40.4787 65.1817 37.6946 66.5666 35.2585 64.1424L32.8248 66.5666C31.1534 68.2309 29.1127 67.2603 28.303 66.5666L26.2126 64.488C24.2642 62.5468 25.4006 60.4445 26.2126 59.6348L44.3044 41.6187C44.3044 41.6187 42.5644 38.8488 42.5644 35.0373C42.5644 26.8081 49.2642 20.1367 57.5265 20.1367C59.4654 20.1367 61.3168 20.5037 63.0166 21.1713" stroke="#121212" stroke-width="2" stroke-linecap="round" stroke-linejoin="round"/>
<path d="M62.7427 35.0377C62.7395 36.4187 62.1881 37.7418 61.2096 38.7163C60.2312 39.6908 58.9058 40.2368 57.5249 40.2342C56.8409 40.2358 56.1633 40.1026 55.5308 39.8423C54.8983 39.582 54.3233 39.1997 53.8385 38.7171C53.3538 38.2346 52.9689 37.6613 52.7057 37.03C52.4425 36.3987 52.3062 35.7217 52.3047 35.0377C52.3059 34.3536 52.442 33.6764 52.705 33.0448C52.968 32.4132 53.3529 31.8396 53.8377 31.3568C54.3225 30.874 54.8976 30.4915 55.5303 30.231C56.1629 29.9706 56.8407 29.8373 57.5249 29.8389C58.2088 29.8376 58.8863 29.9711 59.5187 30.2317C60.1511 30.4923 60.726 30.8749 61.2105 31.3577C61.695 31.8404 62.0797 32.4139 62.3426 33.0453C62.6055 33.6767 62.7414 34.3538 62.7427 35.0377Z" fill="#FF0000" stroke="#121212" stroke-width="2"/>
</g>
<defs>
<clipPath id="clip0_1188_16792">
<rect width="50" height="50" fill="white" transform="translate(24 19)"/>
</clipPath>
</defs>
</svg>
