<svg width="56" height="45" viewBox="0 0 56 45" fill="none" xmlns="http://www.w3.org/2000/svg">
<g clip-path="url(#clip0_1188_16534)">
<mask id="mask0_1188_16534" style="mask-type:luminance" maskUnits="userSpaceOnUse" x="0" y="0" width="56" height="45">
<path d="M9.57492 2.28281C17.3208 1.87357 23.3459 1.66895 27.6502 1.66895C31.9546 1.66895 37.982 1.87406 45.7326 2.28429C47.7607 2.39169 49.6832 3.27636 51.1431 4.77402C52.603 6.27168 53.501 8.28055 53.6704 10.4276C54.0253 14.9253 54.2028 18.8877 54.2028 22.3149C54.2028 25.7826 54.0211 29.7999 53.6578 34.3668C53.4891 36.4892 52.6083 38.4769 51.1756 39.9688C49.7428 41.4607 47.8531 42.3576 45.8499 42.4967C39.2248 42.9564 33.1583 43.1862 27.6502 43.1862C22.1441 43.1862 16.0798 42.9564 9.45753 42.4967C7.455 42.3578 5.56585 41.4614 4.13317 39.9705C2.7005 38.4795 1.81932 36.4928 1.64967 34.3712C1.28166 29.7697 1.09766 25.7509 1.09766 22.3149C1.09766 18.9194 1.277 14.9555 1.6357 10.4232C1.80574 8.27663 2.70404 6.26847 4.16384 4.77142C5.62365 3.27437 7.5458 2.39012 9.57352 2.28281H9.57492Z" fill="white" stroke="white" stroke-width="2" stroke-linejoin="round"/>
<path d="M23.4609 15.9182V28.9606C23.4608 29.1903 23.5194 29.4157 23.6305 29.6129C23.7415 29.81 23.9008 29.9716 24.0915 30.0803C24.2822 30.1891 24.4971 30.241 24.7133 30.2305C24.9296 30.22 25.1391 30.1475 25.3196 30.0208L34.539 23.5559C34.7037 23.4407 34.8391 23.284 34.933 23.0998C35.027 22.9157 35.0766 22.7097 35.0774 22.5004C35.0782 22.291 35.0303 22.0846 34.9378 21.8996C34.8453 21.7146 34.7112 21.5567 34.5473 21.44L25.3266 14.8625C25.1464 14.734 24.9367 14.6599 24.7198 14.6481C24.503 14.6364 24.2872 14.6873 24.0956 14.7956C23.904 14.9039 23.7437 15.0654 23.6319 15.2629C23.5201 15.4604 23.461 15.6864 23.4609 15.9167V15.9182Z" fill="black" stroke="black" stroke-width="1.7145" stroke-linejoin="round"/>
</mask>
<g mask="url(#mask0_1188_16534)">
<path d="M-5.88672 -13.1582H61.1935V58.0142H-5.88672V-13.1582Z" fill="#FF0000"/>
</g>
<path d="M36.5 19.9136C38.5 21.0683 38.5 23.9551 36.5 25.1098L26 31.172C24 32.3267 21.5 30.8833 21.5 28.5739L21.5 16.4495C21.5 14.1401 24 12.6968 26 13.8515L36.5 19.9136Z" fill="white"/>
</g>
<defs>
<clipPath id="clip0_1188_16534">
<rect width="56" height="43.9765" fill="white" transform="translate(0 0.511719)"/>
</clipPath>
</defs>
</svg>
