<svg width="230" height="170" viewBox="0 0 230 170" fill="none" xmlns="http://www.w3.org/2000/svg">
<g clip-path="url(#clip0_512_14159)">
<path d="M31.6175 23.0265C-19.5975 72.6283 10.396 167.297 10.396 167.297L212.62 167.708C212.62 167.708 250.302 100.367 211.37 45.6488C175.419 -4.87812 70.8831 -15.0025 31.6175 23.0265Z" fill="#D1E5FF"/>
<path d="M13.903 166.08H76.1797L76.1797 23.0266H13.903L13.903 166.08Z" fill="#9BC1F9"/>
<path d="M51.7484 166.122H55.8203L55.8203 14.5776H51.7484L51.7484 166.122Z" fill="#466EB6"/>
<path d="M51.7519 14.5796C51.7522 14.9646 51.7797 166.061 51.7797 166.061H14.0859V22.9355L51.7519 14.5796Z" fill="#86B1F2"/>
<path d="M18.4023 35.4793L18.588 75.4847C18.7466 75.4652 18.9038 75.4558 19.0592 75.4558C21.1181 75.4558 22.8446 77.1211 22.8545 79.2349L43.773 76.6644C43.7644 74.7405 45.1983 73.1146 47.1105 72.8795L46.9223 31.0068C46.6535 31.0639 46.3864 31.0912 46.1241 31.0912C44.0859 31.0912 42.3397 29.4433 42.33 27.3105L21.4139 31.7486C21.4224 33.5474 20.1648 35.1053 18.4023 35.4793ZM19.8695 36.513C21.3093 35.8266 22.3714 34.5108 22.7374 32.9603L41.1701 29.0492C41.8248 30.8875 43.4765 32.2595 45.4669 32.51L45.6433 71.7569C44.0727 72.3752 42.8877 73.7191 42.4722 75.353L24.0553 77.6162C23.4644 75.8211 21.9294 74.4484 20.044 74.0884L19.8695 36.513Z" fill="#9BC1F9"/>
<path d="M18.4648 108.38L18.5493 156.059C18.5516 156.059 18.5539 156.059 18.5562 156.059C20.6527 156.059 22.3542 157.754 22.358 159.848L27.8241 159.839C27.8241 157.745 29.5222 156.046 31.6193 156.042V107.895C31.5079 107.905 31.3971 107.909 31.2874 107.909C29.2121 107.909 27.4909 106.226 27.4909 104.113L21.9401 104.591C21.9438 106.563 20.4332 108.21 18.4648 108.38ZM19.9292 109.537C21.5365 108.949 22.7779 107.596 23.2238 105.946L26.2682 105.684C26.8275 107.465 28.3123 108.842 30.157 109.247V154.791C28.4311 155.293 27.0678 156.657 26.5681 158.381L23.6108 158.386C23.1068 156.661 21.7388 155.3 20.0094 154.803L19.9292 109.537Z" fill="#9BC1F9"/>
<path d="M34.0586 107.031V156.025H34.0654C36.1647 156.025 37.8673 157.724 37.8673 159.821L42.3319 159.813C42.3477 157.731 44.0412 156.05 46.1271 156.046L46.5051 106.643C46.3936 106.653 46.2828 106.657 46.173 106.657C44.0868 106.657 42.3604 104.957 42.3767 102.832L37.5341 103.249C37.5341 105.219 36.0245 106.862 34.0586 107.031ZM35.5208 108.197C37.151 107.618 38.385 106.275 38.823 104.603L41.1431 104.404C41.3894 105.209 41.8297 105.948 42.441 106.563C43.1631 107.289 44.0578 107.779 45.0323 107.994L44.6742 154.793C42.9575 155.291 41.5944 156.644 41.0852 158.355L39.1222 158.359C38.6204 156.631 37.2524 155.267 35.5207 154.769L35.5208 108.197Z" fill="#9BC1F9"/>
<path d="M43.1412 93.3736C43.9894 93.3736 44.677 92.0422 44.677 90.3997C44.677 88.7573 43.9894 87.4258 43.1412 87.4258C42.2931 87.4258 41.6055 88.7573 41.6055 90.3997C41.6055 92.0422 42.2931 93.3736 43.1412 93.3736Z" fill="#F7CC7F"/>
<path d="M40.168 89.3528V91.6977H43.3861C43.4812 91.3107 43.5341 90.8771 43.5341 90.421C43.5341 90.0453 43.4979 89.6846 43.4312 89.3528H40.168Z" fill="#F47458"/>
<path d="M37.9531 90.3995C37.9531 92.8749 38.9893 94.8814 40.2676 94.8814C41.5458 94.8814 42.5819 92.8749 42.5819 90.3995C42.5819 87.9241 41.5458 85.9175 40.2676 85.9175C38.9893 85.9175 37.9531 87.9241 37.9531 90.3995Z" fill="#FAE0B2"/>
<path d="M39.6465 94.8814C40.9247 94.8814 41.9609 92.8748 41.9609 90.3995C41.9609 87.9241 40.9247 85.9175 39.6465 85.9175C38.3682 85.9175 37.332 87.9241 37.332 90.3995C37.332 92.8748 38.3682 94.8814 39.6465 94.8814Z" fill="#FAE0B2"/>
<path d="M1.03063 169.03H225.34C225.909 169.03 226.371 168.357 226.371 167.526C226.371 166.695 225.909 166.021 225.34 166.021H1.03063C0.461403 166.021 0 166.695 0 167.526C0 168.357 0.461403 169.03 1.03063 169.03Z" fill="#FE978E"/>
<path d="M198.976 158.983C198.976 158.983 198.992 159.127 198.992 159.368C198.992 160.09 198.851 161.68 197.722 162.854C196.215 164.419 196.206 166.366 197.798 166.699C199.389 167.031 203.185 166.592 203.185 166.592C203.185 166.592 204.043 165.103 203.457 161.126C202.871 157.15 202.531 152.788 202.531 152.788L198.206 152.114L198.976 158.983Z" fill="#FF7446"/>
<path d="M198.127 160.674C198.127 160.674 196.522 162.848 196.147 163.755C195.771 164.662 195.852 166.917 196.147 167.15C198.741 169.195 203.66 167.354 203.66 167.354C203.66 167.354 203.998 165.855 204.168 164.014C204.339 162.174 204.243 160.458 203.66 160.458C203.076 160.458 202.974 161.424 201.642 161.151C200.311 160.878 199.492 160.401 198.127 160.674Z" fill="#001653"/>
<path d="M204.068 164.931C203.068 165.321 201.71 165.777 200.448 165.957C199.1 166.149 197.286 165.55 195.917 164.948C195.846 165.912 195.948 166.993 196.147 167.15C198.741 169.195 203.66 167.354 203.66 167.354C203.66 167.354 203.891 166.328 204.068 164.931Z" fill="#FAFAFA"/>
<path d="M204.069 164.931C200.347 166.047 199.662 166.245 195.918 164.948C196.541 165.283 197.196 165.56 197.875 165.774C199.314 166.22 200.164 166.181 201.061 165.98C202.132 165.742 203.14 165.379 204.069 164.931Z" fill="#957447"/>
<path d="M155.706 91.3336C156.771 91.7333 158.182 92.3268 158.182 92.3268C158.365 91.8881 154.85 91.1381 154.358 90.0699C154.094 89.498 158.39 91.6029 158.689 91.3522C158.812 91.2481 153.828 89.628 154.059 89.2371C154.252 88.9085 159.299 90.6847 159.327 90.4389C159.365 90.0972 154.957 89.2143 155.351 88.7226C155.554 88.4707 160.904 89.9157 161.481 89.9998C162.188 89.9998 159.632 88.2663 160.502 88.0344C161.685 87.7196 164.654 91.1184 164.886 91.1664C165.558 91.3056 171.281 92.0052 174.084 90.1754C176.347 88.6974 178.543 86.4243 179.081 84.4672C179.608 82.5484 180.338 79.8077 179.714 77.6935C182.263 77.3061 184.736 77.2172 187.323 77.5258C187.48 80.7008 183.673 93.2812 182.081 94.3163C178.579 96.5937 172.331 96.0367 167.926 95.6745C164.376 95.3827 160.899 94.6844 157.702 93.0642C156.987 92.702 156.03 92.2963 155.476 91.6661C155.333 91.5032 155.503 91.2573 155.706 91.3336Z" fill="#F25C12"/>
<path d="M181.304 67.0367C179.407 68.9934 177.491 80.7165 178.196 83.5106C179.414 85.7802 184.927 86.1718 186.71 87.2484C190.822 85.5599 188.005 77.9877 188.005 77.9877L189.504 63.2383C189.504 63.2383 184.918 63.3098 181.304 67.0367Z" fill="#E6A500"/>
<path d="M186.491 156.361C187.053 158.124 186.498 160.064 185.059 161.228C184.562 161.63 183.985 162.007 183.332 162.292C180.813 163.391 177.55 163.144 177.095 165.403C176.64 167.662 193.07 164.769 193.07 164.769C193.07 164.769 191.93 159.275 191.857 158.355C191.783 157.435 191.957 154.055 191.957 154.055L185.612 153.601L186.491 156.361Z" fill="#FF7446"/>
<path d="M192.402 160.881C192.402 160.881 192.603 161.753 193.063 163.232C193.523 164.712 193.236 166.105 193.236 166.105C193.236 166.105 177.847 166.832 177.224 166.346C176.601 165.859 176.921 164.087 177.079 163.931C177.236 163.774 179.189 163.247 180.191 162.63C181.193 162.013 184.613 159.679 185.769 159.773C186.925 159.867 187.458 160.719 189.653 160.817C191.848 160.915 191.857 160.455 192.402 160.881Z" fill="#001653"/>
<path d="M177.224 166.346C177.847 166.832 193.237 166.105 193.237 166.105C193.237 166.105 193.425 165.191 193.252 164.057C185.219 165.543 177.079 163.931 177.079 163.931C176.921 164.088 176.601 165.859 177.224 166.346Z" fill="#FAFAFA"/>
<path d="M193.255 164.057C187.769 165.151 181.687 164.92 177.082 163.931C185.459 165.194 192.213 164.215 191.746 164.262C191.766 164.26 193.356 164.043 193.255 164.057Z" fill="#957447"/>
<path d="M205.138 103.119C207.778 112.76 204.5 156.002 204.5 156.002L196.595 155.462C196.595 155.462 194.797 112.444 193.493 111.142C193.111 110.761 192.701 110.881 192.386 111.098C192.068 111.316 191.845 111.646 191.732 112.014C190.918 114.668 186.269 130.119 187.206 133.503C188.233 137.208 192.813 157.055 192.813 157.055L186.18 157.32C186.18 157.32 177.086 142.157 177.086 131.572C177.086 120.987 178.565 106.955 182.862 101.246C184.818 98.6475 194.448 96.6372 194.448 96.6372C194.448 96.6372 204.313 100.108 205.138 103.119Z" fill="#021F6E"/>
<path d="M190.852 157.038C190.852 157.038 186.272 135.875 185.245 131.925C184.5 129.056 187.287 118.052 188.869 112.241C189.344 110.496 191.443 109.794 192.876 110.899C192.876 110.899 186.18 129.798 187.206 133.503C188.233 137.208 192.813 157.055 192.813 157.055L186.18 157.32C186.18 157.32 186.163 157.292 186.132 157.238L190.852 157.038Z" fill="#021753"/>
<path d="M203.498 101.119C204.345 101.78 204.958 102.461 205.138 103.119C207.779 112.759 204.501 156.002 204.501 156.002L202.543 155.869C202.653 154.305 205.491 113.602 203.498 101.119Z" fill="#021753"/>
<path d="M181.344 103.831C181.805 102.849 182.311 101.979 182.862 101.246C183.089 100.944 183.42 100.65 183.827 100.367C184.926 100.927 186.445 101.538 188.546 102.184C194.883 104.129 201.716 103.092 204.554 102.105C204.843 102.445 205.046 102.785 205.137 103.12C205.367 103.956 205.551 105.045 205.697 106.336C204.28 107.389 196.042 109.932 188.546 107.55C183.79 106.038 182.017 105.123 181.344 103.831Z" fill="#021753"/>
<path d="M204.499 159.276C202.473 159.933 197.598 159.77 196.434 159.276C195.361 158.821 195.288 154.834 196.434 154.618C198.044 154.314 202.608 154.348 204.499 154.618C205.653 154.783 205.608 158.917 204.499 159.276Z" fill="#5D70A2"/>
<path d="M192.479 157.495C190.454 158.152 185.579 157.989 184.415 157.495C183.341 157.04 183.269 153.053 184.415 152.837C186.025 152.533 190.589 152.567 192.479 152.837C193.634 153.002 193.588 157.136 192.479 157.495Z" fill="#5D70A2"/>
<path d="M195.497 62.9081C195.497 62.9081 202.089 62.5697 204.783 65.7574C207.477 68.945 207.257 102.434 206.166 103.369C205.076 104.303 195.707 107.126 188.266 104.928C180.825 102.729 180.352 99.711 180.352 99.711C180.352 99.711 182.332 77.1892 182.332 71.0336C182.332 64.878 188.351 61.252 195.497 62.9081Z" fill="#FCC332"/>
<path d="M201.313 96.8299C201.896 95.2129 201.272 90.0694 200.609 86.3485C200.09 86.4476 199.591 86.5653 199.12 86.7012C198.323 84.24 197.621 77.8521 197.598 73.8363C197.554 66.3032 201.373 64.1123 201.373 64.1123C202.13 63.9397 203.341 64.651 205.235 66.6196C207.423 72.5914 206.965 100.383 205.939 101.262C205.502 101.636 204.647 103.985 202.443 104.452C201.87 102.205 200.774 98.3248 201.313 96.8299Z" fill="#E6A500"/>
<path d="M196.066 62.977C197.496 64.2889 197.607 64.314 196.121 66.0352C194.636 67.7564 189.719 69.7135 189.018 69.3828C187.277 68.5624 188.897 65.8234 190.056 63.8535C190.417 63.2383 194.637 61.6652 196.066 62.977Z" fill="#E6A500"/>
<path d="M189.675 58.0173C189.675 58.0173 189.29 67.0808 189.675 67.4777C190.06 67.8747 195.577 65.9562 196.058 64.8315C196.539 63.7068 194.047 47.3218 194.047 47.3218L189.675 58.0173Z" fill="#F25C12"/>
<path opacity="0.6" d="M189.512 63.9941C190.487 63.8187 191.326 63.571 191.573 63.2929C193.823 60.7548 192.137 56.6361 192.314 55.5651C192.666 53.4336 193.383 51.6725 193.023 49.8345L189.678 58.0175C189.678 58.0175 189.539 61.2946 189.512 63.9941Z" fill="#B5450E"/>
<path d="M160.097 68.3137C159.722 69.2576 160.502 70.1729 161.318 69.7673C161.511 69.6717 161.657 69.5002 161.736 69.3011C162.113 68.3567 161.332 67.4402 160.515 67.8473C160.323 67.943 160.176 68.1146 160.097 68.3137Z" fill="#00424C"/>
<path d="M160.602 68.7679L160.881 69.1589L161.05 68.691C161.271 68.0808 163.145 62.6926 161.076 61.4666C160.465 61.1033 159.889 61.2208 159.496 61.7846C158.591 63.0827 158.872 66.345 160.602 68.7679ZM159.908 62.1677C160.099 61.8942 160.335 61.8089 160.626 61.9111C160.693 61.9344 160.762 61.9675 160.835 62.0102C162.092 62.7553 161.299 66.19 160.731 67.9583C159.349 65.719 159.292 63.052 159.908 62.1677Z" fill="#00424C"/>
<path d="M160.863 68.4684L161.295 68.5617C161.688 68.6464 162.079 68.686 162.461 68.686C164.382 68.686 166.059 67.695 166.464 66.5509C166.68 65.9429 166.508 65.3646 165.992 64.9638C164.27 63.6272 161.452 67.6117 161.136 68.0713L160.863 68.4684ZM161.85 68.0379C162.655 66.9691 164.148 65.3021 165.192 65.3021C165.376 65.3021 165.547 65.354 165.697 65.4711C166.002 65.7083 166.093 65.9856 165.975 66.3192C165.653 67.2257 163.893 68.2833 161.85 68.0379Z" fill="#00424C"/>
<path d="M147.117 92.3008H173.049C174.469 92.3008 175.62 91.1517 175.62 89.7341V71.4557C175.62 70.0382 174.469 68.8892 173.049 68.8892H147.117C145.698 68.8892 144.547 70.0383 144.547 71.4558V89.7344C144.547 91.1518 145.698 92.3008 147.117 92.3008Z" fill="#FCC332"/>
<path d="M146.58 68.8892H156.292V92.3009H146.58C145.457 92.3009 144.547 90.8481 144.547 89.0564V72.1337C144.547 70.3418 145.457 68.8892 146.58 68.8892Z" fill="#F29913"/>
<path d="M165.027 68.8892H165.794C169.938 76.3606 167.399 89.4475 166.774 92.3009H166.176C166.605 90.3785 169.566 76.1443 165.063 68.9582C165.049 68.9364 165.037 68.9134 165.027 68.8892Z" fill="#00424C"/>
<path d="M150.695 92.2125C150.699 92.2422 150.701 92.2717 150.701 92.3009H150.133C148.46 78.9625 150.306 71.9065 151.552 68.8892H152.254C151.121 71.4112 148.946 78.3628 150.695 92.2125Z" fill="#00424C"/>
<path d="M196.812 117.612H216.169C216.536 117.612 216.833 117.315 216.833 116.949V104.402C216.833 104.036 216.536 103.739 216.169 103.739H196.812C196.445 103.739 196.148 104.036 196.148 104.402V116.949C196.148 117.315 196.445 117.612 196.812 117.612Z" fill="#50BFA5"/>
<path d="M196.937 116.014H214.457V105.337H196.937V116.014Z" fill="#FAFAFA"/>
<path d="M196.081 113.728H197.18C197.387 113.728 197.554 113.561 197.554 113.354V107.997C197.554 107.79 197.387 107.623 197.18 107.623H196.081C195.875 107.623 195.707 107.79 195.707 107.997V113.354C195.707 113.561 195.875 113.728 196.081 113.728Z" fill="#F29913"/>
<path d="M202.902 96.8301C201.598 100.792 206.19 109.362 204.325 112.105C202.46 114.847 203.398 117.727 205.658 119.155C207.918 120.582 210.727 118.582 210.501 117.495C210.274 116.408 209.665 113.481 209.386 112.144C209.107 110.806 214.364 100.088 210.663 93.5889C208.468 89.7321 211.714 83.0942 209.999 78.8052C208.464 81.6615 201.198 79.8767 201.615 83.0111C202.278 85.6887 203.635 94.6033 202.902 96.8301Z" fill="#F25C12"/>
<path d="M186.438 48.62C186.438 48.62 185.492 51.8728 185.492 54.5402C185.492 57.2075 185.555 61.8266 187.448 61.8266C189.34 61.8266 192.053 61.3062 192.683 57.5329C193.314 53.7596 192.683 49.5958 190.791 48.62C188.898 47.6441 186.438 48.62 186.438 48.62Z" fill="#FF7446"/>
<path d="M187.178 51.0231C187.687 50.8134 188.214 51.2671 188.116 51.8235C187.96 52.7152 187.999 53.6922 188.834 53.8958C190.442 54.2878 191.203 53.8958 191.466 54.1672C191.729 54.4386 190.706 55.8862 191.466 56.1576C192.226 56.429 192.635 53.8356 193.308 53.8356C193.98 53.8356 194.127 57.5749 193.308 58.4193C192.489 59.2637 193.425 60.4097 194.507 60.4097C195.589 60.4097 194.37 61.7667 195.827 62.219C197.285 62.6713 198.454 62.6713 198.922 60.8318C199.39 58.9923 198.922 57.9669 198.922 57.9669C198.922 57.9669 200.412 56.2278 200.033 54.509C199.823 53.5535 198.855 51.8348 198.855 51.8348C198.855 51.8348 198.104 49.7945 197.899 48.6184C197.694 47.4423 194.794 46.2661 192.809 46.0551C190.823 45.844 191.817 44.6377 190.15 44.6377C188.483 44.6377 188.255 46.8354 188.255 46.8354C188.255 46.8354 185.875 45.4148 185.764 45.4821C184.379 46.3245 185.53 47.8041 185.53 47.8041C185.53 47.8041 184.39 47.9247 184.156 49.4025C183.922 50.8801 184.887 51.7848 186.407 51.3023C186.695 51.211 186.952 51.1164 187.178 51.0231Z" fill="#100062"/>
<path d="M185.531 45.6489C185.825 45.6909 186.211 45.7836 186.673 45.9213C187.386 46.3169 188.254 46.8357 188.254 46.8357C188.254 46.8357 191.361 47.7038 193.141 48.5509C195.423 49.6367 197.422 50.7258 198.765 51.584C198.82 51.7419 198.855 51.835 198.855 51.835C198.855 51.835 199.211 52.467 199.538 53.1776C198.125 52.8693 195.365 51.8066 192.287 50.3418C188.81 48.6875 185.335 45.8149 185.531 45.6489Z" fill="#0C004A"/>
<path d="M192.253 53.6327C192.253 53.6327 193.057 52.1544 193.773 52.9793C194.489 53.8043 194.113 57.2923 193.013 57.2923C191.913 57.2923 191.863 54.5675 192.253 53.6327Z" fill="#FF7446"/>
<path d="M201.171 64.1833C201.171 64.1833 198.929 65.8869 198.969 73.42C198.991 77.4359 200.171 84.2403 200.899 86.7016C203.918 85.7488 208.176 85.6871 211.26 86.7016C211.675 83.415 210.836 76.4015 210.313 74.1356C209.026 68.5634 204.375 62.9083 201.171 64.1833Z" fill="#FCC332"/>
<path d="M187.603 46.0417C189.094 42.9181 192.863 41.6041 196.021 43.1067C199.178 44.6094 200.53 48.3597 199.039 51.4833C198.981 51.6036 198.919 51.7202 198.855 51.835L187.445 46.4053C187.494 46.2834 187.546 46.162 187.603 46.0417Z" fill="#FCB500"/>
<path d="M189.975 47.4668C190.024 47.3449 190.076 47.2234 190.133 47.1031C191.379 44.494 194.213 43.1475 196.954 43.6504C196.663 43.4467 196.352 43.2643 196.021 43.1067C192.863 41.6041 189.095 42.9181 187.604 46.0417C187.546 46.162 187.494 46.2834 187.445 46.4054L198.855 51.8351C198.876 51.7976 189.975 47.4668 189.975 47.4668Z" fill="#FCC332"/>
<path d="M182.348 44.1352C182.469 43.8808 188.41 46.3002 192.208 48.1076C196.006 49.9151 198.987 51.5865 198.865 51.8409C198.744 52.0954 192.444 50.6182 188.646 48.8108C184.848 47.0034 182.226 44.3897 182.348 44.1352Z" fill="#FC9700"/>
<path d="M70.0253 156.195C70.0253 156.195 68.6828 157.521 68.6523 158.008C68.6218 158.494 68.5334 163.707 69.0813 164.193C69.6293 164.68 71.2391 165.025 70.7218 165.572C70.3306 165.986 67.3211 165.898 65.3266 165.787C64.7444 165.754 64.0143 161.053 63.7836 160.362C63.4489 159.358 62.3906 156.833 62.695 156.134C62.8434 155.793 63.7968 155.357 64.797 154.703C65.8489 154.016 66.8554 152.484 66.8554 152.484L70.0253 156.195Z" fill="#F7A491"/>
<path d="M87.9838 159.452C87.9838 159.452 86.7823 162.887 86.7811 162.896C86.6917 163.44 86.3398 164.785 86.3398 165.279C86.3398 167.138 94.6217 163.702 92.7656 162.878C92.5975 162.803 92.0704 162.208 92.0154 161.575C91.9302 160.601 92.7129 159.378 92.7129 159.378L87.9838 159.452Z" fill="#F7A491"/>
<path d="M87.2967 98.2072L83.0093 103.202L78.8053 129.33L65.5742 153.706C65.5742 153.706 67.5638 156.755 69.7 157.235L88.4793 132.599L98.6569 101.759L98.2996 94.9062L87.2967 98.2072Z" fill="#184655"/>
<path d="M98.0276 93.3867L100.991 102.512C100.991 102.512 103.6 129.696 103.229 131.569C102.323 136.137 93.1761 161.013 93.1761 161.013L87.3159 160.268L93.7477 130.856L83.0312 103.226L98.0276 93.3867Z" fill="#355389"/>
<path d="M126.479 62.3228C125.094 63.849 125.395 64.0325 125.212 64.2232C124.996 64.4488 120.975 65.3041 120.975 65.3041C120.975 65.3041 109.14 67.9069 108.496 68.0241L96.2194 65.236L93.2305 71.1756C93.2305 71.1756 106.66 73.8391 107.384 73.8507C108.108 73.8625 123.69 68.3973 125.078 67.9626C125.078 67.9626 126.923 68.0824 128.084 68.118C129.245 68.1534 130.355 67.6492 130.683 67.6067C130.731 67.6005 131.813 67.3932 133.077 66.767C134.166 66.2275 132.89 66.217 132.89 66.217C132.89 66.217 130.696 66.8371 130.677 66.648C130.662 66.5021 131.881 66.2372 133.091 65.6534C133.403 65.5033 133.71 65.3539 133.99 65.2145C134.727 64.8483 134.717 64.2699 133.886 64.5245C133.592 64.6143 133.108 64.7761 132.779 64.9423C132.424 65.1221 132.041 65.167 131.72 65.2702C131.082 65.4752 130.62 65.6331 130.625 65.601C130.633 65.5593 130.478 65.5063 130.804 65.3364C131.195 65.132 132.121 64.8904 132.674 64.5429C132.988 64.3458 133.667 63.9759 133.667 63.9759C133.667 63.9759 134.801 63.2357 134.691 63.0826C134.45 62.7487 133.657 63.0868 133.265 63.413C132.912 63.486 132.208 63.8964 132.208 63.8964C132.208 63.8964 130.601 64.391 130.528 64.1542C130.499 64.06 131.327 63.5802 132.155 63.0073C133.03 62.4017 133.632 61.9215 133.548 61.7266C133.415 61.4164 132.677 61.8473 132.677 61.8473C132.677 61.8473 132.027 62.2275 131.802 62.3364C131.538 62.464 130.717 62.7833 130.717 62.7833C130.717 62.7833 127.812 63.7548 127.761 63.5244C127.709 63.2945 127.804 62.6527 127.963 62.5271C128.123 62.4015 128.532 62.3327 128.691 62.2072C128.851 62.0816 129.167 61.7792 129.032 61.5618C128.897 61.344 127.687 61.6352 127.687 61.6352C127.687 61.6352 126.88 61.8823 126.479 62.3228Z" fill="#F8A492"/>
<path d="M100.428 65.8661C100.428 65.8661 100.005 68.4698 99.7333 69.4332C99.5076 70.2336 97.9192 73.5259 97.9192 73.5259C97.9192 73.5259 92.2267 71.6625 89.5367 70.5965C86.2732 69.3035 82.5008 66.5183 82.7457 66.1656C83.4327 65.1767 84.5425 64.0217 86.1083 63.6309C91.5266 62.2785 100.428 65.8661 100.428 65.8661Z" fill="#3C8F7C"/>
<path d="M101.086 102.32C95.6549 104.461 82.8897 103.225 82.8897 103.225C82.8897 103.225 83.6986 97.6602 83.9845 93.9014C84.2703 90.1454 81.8749 84.1981 80.8632 73.8777C80.6487 71.6891 81.5063 65.7785 84.579 63.9235C85.6595 63.2724 86.3198 63.1868 86.3198 63.1868C86.3483 63.1862 90.548 62.3311 92.6909 62.9903C93.2997 63.5322 95.1975 65.0963 96.2895 66.9258C97.7244 69.3486 98.9021 72.1427 99.1793 73.0618C100.417 77.1544 100.943 89.0041 100.943 91.2386C100.943 93.4734 101.086 102.32 101.086 102.32Z" fill="#50BFA5"/>
<path d="M96.2892 66.9257C96.2863 66.9286 96.2805 66.9286 96.2749 66.9313C94.1881 67.579 86.3164 63.2096 86.3164 63.2096L86.3194 63.1867L87.274 56.9537C87.274 56.9537 92.1874 55.7982 91.9016 57.5702C91.6157 59.3397 92.5675 62.8784 92.5675 62.8784C92.5989 62.9102 92.6391 62.9472 92.6904 62.9902C93.2993 63.532 95.1972 65.0962 96.2892 66.9257Z" fill="#F7A491"/>
<path d="M91.9029 57.5699C92.1888 55.7992 87.2748 56.9551 87.2748 56.9551L87.1953 57.4737C87.3389 57.8206 87.5149 58.1177 87.7282 58.3454C88.8261 59.5171 90.5417 60.2208 92.0252 60.274C91.8767 59.3194 91.7855 58.296 91.9029 57.5699Z" fill="#FE875E"/>
<path d="M86.3258 47.3711C86.1755 47.3168 85.1199 55.0865 87.1229 57.2243C89.126 59.3622 93.0285 60.062 94.4284 58.3782C95.9769 56.5159 95.899 48.1651 92.7848 45.966C89.6705 43.7666 86.3258 47.3711 86.3258 47.3711Z" fill="#F7A491"/>
<path d="M91.5991 41.8097C89.1923 42.2964 87.633 43.7555 87.0601 44.3775C85.9671 44.505 84.4817 45.1044 82.9478 47.6234C81.0612 50.7211 82.4543 54.1531 84.65 55.8368C86.8458 57.5203 86.8209 59.4753 86.8209 59.4753C86.8209 59.4753 90.5413 57.5688 90.1801 54.632C90.0285 53.3994 89.4932 53.1199 89.8945 52.1548C90.311 51.1529 89.9995 49.5955 90.0769 48.2428L90.3002 47.3901C90.3002 47.3901 91.8582 46.1874 93.3827 46.5265C94.907 46.8659 94.6876 41.1852 91.5991 41.8097Z" fill="#13375B"/>
<path d="M90.504 52.9646C90.52 53.9126 90.327 54.6717 89.7752 54.681C89.2233 54.6906 89.0677 54.3192 88.6109 52.9814C88.1827 51.7271 88.7027 51.2574 89.2545 51.2481C89.8062 51.2385 90.488 52.0169 90.504 52.9646Z" fill="#F7A491"/>
<path d="M64.8618 154.67C64.8618 154.67 67.666 163.271 68.877 163.697C69.1985 163.81 71.0321 164.313 71.3231 165.003C71.3304 165.021 71.3365 165.041 71.3416 165.065C71.4354 165.502 71.0672 165.906 70.6189 165.906H64.8735C64.8735 165.906 64.0579 162.021 63.7355 160.315C63.7355 160.315 62.0281 156.144 62.2178 155.765C62.4077 155.386 64.8618 154.67 64.8618 154.67Z" fill="#3C8F7C"/>
<path d="M85.8711 165.892L86.8196 162.86C86.8196 162.86 88.8114 163.713 89.8073 163.571C90.803 163.429 92.7475 162.86 92.7475 162.86C96.7225 164.184 99.979 164.827 99.3866 165.892H85.8711Z" fill="#3C8F7C"/>
<path d="M126.819 75.4542C124.99 76.5617 125.098 76.6939 124.86 76.83C124.578 76.9907 120.231 76.8006 120.231 76.8006C120.231 76.8006 107.416 76.3229 106.725 76.2734L94.907 70.5493L90.25 75.4609C90.25 75.4609 103.281 81.3546 104.019 81.5467C104.758 81.7388 122.179 80.4262 123.716 80.3588C123.716 80.3588 125.573 80.9339 126.752 81.2581C127.93 81.582 129.203 81.3787 129.549 81.4205C129.6 81.4267 130.764 81.4997 132.226 81.219C133.486 80.9772 132.183 80.6481 132.183 80.6481C132.183 80.6481 129.77 80.6905 129.802 80.5054C129.826 80.3631 131.144 80.4151 132.541 80.1615C132.9 80.0962 133.254 80.0306 133.579 79.9683C134.432 79.803 134.577 79.2497 133.657 79.2847C133.333 79.2967 132.794 79.33 132.413 79.4065C132.001 79.4888 131.596 79.4356 131.24 79.4535C130.532 79.4894 130.056 79.5232 130.07 79.4944C130.089 79.4565 129.905 79.3688 130.284 79.2879C130.74 79.1912 131.753 79.1923 132.413 78.9993C132.786 78.8902 133.582 78.7074 133.582 78.7074C133.582 78.7074 134.525 78.145 134.519 78.0703C134.484 77.6658 133.81 77.8578 133.321 78.0708C132.94 78.0517 132.109 78.2668 132.109 78.2668C132.109 78.2668 130.331 78.3365 130.32 78.0929C130.315 77.9996 131.341 77.9305 132.399 77.5946C133.61 77.2098 133.91 76.6676 133.876 76.4529C133.823 76.1241 133.141 76.4324 133.141 76.4324C133.141 76.4324 132.206 76.8575 131.946 76.9048C131.641 76.9604 127.647 77.0331 127.656 76.8013C127.666 76.5695 128.051 76.2654 128.248 76.1855C128.445 76.1056 128.82 75.9976 129.017 75.9182C129.213 75.8382 129.349 75.432 129.269 75.191C129.189 74.9498 128.32 75.0798 128.32 75.0798C128.32 75.0798 127.347 75.1344 126.819 75.4542Z" fill="#F8A492"/>
<path d="M93.7497 80.7265C93.7497 80.7265 96.0753 77.7979 96.8858 76.6122C98.4591 74.3105 99.7764 71.7166 99.7764 71.7166C99.7764 71.7166 93.2973 67.9908 90.8828 66.7202C82.0222 62.0569 82.2283 69.0112 82.64 70.5545C83.561 74.0063 93.7497 80.7265 93.7497 80.7265Z" fill="#96D9C9"/>
<path d="M126.629 65.5509C127.395 65.1147 127.988 64.4307 127.793 63.5698C128.45 64.2514 127.622 65.5103 126.629 65.5509Z" fill="#FE875E"/>
</g>
<defs>
<clipPath id="clip0_512_14159">
<rect width="230" height="170" fill="white"/>
</clipPath>
</defs>
</svg>
