<svg width="230" height="92" viewBox="0 0 230 92" fill="none" xmlns="http://www.w3.org/2000/svg">
<g clip-path="url(#clip0_2006_7529)">
<path d="M9.85317 22.0887V49.7725H14.7275C19.01 49.7725 22.3524 48.4875 24.7896 45.9519C27.2267 43.3815 28.4453 39.9078 28.4453 35.4964C28.4453 31.3283 27.2267 28.0631 24.8244 25.6664C22.422 23.2697 19.0448 22.0887 14.6579 22.0887H9.85317ZM0 57.7618V14.0996H15.4935C31.0566 14.0996 38.8207 21.1856 38.8207 35.3923C38.8207 42.2003 36.6968 47.6191 32.4492 51.6832C28.2016 55.7473 22.5613 57.7618 15.4935 57.7618H0Z" fill="#121212"/>
<path d="M63.052 39.0085C63.052 34.5275 61.2416 32.3045 57.6204 32.3045C56.0886 32.3045 54.7306 32.9296 53.6168 34.215C52.5026 35.5 51.806 37.0979 51.5625 39.0085H63.052ZM71.9652 44.9133H51.5625C51.8757 49.4288 54.7306 51.7216 60.1274 51.7216C63.5741 51.7216 66.6032 50.9225 69.1799 49.2902V56.2372C66.2901 57.7654 62.5296 58.5644 57.899 58.5644C52.8505 58.5644 48.951 57.1749 46.1309 54.3614C43.3456 51.5826 41.9531 47.6923 41.9531 42.6905C41.9531 37.5148 43.4501 33.4159 46.4792 30.3941C49.4735 27.3721 53.1988 25.8438 57.5856 25.8438C62.1468 25.8438 65.6632 27.1984 68.1702 29.9078C70.6768 32.6171 71.8955 36.2643 71.8955 40.9188V44.9133H71.9652Z" fill="#121212"/>
<path d="M86.1013 57.7667H76.457V11.6035H86.1013V57.7667Z" fill="#121212"/>
<path d="M102.639 57.7624H92.9951V26.5702H102.639V57.7624ZM97.8694 21.6378C96.2331 21.6378 94.91 21.1515 93.8655 20.1789C92.8209 19.2063 92.2988 18.0253 92.2988 16.6359C92.2988 15.2118 92.8209 14.0308 93.8655 13.0929C94.91 12.1898 96.2331 11.7383 97.8694 11.7383C99.5057 11.7383 100.864 12.1898 101.873 13.0929C102.918 13.9961 103.405 15.177 103.405 16.6359C103.405 18.0948 102.883 19.3105 101.873 20.2137C100.864 21.1863 99.5057 21.6378 97.8694 21.6378Z" fill="#121212"/>
<path d="M139.267 26.5742L127.638 57.7665H116.636L105.564 26.5742H115.87L121.302 45.7829C121.928 47.9712 122.277 49.8121 122.381 51.3403H122.52C122.659 49.9163 123.042 48.1101 123.634 45.9912L129.205 26.609H139.267V26.5742Z" fill="#121212"/>
<path d="M160.679 39.0085C160.679 34.5275 158.869 32.3045 155.248 32.3045C153.716 32.3045 152.358 32.9296 151.244 34.215C150.13 35.5 149.434 37.0979 149.19 39.0085H160.679ZM169.627 44.9133H149.225C149.538 49.4288 152.393 51.7216 157.79 51.7216C161.237 51.7216 164.266 50.9225 166.842 49.2902V56.2372C163.952 57.7654 160.192 58.5644 155.561 58.5644C150.513 58.5644 146.613 57.1749 143.793 54.3614C141.008 51.5826 139.615 47.6923 139.615 42.6905C139.615 37.5148 141.112 33.4159 144.141 30.3941C147.136 27.3721 150.861 25.8438 155.248 25.8438C159.809 25.8438 163.326 27.1984 165.832 29.9078C168.339 32.6171 169.558 36.2643 169.558 40.9188V44.9133H169.627Z" fill="#121212"/>
<path d="M194.487 35.2597C193.338 34.6344 191.98 34.3216 190.413 34.3216C188.324 34.3216 186.688 35.0858 185.504 36.6144C184.32 38.1425 183.728 40.2267 183.728 42.8664V57.7678H174.084V26.5757H183.728V32.3765H183.868C185.4 28.1388 188.15 26.0547 192.119 26.0547C193.129 26.0547 193.93 26.1589 194.487 26.4368V35.2597Z" fill="#121212"/>
<path d="M229.999 26.5742L217.291 60.2673C214.227 68.3607 209.631 72.4248 203.503 72.4248C201.171 72.4248 199.256 72.1468 197.724 71.6257V63.9493C199.012 64.7135 200.405 65.0608 201.902 65.0608C204.374 65.0608 206.115 63.8799 207.089 61.5527L208.726 57.6969L196.018 26.5742H206.706L212.521 45.5397C212.904 46.7206 213.182 48.1101 213.391 49.708H213.53C213.705 48.5268 214.053 47.1721 214.54 45.6091L220.424 26.5742H229.999Z" fill="#121212"/>
<path d="M44.5319 87.6732C42.0601 89.0627 39.5182 89.7573 36.9071 89.7573C33.6342 89.7573 31.023 88.6457 29.0037 86.4574C26.9843 84.2343 25.9746 81.3514 25.9746 77.7736C25.9746 74.161 27.0539 71.1391 29.2474 68.7077C31.406 66.2763 34.3307 65.0605 37.9516 65.0605C40.0407 65.0605 42.0949 65.4772 44.0795 66.3111V68.1172C41.9207 67.075 39.7969 66.5542 37.7078 66.5542C34.6787 66.5542 32.2764 67.5961 30.4312 69.6454C28.5859 71.6951 27.6806 74.3348 27.6806 77.4957C27.6806 80.8652 28.551 83.4701 30.2571 85.3807C31.9631 87.291 34.2959 88.2288 37.2205 88.2288C39.3792 88.2288 41.2593 87.7773 42.8956 86.8396V78.9545H37.2554V77.4608H44.5667V87.6732H44.5319Z" fill="#121212"/>
<path d="M51.0406 66.966V77.178H55.1487C56.9595 77.178 58.4216 76.6917 59.501 75.754C60.5803 74.8159 61.1024 73.496 61.1024 71.8289C61.1024 70.3004 60.6152 69.1195 59.6403 68.2511C58.6654 67.3826 57.2726 66.966 55.497 66.966H51.0406ZM61.6249 89.3355L58.4216 82.3537C57.7602 80.8948 57.0985 79.9567 56.437 79.436C55.7756 78.9497 54.9401 78.7065 53.9652 78.7065H51.0058V89.3355H49.3691V65.4375H56.0191C58.143 65.4375 59.7796 65.9934 60.9979 67.1395C62.2166 68.2859 62.8087 69.7796 62.8087 71.6551C62.8087 73.3919 62.3211 74.8159 61.3114 75.9623C60.3365 77.1087 58.9437 77.8726 57.1681 78.1854V78.2547C58.1082 78.6369 59.0482 79.7833 59.9534 81.6936L63.5049 89.3007H61.6249V89.3355Z" fill="#121212"/>
<path d="M77.7105 66.5559C74.9249 66.5559 72.6272 67.5629 70.8516 69.5777C69.0408 71.5922 68.1705 74.2323 68.1705 77.4625C68.1705 80.7623 69.0063 83.3675 70.7123 85.3127C72.4182 87.2578 74.6814 88.2304 77.5364 88.2304C80.4958 88.2304 82.8284 87.2578 84.5691 85.3475C86.3102 83.4372 87.1458 80.7278 87.1458 77.289C87.1458 73.9195 86.3102 71.2797 84.604 69.3694C82.898 67.4936 80.6003 66.5559 77.7105 66.5559ZM77.5364 89.7589C74.159 89.7589 71.4434 88.6474 69.4588 86.3894C67.4394 84.1318 66.4297 81.2489 66.4297 77.6363C66.4297 73.8153 67.4742 70.7934 69.5284 68.4662C71.5827 66.1737 74.4028 65.0273 77.9888 65.0273C81.2269 65.0273 83.8381 66.1389 85.8226 68.3272C87.8072 70.5155 88.8169 73.4332 88.8169 77.011C88.8169 80.9709 87.8072 84.0625 85.753 86.3549C83.6987 88.6474 80.9483 89.7589 77.5364 89.7589Z" fill="#121212"/>
<path d="M109.326 79.7875C109.326 86.422 106.506 89.7567 100.796 89.7567C95.3992 89.7567 92.6836 86.561 92.6836 80.1696V65.4766H94.3199V79.9613C94.3199 85.5188 96.5831 88.263 101.109 88.263C105.496 88.263 107.655 85.5536 107.655 80.1696V65.4766H109.291V79.7875H109.326Z" fill="#121212"/>
<path d="M116.148 66.9702V78.2593H119.56C121.719 78.2593 123.355 77.7382 124.469 76.7308C125.583 75.6889 126.141 74.2645 126.141 72.389C126.141 68.8112 124.086 67.0051 119.943 67.0051H116.148V66.9702ZM116.148 79.7875V89.3745H114.512V65.4766H120.291C122.763 65.4766 124.643 66.0325 125.932 67.1786C127.22 68.3249 127.881 69.9921 127.881 72.1807C127.881 74.4035 127.15 76.21 125.688 77.6689C124.226 79.0929 122.206 79.8223 119.595 79.8223H116.148V79.7875Z" fill="#121212"/>
<path d="M145.533 20.7022H129.135L137.943 10.3511L129.135 0H145.533L154.342 10.3511L145.533 20.7022Z" fill="#FDCE00"/>
<path d="M170.742 20.7022H154.344L163.152 10.3511L154.344 0H170.742L179.551 10.3511L170.742 20.7022Z" fill="#B2B2B3"/>
<path d="M195.984 20.7022H179.551L188.359 10.3511L179.551 0H195.984L204.793 10.3511L195.984 20.7022Z" fill="#3F53A1"/>
<path d="M221.192 20.7022H204.793L213.602 10.3511L204.793 0H221.192L230 10.3511L221.192 20.7022Z" fill="#95B51F"/>
</g>
<defs>
<clipPath id="clip0_2006_7529">
<rect width="230" height="92" fill="white"/>
</clipPath>
</defs>
</svg>
