<svg width="411" height="68" viewBox="0 0 411 68" fill="none" xmlns="http://www.w3.org/2000/svg">
<path d="M11.6767 67.4858H0.515625V0.628677H11.6767V27.3905H33.9571V0.628677H45.1182V67.4858H33.9571V40.7696H11.6767V67.4858Z" fill="#121212"/>
<path d="M93.685 67.4858H55.4609V0.628677H93.685V14.0078H66.622V27.3905H84.9367V40.7696H66.622V54.1031H93.685V67.4858Z" fill="#121212"/>
<path d="M176.895 67.4858H165.776V14.0078H149.016V0.628677H193.616V14.0078H176.895V67.4858Z" fill="#121212"/>
<path d="M311.986 67.4858H272.945V0.628677H284.107V54.1031H311.986V67.4858Z" fill="#121212"/>
<path d="M359.854 40.7691C359.854 44.4707 359.272 47.9417 358.104 51.1908C356.938 54.4395 355.344 57.2692 353.321 59.6753C351.299 62.0855 348.933 63.9896 346.226 65.388C343.517 66.7864 340.619 67.4854 337.534 67.4854C334.45 67.4854 331.552 66.7864 328.843 65.388C326.134 63.9896 323.776 62.0855 321.766 59.6753C319.757 57.2692 318.169 54.4395 317.003 51.1908C315.837 47.9417 315.254 44.4707 315.254 40.7691V0.628433H326.373V40.7691C326.373 42.6031 326.666 44.3307 327.249 45.9466C327.832 47.563 328.63 48.9739 329.641 50.1872C330.652 51.4004 331.837 52.3544 333.199 53.0536C334.559 53.753 336.004 54.1026 337.534 54.1026C339.064 54.1026 340.51 53.753 341.87 53.0536C343.23 52.3544 344.416 51.4004 345.428 50.1872C346.439 48.9739 347.235 47.563 347.82 45.9466C348.403 44.3307 348.693 42.6031 348.693 40.7691V0.628433H359.854V40.7691Z" fill="#121212"/>
<path d="M366.27 20.6744C366.27 17.9105 366.709 15.3154 367.592 12.8886C368.473 10.4662 369.671 8.3441 371.188 6.52647C372.704 4.70885 374.474 3.26916 376.497 2.2122C378.519 1.155 380.683 0.628677 382.99 0.628677H408.576V14.0076H382.99C382.213 14.0076 381.487 14.1804 380.813 14.5214C380.138 14.8631 379.549 15.3358 379.043 15.9445C378.538 16.5493 378.142 17.2565 377.857 18.0666C377.572 18.8726 377.429 19.745 377.429 20.6744C377.429 21.6082 377.572 22.488 377.857 23.3103C378.142 24.1332 378.538 24.8487 379.043 25.4531C379.549 26.0622 380.138 26.535 380.813 26.8762C381.487 27.2179 382.213 27.3905 382.99 27.3905H394.149C396.457 27.3905 398.628 27.9084 400.664 28.9534C402.697 29.994 404.475 31.4207 405.991 33.2388C407.506 35.0608 408.699 37.1872 409.568 39.6298C410.436 42.0686 410.87 44.6721 410.87 47.4363C410.87 50.204 410.436 52.7991 409.568 55.2256C408.699 57.6481 407.506 59.7704 405.991 61.588C404.475 63.4061 402.697 64.8456 400.664 65.9023C398.628 66.9593 396.457 67.4858 394.149 67.4858H369.381V54.1029H394.149C394.929 54.1029 395.653 53.9341 396.328 53.5929C397.002 53.2515 397.59 52.7741 398.096 52.17C398.602 51.5652 398.998 50.858 399.283 50.0477C399.568 49.2416 399.711 48.3696 399.711 47.4363C399.711 46.5068 399.568 45.6345 399.283 44.8284C398.998 44.0181 398.602 43.3109 398.096 42.7063C397.59 42.0977 397.002 41.6249 396.328 41.2832C395.653 40.942 394.929 40.7694 394.149 40.7694H382.99C380.683 40.7694 378.519 40.2431 376.497 39.1859C374.474 38.1289 372.704 36.6895 371.188 34.8716C369.671 33.0535 368.473 30.9273 367.592 28.4847C366.709 26.0457 366.27 23.4422 366.27 20.6744Z" fill="#121212"/>
<path d="M143.728 16.9688C142.563 13.7197 140.969 10.8861 138.946 8.45959C136.924 6.03714 134.558 4.12466 131.851 2.72651C129.141 1.32787 126.244 0.628677 123.159 0.628677C120.075 0.628677 117.177 1.32787 114.468 2.72651C111.759 4.12466 109.401 6.03714 107.391 8.45959C105.382 10.8861 103.793 13.7197 102.628 16.9688C101.462 20.218 100.879 23.689 100.879 27.3905V67.4858H111.998V54.1031V40.7696V34.9004V27.3905C111.998 25.5566 112.291 23.8247 112.874 22.1919C113.457 20.5592 114.254 19.136 115.266 17.9269C116.277 16.7136 117.462 15.7556 118.824 15.0564C120.184 14.3574 121.629 14.0078 123.159 14.0078C124.689 14.0078 126.134 14.3574 127.495 15.0564C128.855 15.7556 130.042 16.7136 131.053 17.9269C132.064 19.136 132.86 20.5592 133.445 22.1919C134.028 23.8247 134.318 25.5566 134.318 27.3905V34.9004V40.7696V54.1031V67.4858H145.479V27.3905C145.479 23.689 144.896 20.218 143.728 16.9688Z" fill="#121212"/>
<path d="M265.617 20.3039C265.085 18.0335 264.334 15.9035 263.363 13.9168C262.389 11.926 261.223 10.1163 259.863 8.4836C258.501 6.85086 256.998 5.4527 255.352 4.28865C253.705 3.12077 251.936 2.21988 250.043 1.58263C248.151 0.945137 246.181 0.628433 244.133 0.628433H221.812V14.106H232.974V14.0073H244.133C245.663 14.0073 247.102 14.3569 248.449 15.0561C249.796 15.7551 250.977 16.7133 251.989 17.9266C253 19.1358 253.796 20.5587 254.379 22.1914C254.963 23.8244 255.254 25.5561 255.254 27.3903C255.254 29.2242 254.963 30.9561 254.379 32.5889C253.796 34.2216 253 35.6404 251.989 36.8537C250.977 38.0672 249.796 39.0209 248.449 39.7201C247.102 40.4193 245.663 40.7691 244.133 40.7691H236.417H232.974H228.45C225.791 40.7691 221.812 42.4062 221.812 48.8527V67.4854H232.974V54.1026H244.133C247.193 54.1026 250.076 53.4037 252.784 52.0048C255.494 50.6066 257.86 48.6944 259.882 46.272C261.904 43.8452 263.499 41.0117 264.664 37.7625C265.83 34.5133 266.415 31.0589 266.415 27.3903C266.415 24.9349 266.149 22.5701 265.617 20.3039Z" fill="#121212"/>
<path d="M130.061 45.4292C130.061 49.5725 126.98 52.9312 123.179 52.9312C119.378 52.9312 116.297 49.5725 116.297 45.4292C116.297 41.2859 119.378 37.9277 123.179 37.9277C126.98 37.9277 130.061 41.2859 130.061 45.4292Z" fill="#E42B28"/>
<path d="M235.577 27.6177C235.577 31.761 232.496 35.1196 228.694 35.1196C224.894 35.1196 221.812 31.761 221.812 27.6177C221.812 23.4743 224.894 20.1162 228.694 20.1162C232.496 20.1162 235.577 23.4743 235.577 27.6177Z" fill="#E42B28"/>
</svg>
