<svg width="74" height="69" viewBox="0 0 74 69" fill="none" xmlns="http://www.w3.org/2000/svg">
<path fill-rule="evenodd" clip-rule="evenodd" d="M30.25 0C46.8185 0 60.25 13.4316 60.25 30C60.25 46.5685 46.8185 60.0001 30.25 60.0001C13.6815 60.0001 0.25 46.5685 0.25 30C0.25 13.4316 13.6815 0 30.25 0Z" fill="#EFEFEF"/>
<path fill-rule="evenodd" clip-rule="evenodd" d="M57 40.5C61.4183 40.5 65 44.0818 65 48.5C65 52.9182 61.4183 56.5 57 56.5C52.5817 56.5 49 52.9182 49 48.5C49 44.0818 52.5817 40.5 57 40.5Z" fill="#FF0000"/>
<g clip-path="url(#clip0_42_2487)">
<path d="M48.5996 48.8151C48.5996 50.909 49.4372 52.917 50.9281 54.3976C52.419 55.8781 54.4411 56.7099 56.5496 56.7099C58.6581 56.7099 60.6802 55.8781 62.1711 54.3976C63.662 52.917 64.4996 50.909 64.4996 48.8151C64.4996 46.7213 63.662 44.7133 62.1711 43.2327C60.6802 41.7522 58.6581 40.9204 56.5496 40.9204C54.4411 40.9204 52.419 41.7522 50.9281 43.2327C49.4372 44.7133 48.5996 46.7213 48.5996 48.8151Z" stroke="#121212" stroke-width="2" stroke-linecap="round" stroke-linejoin="round"/>
<path d="M51.25 55.3945V67.2366L56.55 63.2893L61.85 67.2366V55.3945" stroke="#121212" stroke-width="2" stroke-linecap="round" stroke-linejoin="round"/>
<path d="M43.3 59.3416H30.05C28.6444 59.3416 27.2963 58.7871 26.3023 57.8001C25.3084 56.813 24.75 55.4743 24.75 54.0785V27.7627C24.75 24.8679 27.135 22.4995 30.05 22.4995H67.15C68.5556 22.4995 69.9037 23.054 70.8977 24.0411C71.8916 25.0281 72.45 26.3668 72.45 27.7627V54.0785C72.449 55.0014 72.2037 55.9079 71.7386 56.707C71.2735 57.506 70.6049 58.1696 69.8 58.6311M32.7 33.0258H64.5M32.7 40.9206H40.65M32.7 48.8153H38" stroke="#121212" stroke-width="2" stroke-linecap="round" stroke-linejoin="round"/>
</g>
<defs>
<clipPath id="clip0_42_2487">
<rect width="50" height="47" fill="white" transform="translate(23.75 21.5)"/>
</clipPath>
</defs>
</svg>
