<svg width="70" height="69" viewBox="0 0 70 69" fill="none" xmlns="http://www.w3.org/2000/svg">
<path fill-rule="evenodd" clip-rule="evenodd" d="M30.125 0C46.6936 0 60.125 13.4316 60.125 30C60.125 46.5685 46.6936 60.0001 30.125 60.0001C13.5565 60.0001 0.125 46.5685 0.125 30C0.125 13.4316 13.5565 0 30.125 0Z" fill="#EFEFEF"/>
<g clip-path="url(#clip0_42_2496)">
<path d="M49.875 42.4453H30.8438V25.9964C30.8433 25.7849 30.9127 25.5792 31.041 25.4123C31.1693 25.2454 31.3491 25.1268 31.5516 25.0755L49.875 20.5V42.4453Z" fill="#FF0000"/>
<path d="M49.7969 67.8434V42.4451L68.2223 42.4455C68.2223 60.8285 52.0653 67.0597 49.7969 67.8457" fill="#FF0000"/>
<path d="M30.8438 41.8488H68.2227M49.5332 67.8431V20.542M30.8438 42.4454C30.8438 60.6438 47.0055 67.0358 49.2692 67.8431C49.4452 67.9063 49.6212 67.9063 49.7972 67.8431C52.0656 67.0619 68.2227 60.8308 68.2227 42.4478V25.9965C68.2232 25.785 68.1537 25.5793 68.0254 25.4124C67.8971 25.2455 67.7174 25.1269 67.5148 25.0756L49.7598 20.5704C49.611 20.5327 49.4554 20.5327 49.3066 20.5704L31.5516 25.0756C31.3491 25.1269 31.1693 25.2455 31.041 25.4124C30.9127 25.5793 30.8433 25.785 30.8438 25.9965V42.4454Z" stroke="#121212" stroke-width="2" stroke-miterlimit="10" stroke-linecap="round"/>
</g>
<defs>
<clipPath id="clip0_42_2496">
<rect width="41" height="50" fill="white" transform="translate(28.875 19)"/>
</clipPath>
</defs>
</svg>
