<svg width="80" height="70" viewBox="0 0 80 70" fill="none" xmlns="http://www.w3.org/2000/svg">
<path fill-rule="evenodd" clip-rule="evenodd" d="M30.25 0C46.8185 0 60.25 13.4316 60.25 30C60.25 46.5685 46.8185 60.0001 30.25 60.0001C13.6815 60.0001 0.25 46.5685 0.25 30C0.25 13.4316 13.6815 0 30.25 0Z" fill="#EFEFEF"/>
<g clip-path="url(#clip0_42_2517)">
<circle cx="36" cy="39.875" r="5" fill="#FF0000"/>
<circle cx="68" cy="31.875" r="5" fill="#FF0000"/>
<path d="M36.0833 44.9265C34.6688 44.9265 33.3123 44.3687 32.3121 43.3759C31.3119 42.383 30.75 41.0364 30.75 39.6324C30.75 38.2283 31.3119 36.8817 32.3121 35.8888C33.3123 34.896 34.6688 34.3382 36.0833 34.3382M36.0833 44.9265C37.4978 44.9265 38.8544 44.3687 39.8546 43.3759C40.8548 42.383 41.4167 41.0364 41.4167 39.6324C41.4167 38.2283 40.8548 36.8817 39.8546 35.8888C38.8544 34.896 37.4978 34.3382 36.0833 34.3382M36.0833 44.9265V66.1029M36.0833 34.3382V23.75M56.2353 52.1926C55.6698 51.4961 54.9356 50.9531 54.1014 50.6145C53.2672 50.2759 52.3602 50.1526 51.465 50.2562C50.5698 50.3598 49.7156 50.687 48.9823 51.207C48.249 51.7271 47.6604 52.4232 47.2715 53.2302C46.8826 54.0373 46.706 54.929 46.7584 55.8221C46.8107 56.7152 47.0902 57.5806 47.5707 58.3375C48.0513 59.0943 48.7172 59.718 49.5064 60.1501C50.2955 60.5823 51.1821 60.8089 52.0833 60.8088V66.1029M52.0833 23.75V50.2206M68.0833 36.9853C66.6688 36.9853 65.3123 36.4275 64.3121 35.4347C63.3119 34.4418 62.75 33.0953 62.75 31.6912C62.75 30.2871 63.3119 28.9405 64.3121 27.9477C65.3123 26.9548 66.6688 26.3971 68.0833 26.3971M68.0833 36.9853C69.4978 36.9853 70.8544 36.4275 71.8546 35.4347C72.8548 34.4418 73.4167 33.0953 73.4167 31.6912C73.4167 30.2871 72.8548 28.9405 71.8546 27.9477C70.8544 26.9548 69.4978 26.3971 68.0833 26.3971M68.0833 36.9853V47.5735M68.0833 26.3971V23.75M73.4167 68.75L78.75 63.4559L73.4167 58.1618M65.4167 58.1618L60.0833 63.4559L65.4167 68.75" stroke="#121212" stroke-width="2" stroke-linecap="round" stroke-linejoin="round"/>
</g>
<defs>
<clipPath id="clip0_42_2517">
<rect width="50" height="47" fill="white" transform="translate(29.75 22.75)"/>
</clipPath>
</defs>
</svg>
