<svg width="78" height="69" viewBox="0 0 78 69" fill="none" xmlns="http://www.w3.org/2000/svg">
<path fill-rule="evenodd" clip-rule="evenodd" d="M30 0C46.5685 0 60 13.4316 60 30C60 46.5685 46.5685 60.0001 30 60.0001C13.4315 60.0001 0 46.5685 0 30C0 13.4316 13.4315 0 30 0Z" fill="#EFEFEF"/>
<path d="M57.5462 65.4661H48.4553C39.8848 65.4661 35.5984 65.4661 32.9371 62.8025C30.2757 60.1389 30.2734 55.8548 30.2734 47.2843V42.7389C30.2734 34.1684 30.2734 29.882 32.9371 27.2207C35.6007 24.5593 39.8848 24.557 48.4553 24.557H57.5462C66.1166 24.557 70.403 24.557 73.0643 27.2207C75.7257 29.8843 75.728 34.1684 75.728 42.7389V47.2843C75.728 55.8548 75.728 60.1411 73.0643 62.8025C71.5803 64.2889 69.5916 64.9457 66.6371 65.2343M41.6371 24.557V21.1479M64.3643 24.557V21.1479M74.5916 35.9207H50.1598M30.2734 35.9207H39.0803" stroke="#121212" stroke-width="2" stroke-linecap="round"/>
<path d="M66.636 54.1024C66.636 54.7052 66.3966 55.2832 65.9703 55.7095C65.5441 56.1357 64.966 56.3751 64.3633 56.3751C63.7605 56.3751 63.1824 56.1357 62.7562 55.7095C62.33 55.2832 62.0906 54.7052 62.0906 54.1024C62.0906 53.4996 62.33 52.9216 62.7562 52.4953C63.1824 52.0691 63.7605 51.8297 64.3633 51.8297C64.966 51.8297 65.5441 52.0691 65.9703 52.4953C66.3966 52.9216 66.636 53.4996 66.636 54.1024ZM66.636 45.0115C66.636 45.6143 66.3966 46.1923 65.9703 46.6186C65.5441 47.0448 64.966 47.2842 64.3633 47.2842C63.7605 47.2842 63.1824 47.0448 62.7562 46.6186C62.33 46.1923 62.0906 45.6143 62.0906 45.0115C62.0906 44.4087 62.33 43.8307 62.7562 43.4044C63.1824 42.9782 63.7605 42.7388 64.3633 42.7388C64.966 42.7388 65.5441 42.9782 65.9703 43.4044C66.3966 43.8307 66.636 44.4087 66.636 45.0115ZM55.2724 54.1024C55.2724 54.7052 55.0329 55.2832 54.6067 55.7095C54.1805 56.1357 53.6024 56.3751 52.9996 56.3751C52.3969 56.3751 51.8188 56.1357 51.3926 55.7095C50.9664 55.2832 50.7269 54.7052 50.7269 54.1024C50.7269 53.4996 50.9664 52.9216 51.3926 52.4953C51.8188 52.0691 52.3969 51.8297 52.9996 51.8297C53.6024 51.8297 54.1805 52.0691 54.6067 52.4953C55.0329 52.9216 55.2724 53.4996 55.2724 54.1024ZM55.2724 45.0115C55.2724 45.6143 55.0329 46.1923 54.6067 46.6186C54.1805 47.0448 53.6024 47.2842 52.9996 47.2842C52.3969 47.2842 51.8188 47.0448 51.3926 46.6186C50.9664 46.1923 50.7269 45.6143 50.7269 45.0115C50.7269 44.4087 50.9664 43.8307 51.3926 43.4044C51.8188 42.9782 52.3969 42.7388 52.9996 42.7388C53.6024 42.7388 54.1805 42.9782 54.6067 43.4044C55.0329 43.8307 55.2724 44.4087 55.2724 45.0115ZM43.9087 54.1024C43.9087 54.7052 43.6693 55.2832 43.2431 55.7095C42.8168 56.1357 42.2388 56.3751 41.636 56.3751C41.0332 56.3751 40.4552 56.1357 40.0289 55.7095C39.6027 55.2832 39.3633 54.7052 39.3633 54.1024C39.3633 53.4996 39.6027 52.9216 40.0289 52.4953C40.4552 52.0691 41.0332 51.8297 41.636 51.8297C42.2388 51.8297 42.8168 52.0691 43.2431 52.4953C43.6693 52.9216 43.9087 53.4996 43.9087 54.1024ZM43.9087 45.0115C43.9087 45.6143 43.6693 46.1923 43.2431 46.6186C42.8168 47.0448 42.2388 47.2842 41.636 47.2842C41.0332 47.2842 40.4552 47.0448 40.0289 46.6186C39.6027 46.1923 39.3633 45.6143 39.3633 45.0115C39.3633 44.4087 39.6027 43.8307 40.0289 43.4044C40.4552 42.9782 41.0332 42.7388 41.636 42.7388C42.2388 42.7388 42.8168 42.9782 43.2431 43.4044C43.6693 43.8307 43.9087 44.4087 43.9087 45.0115Z" fill="#121212"/>
<circle cx="64.5996" cy="44.875" r="5" fill="#FF0000" stroke="#121212" stroke-width="2"/>
</svg>
