<svg aria-hidden="true" style="position: absolute; width: 0; height: 0; overflow: hidden;" version="1.1" xmlns="http://www.w3.org/2000/svg" xmlns:xlink="http://www.w3.org/1999/xlink">
<defs>
<symbol id="icon-cabinet" viewBox="0 0 30 32">
<path stroke-linejoin="round" stroke-linecap="round" stroke-miterlimit="4" stroke-width="1.7778" d="M14.893 17.107c4.233 0 7.664-3.432 7.664-7.665s-3.431-7.665-7.664-7.665c-4.233 0-7.664 3.432-7.664 7.665s3.432 7.665 7.664 7.665z"></path>
<path stroke-linejoin="round" stroke-linecap="round" stroke-miterlimit="4" stroke-width="1.7778" d="M28.009 30.222c0-3.478-1.382-6.814-3.841-9.274s-5.796-3.841-9.274-3.841c-3.478 0-6.814 1.382-9.274 3.841s-3.841 5.796-3.841 9.274"></path>
</symbol>
<symbol id="icon-menu-1" viewBox="0 0 43 32">
<path stroke-linejoin="round" stroke-linecap="round" stroke-miterlimit="4" stroke-width="2.2857" d="M33.143 11.429h-32l9.143-9.143M10.286 20.571h32l-9.143 9.143"></path>
</symbol>
<symbol id="icon-star" viewBox="0 0 32 32">
<path stroke-linejoin="round" stroke-linecap="round" stroke-miterlimit="4" stroke-width="2.6667" d="M16 1.778l-3.904 10.064-10.318 0.804 7.909 7.024-2.476 10.553 8.789-5.731M16 1.778l3.905 10.064 10.318 0.804-7.909 7.024 2.476 10.553-8.789-5.731"></path>
</symbol>
<symbol id="icon-cart" viewBox="0 0 30 32">
<path stroke-linejoin="round" stroke-linecap="round" stroke-miterlimit="4" stroke-width="1.7778" d="M6.128 8.178h20.052c1.648 0 2.472 0 2.901 0.562s0.252 1.405-0.106 3.093c-1.239 5.845-2.261 9.856-8.98 9.856h-10.873l-3.923-17.756c-0.162-0.615-0.536-1.162-1.062-1.552s-1.175-0.603-1.842-0.603h-1.406M10.44 21.689h-0.615c-2.042 0-3.696 1.637-3.696 3.657-0.002 0.078 0.013 0.156 0.043 0.23s0.075 0.14 0.132 0.196c0.057 0.057 0.125 0.102 0.201 0.134s0.157 0.049 0.24 0.050h16.601M23.345 25.956c-1.24 0-2.246 0.954-2.246 2.133s1.006 2.133 2.246 2.133 2.246-0.955 2.246-2.133c0-1.178-1.005-2.133-2.245-2.133zM15.111 28.089c0 1.178-1.005 2.133-2.246 2.133s-2.246-0.955-2.246-2.133c0-1.178 1.005-2.134 2.246-2.134s2.246 0.955 2.246 2.134z"></path>
</symbol>
<symbol id="icon-plus" viewBox="0 0 34 32">
<path d="M17 0c1.105 0 2 0.895 2 2v28c0 1.105-0.895 2-2 2s-2-0.895-2-2v-28c0-1.105 0.895-2 2-2z"></path>
<path d="M3 14h28c1.105 0 2 0.895 2 2s-0.895 2-2 2h-28c-1.105 0-2-0.895-2-2s0.895-2 2-2z"></path>
</symbol>
<symbol id="icon-settings" viewBox="0 0 48 32">
<path stroke-linejoin="miter" stroke-linecap="round" stroke-miterlimit="10" stroke-width="4" d="M46.199 7.384h-29.652M6.081 7.384h-4.282M6.081 7.384c0-1.423 0.551-2.788 1.532-3.794s2.312-1.572 3.7-1.572c1.388 0 2.718 0.565 3.7 1.572s1.532 2.371 1.532 3.794c0 1.423-0.551 2.788-1.532 3.794s-2.312 1.572-3.7 1.572c-1.388 0-2.718-0.565-3.7-1.572s-1.532-2.371-1.532-3.794zM46.199 23.648h-13.795M32.404 23.648c0 1.424-0.553 2.79-1.534 3.796s-2.313 1.572-3.701 1.572c-1.388 0-2.718-0.568-3.7-1.574s-1.532-2.371-1.532-3.794M32.404 23.648c0-1.424-0.553-2.788-1.534-3.794s-2.313-1.572-3.701-1.572c-1.388 0-2.718 0.565-3.7 1.572s-1.532 2.371-1.532 3.794M21.938 23.648h-20.138"></path>
</symbol>
<symbol id="icon-chev-bottom" viewBox="0 0 56 32">
<path stroke-linejoin="round" stroke-linecap="round" stroke-miterlimit="4" stroke-width="6" d="M4 4l24 24 24-24"></path>
</symbol>
<symbol id="icon-solar_calculator-broken" viewBox="0 0 27 32">
<path stroke-linejoin="miter" stroke-linecap="round" stroke-miterlimit="4" stroke-width="2.9714" d="M26.057 16c0 6.367 0 9.55-1.808 11.528s-4.718 1.979-10.535 1.979c-5.818 0-8.728 0-10.535-1.979-1.808-1.976-1.808-5.161-1.808-11.528s0-9.55 1.808-11.529c1.808-1.979 4.718-1.977 10.535-1.977s8.728 0 10.535 1.977c1.201 1.316 1.605 3.165 1.739 6.127"></path>
<path stroke-linejoin="miter" stroke-linecap="butt" stroke-miterlimit="4" stroke-width="2.9714" d="M6.857 10.598c0-0.628 0-0.941 0.070-1.199 0.094-0.343 0.277-0.656 0.532-0.908s0.573-0.432 0.922-0.524c0.265-0.070 0.583-0.070 1.219-0.070h8.229c0.638 0 0.956 0 1.218 0.069 0.349 0.092 0.666 0.273 0.922 0.524s0.439 0.564 0.532 0.908c0.071 0.261 0.071 0.574 0.071 1.201s0 0.941-0.070 1.199c-0.094 0.343-0.277 0.656-0.532 0.908s-0.573 0.432-0.921 0.524c-0.263 0.070-0.583 0.070-1.219 0.070h-8.229c-0.638 0-0.956 0-1.218-0.069-0.349-0.092-0.666-0.273-0.921-0.524s-0.439-0.564-0.532-0.908c-0.071-0.261-0.071-0.574-0.071-1.201z"></path>
<path d="M8.229 18.701c0.757 0 1.371-0.605 1.371-1.351s-0.614-1.351-1.371-1.351c-0.757 0-1.371 0.605-1.371 1.351s0.614 1.351 1.371 1.351z"></path>
<path d="M8.229 24.104c0.757 0 1.371-0.605 1.371-1.351s-0.614-1.351-1.371-1.351-1.371 0.605-1.371 1.351c0 0.746 0.614 1.351 1.371 1.351z"></path>
<path d="M13.714 18.701c0.757 0 1.371-0.605 1.371-1.351s-0.614-1.351-1.371-1.351c-0.757 0-1.371 0.605-1.371 1.351s0.614 1.351 1.371 1.351z"></path>
<path d="M13.714 24.104c0.757 0 1.371-0.605 1.371-1.351s-0.614-1.351-1.371-1.351-1.371 0.605-1.371 1.351c0 0.746 0.614 1.351 1.371 1.351z"></path>
<path d="M19.201 18.701c0.757 0 1.371-0.605 1.371-1.351s-0.614-1.351-1.371-1.351c-0.757 0-1.371 0.605-1.371 1.351s0.614 1.351 1.371 1.351z"></path>
<path d="M19.201 24.104c0.757 0 1.371-0.605 1.371-1.351s-0.614-1.351-1.371-1.351-1.371 0.605-1.371 1.351c0 0.746 0.614 1.351 1.371 1.351z"></path>
</symbol>
<symbol id="icon-heart" viewBox="0 0 36 32">
<path stroke-linejoin="round" stroke-linecap="round" stroke-miterlimit="4" stroke-width="1.7778" d="M25.291 1.778c-3.27 0-6.094 1.892-7.514 4.651-1.419-2.759-4.243-4.651-7.514-4.651-4.688 0-8.486 3.883-8.486 8.661s2.907 9.159 6.664 12.757c3.757 3.598 9.336 7.026 9.336 7.026s5.398-3.371 9.336-7.026c4.2-3.897 6.664-7.964 6.664-12.757s-3.798-8.661-8.486-8.661z"></path>
</symbol>
</defs>
</svg>
