<svg width="230" height="77" viewBox="0 0 230 77" fill="none" xmlns="http://www.w3.org/2000/svg">
<g clip-path="url(#clip0_2006_7556)">
<mask id="mask0_2006_7556" style="mask-type:luminance" maskUnits="userSpaceOnUse" x="112" y="35" width="7" height="34">
<path d="M112.559 35.1426H118.246V68.6324H112.559V35.1426Z" fill="white"/>
</mask>
<g mask="url(#mask0_2006_7556)">
<mask id="mask1_2006_7556" style="mask-type:luminance" maskUnits="userSpaceOnUse" x="112" y="35" width="7" height="34">
<path d="M115.376 40.6618C113.856 40.6618 112.709 39.4953 112.709 37.9485C112.709 36.3643 113.899 35.1719 115.477 35.1719C117.073 35.1719 118.188 36.3125 118.188 37.9485C118.214 38.6773 117.965 39.3484 117.484 39.8438C116.974 40.3738 116.224 40.6618 115.376 40.6618ZM113.253 44.5762H117.696V68.6156H113.253V44.5762Z" fill="white"/>
</mask>
<g mask="url(#mask1_2006_7556)">
<path d="M-0.837891 -0.908203H119.082V77.783H-0.837891V-0.908203Z" fill="#CC0B01"/>
</g>
</g>
<mask id="mask2_2006_7556" style="mask-type:luminance" maskUnits="userSpaceOnUse" x="112" y="35" width="7" height="34">
<path d="M112.559 35.0273H118.336V68.7995H112.559V35.0273Z" fill="white"/>
</mask>
<g mask="url(#mask2_2006_7556)">
<mask id="mask3_2006_7556" style="mask-type:luminance" maskUnits="userSpaceOnUse" x="112" y="35" width="7" height="34">
<path d="M117.758 44.5118H113.189V68.6779H117.758V44.5118ZM115.477 35.1074C113.864 35.1074 112.645 36.3287 112.645 37.9474C112.645 39.5288 113.82 40.7241 115.378 40.7241C116.241 40.7241 117.008 40.4274 117.533 39.8859C118.022 39.379 118.277 38.6906 118.251 37.9417C118.251 36.2768 117.11 35.1074 115.477 35.1074ZM117.631 68.5512H113.316V44.6385H117.631V68.5512ZM115.477 35.2342C117.101 35.2342 118.126 36.418 118.126 37.9474C118.178 39.4164 117.098 40.6003 115.378 40.6003C113.852 40.6003 112.772 39.4164 112.772 37.9474C112.772 36.418 113.904 35.2342 115.477 35.2342Z" fill="white"/>
</mask>
<g mask="url(#mask3_2006_7556)">
<path d="M-0.837891 -0.908203H119.082V77.783H-0.837891V-0.908203Z" fill="#CC0B01"/>
</g>
</g>
<mask id="mask4_2006_7556" style="mask-type:luminance" maskUnits="userSpaceOnUse" x="0" y="15" width="99" height="49">
<path d="M0 15.3984H98.3203V63.1633H0V15.3984Z" fill="white"/>
</mask>
<g mask="url(#mask4_2006_7556)">
<mask id="mask5_2006_7556" style="mask-type:luminance" maskUnits="userSpaceOnUse" x="0" y="15" width="99" height="48">
<path d="M95.7605 32.6577C93.079 37.658 71.1145 59.7503 61.738 62.2677L61.237 62.3829C60.8519 62.4232 60.4667 62.4636 60.0874 62.4981C19.9258 66.1331 0.283786 32.6433 0 32.145C17.838 43.6577 46.2514 27.0612 64.098 18.6016C66.1395 17.6338 68.184 16.931 70.2052 16.4442L70.2082 16.4501C72.6696 15.8625 75.4437 15.5312 78.383 15.5312C82.8975 15.5312 87.0298 16.3118 90.2209 17.608H90.2239C93.5482 18.6852 96.1689 19.9814 97.8311 20.8772L97.8601 21.001L98.0164 22.4153C98.0338 22.4786 99.1138 27.7236 95.7605 32.6577Z" fill="white"/>
</mask>
<g mask="url(#mask5_2006_7556)">
<path d="M-0.835938 -0.90625H119.084V77.785H-0.835938V-0.90625Z" fill="#CC0B01"/>
</g>
</g>
<mask id="mask6_2006_7556" style="mask-type:luminance" maskUnits="userSpaceOnUse" x="61" y="62" width="1" height="1">
<path d="M61.2129 62.1426H61.8818V62.4249H61.2129V62.1426Z" fill="white"/>
</mask>
<g mask="url(#mask6_2006_7556)">
<mask id="mask7_2006_7556" style="mask-type:luminance" maskUnits="userSpaceOnUse" x="61" y="62" width="1" height="1">
<path d="M61.7373 62.2657L61.6823 62.3117C61.5143 62.3521 61.3753 62.3665 61.2363 62.3808L61.7373 62.2657Z" fill="white"/>
</mask>
<g mask="url(#mask7_2006_7556)">
<path d="M-0.837891 -0.908203H119.082V77.783H-0.837891V-0.908203Z" fill="#CC0B01"/>
</g>
</g>
<mask id="mask8_2006_7556" style="mask-type:luminance" maskUnits="userSpaceOnUse" x="60" y="62" width="2" height="1">
<path d="M60.043 62.3105H61.2534V62.6447H60.043V62.3105Z" fill="white"/>
</mask>
<g mask="url(#mask8_2006_7556)">
<mask id="mask9_2006_7556" style="mask-type:luminance" maskUnits="userSpaceOnUse" x="60" y="62" width="2" height="1">
<path d="M61.2368 62.3828C60.8575 62.4606 60.5013 62.498 60.1741 62.498H60.1133C60.4666 62.4634 60.8517 62.4231 61.2368 62.3828Z" fill="white"/>
</mask>
<g mask="url(#mask9_2006_7556)">
<path d="M-0.837891 -0.90625H119.082V77.785H-0.837891V-0.90625Z" fill="#CC0B01"/>
</g>
</g>
<mask id="mask10_2006_7556" style="mask-type:luminance" maskUnits="userSpaceOnUse" x="76" y="1" width="21" height="22">
<path d="M76.2656 1.58984H96.1683V22.0519H76.2656V1.58984Z" fill="white"/>
</mask>
<g mask="url(#mask10_2006_7556)">
<mask id="mask11_2006_7556" style="mask-type:luminance" maskUnits="userSpaceOnUse" x="76" y="1" width="21" height="21">
<path d="M96.1566 11.7861C96.1566 17.4171 91.7289 21.9393 86.2617 21.9393C80.7916 21.9393 76.3379 17.4171 76.3379 11.7861C76.3379 6.18377 80.7916 1.63281 86.2617 1.63281C91.7289 1.63281 96.1566 6.18377 96.1566 11.7861Z" fill="white"/>
</mask>
<g mask="url(#mask11_2006_7556)">
<path d="M-0.837891 -0.908203H119.082V77.783H-0.837891V-0.908203Z" fill="white"/>
</g>
</g>
<mask id="mask12_2006_7556" style="mask-type:luminance" maskUnits="userSpaceOnUse" x="75" y="0" width="22" height="23">
<path d="M75.5977 0.923828H96.8382V22.5495H75.5977V0.923828Z" fill="white"/>
</mask>
<g mask="url(#mask12_2006_7556)">
<mask id="mask13_2006_7556" style="mask-type:luminance" maskUnits="userSpaceOnUse" x="75" y="1" width="22" height="22">
<path d="M96.7425 11.7859C96.7425 17.7223 92.0716 22.5209 86.2627 22.5209C80.4566 22.5209 75.7539 17.7251 75.7539 11.7859C75.7539 5.87537 80.4538 1.05078 86.2627 1.05078C92.0716 1.05078 96.7425 5.87825 96.7425 11.7859H95.5697C95.5697 6.486 91.3911 2.21444 86.2627 2.21444C81.1314 2.21444 76.9267 6.48888 76.9267 11.7859C76.9267 17.1087 81.1314 21.3573 86.2627 21.3573C91.3911 21.3573 95.5697 17.1116 95.5697 11.7859H96.7425Z" fill="white"/>
</mask>
<g mask="url(#mask13_2006_7556)">
<path d="M-0.835938 -0.908203H119.084V77.783H-0.835938V-0.908203Z" fill="#CC0B01"/>
</g>
</g>
<mask id="mask14_2006_7556" style="mask-type:luminance" maskUnits="userSpaceOnUse" x="34" y="0" width="81" height="77">
<path d="M34.9551 0.486328H114.401V76.4354H34.9551V0.486328Z" fill="white"/>
</mask>
<g mask="url(#mask14_2006_7556)">
<mask id="mask15_2006_7556" style="mask-type:luminance" maskUnits="userSpaceOnUse" x="35" y="0" width="80" height="77">
<path d="M114.4 0.582031C114.4 0.582031 108.777 15.8162 97.8829 20.8914C97.8829 20.8914 99.5335 28.3313 93.907 34.4319C93.907 34.4319 79.0401 14.1226 51.953 39.8412C51.953 39.8412 74.4184 30.385 73.7437 43.2256C73.0921 56.1066 49.3062 74.3968 35.0938 76.4159C52.9346 76.4159 104.152 76.4159 114.4 0.582031Z" fill="white"/>
</mask>
<g mask="url(#mask15_2006_7556)">
<path d="M-0.837891 -0.90625H119.082V77.785H-0.837891V-0.90625Z" fill="white"/>
</g>
</g>
<mask id="mask16_2006_7556" style="mask-type:luminance" maskUnits="userSpaceOnUse" x="34" y="-1" width="82" height="79">
<path d="M34.4531 -0.0761719H115.069V77.1173H34.4531V-0.0761719Z" fill="white"/>
</mask>
<g mask="url(#mask16_2006_7556)">
<mask id="mask17_2006_7556" style="mask-type:luminance" maskUnits="userSpaceOnUse" x="34" y="0" width="81" height="77">
<path d="M114.948 0.783017C114.962 0.745558 109.275 16.2275 98.1293 21.4179L97.8832 20.8908L98.4537 20.764C98.4596 20.7957 98.694 21.8557 98.694 23.4975C98.694 26.2943 98.0164 30.8337 94.3388 34.823C94.22 34.9526 94.0492 35.0218 93.8754 35.0131C93.6988 35.0016 93.5395 34.9152 93.4353 34.774C93.4614 34.8086 88.0404 27.4003 77.7952 27.4003C71.3144 27.4003 62.7864 30.3585 52.3587 40.264L51.9533 39.8435L51.7245 39.3077C51.7129 39.3136 59.7863 35.906 66.2265 35.906C70.4631 35.906 74.3434 37.4297 74.3434 42.6749L74.329 43.2596C73.6571 56.5409 49.515 74.9549 35.1752 76.9914L35.0941 76.4153V75.8335C52.8568 75.8335 103.637 75.8767 113.819 0.506503C113.862 0.186787 114.157 -0.0378882 114.479 0.00532173C114.8 0.0485316 115.023 0.342326 114.98 0.662042C104.671 76.9568 53.0102 77 35.0941 77C34.7871 77 34.5323 76.7638 34.5091 76.4585C34.4889 76.1532 34.706 75.8853 35.013 75.8421C49.0952 73.8403 72.5307 55.6739 73.162 43.1991V43.1961L73.1735 42.6719C73.1735 38.4205 70.2343 37.0696 66.2266 37.0696C60.0585 37.0696 52.1936 40.3734 52.182 40.3791C51.9214 40.4886 51.6203 40.3964 51.4639 40.1631C51.3075 39.9269 51.3452 39.6159 51.5508 39.4229C62.1232 29.382 70.9264 26.2366 77.7952 26.2366C88.6283 26.2366 94.3561 34.0568 94.3822 34.0913L93.9073 34.4341L93.4758 34.0395C96.8899 30.3382 97.5212 26.1214 97.5212 23.4974C97.5212 21.9622 97.304 20.9886 97.3127 21.0174C97.2519 20.7524 97.388 20.4817 97.6342 20.3665C108.279 15.4036 113.836 0.417148 113.851 0.38258C113.961 0.080148 114.299 -0.0753928 114.601 0.0369381C114.905 0.149276 115.061 0.48346 114.948 0.783017Z" fill="white"/>
</mask>
<g mask="url(#mask17_2006_7556)">
<path d="M-0.835938 -0.908203H119.084V77.783H-0.835938V-0.908203Z" fill="#CC0B01"/>
</g>
</g>
<mask id="mask18_2006_7556" style="mask-type:luminance" maskUnits="userSpaceOnUse" x="124" y="34" width="22" height="35">
<path d="M124.828 34.9043H145.568V68.6764H124.828V34.9043Z" fill="white"/>
</mask>
<g mask="url(#mask18_2006_7556)">
<mask id="mask19_2006_7556" style="mask-type:luminance" maskUnits="userSpaceOnUse" x="124" y="34" width="22" height="35">
<path d="M129.294 51.6757C130.253 51.8975 131.423 52.0098 132.766 52.0098C138.005 52.0098 141.008 49.4434 141.008 44.9674C141.008 40.7966 138.257 38.501 133.256 38.501C131.524 38.501 130.088 38.622 129.294 38.8322V51.6757ZM124.893 68.6151L124.945 35.5976C127.438 35.1799 130.203 34.9668 133.16 34.9668C137.324 34.9668 140.46 35.9058 142.487 37.7607C144.37 39.3651 145.406 41.8537 145.406 44.7658C145.406 47.7296 144.54 50.1347 142.835 51.909C140.646 54.2594 137.035 55.5555 132.671 55.5555C131.347 55.5555 130.253 55.5354 129.294 55.2906V68.6151H124.893Z" fill="white"/>
</mask>
<g mask="url(#mask19_2006_7556)">
<path d="M123.992 34.0703H146.238V69.5073H123.992V34.0703Z" fill="#CC0B01"/>
</g>
</g>
<mask id="mask20_2006_7556" style="mask-type:luminance" maskUnits="userSpaceOnUse" x="124" y="34" width="22" height="35">
<path d="M124.828 34.9043H145.568V68.8435H124.828V34.9043Z" fill="white"/>
</mask>
<g mask="url(#mask20_2006_7556)">
<mask id="mask21_2006_7556" style="mask-type:luminance" maskUnits="userSpaceOnUse" x="124" y="34" width="22" height="35">
<path d="M129.357 38.8821C130.145 38.6805 131.587 38.5624 133.255 38.5624C138.212 38.5624 140.943 40.8378 140.943 44.9654C140.943 49.4011 137.963 51.9474 132.765 51.9474C131.448 51.9474 130.301 51.8379 129.357 51.6248V38.8821ZM133.159 34.9043C130.197 34.9043 127.429 35.1175 124.932 35.538L124.828 35.5553V68.6793H129.357V55.3721C130.301 55.6025 131.375 55.6198 132.667 55.6198C137.051 55.6198 140.677 54.3179 142.88 51.9531C144.598 50.1673 145.469 47.7507 145.469 44.7666C145.469 41.8373 144.424 39.3314 142.524 37.7126C140.491 35.8491 137.338 34.9043 133.159 34.9043ZM132.765 52.0712C137.926 52.0712 141.071 49.5394 141.071 44.9654C141.071 40.5411 137.978 38.4385 133.255 38.4385C131.387 38.4385 129.962 38.5796 129.233 38.787V51.7255C130.162 51.9445 131.347 52.0712 132.765 52.0712ZM133.159 35.031C137.378 35.031 140.477 36.0075 142.443 37.8077C144.259 39.3573 145.342 41.7826 145.342 44.7666C145.342 47.7651 144.459 50.1327 142.788 51.8667C140.523 54.2977 136.846 55.4959 132.667 55.4959C131.384 55.4959 130.217 55.4787 129.233 55.2108V68.5526H124.953V35.6589C127.014 35.3133 129.719 35.031 133.159 35.031Z" fill="white"/>
</mask>
<g mask="url(#mask21_2006_7556)">
<path d="M123.992 34.0723H146.238V69.5092H123.992V34.0723Z" fill="#CC0B01"/>
</g>
</g>
<mask id="mask22_2006_7556" style="mask-type:luminance" maskUnits="userSpaceOnUse" x="148" y="34" width="32" height="36">
<path d="M148.996 34.6211H179.602V69.2228H148.996V34.6211Z" fill="white"/>
</mask>
<g mask="url(#mask22_2006_7556)">
<mask id="mask23_2006_7556" style="mask-type:luminance" maskUnits="userSpaceOnUse" x="149" y="34" width="31" height="36">
<path d="M164.304 38.2927C157.015 38.2927 153.752 45.2199 153.752 52.0867C153.752 58.5531 157.038 65.5149 164.252 65.5149C171.538 65.5149 174.798 58.602 174.798 51.7497C174.798 45.2689 171.514 38.2956 164.301 38.2956M164.011 69.1297C159.682 69.1297 155.958 67.5138 153.236 64.452C150.506 61.3758 149.061 57.1446 149.061 52.2105C149.058 41.8902 155.408 34.6836 164.498 34.6836C173.44 34.6836 179.446 41.4726 179.446 51.5797C179.446 56.9977 177.876 61.5169 174.911 64.6508C172.175 67.5426 168.303 69.1326 164.011 69.1326" fill="white"/>
</mask>
<g mask="url(#mask23_2006_7556)">
<path d="M148.16 33.7871H180.271V70.0536H148.16V33.7871Z" fill="#CC0B01"/>
</g>
</g>
<mask id="mask24_2006_7556" style="mask-type:luminance" maskUnits="userSpaceOnUse" x="148" y="34" width="32" height="36">
<path d="M148.996 34.6211H179.602V69.2228H148.996V34.6211Z" fill="white"/>
</mask>
<g mask="url(#mask24_2006_7556)">
<mask id="mask25_2006_7556" style="mask-type:luminance" maskUnits="userSpaceOnUse" x="148" y="34" width="32" height="36">
<path d="M164.251 65.4524C157.081 65.4524 153.815 58.5222 153.815 52.0875C153.815 45.2525 157.058 38.3569 164.3 38.3569C171.47 38.3569 174.737 45.2986 174.737 51.7505C174.737 58.5712 171.493 65.4553 164.248 65.4553M164.497 34.6211C160.13 34.6211 156.189 36.3291 153.398 39.4313C150.519 42.6342 148.996 47.0556 148.996 52.2114C148.996 57.1598 150.444 61.4084 153.189 64.4932C154.524 65.9968 156.123 67.1633 157.941 67.964C159.794 68.7792 161.836 69.1911 164.011 69.1911C168.32 69.1911 172.206 67.5925 174.954 64.692C177.934 61.5466 179.509 57.0101 179.509 51.5777C179.509 46.661 178.096 42.4412 175.426 39.3766C172.713 36.2658 168.936 34.6211 164.497 34.6211ZM164.251 65.5762C171.033 65.5762 174.861 59.3143 174.861 51.7477C174.861 45.1257 171.427 38.2302 164.303 38.2302C157.223 38.2302 153.69 44.7859 153.69 52.0847C153.69 59.2222 157.524 65.5762 164.251 65.5762ZM164.497 34.7449C173.538 34.7449 179.384 41.7039 179.384 51.5777C179.384 63.0041 172.455 69.0701 164.011 69.0701C155.257 69.0701 149.121 62.2696 149.121 52.2114C149.121 41.6405 155.656 34.7449 164.497 34.7449Z" fill="white"/>
</mask>
<g mask="url(#mask25_2006_7556)">
<path d="M148.16 33.7891H180.271V70.0556H148.16V33.7891Z" fill="#CC0B01"/>
</g>
</g>
<mask id="mask26_2006_7556" style="mask-type:luminance" maskUnits="userSpaceOnUse" x="183" y="34" width="21" height="36">
<path d="M183.111 34.6211H203.518V69.2228H183.111V34.6211Z" fill="white"/>
</mask>
<g mask="url(#mask26_2006_7556)">
<mask id="mask27_2006_7556" style="mask-type:luminance" maskUnits="userSpaceOnUse" x="183" y="34" width="21" height="36">
<path d="M191.706 69.1125C188.657 69.1125 185.089 68.2051 183.224 66.9551L183.184 66.9291L184.304 63.202L184.374 63.2452C185.439 63.9019 188.315 65.4313 192.001 65.4313C196.171 65.4313 198.867 63.2221 198.867 59.8031C198.867 56.7817 197.188 55.0045 192.67 53.2503C186.676 51.0958 183.881 48.0859 183.881 43.7826C183.881 38.4252 188.312 34.6836 194.654 34.6836C198.572 34.6836 200.943 35.6975 202.006 36.2995L202.052 36.3254L200.83 39.9604L200.764 39.923C199.701 39.3383 197.477 38.3561 194.509 38.3561C190.241 38.3561 188.329 40.8159 188.329 43.2555C188.329 46.4787 190.533 47.9361 194.877 49.6442C200.906 51.9744 203.364 54.8144 203.364 59.4518C203.364 63.9077 200.309 69.1096 191.703 69.1096" fill="white"/>
</mask>
<g mask="url(#mask27_2006_7556)">
<path d="M182.277 33.7871H204.187V70.0536H182.277V33.7871Z" fill="#CC0B01"/>
</g>
</g>
<mask id="mask28_2006_7556" style="mask-type:luminance" maskUnits="userSpaceOnUse" x="183" y="34" width="21" height="36">
<path d="M183.111 34.6211H203.518V69.2228H183.111V34.6211Z" fill="white"/>
</mask>
<g mask="url(#mask28_2006_7556)">
<mask id="mask29_2006_7556" style="mask-type:luminance" maskUnits="userSpaceOnUse" x="183" y="34" width="21" height="36">
<path d="M194.654 34.6211C188.274 34.6211 183.818 38.3886 183.818 43.7835C183.818 48.1184 186.627 51.1428 192.653 53.3059C197.136 55.0514 198.804 56.8113 198.804 59.8011C198.804 63.1827 196.134 65.3689 192.004 65.3689C188.332 65.3689 185.468 63.8451 184.409 63.1913L184.27 63.1049L183.111 66.9559L183.19 67.0078C185.066 68.2636 188.648 69.1738 191.709 69.1738C195.395 69.1738 198.442 68.1714 200.521 66.2733C202.394 64.5595 203.428 62.14 203.428 59.4526C203.428 57.0331 202.724 55.0773 201.271 53.4759C199.91 51.9752 197.886 50.7367 194.9 49.5845C190.585 47.8851 188.393 46.442 188.393 43.2535C188.393 40.8455 190.284 38.4174 194.509 38.4174C197.466 38.4174 199.678 39.3967 200.735 39.9785L200.865 40.0506L202.128 36.2975L202.038 36.2456C200.97 35.6379 198.586 34.6211 194.654 34.6211ZM194.654 34.745C198.048 34.745 200.503 35.5169 201.977 36.3551L200.796 39.872C199.713 39.2729 197.506 38.2965 194.512 38.2965C189.989 38.2965 188.269 41.0098 188.269 43.2564C188.269 46.373 190.284 47.9053 194.854 49.7027C200.454 51.8658 203.304 54.5791 203.304 59.4555C203.304 64.5998 199.519 69.05 191.709 69.05C188.518 69.05 185.028 68.0851 183.259 66.9041L184.342 63.2979C186.256 64.4789 189.059 65.4928 192.004 65.4928C196.377 65.4928 198.931 63.1453 198.931 59.8012C198.931 56.6789 197.162 54.9247 192.696 53.1879C187.293 51.2494 183.945 48.4583 183.945 43.7835C183.945 38.5816 188.219 34.745 194.654 34.745Z" fill="white"/>
</mask>
<g mask="url(#mask29_2006_7556)">
<path d="M182.277 33.7891H204.187V70.0556H182.277V33.7891Z" fill="#CC0B01"/>
</g>
</g>
<mask id="mask30_2006_7556" style="mask-type:luminance" maskUnits="userSpaceOnUse" x="205" y="35" width="25" height="34">
<path d="M205.303 35.2227H229.94V38.9873H205.303V35.2227ZM215.374 38.9873H219.819V68.6146H215.374V38.9873Z" fill="white"/>
</mask>
<g mask="url(#mask30_2006_7556)">
<path d="M204.402 34.3301H230.829V69.4329H204.402V34.3301Z" fill="#CC0B01"/>
</g>
<mask id="mask31_2006_7556" style="mask-type:luminance" maskUnits="userSpaceOnUse" x="205" y="35" width="25" height="34">
<path d="M205.238 35.1621H230V35.286H205.238V35.1621ZM229.876 35.286H230V38.9238H229.876V35.286ZM205.238 35.286H205.363V38.9238H205.238V35.286ZM205.238 38.9238H215.434V39.0506H205.238V38.9238ZM219.755 38.9238H230V39.0506H219.755V38.9238ZM219.755 39.0506H219.882V68.5511H219.755V39.0506ZM215.31 39.0506H215.434V68.5511H215.31V39.0506ZM215.31 68.5511H219.882V68.6779H215.31V68.5511Z" fill="white"/>
</mask>
<g mask="url(#mask31_2006_7556)">
<path d="M204.402 34.3301H230.829V69.4329H204.402V34.3301Z" fill="#CC0B01"/>
</g>
</g>
<defs>
<clipPath id="clip0_2006_7556">
<rect width="230" height="77" fill="white"/>
</clipPath>
</defs>
</svg>
