<svg width="254" height="207" viewBox="0 0 254 207" fill="none" xmlns="http://www.w3.org/2000/svg">
<path d="M101.59 126.998C101.59 113.64 112.423 102.811 125.787 102.811C139.15 102.811 149.983 113.64 149.983 126.998C149.983 140.357 139.15 151.186 125.787 151.186C112.423 151.186 101.59 140.357 101.59 126.998Z" fill="#E42B29"/>
<path d="M125.907 155.692C110.054 155.692 97.2025 142.845 97.2025 126.999C97.2025 111.152 110.054 98.3057 125.907 98.3057C141.76 98.3057 154.611 111.152 154.611 126.999C154.611 142.845 141.76 155.692 125.907 155.692ZM125.907 93.0233C107.135 93.0233 91.918 108.235 91.918 126.999C91.918 145.763 107.135 160.974 125.907 160.974C144.678 160.974 159.896 145.763 159.896 126.999C159.896 108.235 144.678 93.0233 125.907 93.0233Z" fill="#121212"/>
<path d="M108.375 66.7312H97.9258L125.91 47.8827L153.653 66.7312H143.805V100.947L138.4 97.3451V62.8895L125.91 54.6057L113.539 63.1296V96.7449L108.375 100.347V66.7312Z" fill="#121212"/>
<path d="M65.3756 145.007V155.452L46.5195 127.479L65.3756 99.7464V109.591H99.6047L96.0016 114.993H61.5323L53.2452 127.479L61.7725 139.845H95.4011L99.0041 145.007H65.3756Z" fill="#121212"/>
<path d="M186.921 145.007V155.452L205.777 127.479L186.921 99.7464V109.591H152.691L156.294 114.993H190.764L199.051 127.479L190.524 139.845H156.895L153.292 145.007H186.921Z" fill="#121212"/>
<path d="M108.492 187.266H98.043L126.027 206.114L153.77 187.266H143.922V153.05L138.517 156.652V191.107L126.027 199.391L113.656 190.867V157.252L108.492 153.65V187.266Z" fill="#121212"/>
<path d="M239.968 92.9317C240.323 92.5975 240.663 92.1547 240.988 91.6032C241.312 91.0509 241.585 90.4163 241.805 89.6981C242.024 88.9793 242.357 88.4164 242.804 88.0095C243.25 87.6015 243.79 87.3523 244.423 87.261C245.255 87.1415 245.92 87.2774 246.422 87.6699C246.922 88.0618 247.236 88.6935 247.362 89.5644L248.484 99.0362L250.227 109.025C250.267 109.584 250.266 110.069 250.225 110.479C250.182 110.888 250.083 111.246 249.925 111.552C249.76 111.818 249.511 112.045 249.175 112.236C248.839 112.425 248.393 112.56 247.839 112.64C247.087 112.749 246.451 112.678 245.93 112.43C245.409 112.181 245.007 111.776 244.724 111.211C244.48 110.64 244.247 110.219 244.027 109.948C243.806 109.677 243.596 109.555 243.398 109.584C243.121 109.624 242.621 109.867 241.897 110.315C241.174 110.762 240.249 111.431 239.126 112.32C237.995 113.169 237.15 113.897 236.591 114.502C236.031 115.107 235.772 115.549 235.813 115.826C235.841 116.024 235.896 116.198 235.978 116.348C236.06 116.497 236.189 116.62 236.365 116.716C236.5 116.818 236.678 116.933 236.9 117.063C237.12 117.193 237.38 117.317 237.681 117.435L244.192 120.557C244.288 120.665 244.431 120.744 244.621 120.798C244.81 120.852 245.003 120.864 245.202 120.836C245.4 120.807 245.553 120.745 245.66 120.649C245.767 120.552 245.851 120.439 245.914 120.309C245.97 120.139 246.039 119.917 246.121 119.643C246.202 119.368 246.297 119.042 246.404 118.663C246.466 118.25 246.692 117.925 247.081 117.687C247.472 117.449 248.023 117.279 248.735 117.176C249.567 117.057 250.228 117.163 250.721 117.496C251.213 117.829 251.517 118.391 251.631 119.183L252.411 125.432L253.504 131.758C253.561 132.436 253.426 132.97 253.099 133.361C252.77 133.751 252.251 133.998 251.538 134.101C251.261 134.141 250.979 134.151 250.694 134.132C250.408 134.112 250.141 134.079 249.893 134.035C249.638 133.95 249.4 133.773 249.179 133.501C248.958 133.23 248.728 132.829 248.49 132.298C248.257 131.806 247.909 131.352 247.445 130.934C246.981 130.516 246.421 130.132 245.764 129.782C245.067 129.438 244.467 129.131 243.964 128.86C243.46 128.589 243.036 128.378 242.691 128.226L233.598 123.173C233.032 122.892 232.531 122.64 232.096 122.42C231.659 122.2 231.266 121.994 230.916 121.803C230.564 121.611 230.229 121.457 229.91 121.342C229.59 121.226 229.266 121.151 228.938 121.118C228.423 121.192 227.847 121.265 227.212 121.337C226.575 121.407 225.855 121.461 225.053 121.496C224.294 121.564 223.686 121.622 223.228 121.668C222.77 121.713 222.482 121.745 222.363 121.762C222.086 121.802 221.809 121.842 221.532 121.882C221.254 121.922 220.998 121.959 220.76 121.993C220.523 122.027 220.279 122.092 220.031 122.189C219.781 122.286 219.505 122.395 219.2 122.521C218.934 122.639 218.655 122.881 218.365 123.247C218.074 123.612 217.79 124.096 217.514 124.702C217.238 125.307 216.873 125.794 216.421 126.162C215.969 126.53 215.426 126.76 214.793 126.851C214.199 126.937 213.714 126.936 213.338 126.849C212.962 126.761 212.652 126.574 212.408 126.286C212.21 126.031 212.038 125.682 211.894 125.239C211.749 124.795 211.634 124.277 211.548 123.683L210.69 115.627L209.307 108.132C209.215 107.499 209.167 106.95 209.161 106.487C209.154 106.023 209.191 105.644 209.27 105.35C209.387 105.05 209.636 104.813 210.016 104.637C210.394 104.461 210.9 104.328 211.534 104.237C212.166 104.146 212.744 104.223 213.265 104.472C213.785 104.72 214.249 105.138 214.657 105.725C215.071 106.352 215.647 106.774 216.386 106.992C217.123 107.208 217.987 107.245 218.978 107.103L221.472 106.743C222.461 106.601 223.316 106.437 224.037 106.253C224.758 106.068 225.305 105.868 225.679 105.653C226.051 105.438 226.545 105.083 227.162 104.591C227.778 104.098 228.532 103.444 229.425 102.629L237.612 95.0886L239.968 92.9317Z" fill="#121212"/>
<path d="M200.83 58.3544C201.007 58.4908 201.165 58.6048 201.303 58.697C201.47 58.7614 201.625 58.783 201.769 58.7621C201.912 58.7403 202.073 58.649 202.251 58.4874C202.402 58.2956 202.531 58.1241 202.638 57.9736C202.745 57.8226 202.843 57.7068 202.932 57.6259L206.914 51.0899C207.041 50.8126 207.111 50.5458 207.124 50.2908C207.136 50.0358 207.061 49.819 206.899 49.6409C206.791 49.5218 206.661 49.4231 206.509 49.3453C206.356 49.2665 206.209 49.238 206.066 49.2596C205.922 49.2807 205.75 49.3148 205.55 49.3623C205.348 49.4094 205.146 49.4704 204.944 49.546L198.002 52.1051L197.172 52.5332C196.963 52.7219 196.82 52.8927 196.742 53.0446C196.663 53.1974 196.648 53.3594 196.697 53.5323C196.744 53.7049 196.821 53.879 196.927 54.0545C197.032 54.2301 197.166 54.407 197.328 54.5852L197.817 55.0349L200.284 57.7529C200.47 58.0173 200.652 58.2178 200.83 58.3544ZM215.001 39.4504C215.633 39.5803 216.206 39.9275 216.718 40.492L219.424 43.5623L222.223 46.4669C222.435 46.7615 222.614 47.0323 222.758 47.2808C222.902 47.5286 222.998 47.7397 223.047 47.9126C223.095 48.0849 223.084 48.2977 223.016 48.5498C222.947 48.8019 222.847 49.0953 222.718 49.4298L210.11 74.756C209.609 75.6975 209.199 76.5287 208.88 77.252C208.561 77.9747 208.317 78.6016 208.15 79.1332C207.982 79.6638 207.89 80.2346 207.875 80.8447C207.859 81.4543 207.935 82.0902 208.102 82.7512C208.268 83.4127 208.259 84.03 208.076 84.6027C207.892 85.176 207.547 85.6915 207.042 86.1497C206.388 86.743 205.736 87.0093 205.085 86.9492C204.435 86.889 203.786 86.5026 203.139 85.7898L196.568 78.1019L190.035 71.3532C189.766 71.0559 189.574 70.7688 189.46 70.4946C189.344 70.2194 189.324 69.9128 189.398 69.5757C189.468 69.2952 189.61 69.0037 189.824 68.7022C190.037 68.3996 190.292 68.1146 190.59 67.8447C190.916 67.5487 191.212 67.3213 191.475 67.1635C191.739 67.006 192 66.891 192.259 66.8185C192.488 66.7731 192.743 66.7854 193.024 66.8557C193.304 66.9265 193.567 67.0665 193.813 67.2776C194.087 67.4613 194.349 67.6301 194.598 67.784C194.845 67.9379 195.082 68.0483 195.306 68.1165C195.53 68.184 195.765 68.1742 196.011 68.087C196.256 67.9989 196.527 67.8212 196.825 67.5515C197.241 67.1743 197.514 66.8043 197.646 66.4413C197.777 66.079 197.751 65.7368 197.568 65.4155C197.384 65.0943 197.179 64.7788 196.954 64.4697C196.726 64.1605 196.465 63.8423 196.169 63.516L191.32 58.084C190.858 57.6355 190.437 57.2605 190.054 56.9577C189.67 56.6556 189.327 56.4251 189.022 56.2686C188.744 56.1413 188.439 56.1341 188.107 56.2455C187.774 56.3572 187.401 56.6016 186.985 56.9788C186.777 57.1676 186.669 57.4814 186.662 57.9217C186.655 58.3611 186.748 58.9268 186.942 59.6176C187.191 60.3113 187.253 60.9317 187.128 61.4794C187.002 62.0269 186.716 62.503 186.27 62.9071C185.884 63.2579 185.53 63.5242 185.209 63.7074C184.887 63.8901 184.57 63.9888 184.257 64.0023C183.971 64.0445 183.675 63.9737 183.373 63.7886C183.07 63.603 182.769 63.3475 182.473 63.0209C182.149 62.6644 181.786 62.249 181.383 61.7755C180.98 61.3006 180.552 60.7545 180.099 60.137C179.616 59.5454 179.227 59.0865 178.93 58.76C178.633 58.4327 178.445 58.2252 178.364 58.1362C178.094 57.8387 177.778 57.49 177.414 57.089C177.05 56.6881 176.624 56.2479 176.136 55.7704C175.645 55.3485 175.257 54.9955 174.972 54.7132C174.688 54.4291 174.505 54.243 174.425 54.1539C174.155 53.8567 173.95 53.5551 173.808 53.2507C173.666 52.9457 173.632 52.6247 173.706 52.2876C173.805 51.9802 173.956 51.6674 174.156 51.3512C174.356 51.034 174.619 50.7281 174.947 50.4313C175.392 50.027 175.9 49.796 176.472 49.7386C177.042 49.681 177.69 49.783 178.417 50.0459C179.112 50.3355 179.901 50.4728 180.783 50.4591C181.663 50.4447 182.61 50.2498 183.623 49.8728C184.633 49.5527 185.477 49.2744 186.157 49.0379C186.835 48.8007 187.362 48.6206 187.738 48.4972L212.97 39.5858C213.691 39.3654 214.367 39.3203 215.001 39.4504Z" fill="#121212"/>
<path d="M143.746 18.0572C143.726 18.41 143.756 18.7185 143.836 18.9836C143.915 19.2489 144.086 19.4669 144.35 19.6388C144.612 19.81 144.948 19.9313 145.355 20.0021C146.045 20.1227 146.705 20.1231 147.334 20.0021C147.962 19.8821 148.542 19.616 149.075 19.2066C149.6 18.8376 150.028 18.3675 150.358 17.7972C150.688 17.2265 150.917 16.5755 151.045 15.8437C151.165 15.1534 151.179 14.4755 151.086 13.8097C150.992 13.1446 150.768 12.5088 150.413 11.9023C150.106 11.2624 149.701 10.7632 149.198 10.4023C148.695 10.0431 148.098 9.80229 147.407 9.68176C146.92 9.59676 146.511 9.59916 146.181 9.688C145.851 9.77756 145.6 9.95357 145.429 10.2162C145.257 10.4796 145.106 10.8093 144.973 11.2048C144.842 11.6007 144.726 12.0831 144.627 12.6519L143.914 16.7359C143.822 17.2644 143.765 17.7052 143.746 18.0572ZM165.478 39.7184C165.564 39.9437 165.766 40.1672 166.084 40.3895C166.4 40.6126 166.806 40.8714 167.299 41.1668C167.832 41.4698 168.213 41.8083 168.441 42.1827C168.669 42.558 168.744 42.9686 168.666 43.4154C168.545 44.1067 168.32 44.7367 167.99 45.3075C167.66 45.878 167.222 46.4088 166.675 46.8996C166.176 47.3573 165.621 47.6581 165.01 47.8027C164.397 47.9472 163.746 47.9592 163.055 47.8387L157.904 46.752L152.993 46.0837C152.627 46.0199 152.299 45.9205 152.008 45.7865C151.717 45.6523 151.468 45.4626 151.259 45.2162C151.01 44.9634 150.808 44.6769 150.655 44.3569C150.501 44.0373 150.355 43.6764 150.215 43.2754L145.599 29.4043C145.459 29.0031 145.332 28.6463 145.22 28.3332C145.107 28.0208 145.004 27.7725 144.91 27.5884C144.824 27.3641 144.706 27.1972 144.558 27.087C144.409 26.9778 144.213 26.9014 143.969 26.8589C143.806 26.8306 143.636 26.8428 143.46 26.8957C143.283 26.9492 143.12 27.0462 142.969 27.1871C142.819 27.3286 142.7 27.5276 142.614 27.7845C142.526 28.0422 142.455 28.3329 142.398 28.6578L141.292 34.9974C141.171 35.6889 141.208 36.313 141.405 36.8705C141.6 37.4285 141.968 37.9637 142.507 38.4759C143.046 38.989 143.425 39.5153 143.645 40.0563C143.865 40.5975 143.925 41.1521 143.826 41.7209C143.719 42.3306 143.563 42.8058 143.357 43.1467C143.15 43.4879 142.867 43.7319 142.507 43.8778C142.193 43.9912 141.796 44.0466 141.315 44.0469C140.833 44.0464 140.287 43.9933 139.677 43.887L131.742 42.1889L124.249 41.1961C123.639 41.0897 123.117 40.9567 122.684 40.7975C122.251 40.6376 121.886 40.4493 121.589 40.2296C121.34 39.9773 121.178 39.6457 121.103 39.2341C121.028 38.8233 121.04 38.3342 121.14 37.7642C121.239 37.1956 121.484 36.6938 121.874 36.2592C122.264 35.8246 122.799 35.4577 123.48 35.1573C124.161 34.8579 124.724 34.3907 125.17 33.7563C125.616 33.1219 125.924 32.3171 126.094 31.3418L127.315 24.7078L128.72 16.6613L129.808 10.0671C129.964 9.17369 129.939 8.35276 129.735 7.60434C129.53 6.85712 129.158 6.22683 128.62 5.7142C128.088 5.16075 127.714 4.60394 127.498 4.04232C127.281 3.48118 127.219 2.93661 127.311 2.40814C127.411 1.83932 127.555 1.37255 127.745 1.00734C127.934 0.642857 128.185 0.40419 128.498 0.290855C128.777 0.130222 129.139 0.0365829 129.584 0.00896835C130.029 -0.0176811 130.515 0.014492 131.044 0.106693L143.564 2.54164L156.667 4.51294C158.449 4.86589 160.001 5.45056 161.326 6.26765C162.649 7.08522 163.764 8.13762 164.67 9.42628C165.576 10.715 166.178 12.1294 166.475 13.6668C166.772 15.2057 166.764 16.8692 166.452 18.657C166.261 19.7543 165.965 20.7289 165.565 21.5801C165.165 22.4318 164.661 23.1605 164.052 23.7661C163.336 24.2691 162.621 24.7632 161.909 25.2451C161.196 25.7282 160.485 26.201 159.776 26.6635C159.755 26.7857 159.743 26.9089 159.743 27.0344C159.741 27.16 159.751 27.287 159.771 27.4165C159.83 27.5524 159.888 27.6991 159.945 27.8551C160.001 28.0122 160.097 28.1855 160.231 28.3762L165.067 38.83L165.478 39.7184Z" fill="#121212"/>
<path d="M71.4203 24.0912C71.1244 23.2739 70.7127 22.6028 70.1864 22.0777C69.6599 21.554 69.051 21.2066 68.3585 21.0366C67.6525 20.8296 67.0763 20.5446 66.6288 20.1803C66.1815 19.8168 65.8707 19.3935 65.6956 18.9099C65.5207 18.4271 65.4282 17.9973 65.4188 17.6225C65.409 17.2477 65.4825 16.9273 65.6379 16.6601C65.794 16.3941 66.0278 16.1408 66.3412 15.9011C66.6537 15.662 67.0337 15.4615 67.48 15.3001L75.3148 12.7178L83.2466 9.53271C83.7063 9.40857 84.1288 9.32933 84.5163 9.29356C84.9032 9.25922 85.2419 9.29428 85.5323 9.39921C85.8232 9.50486 86.0846 9.70415 86.3173 9.99804C86.5498 10.2924 86.7605 10.7001 86.9488 11.2202C87.178 11.8526 87.2517 12.4349 87.1717 12.9684C87.091 13.502 86.8496 13.968 86.4475 14.3654C86.2272 14.5714 86.0445 14.7637 85.8994 14.9424C85.7531 15.1212 85.626 15.2932 85.5182 15.4586C85.4233 15.6617 85.3491 15.8351 85.2972 15.9799C85.2443 16.1254 85.2194 16.2603 85.223 16.3854C85.2287 16.6354 85.2876 16.972 85.3988 17.3936C85.5098 17.8169 85.6731 18.3253 85.8883 18.9195L87.9927 24.9062L91.6676 35.0546C92.0986 36.2448 92.5264 37.225 92.9532 37.995C93.3791 38.766 93.8033 39.3274 94.2253 39.6789C94.6466 40.0311 95.233 40.1973 95.9834 40.1781C96.7335 40.1591 97.6473 39.9545 98.7263 39.5641C99.6929 39.2143 100.577 38.8106 101.379 38.352C102.18 37.8946 102.936 37.3688 103.647 36.7748C104.357 36.1819 104.914 35.5704 105.317 34.9408C105.72 34.3117 105.969 33.6641 106.065 32.9986C106.16 32.3335 106.257 31.7308 106.357 31.1905C106.455 30.6503 106.549 30.1542 106.638 29.7014C106.8 29.2226 107.025 28.8262 107.311 28.5116C107.597 28.1983 107.944 27.9676 108.353 27.8192C108.688 27.6982 109.006 27.6463 109.307 27.6638C109.607 27.6811 109.903 27.7426 110.193 27.8473C110.46 28.0031 110.696 28.1913 110.902 28.4108C111.108 28.6307 111.271 28.9078 111.392 29.2423C111.541 29.6517 111.722 30.2378 111.935 31.0013C112.148 31.7656 112.394 32.7061 112.673 33.8243C112.952 34.9432 113.2 35.8628 113.419 36.5817C113.637 37.3018 113.807 37.8284 113.929 38.1633C114.104 38.6466 114.196 39.0755 114.206 39.4503C114.215 39.8256 114.16 40.1399 114.042 40.3925C113.873 40.6223 113.631 40.8249 113.316 41.0016C113.002 41.1788 112.602 41.3551 112.119 41.5296L95.7855 47.1242L87.4585 50.2629L81.606 52.5696C81.0482 52.7715 80.5604 52.9053 80.1431 52.9725C79.7256 53.04 79.3413 53.053 78.9901 53.0114C78.662 52.9202 78.3601 52.7252 78.0836 52.4251C77.8069 52.1261 77.5811 51.7345 77.406 51.2509C77.2177 50.7309 77.1821 50.1971 77.2998 49.6499C77.417 49.1027 77.6875 48.543 78.1105 47.9689C78.534 47.396 78.7792 46.7395 78.8484 45.9995C78.9166 45.26 78.7898 44.4436 78.4667 43.5516L76.3217 37.4533L73.6566 30.093L71.4203 24.0912Z" fill="#121212"/>
<path d="M41.9304 54.9495C40.5086 54.0471 39.161 53.3066 37.8856 52.7285C36.5798 52.1253 35.3877 51.9498 34.3094 52.1995C33.2314 52.4504 32.2518 53.115 31.3707 54.1938C30.4894 55.2734 30.0515 56.392 30.0559 57.5513C30.0604 58.711 30.5039 59.8815 31.3876 61.065C32.2461 62.2793 33.2664 63.4837 34.4487 64.6794C35.6308 65.8749 36.9468 67.0639 38.3965 68.2465C39.9081 69.4797 41.3834 70.5678 42.8225 71.5107C44.2623 72.4541 45.6473 73.2122 46.9785 73.7843C48.3155 74.4125 49.5374 74.6005 50.6431 74.3464C51.7494 74.0936 52.7424 73.4275 53.6237 72.3482C54.3033 71.5155 54.6864 70.6216 54.7738 69.665C54.8606 68.7089 54.6513 67.6906 54.1462 66.6104C53.6655 65.4996 52.7979 64.2655 51.5426 62.9069C50.2878 61.5498 48.6736 60.0655 46.6994 58.4548L46.4681 58.2661L46.2829 58.1151C44.8025 56.9073 43.3514 55.8523 41.9304 54.9495ZM51.784 83.0982C49.3265 84.535 46.6919 85.3386 43.8799 85.5101C41.0983 85.7065 38.3343 85.3007 35.5863 84.2918C32.8389 83.2831 30.1231 81.6839 27.4398 79.4949C25.0651 77.5574 23.2703 75.4132 22.0559 73.0607C20.8416 70.71 20.22 68.1343 20.1914 65.3373C20.1938 62.5655 20.6783 59.8789 21.6456 57.2778C22.6131 54.6769 24.0911 52.1592 26.0798 49.7233C28.219 47.1032 30.5168 45.0603 32.9712 43.5954C35.4261 42.1312 38.0261 41.2604 40.7704 40.9818C43.5402 40.6738 46.2668 40.985 48.9499 41.9147C51.6332 42.8458 54.3009 44.3926 56.9532 46.5565C59.4516 48.5945 61.3384 50.815 62.6148 53.2168C63.8908 55.6194 64.5864 58.2286 64.7022 61.0451C64.812 63.8059 64.3642 66.5095 63.3592 69.1567C62.354 71.8039 60.8191 74.3921 58.7552 76.9197C56.5653 79.6019 54.2408 81.6616 51.784 83.0982Z" fill="#121212"/>
<path d="M14.2297 98.856C14.5372 99.0258 14.7993 99.2404 15.0174 99.5017C15.2314 99.8037 15.3839 100.12 15.475 100.45C15.5658 100.781 15.591 101.166 15.5509 101.605C14.5336 102.6 13.5894 103.562 12.7189 104.489C11.8486 105.418 11.0322 106.31 10.2685 107.167C9.50566 108.025 8.8977 108.946 8.44467 109.932C7.99213 110.918 7.71469 111.971 7.61285 113.089C7.56913 113.569 7.58763 114.034 7.66737 114.484C7.74712 114.935 7.86722 115.389 8.02696 115.846C8.19102 116.264 8.41177 116.597 8.6916 116.843C8.97144 117.091 9.33151 117.234 9.77084 117.274C10.411 117.332 11.1383 116.865 11.9541 115.871C12.77 114.878 13.6746 113.36 14.6664 111.314C15.6191 109.266 16.6034 107.422 17.619 105.782C18.6353 104.142 19.661 102.725 20.6965 101.53C21.6927 100.331 22.9689 99.4805 24.5259 98.9775C26.0829 98.4754 27.881 98.316 29.9196 98.5016C32.3577 98.7235 34.4456 99.367 36.182 100.431C37.9192 101.496 39.3469 102.966 40.4653 104.84C41.5446 106.711 42.2966 108.744 42.7211 110.937C43.1458 113.131 43.2435 115.487 43.0144 118.004C42.9524 118.683 42.8688 119.371 42.766 120.066C42.6618 120.762 42.539 121.445 42.3978 122.117C42.2551 122.79 42.0975 123.419 41.9234 124.008C41.7485 124.596 41.5796 125.125 41.4161 125.593C41.2085 126.098 41.0505 126.507 40.9414 126.819C40.8319 127.132 40.7706 127.368 40.7562 127.527C40.7022 127.684 40.6577 127.841 40.6227 127.999C40.5883 128.157 40.5619 128.336 40.5436 128.535C40.5362 128.616 40.529 128.696 40.5218 128.775C40.5146 128.855 40.509 128.916 40.5054 128.955C40.5381 129.039 40.5506 129.12 40.5434 129.2C40.5362 129.281 40.529 129.36 40.5215 129.44C40.5472 129.604 40.5532 129.755 40.5405 129.895C40.5278 130.035 40.516 130.164 40.505 130.284C40.4576 130.804 40.2386 131.217 39.848 131.524C39.4574 131.831 38.8735 132.05 38.0955 132.18C37.3184 132.311 36.5647 132.394 35.8364 132.428C35.1076 132.462 34.424 132.45 33.7843 132.392L31.7399 132.266C30.8209 132.182 30.0472 132.052 29.4181 131.873C28.79 131.695 28.3062 131.47 27.9685 131.198C27.6305 130.925 27.3872 130.611 27.238 130.255C27.0893 129.9 27.0365 129.481 27.0802 129.002C27.0982 128.802 27.4417 128.35 28.1109 127.645C28.7796 126.941 29.7698 126.024 31.0818 124.894C32.3974 123.725 33.423 122.418 34.1593 120.975C34.8952 119.531 35.3413 117.95 35.4979 116.232C35.5488 115.673 35.5474 115.139 35.4929 114.63C35.4391 114.122 35.3319 113.639 35.1715 113.181C35.0122 112.723 34.7622 112.368 34.422 112.115C34.0824 111.863 33.6531 111.713 33.1333 111.666C32.614 111.619 32.0085 112.068 31.3179 113.011C30.6275 113.956 29.8519 115.396 28.9898 117.331C28.1287 119.268 27.2118 121.037 26.2395 122.641C25.2676 124.244 24.2412 125.662 23.1615 126.893C22.0823 128.124 20.7537 129 19.1739 129.521C17.5953 130.042 15.7668 130.208 13.6881 130.019C11.4499 129.815 9.4862 129.254 7.79612 128.334C6.10677 127.416 4.65185 126.135 3.43089 124.492C2.25005 122.854 1.40597 121.066 0.896978 119.125C0.388946 117.186 0.238098 115.077 0.445634 112.799C0.489352 112.32 0.583271 111.735 0.726433 111.042C0.870796 110.351 1.08602 109.534 1.37306 108.593C1.61663 107.689 1.81792 106.922 1.97549 106.291C2.13379 105.662 2.22531 105.206 2.25077 104.927C2.26902 104.727 2.23948 104.502 2.16117 104.254C2.08383 104.005 1.98054 103.693 1.85347 103.319C1.68293 102.982 1.57075 102.669 1.5155 102.382C1.46146 102.096 1.44488 101.832 1.46674 101.592C1.50662 101.153 1.62167 100.781 1.81023 100.475C1.99928 100.17 2.2611 99.9526 2.59522 99.8213C2.76264 99.7564 2.96009 99.694 3.1866 99.6335C3.41408 99.5739 3.69295 99.4983 4.02347 99.4075C4.35087 99.3571 4.70758 99.3093 5.09431 99.2632C5.48199 99.2183 5.89851 99.1758 6.34553 99.1355C7.23957 99.0563 8.23473 98.9655 9.33223 98.8635C10.4297 98.7621 11.6293 98.6498 12.9298 98.5263L13.1097 98.5427C13.55 98.5828 13.923 98.6875 14.2297 98.856Z" fill="#121212"/>
<path d="M112.219 132.208L121.219 131.644C121.414 133.105 121.811 134.218 122.409 134.984C123.384 136.222 124.776 136.842 126.586 136.842C127.936 136.842 128.977 136.525 129.708 135.892C130.439 135.259 130.804 134.525 130.804 133.69C130.804 132.896 130.456 132.187 129.76 131.56C129.064 130.934 127.449 130.343 124.915 129.786C120.767 128.854 117.808 127.615 116.04 126.071C114.258 124.526 113.367 122.557 113.367 120.163C113.367 118.591 113.823 117.105 114.735 115.707C115.647 114.308 117.018 113.209 118.849 112.409C120.679 111.609 123.189 111.209 126.377 111.209C130.289 111.209 133.271 111.936 135.325 113.389C137.378 114.844 138.6 117.157 138.99 120.331L130.073 120.852C129.836 119.475 129.339 118.473 128.58 117.846C127.821 117.22 126.774 116.907 125.437 116.907C124.337 116.907 123.509 117.14 122.952 117.606C122.395 118.073 122.117 118.64 122.117 119.307C122.117 119.795 122.347 120.233 122.806 120.623C123.252 121.026 124.31 121.402 125.98 121.75C130.115 122.64 133.077 123.542 134.866 124.453C136.654 125.364 137.956 126.495 138.771 127.845C139.585 129.195 139.992 130.705 139.992 132.375C139.992 134.337 139.449 136.146 138.364 137.802C137.278 139.458 135.76 140.714 133.811 141.57C131.862 142.425 129.405 142.854 126.44 142.854C121.233 142.854 117.627 141.852 115.623 139.848C113.618 137.844 112.483 135.297 112.219 132.208Z" fill="white"/>
</svg>
