<svg width="60" height="61" viewBox="0 0 60 61" fill="none" xmlns="http://www.w3.org/2000/svg">
<rect y="0.125" width="60" height="60" rx="4" fill="#141516" fill-opacity="0.4"/>
<path d="M39.719 39.844L34.7277 34.8527M34.7277 34.8527C35.5288 34.0516 36.1643 33.1005 36.5979 32.0538C37.0314 31.0071 37.2546 29.8852 37.2546 28.7523C37.2546 27.6193 37.0314 26.4975 36.5979 25.4508C36.1643 24.4041 35.5288 23.453 34.7277 22.6519C33.9266 21.8508 32.9755 21.2153 31.9288 20.7817C30.8821 20.3482 29.7602 20.125 28.6273 20.125C27.4943 20.125 26.3725 20.3482 25.3258 20.7817C24.2791 21.2153 23.328 21.8508 22.5269 22.6519C20.9089 24.2698 20 26.4642 20 28.7523C20 31.0404 20.9089 33.2348 22.5269 34.8527C24.1448 36.4706 26.3392 37.3796 28.6273 37.3796C30.9154 37.3796 33.1098 36.4706 34.7277 34.8527ZM24.9301 28.7523H28.6273M28.6273 28.7523H32.3245M28.6273 28.7523V25.0551M28.6273 28.7523V32.4495" stroke="white" stroke-width="2" stroke-linecap="round" stroke-linejoin="round"/>
</svg>
