<svg width="620" height="83" viewBox="0 0 620 83" fill="none" xmlns="http://www.w3.org/2000/svg">
<path d="M57.3266 43.5726C59.7292 46.5507 60.9304 50.1862 60.9304 54.4762C60.9304 59.5363 59.489 64.2434 56.6058 68.598C53.7224 72.9541 49.638 76.4275 44.3523 79.0214C39.0666 81.615 32.9956 82.9121 26.1407 82.9121C18.0031 82.9121 11.6122 81.1512 6.9676 77.6283C2.32157 74.1068 0 69.2076 0 62.9302C0 59.7286 0.591625 57.3583 1.77799 55.8211C2.96292 54.2841 4.77214 53.5156 7.20781 53.5156C9.00093 53.5156 10.4275 54.0123 11.4844 55.0047C12.5415 55.9983 13.0702 57.4229 13.0702 59.2796C13.0702 62.6104 13.5026 65.2206 14.3676 67.1091C15.2325 68.9988 16.6411 70.3753 18.5964 71.2399C20.5499 72.1046 23.2888 72.5368 26.8133 72.5368C30.6573 72.5368 34.1006 71.6721 37.1445 69.9431C40.1869 68.2138 42.5577 65.9412 44.2564 63.1223C45.953 60.3049 46.8031 57.2951 46.8031 54.0921C46.8031 51.4021 46.162 49.1446 44.8809 47.3193C43.5985 45.494 41.9332 44.4224 39.8835 44.1011C34.9492 46.92 29.9518 48.328 24.8909 48.328C22.7769 48.328 21.2706 47.9767 20.3741 47.2713C19.4765 46.5673 19.0287 45.4145 19.0287 43.8128C19.0287 41.5072 20.2617 39.7465 22.7288 38.5292C25.1943 37.3135 29.0868 36.5763 34.4054 36.3197C40.9404 32.2217 44.2084 26.8421 44.2084 20.1805C44.2084 17.3631 43.4063 15.1699 41.8054 13.5998C40.2032 12.0312 37.8007 11.2463 34.5978 11.2463C31.5854 11.2463 28.9275 11.7116 26.6209 12.6392C24.3144 13.5684 22.5201 14.8172 21.2391 16.3858C19.9566 17.9559 19.317 19.6371 19.317 21.4293C19.317 21.9427 19.3802 22.6152 19.5094 23.4467C19.6369 24.2796 19.7015 24.9207 19.7015 25.3681C19.7015 26.9696 19.2043 28.1706 18.212 28.9704C17.2178 29.7721 15.8888 30.1714 14.2235 30.1714C11.7878 30.1714 10.0264 29.2917 8.93776 27.5295C7.84771 25.7688 7.30389 23.4153 7.30389 20.4686C7.30389 16.9472 8.47224 13.6961 10.8118 10.7178C13.15 7.73997 16.497 5.37129 20.8548 3.60889C25.2111 1.84818 30.24 0.96698 35.9432 0.96698C43.31 0.96698 48.6923 2.44125 52.089 5.38618C55.484 8.3328 57.1823 12.3676 57.1823 17.4906C57.1823 21.3333 56.3324 24.9688 54.6354 28.3942C52.9372 31.821 50.4549 34.7825 47.1874 37.2803C51.5437 38.4977 54.9239 40.5946 57.3266 43.5726Z" fill="#121212"/>
<path d="M146.897 62.1616C147.377 62.9302 147.617 63.987 147.617 65.3318C147.617 67.8943 147.008 69.88 145.791 71.288C142.843 74.6833 139.816 77.4693 136.71 79.6459C133.601 81.8237 130.062 82.9121 126.09 82.9121C122.758 82.9121 120.42 81.8883 119.074 79.838C117.729 77.7889 117.056 74.7148 117.056 70.6154C117.056 68.8864 117.215 66.8058 117.536 64.3711C111.898 64.3711 107.989 64.3082 105.812 64.179C105.683 65.9727 105.619 67.2217 105.619 67.9255V69.9431C105.555 73.9147 105.459 76.7007 105.331 78.3008C105.202 79.9026 104.818 81.0717 104.178 81.8074C103.537 82.5428 102.48 82.9121 101.006 82.9121C98.5709 82.9121 96.8573 81.6316 95.865 79.0694C94.8708 76.5086 94.375 72.4093 94.375 66.7729C94.375 58.4481 95.5599 50.5375 97.9312 43.0444C98.5077 41.1874 99.4359 39.8262 100.718 38.9616C101.999 38.097 103.857 37.6645 106.292 37.6645C107.573 37.6645 108.47 37.8252 108.983 38.145C109.495 38.4662 109.752 39.0742 109.752 39.9703C109.752 40.9953 109.272 43.3011 108.31 46.8871C107.797 49.0006 107.316 51.5628 106.869 54.5723H119.17C119.81 51.5628 120.739 47.72 121.957 43.0444C122.469 41.1231 123.255 39.7465 124.312 38.9136C125.369 38.0818 126.955 37.6645 129.069 37.6645C130.542 37.6645 131.568 37.8417 132.144 38.193C132.721 38.5457 133.009 39.2017 133.009 40.1624C133.009 41.7639 132.207 46.1517 130.607 53.3235C128.812 61.5222 127.916 66.5806 127.916 68.502C127.916 69.7193 128.171 70.6634 128.685 71.336C129.196 72.0085 129.869 72.3447 130.703 72.3447C131.984 72.3447 133.505 71.5612 135.268 69.9911C137.029 68.4225 139.384 65.8769 142.332 62.3537C143.1 61.4576 143.965 61.0089 144.926 61.0089C145.758 61.0089 146.416 61.3931 146.897 62.1616Z" fill="#121212"/>
<path d="M159.148 70.7117C160.429 69.047 161.359 66.8373 161.936 64.083L165.491 46.4067C162.8 46.4712 160.317 47.4799 158.043 49.433C155.768 51.3872 153.959 53.9646 152.613 57.1662C151.268 60.3695 150.595 63.7632 150.595 67.3494C150.595 69.3351 150.995 70.8077 151.796 71.7684C152.597 72.7288 153.702 73.2093 155.112 73.2093C156.52 73.2093 157.866 72.3778 159.148 70.7117ZM142.138 78.5892C139.767 75.7072 138.582 71.929 138.582 67.2532C138.582 62.1302 139.767 57.2788 142.138 52.6992C144.508 48.1208 147.664 44.4373 151.604 41.6513C155.545 38.8655 159.725 37.4727 164.146 37.4727C165.554 37.4727 166.5 37.7457 166.981 38.289C167.462 38.8339 167.861 39.8111 168.182 41.2191C169.528 40.9639 170.936 40.8349 172.411 40.8349C175.549 40.8349 177.12 41.9562 177.12 44.1972C177.12 45.542 176.639 48.7453 175.678 53.8039C174.204 61.1695 173.468 66.2925 173.468 69.1745C173.468 70.1352 173.708 70.9038 174.189 71.4803C174.669 72.0565 175.294 72.3449 176.063 72.3449C177.279 72.3449 178.754 71.5612 180.483 69.9911C182.213 68.4225 184.552 65.8769 187.499 62.3537C188.268 61.4576 189.133 61.0089 190.094 61.0089C190.926 61.0089 191.584 61.3933 192.064 62.1616C192.545 62.9302 192.785 63.987 192.785 65.332C192.785 67.8942 192.175 69.88 190.959 71.2882C188.331 74.5544 185.544 77.3087 182.598 79.5496C179.65 81.7922 176.799 82.9121 174.045 82.9121C171.93 82.9121 169.992 82.1915 168.23 80.7506C166.467 79.3098 165.138 77.3401 164.242 74.8425C160.91 80.2222 156.713 82.9121 151.652 82.9121C147.679 82.9121 144.508 81.471 142.138 78.5892Z" fill="#121212"/>
<path d="M262.602 62.1616C263.083 62.9302 263.323 63.987 263.323 65.3318C263.323 67.9586 262.713 69.976 261.497 71.384C258.549 74.8425 255.683 77.6283 252.896 79.742C250.108 81.8554 247.048 82.9121 243.718 82.9121C240.321 82.9121 237.887 81.6316 236.414 79.0694C234.939 76.5086 234.203 72.7934 234.203 67.9255C234.203 63.6988 234.715 58.415 235.741 52.0747H235.549C233.946 54.829 232.44 57.9348 231.032 61.3931C229.622 64.8514 228.052 68.951 226.322 73.6898L224.689 78.0127C223.983 79.934 223.151 81.2309 222.19 81.9034C221.229 82.576 220.076 82.9121 218.73 82.9121C217.32 82.9121 216.295 82.5279 215.655 81.7591C215.014 80.9908 214.437 79.7748 213.925 78.1087C213.348 76.1874 212.868 73.5455 212.484 70.1832C212.099 66.821 211.907 63.4107 211.907 59.9522C211.907 57.8385 212.003 55.8211 212.195 53.8997H212.003C210.401 60.1128 208.832 65.2206 207.294 69.2225C205.756 73.2259 203.673 76.4921 201.047 79.0214C198.419 81.5521 195.088 82.8161 191.052 82.8161C187.656 82.8161 185.046 81.6316 183.22 79.2615C181.393 76.8931 180.48 73.9147 180.48 70.3273C180.48 67.1257 181.216 64.4523 182.691 62.3057C184.164 60.1606 186.247 59.0875 188.938 59.0875C191.5 59.0875 192.782 59.9522 192.782 61.6814C192.782 62.0025 192.749 62.2577 192.686 62.4498C192.172 65.5239 191.917 67.7019 191.917 68.9824C191.917 71.1605 192.397 72.2486 193.359 72.2486C194.255 72.2486 195.151 71.5926 196.05 70.2793C196.946 68.9673 198.195 66.1004 199.798 61.6814C201.975 55.7253 204.026 49.6414 205.949 43.4286C206.588 41.4441 207.534 39.9866 208.783 39.0574C210.033 38.1301 211.714 37.6645 213.829 37.6645C215.622 37.6645 217.112 38.0175 218.298 38.7212C219.482 39.4269 220.076 40.5797 220.076 42.1798C220.076 51.4667 220.299 58.5442 220.749 63.4107H220.941C222.029 59.7598 223.728 55.5661 226.034 50.8259C228.341 46.0871 230.167 42.9813 231.512 41.5072C232.728 40.227 233.963 39.2497 235.212 38.5772C236.461 37.9049 237.855 37.5685 239.393 37.5685C241.699 37.5685 243.269 38.0655 244.102 39.0574C244.934 40.0512 245.351 41.8916 245.351 44.5813C245.351 46.0554 245.318 47.5114 245.255 48.9525C245.191 50.3934 245.126 51.7234 245.063 52.9393C244.806 57.6795 244.678 61.201 244.678 63.5065C244.678 67.1571 244.934 69.6233 245.448 70.9038C245.959 72.1855 246.92 72.8251 248.331 72.8251C250.892 72.8251 254.128 69.4626 258.037 62.7381C258.741 61.5851 259.606 61.0089 260.632 61.0089C261.464 61.0089 262.122 61.3931 262.602 62.1616Z" fill="#121212"/>
<path d="M258.278 78.9253C256.452 76.2685 255.539 72.9541 255.539 68.9824C255.539 64.179 255.859 59.7766 256.5 55.7733C257.14 51.7714 258.197 47.528 259.672 43.0444C260.311 41.1231 261.209 39.7465 262.362 38.9136C263.516 38.0818 265.342 37.6648 267.84 37.6648C269.249 37.6648 270.227 37.8897 270.772 38.3373C271.315 38.7861 271.589 39.4584 271.589 40.3545C271.589 40.8678 271.236 42.5971 270.531 45.542C269.89 47.9121 269.378 50.0573 268.994 51.9786C267.711 58.7034 267.072 63.1869 267.072 65.4278C267.072 66.7729 267.231 67.7187 267.552 68.2619C267.872 68.8069 268.384 69.0785 269.09 69.0785C270.051 69.0785 271.252 68.1178 272.694 66.1964C274.135 64.2751 275.673 61.3616 277.307 57.4545C278.94 53.5487 280.526 48.7453 282.064 43.0444C282.576 41.1231 283.361 39.7465 284.419 38.9136C285.475 38.0818 287.061 37.6648 289.176 37.6648C290.649 37.6648 291.674 37.8417 292.251 38.193C292.828 38.5457 293.116 39.2017 293.116 40.1624C293.116 41.7639 292.314 46.1517 290.713 53.3235C288.919 61.5222 288.022 66.5806 288.022 68.502C288.022 69.7193 288.278 70.6634 288.791 71.336C289.303 72.0085 289.976 72.3449 290.809 72.3449C292.09 72.3449 293.611 71.5612 295.374 69.9911C297.136 68.4225 299.49 65.8769 302.438 62.3537C303.207 61.4576 304.072 61.0089 305.033 61.0089C305.865 61.0089 306.523 61.3933 307.003 62.1616C307.484 62.9302 307.724 63.987 307.724 65.332C307.724 67.8942 307.114 69.88 305.898 71.2882C303.142 74.6833 300.18 77.4693 297.008 79.6459C293.837 81.8239 290.233 82.9121 286.197 82.9121C283.121 82.9121 280.863 81.7277 279.421 79.3575C277.98 76.9889 277.259 73.6581 277.259 69.3666C276.168 73.7227 274.535 77.0686 272.357 79.4056C270.178 81.7442 267.84 82.9121 265.342 82.9121C262.459 82.9121 260.104 81.5836 258.278 78.9253Z" fill="#121212"/>
<path d="M327.088 79.0694C326.093 76.5086 325.598 72.4093 325.598 66.7729C325.598 58.4481 326.783 50.5375 329.154 43.0444C329.731 41.1874 330.675 39.8262 331.989 38.9616C333.301 38.097 335.144 37.6645 337.515 37.6645C338.796 37.6645 339.692 37.8252 340.206 38.145C340.718 38.4663 340.975 39.0742 340.975 39.9703C340.975 40.9953 340.494 43.3011 339.533 46.8871C338.892 49.4493 338.38 51.6754 337.995 53.5636C337.611 55.4535 337.29 57.807 337.034 60.6245C338.764 55.629 340.831 51.4021 343.233 47.9436C345.636 44.4853 348.101 41.908 350.633 40.2104C353.163 38.5143 355.55 37.6645 357.793 37.6645C360.035 37.6645 361.621 38.1779 362.55 39.2017C363.478 40.227 363.944 41.7954 363.944 43.909C363.944 45.9593 363.334 49.6729 362.118 55.0527C361.604 57.3583 361.253 59.0875 361.061 60.2403C364.264 52.3628 367.82 46.6319 371.728 43.0444C375.636 39.4584 379.287 37.6645 382.684 37.6645C386.848 37.6645 388.931 39.7465 388.931 43.909C388.931 46.4067 388.225 50.9219 386.817 57.4545C385.599 63.0263 384.991 66.7098 384.991 68.502C384.991 71.0644 385.919 72.3447 387.778 72.3447C389.058 72.3447 390.58 71.5612 392.343 69.9911C394.104 68.4225 396.459 65.8769 399.407 62.3537C400.175 61.4576 401.04 61.0089 402.001 61.0089C402.833 61.0089 403.491 61.3931 403.971 62.1616C404.452 62.9302 404.692 63.987 404.692 65.3318C404.692 67.8942 404.082 69.88 402.866 71.288C400.111 74.6833 397.148 77.4693 393.977 79.6459C390.805 81.8237 387.201 82.9121 383.165 82.9121C379.897 82.9121 377.43 81.968 375.765 80.0781C374.098 78.1896 373.266 75.4519 373.266 71.8645C373.266 70.0723 373.713 66.869 374.611 62.2577C375.443 58.2229 375.861 55.4369 375.861 53.8997C375.861 52.8762 375.508 52.3628 374.803 52.3628C373.97 52.3628 372.785 53.4361 371.248 55.5812C369.71 57.7276 368.172 60.5616 366.635 64.083C365.097 67.6061 363.848 71.3208 362.886 75.2267C362.181 78.3008 361.364 80.3513 360.436 81.3749C359.506 82.4002 358.017 82.9121 355.967 82.9121C353.853 82.9121 352.267 81.9034 351.21 79.886C350.153 77.8686 349.624 75.4188 349.624 72.5368C349.624 70.1037 349.944 66.5806 350.585 61.9696C351.097 57.8716 351.354 55.1819 351.354 53.8997C351.354 52.8762 351.001 52.3628 350.297 52.3628C349.336 52.3628 348.118 53.5158 346.645 55.8211C345.17 58.1269 343.745 61.0735 342.368 64.6593C340.99 68.2467 339.885 71.7684 339.053 75.2267C338.347 78.2379 337.53 80.2702 336.602 81.3269C335.672 82.3839 334.214 82.9121 332.229 82.9121C329.794 82.9121 328.08 81.6316 327.088 79.0694Z" fill="#E42B29"/>
<path d="M409.544 51.21C407.911 53.9643 407.094 57.2951 407.094 61.201V61.3931C410.873 60.497 413.852 59.1521 416.031 57.3583C418.209 55.5661 419.299 53.4841 419.299 51.114C419.299 49.8981 418.962 48.9208 418.29 48.1839C417.617 47.4485 416.704 47.0792 415.551 47.0792C413.18 47.0792 411.178 48.4569 409.544 51.21ZM441.739 62.1616C442.22 62.9302 442.46 63.9867 442.46 65.3318C442.46 67.8942 441.85 69.88 440.634 71.288C438.263 74.17 434.916 76.8282 430.591 79.2615C426.266 81.6962 421.637 82.9121 416.704 82.9121C409.977 82.9121 404.754 81.0868 401.039 77.4362C397.323 73.7858 395.465 68.7901 395.465 62.4498C395.465 58.0308 396.393 53.9165 398.252 50.1053C400.109 46.2957 402.688 43.2696 405.988 41.027C409.288 38.7858 413.019 37.6645 417.184 37.6645C420.9 37.6645 423.879 38.7693 426.122 40.979C428.364 43.1885 429.486 46.1831 429.486 49.961C429.486 54.3802 427.9 58.1749 424.729 61.345C421.557 64.5152 416.191 67.0296 408.631 68.8864C410.232 71.833 413.276 73.3053 417.761 73.3053C420.644 73.3053 423.927 72.2966 427.612 70.2793C431.295 68.2619 434.484 65.6202 437.174 62.3537C437.943 61.4576 438.808 61.0089 439.769 61.0089C440.601 61.0089 441.259 61.3931 441.739 62.1616Z" fill="#E42B29"/>
<path d="M436.357 79.0694C435.363 76.5086 434.867 72.4093 434.867 66.7729C434.867 58.4481 436.052 50.5375 438.423 43.0444C439 41.1874 439.944 39.8262 441.258 38.9616C442.571 38.097 444.413 37.6645 446.784 37.6645C448.065 37.6645 448.962 37.8252 449.475 38.145C449.988 38.4663 450.244 39.0742 450.244 39.9703C450.244 40.9953 449.764 43.3011 448.803 46.8871C448.161 49.4493 447.649 51.6903 447.265 53.6116C446.881 55.5332 446.559 57.9031 446.304 60.7205C448.418 55.2134 450.788 50.7298 453.416 47.2713C456.042 43.813 458.62 41.3483 461.152 39.8742C463.683 38.4017 466.005 37.6645 468.12 37.6645C472.284 37.6645 474.367 39.7465 474.367 43.909C474.367 46.4067 473.661 50.9219 472.252 57.4545C471.034 63.0263 470.426 66.7098 470.426 68.502C470.426 71.0644 471.354 72.3447 473.213 72.3447C474.494 72.3447 476.015 71.5612 477.778 69.9911C479.54 68.4225 481.894 65.8769 484.842 62.3537C485.611 61.4576 486.476 61.0089 487.437 61.0089C488.269 61.0089 488.927 61.3931 489.407 62.1616C489.887 62.9302 490.128 63.987 490.128 65.3318C490.128 67.8942 489.518 69.88 488.302 71.288C485.546 74.6833 482.584 77.4693 479.412 79.6459C476.24 81.8237 472.637 82.9121 468.6 82.9121C465.333 82.9121 462.865 81.968 461.2 80.0781C459.534 78.1896 458.701 75.4519 458.701 71.8645C458.701 70.0723 459.149 66.869 460.047 62.2577C460.879 58.2229 461.296 55.4369 461.296 53.8997C461.296 52.8762 460.943 52.3628 460.239 52.3628C459.406 52.3628 458.236 53.4361 456.731 55.5812C455.225 57.7276 453.687 60.5616 452.118 64.083C450.547 67.6061 449.283 71.3208 448.322 75.2267C447.616 78.2379 446.799 80.2702 445.871 81.3269C444.942 82.3839 443.484 82.9121 441.499 82.9121C439.063 82.9121 437.349 81.6316 436.357 79.0694Z" fill="#E42B29"/>
<path d="M541.013 62.1616C541.494 62.9302 541.734 63.987 541.734 65.3318C541.734 67.8943 541.124 69.88 539.908 71.288C537.794 73.7858 535.951 75.7881 534.382 77.2921C532.812 78.7976 530.889 80.1112 528.616 81.2309C526.341 82.3522 523.763 82.9121 520.879 82.9121C517.098 82.9121 514.407 81.423 512.806 78.4451C511.204 75.4668 510.404 70.9684 510.404 64.9476C510.404 61.9381 510.532 59.0244 510.788 56.2055H510.596C508.033 64.7239 504.878 71.288 501.13 75.8992C497.382 80.5105 493.105 82.8161 488.3 82.8161C485.032 82.8161 482.469 81.6316 480.612 79.2615C478.752 76.8931 477.824 73.9147 477.824 70.3273C477.824 67.1257 478.56 64.5318 480.035 62.5461C481.508 60.5616 483.591 59.5677 486.282 59.5677C487.498 59.5677 488.411 59.8244 489.021 60.3363C489.629 60.8497 489.869 61.5537 489.741 62.4498C489.228 65.5239 488.973 67.6376 488.973 68.7901C488.973 71.0959 489.549 72.2486 490.702 72.2486C491.342 72.2486 492.063 71.7684 492.865 70.8075C493.665 69.8471 495.027 67.5098 496.949 63.7949C498.422 60.9774 499.943 57.807 501.514 54.2842C503.083 50.7627 504.381 47.624 505.406 44.8695C506.431 42.1798 507.617 40.3396 508.962 39.3458C510.308 38.3536 512.23 37.8566 514.729 37.8566C517.163 37.8566 518.957 38.3371 520.11 39.2977C521.264 40.2584 521.84 41.8285 521.84 44.0051L521.648 51.114C521.391 56.4936 521.264 60.3695 521.264 62.7381C521.264 69.4626 522.641 72.8251 525.396 72.8251C526.549 72.8251 527.686 72.2818 528.808 71.1919C529.928 70.1037 531.674 68.1178 534.046 65.2358L536.448 62.3537C537.217 61.4576 538.082 61.0089 539.043 61.0089C539.875 61.0089 540.533 61.3931 541.013 62.1616Z" fill="#E42B29"/>
<path d="M557.93 70.2312C559.435 68.5666 560.444 66.165 560.958 63.0263C558.971 61.6814 557.45 59.9207 556.393 57.7427C555.336 55.5661 554.807 53.2603 554.807 50.8259C554.807 49.802 554.903 48.7768 555.095 47.7517H554.615C552.051 47.7517 549.921 48.9854 548.224 51.4504C546.525 53.9165 545.677 57.3914 545.677 61.8735C545.677 65.3964 546.365 68.0863 547.743 69.9431C549.12 71.8015 550.738 72.7288 552.597 72.7288C554.646 72.7288 556.424 71.8973 557.93 70.2312ZM586.041 54.1881C586.489 55.0213 586.714 56.0778 586.714 57.3583C586.714 60.4324 585.784 62.2577 583.927 62.8342C580.083 64.179 575.854 64.9476 571.241 65.1397C570.023 70.5194 567.621 74.8274 564.033 78.0607C560.444 81.2955 556.376 82.9121 551.828 82.9121C547.984 82.9121 544.7 81.9843 541.977 80.1261C539.253 78.2694 537.187 75.8032 535.778 72.7288C534.368 69.6547 533.664 66.3256 533.664 62.7381C533.664 57.8716 534.592 53.5321 536.451 49.7211C538.308 45.9113 540.872 42.9335 544.139 40.7867C547.407 38.6418 551.026 37.5685 554.999 37.5685C559.867 37.5685 563.793 39.2497 566.772 42.6122C569.751 45.9745 571.496 50.1219 572.01 55.0527C575.02 54.8607 578.608 54.2212 582.773 53.1314C583.285 53.0036 583.735 52.9393 584.119 52.9393C584.951 52.9393 585.592 53.3566 586.041 54.1881Z" fill="#E42B29"/>
<path d="M596.608 59.0875C595.775 58.511 595.359 57.6149 595.359 56.3976L595.455 55.629C596.543 48.4569 598.016 40.2913 599.876 31.1321C601.733 21.9744 603.463 14.0652 605.065 7.40357C606.089 3.30588 608.876 1.25535 613.426 1.25535C617.526 1.25535 619.577 2.56875 619.577 5.1941C619.577 5.77036 619.481 6.41145 619.289 7.1152C617.622 13.9045 615.411 22.1184 612.658 31.7564C609.902 41.3963 607.276 49.7691 604.777 56.878C604.071 58.9283 602.406 59.9522 599.779 59.9522C598.497 59.9522 597.44 59.664 596.608 59.0875ZM589.737 80.6063C588.295 79.0694 587.574 77.052 587.574 74.5542C587.574 71.6721 588.391 69.3666 590.025 67.6376C591.659 65.9083 593.949 65.0437 596.896 65.0437C599.715 65.0437 601.846 65.7325 603.287 67.1091C604.729 68.4871 605.45 70.5194 605.45 73.2093C605.45 76.1559 604.616 78.5095 602.951 80.2702C601.284 82.0326 599.011 82.9121 596.127 82.9121C593.307 82.9121 591.178 82.1435 589.737 80.6063Z" fill="#E42B29"/>
</svg>
