<svg width="25" height="18" viewBox="0 0 25 18" fill="none" xmlns="http://www.w3.org/2000/svg">
<g clip-path="url(#clip0_2001_4765)">
<path d="M12.5012 16.0804C11.2411 16.8133 9.80775 17.2037 8.34626 17.212C6.88477 17.2202 5.44702 16.8461 4.17854 16.1274C2.91005 15.4088 1.85588 14.3711 1.12271 13.1194C0.389544 11.8677 0.00341797 10.4465 0.00341797 8.99961C0.00341797 7.55271 0.389544 6.13149 1.12271 4.87982C1.85588 3.62815 2.91005 2.59046 4.17854 1.87179C5.44702 1.15312 6.88477 0.778978 8.34626 0.787243C9.80775 0.795509 11.2411 1.18589 12.5012 1.91886C13.7613 1.18589 15.1946 0.795509 16.6561 0.787243C18.1176 0.778978 19.5554 1.15312 20.8239 1.87179C22.0923 2.59046 23.1465 3.62815 23.8797 4.87982C24.6129 6.13149 24.999 7.55271 24.999 8.99961C24.999 10.4465 24.6129 11.8677 23.8797 13.1194C23.1465 14.3711 22.0923 15.4088 20.8239 16.1274C19.5554 16.8461 18.1176 17.2202 16.6561 17.212C15.1946 17.2037 13.7613 16.8133 12.5012 16.0804ZM14.4353 14.5234C15.3497 14.8913 16.3414 15.031 17.3232 14.9304C18.305 14.8297 19.2468 14.4918 20.0656 13.9462C20.8845 13.4006 21.5553 12.6641 22.0192 11.8015C22.483 10.939 22.7256 9.97678 22.7256 8.99961C22.7256 8.02244 22.483 7.06025 22.0192 6.19769C21.5553 5.33514 20.8845 4.59866 20.0656 4.05306C19.2468 3.50747 18.305 3.16947 17.3232 3.06882C16.3414 2.96817 15.3497 3.10795 14.4353 3.47586C15.8256 4.9859 16.5946 6.95643 16.591 8.99961C16.591 11.1259 15.7739 13.0654 14.4342 14.5234M10.566 3.47586C9.65156 3.10795 8.65983 2.96817 7.67804 3.06882C6.69625 3.16947 5.7545 3.50747 4.93564 4.05306C4.11678 4.59866 3.44592 5.33514 2.98209 6.19769C2.51826 7.06025 2.27567 8.02244 2.27567 8.99961C2.27567 9.97678 2.51826 10.939 2.98209 11.8015C3.44592 12.6641 4.11678 13.4006 4.93564 13.9462C5.7545 14.4918 6.69625 14.8297 7.67804 14.9304C8.65983 15.031 9.65156 14.8913 10.566 14.5234C9.17571 13.0133 8.4067 11.0428 8.41029 8.99961C8.41029 6.87336 9.2262 4.93386 10.566 3.47586ZM12.5012 4.73023C11.9247 5.28498 11.4666 5.94877 11.1543 6.68218C10.842 7.4156 10.6817 8.20368 10.683 8.99961C10.683 10.6736 11.3796 12.1856 12.5012 13.269C13.0777 12.7142 13.5358 12.0505 13.8481 11.317C14.1604 10.5836 14.3207 9.79554 14.3194 8.99961C14.3207 8.20368 14.1604 7.4156 13.8481 6.68218C13.5358 5.94877 13.0777 5.28498 12.5012 4.73023Z" fill="#9C9A9A"/>
</g>
<defs>
<clipPath id="clip0_2001_4765">
<rect width="25" height="18" fill="white"/>
</clipPath>
</defs>
</svg>
