<svg width="230" height="82" viewBox="0 0 230 82" fill="none" xmlns="http://www.w3.org/2000/svg">
<g clip-path="url(#clip0_2006_7504)">
<path fill-rule="evenodd" clip-rule="evenodd" d="M100.682 13.9102C100.682 13.9102 100.682 13.9102 105.519 13.9102C107.282 13.9102 108.17 14.7796 108.17 16.7423C108.17 16.7423 108.17 16.7423 108.17 23.6975C108.17 23.6975 108.17 23.6975 117.647 23.6975C117.647 23.6975 117.647 23.6975 117.647 16.7423C117.647 14.7796 118.521 13.9102 120.509 13.9102C120.509 13.9102 120.509 13.9102 125.135 13.9102C125.135 13.9102 125.135 13.9102 125.135 18.4811C125.135 18.4811 125.135 18.4811 123.16 18.4811L122.935 18.705C122.935 18.705 122.935 18.705 122.935 38.2796C122.935 38.2796 122.935 38.2796 117.647 38.2796C117.647 38.2796 117.647 38.2796 117.647 28.4923C117.647 28.4923 117.647 28.4923 108.17 28.4923C108.17 28.4923 108.17 28.4923 108.17 38.2796C108.17 38.2796 108.17 38.2796 102.882 38.2796C102.882 38.2796 102.882 38.2796 102.882 18.705C102.882 18.705 102.882 18.4811 102.656 18.4811C102.656 18.4811 102.656 18.4811 100.682 18.4811C100.682 18.4811 100.682 18.4811 100.682 13.9102Z" fill="#ED1C24"/>
<path fill-rule="evenodd" clip-rule="evenodd" d="M139.013 13.4766L139.132 13.4897V18.5085L139.013 18.4822C135.05 18.4822 131.962 21.749 131.962 25.8852C131.962 30.2322 135.05 33.7098 139.013 33.7098L139.132 33.6835V38.7023L139.013 38.7154C131.962 38.7154 126.236 33.0644 126.236 25.8852C126.236 18.9169 131.962 13.4766 139.013 13.4766Z" fill="#ED1C24"/>
<path fill-rule="evenodd" clip-rule="evenodd" d="M139.133 13.4883L141.585 13.7254C147.403 14.8582 151.79 19.7848 151.79 25.8838C151.79 32.154 147.403 37.2782 141.585 38.4505L139.133 38.7008V33.682L141.823 33.1024C144.421 31.9169 146.29 29.1374 146.29 25.8838C146.29 22.775 144.421 20.1668 141.823 19.0603L139.133 18.5071V13.4883Z" fill="#ED1C24"/>
<path fill-rule="evenodd" clip-rule="evenodd" d="M152.889 13.9102C152.889 13.9102 152.889 13.9102 160.271 13.9102H163.797V18.4811H163.465C163.028 18.4811 162.14 18.4811 160.377 18.4811C160.377 18.4811 160.377 18.4811 160.377 23.4867C160.377 23.4867 160.377 23.4867 161.875 23.4867H163.797V27.8337H162.67C162.113 27.8337 161.371 27.8337 160.377 27.8337C160.377 27.8337 160.377 27.8337 160.377 33.274C160.377 33.4979 160.377 33.4979 160.602 33.4979C160.602 33.4979 160.602 33.4979 162.18 33.4979H163.797V38.2796H163.333C162.537 38.2796 160.934 38.2796 157.74 38.2796C155.977 38.2796 155.102 37.4102 155.102 35.4475V18.4811C155.102 18.4811 155.102 18.4811 152.889 18.4811C152.889 18.4811 152.889 18.4811 152.889 13.9102Z" fill="#ED1C24"/>
<path fill-rule="evenodd" clip-rule="evenodd" d="M163.797 13.9102H163.903C168.754 13.9102 171.617 16.5184 171.617 20.4438C171.617 22.8281 170.517 24.3561 169.416 25.4494C171.405 26.3188 172.717 28.4923 172.717 30.8766C172.717 35.4475 169.191 38.2796 164.128 38.2796C164.128 38.2796 164.128 38.2796 164.035 38.2796H163.797V33.4979H164.34C166.103 33.4979 167.216 32.4046 167.216 30.6658C167.216 28.927 166.103 27.8337 164.34 27.8337C164.34 27.8337 164.34 27.8337 163.85 27.8337H163.797V23.4867H163.903C165.454 23.4867 166.328 22.3934 166.328 20.8785C166.328 19.3505 165.454 18.4811 163.903 18.4811C163.903 18.4811 163.903 18.4811 163.85 18.4811H163.797V13.9102Z" fill="#ED1C24"/>
<path fill-rule="evenodd" clip-rule="evenodd" d="M182.857 13.9102C182.857 13.9102 182.857 13.9102 185.083 13.9102H185.494V20.8785C185.282 21.3132 185.057 21.9587 185.057 22.6173C185.057 22.6173 185.057 22.6173 183.294 27.6229C183.294 27.6229 183.294 27.6229 185.163 27.6229H185.494V32.1807H184.301C183.625 32.1807 182.857 32.1807 181.982 32.1807C181.982 32.1807 181.982 32.1807 180.431 36.1061C179.994 37.621 179.119 38.2796 177.356 38.2796C177.356 38.2796 177.356 38.2796 174.043 38.2796C174.043 38.2796 174.043 38.2796 174.043 33.4979C174.043 33.4979 174.043 33.4979 175.143 33.4979C175.594 33.4979 175.594 33.4979 175.806 33.274C175.806 33.274 175.806 33.274 182.857 13.9102Z" fill="#ED1C24"/>
<path fill-rule="evenodd" clip-rule="evenodd" d="M185.494 13.9102H188.145C188.145 13.9102 188.145 13.9102 195.196 33.274C195.408 33.4979 195.408 33.4979 195.845 33.4979C195.845 33.4979 195.845 33.4979 196.733 33.4979C196.733 33.4979 196.733 33.4979 196.733 38.2796C196.733 38.2796 196.733 38.2796 193.645 38.2796C191.882 38.2796 191.008 37.621 190.557 35.8822C190.557 35.8822 190.557 35.8822 189.02 32.1807C189.02 32.1807 189.02 32.1807 186.051 32.1807H185.494V27.6229H187.694C187.694 27.6229 187.694 27.6229 185.945 22.6173C185.945 21.9587 185.719 21.3132 185.494 20.8785V13.9102Z" fill="#ED1C24"/>
<path fill-rule="evenodd" clip-rule="evenodd" d="M100.682 45.2344C100.682 45.2344 100.682 45.2344 119.847 45.2344C121.609 45.2344 122.709 46.1038 122.709 48.0665C122.709 48.0665 122.709 48.0665 122.709 64.5982C122.709 64.809 122.709 64.809 122.935 64.809C122.935 64.809 122.935 64.809 124.698 64.809C124.698 64.809 124.698 64.809 124.698 69.6039C124.698 69.6039 124.698 69.6039 120.072 69.6039C118.084 69.6039 117.209 68.7345 117.209 66.7717C117.209 66.7717 117.209 66.7717 117.209 50.0292C117.209 50.0292 117.209 49.8053 116.984 49.8053C116.984 49.8053 116.984 49.8053 108.17 49.8053C108.17 49.8053 108.17 49.8053 108.17 69.6039C108.17 69.6039 108.17 69.6039 102.882 69.6039C102.882 69.6039 102.882 69.6039 102.882 49.8053C102.882 49.8053 102.882 49.8053 100.682 49.8053C100.682 49.8053 100.682 49.8053 100.682 45.2344Z" fill="#ED1C24"/>
<path fill-rule="evenodd" clip-rule="evenodd" d="M138.574 44.8008L138.68 44.814V49.8328L138.574 49.8064C134.598 49.8064 131.523 53.0732 131.523 57.2095C131.523 61.5564 134.598 65.034 138.574 65.034L138.68 65.0077V70.0265L138.574 70.0397C131.523 70.0397 126.01 64.3754 126.01 57.2095C126.01 50.2411 131.523 44.8008 138.574 44.8008Z" fill="#ED1C24"/>
<path fill-rule="evenodd" clip-rule="evenodd" d="M138.682 44.8145L141.213 45.0516C147.138 46.1844 151.352 51.111 151.352 57.21C151.352 63.4802 147.138 68.6043 141.213 69.7767L138.682 70.027V65.0082L141.478 64.4286C144.116 63.2431 145.852 60.4636 145.852 57.21C145.852 54.1012 144.116 51.493 141.478 50.3865L138.682 49.8333V44.8145Z" fill="#ED1C24"/>
<path fill-rule="evenodd" clip-rule="evenodd" d="M152.451 45.2344C152.451 45.2344 152.451 45.2344 157.302 45.2344C159.065 45.2344 159.94 46.1038 159.94 48.0665C159.94 48.0665 159.94 48.0665 159.94 64.5982C159.94 64.809 159.94 64.809 160.165 64.809C160.165 64.809 160.165 64.809 166.553 64.809C166.553 64.809 166.553 64.809 166.553 45.2344C166.553 45.2344 166.553 45.2344 171.841 45.2344C171.841 45.2344 171.841 45.2344 171.841 64.809C171.841 64.809 171.841 64.809 178.23 64.809C178.455 64.809 178.455 64.809 178.455 64.5982C178.455 64.5982 178.455 64.5982 178.455 48.0665C178.455 46.1038 179.33 45.2344 181.093 45.2344C181.093 45.2344 181.093 45.2344 185.944 45.2344C185.944 45.2344 185.944 45.2344 185.944 49.8053C185.944 49.8053 185.944 49.8053 183.955 49.8053C183.73 49.8053 183.73 50.0292 183.73 50.0292C183.73 50.0292 183.73 50.0292 183.73 66.7717C183.73 68.7345 182.855 69.6039 181.093 69.6039C181.093 69.6039 181.093 69.6039 157.514 69.6039C155.539 69.6039 154.651 68.7345 154.651 66.7717C154.651 66.7717 154.651 66.7717 154.651 50.0292C154.651 50.0292 154.651 49.8053 154.439 49.8053C154.439 49.8053 154.439 49.8053 152.451 49.8053C152.451 49.8053 152.451 49.8053 152.451 45.2344Z" fill="#ED1C24"/>
<path fill-rule="evenodd" clip-rule="evenodd" d="M190.119 45.2344C190.119 45.2344 190.119 45.2344 206.646 45.2344C208.634 45.2344 209.297 46.1038 209.297 47.8426C209.297 47.8426 209.297 47.8426 209.297 51.9788H204.446C204.446 51.9788 204.446 51.9788 204.446 50.0292C204.446 49.8053 204.446 49.8053 204.221 49.8053C204.221 49.8053 204.221 49.8053 201.146 49.8053C201.146 49.8053 201.146 49.8053 201.146 69.6039C201.146 69.6039 201.146 69.6039 195.844 69.6039C195.844 69.6039 195.844 69.6039 195.844 49.8053C195.844 49.8053 195.844 49.8053 192.77 49.8053C192.544 49.8053 192.544 49.8053 192.544 50.0292C192.544 50.0292 192.544 50.0292 192.544 51.9788C192.544 51.9788 192.544 51.9788 187.693 51.9788C187.693 51.9788 187.693 51.9788 187.693 47.8426C187.693 46.1038 188.356 45.2344 190.119 45.2344Z" fill="#ED1C24"/>
<path fill-rule="evenodd" clip-rule="evenodd" d="M216.122 45.2344C216.122 45.2344 216.122 45.2344 218.349 45.2344H218.76V52.2027C218.535 52.6374 218.323 53.2829 218.323 53.9415C218.323 53.9415 218.323 53.9415 216.56 58.9471C216.56 58.9471 216.56 58.9471 218.415 58.9471H218.76V63.5049H217.567C216.891 63.5049 216.122 63.5049 215.234 63.5049C215.234 63.5049 215.234 63.5049 213.697 67.2064C213.26 68.9452 212.372 69.6039 210.609 69.6039C210.609 69.6039 210.609 69.6039 207.309 69.6039C207.309 69.6039 207.309 69.6039 207.309 64.809C207.309 64.809 207.309 64.809 208.409 64.809C208.859 64.809 208.859 64.809 209.071 64.5982C209.071 64.5982 209.071 64.5982 216.122 45.2344Z" fill="#ED1C24"/>
<path fill-rule="evenodd" clip-rule="evenodd" d="M218.762 45.2344H221.399C221.399 45.2344 221.399 45.2344 228.464 64.5982C228.676 64.809 228.676 64.809 229.126 64.809H230.001C230.001 64.809 230.001 64.809 230.001 69.6039C230.001 69.6039 230.001 69.6039 226.913 69.6039C225.15 69.6039 224.275 68.9452 223.825 67.2064C223.825 67.2064 223.825 67.2064 222.287 63.5049C222.287 63.5049 222.287 63.5049 219.318 63.5049H218.762V58.9471H220.962C220.962 58.9471 220.962 58.9471 219.199 53.9415C219.199 53.2829 218.987 52.6374 218.762 52.2027V45.2344Z" fill="#ED1C24"/>
<path fill-rule="evenodd" clip-rule="evenodd" d="M66.7273 24.2774C66.9791 24.1984 67.3104 24.3564 67.6418 24.7911C67.6418 24.7911 67.6418 24.7911 82.6186 39.3601C83.4933 40.2295 83.4933 41.5468 82.6186 42.1923C82.6186 42.1923 82.6186 42.1922 67.6418 56.9852C67.3104 57.4199 66.9791 57.5253 66.7273 57.3935C66.4755 57.2618 66.3164 56.8798 66.3164 56.3265V25.2258C66.3164 24.6857 66.4755 24.3564 66.7273 24.2774Z" fill="#ED1C24"/>
<path fill-rule="evenodd" clip-rule="evenodd" d="M41.1071 0H42.1674L43.188 0.421528C43.188 0.421528 43.188 0.421527 58.6021 15.6492C59.2648 16.5186 59.0395 17.1772 57.9395 17.1772C57.9395 17.1772 57.9395 17.1772 51.5511 17.1772C50.451 17.1772 49.5763 18.0466 49.5763 19.1399C49.5763 19.1399 49.5763 19.1399 49.5763 30.4421C49.5763 31.5354 48.6883 32.4048 47.3629 32.4048C47.3629 32.4048 47.3629 32.4048 36.1369 32.4048C35.0369 32.4048 34.1489 31.5354 34.1489 30.4421C34.1489 30.4421 34.1489 30.4421 34.1489 19.1399C34.1489 18.0466 33.2741 17.1772 32.1608 17.1772H25.3351C24.235 17.1772 24.0097 16.5186 24.6724 15.6492C24.6724 15.6492 24.6724 15.6492 40.0998 0.421528L41.1071 0Z" fill="#ED1C24"/>
<path fill-rule="evenodd" clip-rule="evenodd" d="M16.9582 23.9476C17.2366 24.0793 17.4089 24.4613 17.4089 25.0146V56.7608C17.4089 57.314 17.2366 57.6433 16.9582 57.7487C16.6932 57.8541 16.3088 57.7487 15.8582 57.4194C15.8582 57.4194 15.8582 57.4194 0.656063 42.1918C-0.218688 41.5463 -0.218688 40.229 0.656063 39.3596C0.656063 39.3596 0.656065 39.3596 15.8582 24.3559C16.3088 23.9212 16.6932 23.8159 16.9582 23.9476Z" fill="#ED1C24"/>
<path fill-rule="evenodd" clip-rule="evenodd" d="M36.1373 48.9375C36.1373 48.9375 36.1373 48.9375 47.3633 48.9375C48.6886 48.9375 49.5766 49.8069 49.5766 50.9002C49.5766 50.9002 49.5766 50.9002 49.5766 62.861C49.5766 64.1651 50.4514 65.0345 51.5515 65.0345H57.5024C58.6025 65.0345 59.0399 65.68 58.1651 66.3386C58.1651 66.3386 58.1651 66.3386 43.1883 81.3423C42.7377 81.777 42.1943 82.001 41.6376 82.001C41.0942 82.001 40.5375 81.777 40.1002 81.3423C40.1002 81.3423 40.1002 81.3423 25.1234 66.3386C24.2354 65.68 24.6727 65.0345 25.7728 65.0345C25.7728 65.0345 25.7728 65.0345 32.1611 65.0345C33.2745 65.0345 34.1492 64.1651 34.1492 62.861C34.1492 62.861 34.1492 62.861 34.1492 50.9002C34.1492 49.8069 35.0372 48.9375 36.1373 48.9375Z" fill="#ED1C24"/>
</g>
<defs>
<clipPath id="clip0_2006_7504">
<rect width="230" height="82" fill="white"/>
</clipPath>
</defs>
</svg>
