<svg width="411" height="148" viewBox="0 0 411 148" fill="none" xmlns="http://www.w3.org/2000/svg">
<path d="M218.792 50.1847C216.677 45.3126 216.558 39.3586 219.723 34.5696C222.916 29.773 228.616 26.9829 234.2 25.3134C237.046 24.4841 239.988 23.9102 242.964 23.6704C245.987 23.4826 248.649 23.3078 251.404 22.6862C256.801 21.5831 261.885 18.8812 264.052 14.4903C264.388 13.7945 265.281 13.4785 266.046 13.7846C266.659 14.0295 267.002 14.6111 266.942 15.1852C266.309 20.7912 265.058 26.2088 263.307 31.5637C261.482 36.8665 259.25 42.1701 255.627 46.7958C252.092 51.3814 246.979 55.4092 240.741 56.5833C234.5 57.666 228.291 55.9869 223.01 53.4309C228.582 55.4176 234.724 56.6914 240.391 55.2315C246.068 53.8929 250.534 50.0387 253.647 45.5818C259.841 36.5114 262.638 25.5792 263.916 14.9575L266.807 15.6524C264.004 21.0722 257.835 24.0469 252.027 25.1362C249.123 25.7624 245.96 25.9224 243.193 26.0525C240.383 26.2748 237.583 26.6549 234.861 27.3284C229.471 28.6822 224.127 31.0727 220.957 35.289C217.647 39.441 217.311 45.1282 218.792 50.1847Z" fill="#2E8942"/>
<path d="M209.034 50.7856C211.35 44.2539 211.792 36.926 208.688 30.7679C207.207 27.6876 204.769 25.0668 201.873 23.0294C199.046 20.8745 195.582 19.5383 192.158 18.2928L192.154 18.2909L191.977 18.2148C190.55 17.5994 188.65 17.1033 186.9 16.7071C185.106 16.3078 183.285 15.9789 181.453 15.6756C177.789 15.0665 174.072 14.6532 170.346 14.3192L170.511 14.3255C168.114 14.3257 165.894 14.0614 163.626 13.6285C161.378 13.1845 159.166 12.5249 157.054 11.6084C154.945 10.6816 152.987 9.41694 151.285 7.89297C149.556 6.36852 148.326 4.44693 147.331 2.47059L150.257 1.8475C151.045 9.08991 152.494 16.4087 154.674 23.4648C156.87 30.5201 159.835 37.406 164.054 43.5864C168.265 49.6962 174.255 55.0741 181.952 57.1537C189.645 59.314 198.039 57.8462 205.614 55.2201C198.315 58.422 189.822 60.2951 181.545 58.4897C173.289 56.5547 166.686 51.0067 162.059 44.774C157.335 38.4838 154.375 31.3377 151.981 24.168C149.676 16.9396 148.052 9.6035 147.226 2.06504C147.144 1.30846 147.751 0.634235 148.582 0.558838C149.244 0.499054 149.848 0.835686 150.11 1.35624L150.152 1.44172C150.982 3.09991 151.961 4.71561 153.405 6.00883C154.825 7.30398 156.48 8.41641 158.334 9.25463C162.026 10.9037 166.346 11.7558 170.455 11.8384L170.552 11.8404L170.623 11.8447C174.403 12.2233 178.178 12.6824 181.932 13.347C183.812 13.6606 185.677 14.0799 187.532 14.5519C189.415 15.0612 191.168 15.522 193.118 16.4449L192.939 16.3679C196.507 17.791 200.096 19.3178 203.052 21.7216C206.047 24.0043 208.622 26.8976 209.995 30.2622C212.831 36.9774 211.951 44.4397 209.034 50.7856Z" fill="#2E8942"/>
<path d="M36.7074 65.6126H22.2414V96.0649H14.4701V65.6126H0V61.9584H36.7074V65.6126Z" fill="#080909"/>
<path d="M67.6383 96.0649H60.1343V80.7155C60.1343 78.3771 59.4923 76.6987 58.2043 75.6727C56.9204 74.6503 55.0622 74.1391 52.63 74.1391H45.6641V96.0649H38.1641V61.9582H45.6641V70.7279H52.63C57.7417 70.7279 61.5179 71.5652 63.9659 73.2366C66.4103 74.9113 67.6383 77.402 67.6383 80.7155V96.0649Z" fill="#080909"/>
<path d="M86.2261 72.9211C85.1893 72.9211 84.2246 73.0988 83.3352 73.4577C82.4381 73.8165 81.6646 74.3822 81.0028 75.1615C80.341 75.9409 79.8064 76.9487 79.3958 78.1814C78.9851 79.4177 78.762 80.9112 78.7261 82.6659H93.7302C93.7302 80.9765 93.515 79.5154 93.0842 78.2794C92.6577 77.0466 92.0955 76.0317 91.3978 75.2341C90.6998 74.44 89.8986 73.8566 88.9853 73.4829C88.0763 73.1096 87.1552 72.9211 86.2261 72.9211ZM88.1041 93.6288C89.8547 93.6288 91.4855 93.3532 93.0045 92.7985C94.5238 92.2475 96.0151 91.4681 97.4824 90.4603L99.6236 93.3858C98.9457 93.9369 98.1523 94.4409 97.2391 94.8939C96.3301 95.3506 95.3451 95.7314 94.2924 96.0395C93.2398 96.3478 92.1393 96.5906 90.995 96.7718C89.8547 96.9495 88.7102 97.04 87.5659 97.04C85.0298 97.04 82.7172 96.7392 80.628 96.1375C78.5386 95.5355 76.7602 94.6584 75.2969 93.5054C73.8296 92.3526 72.6972 90.9314 71.8917 89.2423C71.0902 87.5529 70.6875 85.606 70.6875 83.3946C70.6875 81.2195 71.0704 79.2799 71.84 77.5722C72.6053 75.8684 73.678 74.44 75.0537 73.2873C76.4293 72.1345 78.064 71.2571 79.958 70.6552C81.8521 70.0535 83.9415 69.7526 86.2261 69.7526C88.3713 69.7526 90.389 70.0463 92.283 70.63C94.1768 71.2173 95.8197 72.0692 97.2111 73.1893C98.6068 74.3096 99.7113 75.6655 100.537 77.257C101.358 78.8484 101.769 80.6502 101.769 82.6659V86.0771H78.8856C79.316 88.7709 80.341 90.7031 81.9677 91.8741C83.5906 93.0415 85.6362 93.6288 88.1041 93.6288Z" fill="#080909"/>
<path d="M126.252 74.1391H119.824C117.392 74.1391 115.534 74.7337 114.25 75.9191C112.962 77.1047 112.32 78.8664 112.32 81.2048V96.0649H104.82V81.2048C104.82 77.8913 105.973 75.3174 108.273 73.4829C110.578 71.6449 113.891 70.7277 118.214 70.7277H126.252V74.1391Z" fill="#080909"/>
<path d="M127.707 70.7279H155.57C160.678 70.7279 164.458 71.5654 166.906 73.2366C169.351 74.9116 170.575 77.402 170.575 80.7155V96.0649H163.075V80.7155C163.075 78.3773 162.433 76.6987 161.145 75.6727C159.857 74.6506 158.003 74.1394 155.57 74.1394H152.891V96.0649H145.391V74.1394H135.207V96.0649H127.707V70.7279Z" fill="#080909"/>
<path d="M189.973 93.8716C191.113 93.8716 192.186 93.6759 193.187 93.2879C194.188 92.8965 195.065 92.2873 195.814 91.4606C196.564 90.6306 197.162 89.5503 197.609 88.2196C198.055 86.8892 198.279 85.2797 198.279 83.3944C198.279 81.5129 198.055 79.9032 197.609 78.5728C197.162 77.2423 196.564 76.1621 195.814 75.3318C195.065 74.5053 194.188 73.8962 193.187 73.5048C192.186 73.1168 191.113 72.9211 189.973 72.9211C188.829 72.9211 187.756 73.1168 186.755 73.5048C185.758 73.8962 184.881 74.5053 184.132 75.3318C183.382 76.1621 182.784 77.2423 182.337 78.5728C181.891 79.9032 181.667 81.5129 181.667 83.3944C181.667 85.2797 181.891 86.8892 182.337 88.2196C182.784 89.5503 183.382 90.6306 184.132 91.4606C184.881 92.2873 185.758 92.8965 186.755 93.2879C187.756 93.6759 188.829 93.8716 189.973 93.8716ZM189.973 69.7526C192.365 69.7526 194.571 70.0535 196.592 70.6552C198.609 71.2571 200.332 72.1343 201.763 73.2873C203.191 74.44 204.307 75.8684 205.109 77.5722C205.914 79.2799 206.317 81.2193 206.317 83.3944C206.317 85.6058 205.914 87.5526 205.109 89.242C204.307 90.9314 203.191 92.3526 201.763 93.5054C200.332 94.6582 198.609 95.5355 196.592 96.1375C194.571 96.7392 192.365 97.04 189.973 97.04C187.541 97.04 185.328 96.7392 183.326 96.1375C181.324 95.5355 179.61 94.6582 178.183 93.5054C176.755 92.3526 175.639 90.9314 174.833 89.242C174.032 87.5526 173.629 85.6058 173.629 83.3944C173.629 81.2193 174.032 79.2799 174.833 77.5722C175.639 75.8684 176.755 74.44 178.183 73.2873C179.61 72.1343 181.324 71.2571 183.326 70.6552C185.328 70.0535 187.541 69.7526 189.973 69.7526Z" fill="#080909"/>
<path d="M239.277 60.9829C242.78 60.9829 246.094 61.4869 249.214 62.4946C252.33 63.5026 254.991 64.8657 257.183 66.5875L254.294 69.5096C252.102 67.7876 249.799 66.5476 247.392 65.7826C244.985 65.0215 242.475 64.6371 239.853 64.6371C237.889 64.6371 236.08 64.9235 234.425 65.489C232.77 66.0583 231.335 66.9282 230.123 68.0956C228.911 69.2666 227.965 70.7531 227.291 72.5547C226.616 74.3565 226.281 76.51 226.281 79.0115C226.281 81.5782 226.629 83.7786 227.321 85.613C228.013 87.4474 228.975 88.9592 230.209 90.1446C231.443 91.3302 232.934 92.2074 234.687 92.7767C236.436 93.3421 238.353 93.6286 240.434 93.6286C242.166 93.6286 243.657 93.4979 244.908 93.237C246.158 92.9796 247.211 92.6715 248.058 92.3125C249.06 91.9212 249.885 91.4678 250.542 90.9494V81.6906H243.034V78.5257H258.915V91.9212C257.492 92.8962 255.837 93.7592 253.95 94.5059C252.33 95.1547 250.34 95.7384 247.972 96.2606C245.604 96.779 242.896 97.04 239.853 97.04C236.389 97.04 233.269 96.6484 230.497 95.869C227.725 95.0896 225.357 93.9366 223.392 92.4105C221.428 90.8841 219.928 88.999 218.888 86.7586C217.848 84.5184 217.328 81.9333 217.328 79.0115C217.328 76.0893 217.848 73.5046 218.888 71.2641C219.928 69.0239 221.398 67.1385 223.307 65.6124C225.21 64.086 227.523 62.9333 230.239 62.1539C232.951 61.3745 235.964 60.9829 239.277 60.9829Z" fill="#080909"/>
<path d="M285.597 74.1391H278.669C276.047 74.1391 274.045 74.7337 272.661 75.9191C271.273 77.1047 270.581 78.8664 270.581 81.2048V96.0649H262.496V81.2048C262.496 77.8913 263.738 75.3174 266.218 73.4829C268.702 71.6449 272.274 70.7277 276.933 70.7277H285.597V74.1391Z" fill="#080909"/>
<path d="M300.733 72.9211C299.616 72.9211 298.576 73.0988 297.617 73.4577C296.65 73.8165 295.817 74.3822 295.103 75.1615C294.39 75.9409 293.814 76.9487 293.371 78.1814C292.928 79.4177 292.688 80.9112 292.649 82.6659H308.822C308.822 80.9765 308.59 79.5154 308.126 78.2794C307.666 77.0466 307.06 76.0317 306.308 75.2341C305.556 74.44 304.692 73.8566 303.707 73.4829C302.727 73.1096 301.735 72.9211 300.733 72.9211ZM302.758 93.6288C304.644 93.6288 306.402 93.3532 308.04 92.7985C309.677 92.2475 311.285 91.4681 312.866 90.4603L315.174 93.3858C314.444 93.9369 313.588 94.4409 312.604 94.8939C311.624 95.3506 310.563 95.7314 309.428 96.0395C308.293 96.3478 307.107 96.5906 305.874 96.7718C304.644 96.9495 303.411 97.04 302.177 97.04C299.444 97.04 296.951 96.7392 294.699 96.1375C292.447 95.5355 290.53 94.6584 288.953 93.5054C287.371 92.3526 286.15 90.9314 285.282 89.2423C284.419 87.5529 283.984 85.606 283.984 83.3946C283.984 81.2195 284.397 79.2799 285.226 77.5722C286.052 75.8684 287.208 74.44 288.691 73.2873C290.173 72.1345 291.936 71.2571 293.977 70.6552C296.019 70.0535 298.271 69.7526 300.733 69.7526C303.046 69.7526 305.22 70.0463 307.262 70.63C309.303 71.2173 311.074 72.0692 312.574 73.1893C314.078 74.3096 315.269 75.6655 316.158 77.257C317.044 78.8484 317.487 80.6502 317.487 82.6659V86.0771H292.821C293.285 88.7709 294.39 90.7031 296.143 91.8741C297.892 93.0415 300.097 93.6288 302.758 93.6288Z" fill="#080909"/>
<path d="M336.37 72.9211C335.253 72.9211 334.212 73.0988 333.254 73.4577C332.287 73.8165 331.453 74.3822 330.74 75.1615C330.026 75.9409 329.45 76.9487 329.008 78.1814C328.565 79.4177 328.324 80.9112 328.286 82.6659H344.459C344.459 80.9765 344.227 79.5154 343.762 78.2794C343.303 77.0466 342.697 76.0317 341.944 75.2341C341.192 74.44 340.328 73.8566 339.344 73.4829C338.364 73.1096 337.371 72.9211 336.37 72.9211ZM338.394 93.6288C340.281 93.6288 342.039 93.3532 343.677 92.7985C345.314 92.2475 346.921 91.4681 348.503 90.4603L350.811 93.3858C350.08 93.9369 349.225 94.4409 348.241 94.8939C347.261 95.3506 346.199 95.7314 345.065 96.0395C343.93 96.3478 342.744 96.5906 341.51 96.7718C340.281 96.9495 339.048 97.04 337.814 97.04C335.081 97.04 332.588 96.7392 330.336 96.1375C328.084 95.5355 326.167 94.6584 324.589 93.5054C323.008 92.3526 321.787 90.9314 320.919 89.2423C320.055 87.5529 319.621 85.606 319.621 83.3946C319.621 81.2195 320.034 79.2799 320.863 77.5722C321.688 75.8684 322.845 74.44 324.327 73.2873C325.81 72.1345 327.572 71.2571 329.614 70.6552C331.655 70.0535 333.907 69.7526 336.37 69.7526C338.682 69.7526 340.857 70.0463 342.899 70.63C344.94 71.2173 346.711 72.0692 348.211 73.1893C349.715 74.3096 350.906 75.6655 351.795 77.257C352.681 78.8484 353.123 80.6502 353.123 82.6659V86.0771H328.458C328.922 88.7709 330.026 90.7031 331.78 91.8741C333.529 93.0415 335.734 93.6288 338.394 93.6288Z" fill="#080909"/>
<path d="M388.469 96.0649H380.38V80.7155C380.38 78.3771 379.689 76.6987 378.301 75.6727C376.916 74.6503 374.914 74.1391 372.292 74.1391H364.783V96.0649H356.699V70.7279H372.292C377.802 70.7279 381.872 71.5652 384.511 73.2366C387.146 74.9113 388.469 77.402 388.469 80.7155V96.0649Z" fill="#080909"/>
<path d="M279.093 107.891C278.949 107.151 278.63 106.6 278.136 106.238C277.641 105.872 277.031 105.69 276.305 105.69C275.954 105.69 275.627 105.737 275.325 105.824C275.021 105.915 274.746 106.049 274.503 106.23C274.26 106.412 274.057 106.644 273.889 106.919C273.722 107.198 273.602 107.521 273.53 107.891H279.093ZM276.497 112.644C275.771 112.644 275.109 112.553 274.519 112.372C273.921 112.187 273.415 111.926 272.992 111.585C272.569 111.241 272.242 110.824 272.011 110.327C271.78 109.83 271.664 109.268 271.664 108.641C271.664 108.01 271.776 107.449 272.007 106.952C272.23 106.455 272.549 106.038 272.956 105.694C273.363 105.353 273.849 105.092 274.424 104.911C274.99 104.73 275.62 104.635 276.305 104.635C277.007 104.635 277.641 104.726 278.211 104.904C278.781 105.085 279.272 105.346 279.679 105.687C280.085 106.027 280.396 106.448 280.62 106.945C280.835 107.441 280.947 108.007 280.947 108.641V108.964H273.494C273.534 109.413 273.638 109.801 273.805 110.128C273.973 110.454 274.188 110.726 274.455 110.936C274.722 111.15 275.03 111.31 275.38 111.415C275.723 111.52 276.098 111.571 276.497 111.571C276.8 111.571 277.095 111.538 277.382 111.476C277.669 111.415 277.924 111.328 278.156 111.208C278.379 111.092 278.566 110.947 278.71 110.769C278.853 110.595 278.933 110.396 278.949 110.175H280.767C280.695 110.57 280.536 110.921 280.293 111.23C280.05 111.538 279.739 111.795 279.36 112.006C278.981 112.216 278.55 112.372 278.064 112.481C277.578 112.589 277.055 112.644 276.497 112.644Z" fill="#2E8942"/>
<path d="M288.669 112.644C287.967 112.644 287.329 112.553 286.763 112.375C286.189 112.198 285.702 111.937 285.295 111.6C284.889 111.259 284.574 110.842 284.354 110.345C284.135 109.848 284.027 109.279 284.027 108.641C284.027 108 284.139 107.43 284.362 106.934C284.586 106.437 284.901 106.02 285.307 105.676C285.714 105.335 286.201 105.077 286.771 104.9C287.341 104.726 287.975 104.635 288.669 104.635C289.203 104.635 289.702 104.69 290.164 104.798C290.626 104.907 291.029 105.063 291.38 105.27C291.723 105.476 292.01 105.734 292.233 106.042C292.457 106.35 292.6 106.702 292.664 107.097H290.846C290.83 106.868 290.762 106.666 290.642 106.491C290.523 106.314 290.363 106.169 290.168 106.053C289.972 105.933 289.745 105.846 289.49 105.785C289.227 105.723 288.956 105.69 288.669 105.69C288.254 105.69 287.871 105.752 287.528 105.875C287.177 105.998 286.882 106.183 286.627 106.426C286.38 106.669 286.18 106.977 286.045 107.347C285.902 107.717 285.834 108.148 285.834 108.641C285.834 109.12 285.902 109.544 286.037 109.91C286.173 110.276 286.364 110.584 286.619 110.831C286.867 111.077 287.169 111.262 287.512 111.386C287.863 111.509 288.246 111.571 288.669 111.571C288.956 111.571 289.227 111.541 289.49 111.483C289.745 111.425 289.972 111.335 290.168 111.219C290.363 111.103 290.523 110.954 290.642 110.78C290.762 110.603 290.83 110.403 290.846 110.175H292.664C292.6 110.574 292.457 110.929 292.233 111.233C292.01 111.538 291.723 111.795 291.38 112.006C291.029 112.216 290.626 112.372 290.164 112.481C289.702 112.589 289.203 112.644 288.669 112.644Z" fill="#2E8942"/>
<path d="M299.962 111.571C300.376 111.571 300.759 111.509 301.102 111.386C301.453 111.262 301.748 111.078 302.003 110.831C302.25 110.584 302.446 110.276 302.581 109.91C302.717 109.544 302.785 109.12 302.785 108.641C302.785 108.148 302.713 107.717 302.577 107.347C302.434 106.977 302.242 106.669 301.987 106.426C301.74 106.183 301.441 105.999 301.098 105.875C300.755 105.752 300.376 105.69 299.962 105.69C299.547 105.69 299.164 105.752 298.821 105.875C298.47 105.999 298.175 106.183 297.92 106.426C297.673 106.669 297.474 106.977 297.338 107.347C297.195 107.717 297.127 108.148 297.127 108.641C297.127 109.12 297.195 109.544 297.33 109.91C297.465 110.276 297.657 110.584 297.912 110.831C298.159 111.078 298.462 111.262 298.805 111.386C299.156 111.509 299.539 111.571 299.962 111.571ZM299.962 104.635C300.663 104.635 301.297 104.726 301.868 104.904C302.438 105.085 302.928 105.346 303.335 105.687C303.742 106.028 304.053 106.448 304.276 106.945C304.491 107.441 304.603 108.007 304.603 108.641C304.603 109.269 304.491 109.83 304.276 110.327C304.053 110.824 303.742 111.241 303.335 111.585C302.928 111.926 302.438 112.187 301.868 112.372C301.297 112.553 300.663 112.644 299.962 112.644C299.26 112.644 298.622 112.553 298.056 112.375C297.482 112.198 296.995 111.937 296.588 111.6C296.182 111.259 295.867 110.842 295.647 110.345C295.428 109.848 295.32 109.279 295.32 108.641C295.32 108 295.432 107.431 295.655 106.934C295.879 106.437 296.194 106.02 296.6 105.676C297.007 105.335 297.493 105.078 298.064 104.9C298.634 104.726 299.268 104.635 299.962 104.635Z" fill="#2E8942"/>
<path d="M321.243 112.644C318.531 112.644 317.116 111.821 316.996 110.175H318.767C318.767 111.106 319.584 111.571 321.219 111.571C321.952 111.571 322.511 111.455 322.893 111.219C323.276 110.983 323.468 110.693 323.468 110.341C323.468 110.168 323.428 110.026 323.356 109.914C323.276 109.805 323.133 109.703 322.925 109.617C322.71 109.526 322.419 109.439 322.044 109.356C321.669 109.272 321.183 109.174 320.585 109.065C319.412 108.83 318.563 108.58 318.037 108.308C317.503 108.025 317.235 107.532 317.235 106.836C317.235 106.517 317.323 106.223 317.499 105.955C317.674 105.687 317.925 105.455 318.244 105.262C318.571 105.067 318.958 104.914 319.412 104.802C319.867 104.693 320.369 104.635 320.92 104.635C323.503 104.635 324.827 105.35 324.891 106.77H323.133C323.069 106.053 322.371 105.69 321.039 105.69C320.752 105.69 320.485 105.712 320.238 105.756C319.991 105.799 319.771 105.861 319.584 105.944C319.396 106.027 319.249 106.136 319.145 106.263C319.034 106.394 318.982 106.542 318.982 106.709C318.982 107.017 319.133 107.235 319.436 107.365C319.739 107.492 320.485 107.67 321.673 107.891C322.279 108.003 322.806 108.123 323.244 108.257C323.691 108.387 324.054 108.529 324.341 108.677C324.636 108.819 324.855 109.018 324.999 109.279C325.142 109.537 325.214 109.848 325.214 110.211C325.214 110.555 325.118 110.878 324.935 111.179C324.744 111.476 324.48 111.734 324.129 111.947C323.787 112.165 323.368 112.335 322.881 112.459C322.395 112.582 321.849 112.644 321.243 112.644Z" fill="#2E8942"/>
<path d="M329.56 114.308C330.437 114.308 331.151 113.691 331.701 112.459L327.957 104.802H329.859L332.479 110.795L335.11 104.802H337.012L333.268 112.459C333.085 112.828 332.913 113.151 332.762 113.434C332.602 113.713 332.467 113.952 332.347 114.148C332.22 114.347 332.072 114.529 331.909 114.699C331.745 114.869 331.566 115.018 331.358 115.145C331.159 115.268 330.928 115.37 330.681 115.442C330.425 115.518 330.154 115.555 329.859 115.555C329.644 115.555 329.44 115.547 329.249 115.533C329.058 115.515 328.882 115.489 328.723 115.453V114.206C329.01 114.271 329.289 114.308 329.56 114.308Z" fill="#2E8942"/>
<path d="M343.832 112.644C341.121 112.644 339.706 111.821 339.586 110.175H341.356C341.356 111.106 342.174 111.571 343.808 111.571C344.542 111.571 345.1 111.455 345.483 111.219C345.866 110.983 346.057 110.693 346.057 110.341C346.057 110.168 346.018 110.026 345.946 109.914C345.866 109.805 345.723 109.703 345.515 109.617C345.3 109.526 345.009 109.439 344.634 109.356C344.259 109.272 343.773 109.174 343.175 109.065C342.002 108.83 341.153 108.58 340.627 108.308C340.092 108.025 339.825 107.532 339.825 106.836C339.825 106.517 339.913 106.223 340.088 105.955C340.264 105.687 340.515 105.455 340.834 105.262C341.161 105.067 341.548 104.914 342.002 104.802C342.457 104.693 342.959 104.635 343.509 104.635C346.093 104.635 347.417 105.35 347.481 106.77H345.723C345.659 106.053 344.961 105.69 343.629 105.69C343.342 105.69 343.075 105.712 342.828 105.756C342.58 105.799 342.361 105.861 342.174 105.944C341.986 106.027 341.839 106.136 341.735 106.263C341.623 106.394 341.572 106.542 341.572 106.709C341.572 107.017 341.723 107.235 342.026 107.365C342.329 107.492 343.075 107.67 344.263 107.891C344.869 108.003 345.395 108.123 345.834 108.257C346.281 108.387 346.643 108.529 346.93 108.677C347.226 108.819 347.445 109.018 347.589 109.279C347.732 109.537 347.804 109.848 347.804 110.211C347.804 110.555 347.708 110.878 347.525 111.179C347.333 111.476 347.07 111.734 346.719 111.947C346.376 112.165 345.958 112.335 345.471 112.459C344.985 112.582 344.439 112.644 343.832 112.644Z" fill="#2E8942"/>
<path d="M355.446 112.476C355.063 112.531 354.64 112.56 354.178 112.56C353.603 112.56 353.161 112.502 352.85 112.382C352.539 112.266 352.308 112.103 352.156 111.896C352.005 111.693 351.913 111.447 351.889 111.157C351.857 110.87 351.845 110.555 351.845 110.21V105.875H350.625V104.801H351.845V102.909H353.603V104.801H355.206V105.875H353.603V110.283C353.603 110.555 353.623 110.772 353.667 110.932C353.711 111.091 353.779 111.215 353.859 111.298C353.946 111.381 354.046 111.436 354.166 111.457C354.285 111.483 354.417 111.497 354.56 111.497C354.864 111.497 355.159 111.476 355.446 111.439V112.476Z" fill="#2E8942"/>
<path d="M365.452 107.891C365.309 107.151 364.99 106.6 364.495 106.238C364.001 105.872 363.39 105.69 362.665 105.69C362.314 105.69 361.987 105.737 361.684 105.824C361.381 105.915 361.106 106.049 360.863 106.23C360.619 106.412 360.416 106.644 360.248 106.919C360.081 107.198 359.961 107.521 359.89 107.891H365.452ZM362.856 112.644C362.131 112.644 361.469 112.553 360.878 112.372C360.28 112.187 359.774 111.926 359.351 111.585C358.929 111.241 358.602 110.824 358.37 110.327C358.139 109.83 358.023 109.268 358.023 108.641C358.023 108.01 358.135 107.449 358.366 106.952C358.59 106.455 358.909 106.038 359.315 105.694C359.722 105.353 360.209 105.092 360.783 104.911C361.349 104.73 361.979 104.635 362.665 104.635C363.367 104.635 364.001 104.726 364.571 104.904C365.141 105.085 365.631 105.346 366.038 105.687C366.445 106.027 366.756 106.448 366.979 106.945C367.194 107.441 367.306 108.007 367.306 108.641V108.964H359.854C359.894 109.413 359.997 109.801 360.165 110.128C360.332 110.454 360.548 110.726 360.815 110.936C361.082 111.15 361.389 111.31 361.74 111.415C362.083 111.52 362.457 111.571 362.856 111.571C363.159 111.571 363.454 111.538 363.741 111.476C364.029 111.415 364.284 111.328 364.515 111.208C364.738 111.092 364.926 110.947 365.069 110.769C365.213 110.595 365.292 110.396 365.309 110.175H367.127C367.055 110.57 366.895 110.921 366.652 111.23C366.409 111.538 366.098 111.795 365.719 112.006C365.34 112.216 364.91 112.372 364.423 112.481C363.937 112.589 363.415 112.644 362.856 112.644Z" fill="#2E8942"/>
<path d="M384.393 112.458H382.635V107.51C382.635 106.875 382.515 106.426 382.284 106.158C382.045 105.889 381.65 105.755 381.092 105.755C380.239 105.755 379.401 106.161 378.58 106.977V112.458H376.821V107.51C376.821 106.875 376.702 106.426 376.47 106.158C376.231 105.889 375.837 105.755 375.278 105.755C374.425 105.755 373.592 106.161 372.778 106.977V112.458H371.008V104.802H372.778V105.784C373.6 105.019 374.521 104.635 375.541 104.635C376.993 104.635 377.918 105.096 378.317 106.013C378.652 105.719 378.959 105.476 379.238 105.284C379.517 105.092 379.772 104.958 380.003 104.878C380.466 104.719 380.916 104.635 381.355 104.635C383.381 104.635 384.393 105.578 384.393 107.456V112.458Z" fill="#2E8942"/>
<path d="M388.296 130.078C387.234 135.795 381.028 139.693 374.495 139.693H234.896C234.774 139.841 234.61 139.952 234.447 140.138L232.365 142.7C230.283 145.15 227.098 146.598 223.586 146.598H216.278C215.747 147.192 214.931 147.563 213.951 147.563H213.665C212.032 147.563 210.766 146.338 210.766 144.964V143.331H201.293V141.735H210.766V133.642H201.293V131.971H210.766V130.895C210.766 129.558 212.032 128.37 213.665 128.37H213.951C214.931 128.37 215.665 128.705 216.278 129.224H222.688C225.992 129.224 229.131 130.534 231.285 132.811L234.528 136.24L234.774 136.463H375.23C380.538 136.463 384.784 132.751 384.784 128.11C384.784 123.507 380.538 119.795 375.23 119.795H11.7595C5.30814 119.795 0 115.155 0 109.549C0 103.906 5.30814 99.3032 11.7595 99.3032L206.07 99.4888C208.316 99.4888 210.072 97.9296 210.072 95.9621V61.3206C210.072 59.9695 209.643 58.6384 208.812 57.5175C207.44 55.6649 206.015 53.8489 204.519 52.1199C201.661 48.6674 198.476 45.5119 195.087 42.505C191.779 39.4611 188.064 36.788 184.226 34.2637C180.347 31.8134 176.306 29.475 171.937 27.5817C176.713 28.4725 181.287 30.2171 185.492 32.4446C189.738 34.7091 193.698 37.382 197.21 40.5003C200.681 43.6558 203.948 47.0339 206.479 50.8576C208.112 53.1224 209.459 55.498 210.603 57.9853H213.665C214.604 56.389 215.747 54.904 216.972 53.4933C219.667 50.338 222.893 47.6279 226.281 45.2151C233.1 40.3891 240.653 36.4537 248.779 33.8925C241.796 38.4214 234.733 42.6536 228.16 47.4051C224.852 49.7068 221.667 52.1941 218.769 54.904C217.987 55.6476 217.214 56.4056 216.467 57.185C214.74 58.9858 213.828 61.3175 213.828 63.7063V96.4817C213.828 99.9342 210.603 102.718 206.642 102.718L11.7595 102.533C7.30887 102.533 3.71621 105.651 3.71621 109.549C3.71621 113.41 7.30887 116.528 11.7595 116.528H375.23C383.274 116.528 389.683 122.839 388.296 130.078Z" fill="#2E8942"/>
<path d="M391.69 61.3451H388.734V59.4444H397.194V61.3451H394.189V69.4526H391.69V61.3451Z" fill="#121212"/>
<path d="M407.757 65.6217C407.708 64.419 407.659 62.9639 407.659 61.5086H407.61C407.267 62.7855 406.81 64.2111 406.385 65.3842L405.046 69.2894H403.102L401.927 65.4138C401.568 64.2408 401.192 62.8153 400.931 61.5086H400.898C400.832 62.86 400.784 64.4041 400.702 65.6515L400.506 69.4526H398.203L398.905 59.4447H402.221L403.299 62.7855C403.641 63.9438 403.985 65.1912 404.23 66.3641H404.278C404.589 65.2061 404.964 63.8845 405.324 62.7706L406.5 59.4447H409.75L410.354 69.4526H407.92L407.757 65.6217Z" fill="#121212"/>
</svg>
