<svg width="54" height="18" viewBox="0 0 54 18" fill="none" xmlns="http://www.w3.org/2000/svg">
<g clip-path="url(#clip0_2001_4763)">
<path d="M49.9995 17.4775L49.4932 14.9463H43.8368L42.9368 17.4595L38.403 17.4685C41.3175 10.465 43.4805 5.27728 44.892 1.90528C45.261 1.02328 45.9158 0.573282 46.881 0.580032C47.619 0.586032 48.8235 0.586781 50.4945 0.582281L54 17.4708L49.9995 17.4775ZM45.108 11.479H48.7553L47.394 5.13403L45.108 11.479ZM15.8895 0.577781L20.448 0.582281L13.401 17.4798L8.78625 17.4753C7.62581 13.012 6.47981 8.54497 5.34825 4.07428C5.12325 3.18328 4.67775 2.56003 3.8205 2.26528C3.054 2.00278 1.7805 1.59703 0 1.04803V0.582281H7.28325C8.54325 0.582281 9.279 1.19203 9.51525 2.44303C9.75375 3.69703 10.3537 6.88753 11.3152 12.0145L15.8895 0.577781ZM26.712 0.582281L23.1097 17.4775L18.7695 17.4708L22.365 0.577781L26.712 0.582281ZM35.5095 0.269531C36.8078 0.269531 38.4435 0.674531 39.384 1.04803L38.6235 4.54903C37.773 4.20703 36.3735 3.74578 35.1968 3.76153C33.4867 3.79078 32.4292 4.50853 32.4292 5.19703C32.4292 6.31753 34.2653 6.88228 36.1553 8.10628C38.3107 9.50128 38.5965 10.7545 38.5695 12.118C38.5402 14.9418 36.1553 17.7295 31.1243 17.7295C28.8293 17.6958 28.0012 17.5045 26.1292 16.8385L26.9212 13.1845C28.827 13.981 29.6348 14.2353 31.2638 14.2353C32.7555 14.2353 34.0358 13.6323 34.047 12.5815C34.056 11.8345 33.597 11.4633 31.923 10.5408C30.249 9.61828 27.9 8.33803 27.9315 5.76628C27.9697 2.47678 31.086 0.269531 35.5095 0.269531Z" fill="#9C9A9A"/>
</g>
<defs>
<clipPath id="clip0_2001_4763">
<rect width="54" height="18" fill="white"/>
</clipPath>
</defs>
</svg>
