<svg width="20" height="20" fill="none" xmlns="http://www.w3.org/2000/svg"><g clip-path="url(#clip0_749_16605)"><path d="M1.967 5.317a.692.692 0 10-1.382.074l1.382-.074zm.892-3.539a.692.692 0 001.004.954l-1.004-.954zm5.49 15.435a.692.692 0 10.736-1.173l-.736 1.173zm4.107.227a.693.693 0 10-.284 1.356l.284-1.356zm.491-4.167l.42-.443-1.004-.954-.42.443 1.004.954zm1.804-.63l1.763 1.016.692-1.2-1.764-1.016-.691 1.2zm2.104 3.12l-1.312 1.38 1.005.955 1.31-1.38-1.003-.954zM6.221 13.657C2.642 9.89 2.042 6.711 1.967 5.316l-1.382.075C.677 7.1 1.4 10.592 5.217 14.61l1.004-.954zM7.49 7.53l.264-.278-1.003-.954-.265.279 1.004.953zm.473-3.75L6.799 2.135l-1.13.8L6.832 4.58l1.132-.8zm-.976 3.273c-.166-.16-.334-.318-.503-.475l-.002.002-.003.002-.046.054c-.09.12-.162.253-.212.394a2.09 2.09 0 00-.078 1.009c.12.823.66 1.93 2.07 3.415l1.004-.954C7.9 9.112 7.575 8.258 7.514 7.837c-.03-.203 0-.31.012-.344l.007-.017-.025.034-.017.02-.503-.478zm1.226 4.4c1.406 1.481 2.468 2.063 3.277 2.195.417.067.754.013 1.008-.088.142-.055.274-.133.39-.23l.032-.032.013-.013.007-.006.002-.002.001-.002s.002-.001-.5-.478-.501-.477-.501-.478l.002-.001.001-.003.006-.005.043-.038c.009-.006.007-.005-.004 0-.019.008-.102.037-.277.009-.371-.061-1.173-.388-2.496-1.781l-1.004.954zM6.799 2.135C5.864.81 3.992.586 2.86 1.778l1.004.954c.483-.508 1.333-.468 1.806.201l1.13-.8zm8.744 15.01c-.257.271-.526.417-.788.443l.135 1.377c.69-.067 1.249-.435 1.658-.866l-1.005-.954zM7.755 7.25c.894-.941.956-2.412.209-3.471l-1.131.8c.39.55.33 1.285-.082 1.717l1.004.954zm8.76 6.408c.757.436.906 1.51.34 2.104l1.003.954c1.205-1.268.854-3.39-.652-4.258l-.692 1.2zm-3.148-.83c.356-.374.91-.458 1.384-.186l.69-1.2a2.497 2.497 0 00-3.078.433l1.004.954zM9.085 16.04c-.907-.57-1.874-1.342-2.864-2.384l-1.004.954c1.066 1.121 2.12 1.968 3.132 2.603l.736-1.173zm5.669 1.547a7.664 7.664 0 01-2.298-.147l-.284 1.356c.893.193 1.81.25 2.718.168l-.136-1.377z" fill="#121212"/><path d="M12.444 12.796l.503.477m-.503-.477c.502.477.5.478.5.478v.002l-.003.002-.007.006-.013.013-.032.031a1.386 1.386 0 01-.39.231c-.254.1-.591.155-1.008.088-.81-.132-1.871-.714-3.277-2.194l1.004-.954m3.226 2.297c-.502-.477-.501-.477-.501-.478l.002-.001.001-.003.006-.005.043-.038c.009-.006.007-.005-.004 0-.019.008-.102.037-.277.009-.371-.061-1.173-.388-2.496-1.781m3.73 2.774l.42-.443m-.42.443l-1.005-.954.42-.443m.502.477l-.502-.477m0 0l1.004.954m-1.004-.954a2.497 2.497 0 013.079-.433m-.346.6l-.345.6m0 0l1.763 1.016m-1.763-1.016l.69-1.2m-.69 1.2a1.112 1.112 0 00-1.384.187m3.493.229l-.346.6m0 0l.692-1.2m-.692 1.2c.758.436.907 1.51.341 2.104m.502.477l.502.477m0 0l-1.311 1.381m1.31-1.38l-1.003-.954m1.003.953c1.205-1.268.854-3.39-.652-4.258m-1.16 5.162l-.503-.477m0 0l1.312-1.38m-1.312 1.38l1.005.954m-1.005-.954c-.257.271-.526.417-.788.443l.135 1.377m-.068-.688l.068.688m0 0c.69-.067 1.249-.435 1.658-.866m-1.658.866a9.046 9.046 0 01-2.718-.168m2.718.168l-.136-1.377a7.665 7.665 0 01-2.298-.147m-6.737-3.308l.502-.476m0 0C2.642 9.89 2.042 6.711 1.967 5.316m4.254 8.34l-1.004.954m1.004-.954c.99 1.042 1.957 1.814 2.864 2.384M1.967 5.317a.692.692 0 10-1.382.074m1.382-.074L.585 5.39m0 0c.092 1.71.815 5.202 4.632 9.22M6.99 7.052l.502.477m0 0l.264-.278m-.264.278l-1.004-.953.264-.279m.74 1.232l.017-.019.025-.034-.007.017c-.012.035-.041.14-.012.344.061.42.386 1.275 1.704 2.662m-1.727-2.97l-.503-.477c-.166-.16-.334-.318-.503-.475l-.002.002-.003.002-.046.054c-.09.12-.162.253-.212.394a2.09 2.09 0 00-.078 1.009c.12.823.66 1.93 2.07 3.415l1.004-.954M7.254 6.773l.501.478m0 0l-1.003-.954m1.003.954c.894-.941.956-2.412.209-3.471m-.566.4l.566-.4m0 0L6.799 2.134M7.965 3.78l-1.132.8L5.67 2.933m2.295.847l-1.131.8c.39.55.33 1.285-.082 1.717m-.517-3.763l-.565.4m0 0l1.13-.8m-1.13.8c-.473-.67-1.323-.71-1.806-.202M2.86 1.778a.692.692 0 001.004.954M2.86 1.778l1.004.954M2.86 1.778C3.991.586 5.863.81 6.8 2.134m1.918 8.842l.502-.477m-.87 6.714a.692.692 0 10.736-1.173m-.736 1.173l.736-1.173m-.736 1.173c-1.011-.635-2.066-1.482-3.132-2.603m7.239 2.83a.693.693 0 10-.284 1.356m.284-1.356l-.284 1.356m5.034-6.337l-1.764-1.016" stroke="#121212" stroke-width=".5"/></g><defs><clipPath id="clip0_749_16605"><path fill="#fff" transform="translate(.042)" d="M0 0h19v20H0z"/></clipPath></defs></svg>